<?xml version="1.0" standalone="no"?>
<!DOCTYPE svg PUBLIC "-//W3C//DTD SVG 1.1//EN" "http://www.w3.org/Graphics/SVG/1.1/DTD/svg11.dtd" >
<svg xmlns="http://www.w3.org/2000/svg">
<metadata></metadata>
<defs>
<font id="akzidenz-grotesk_std_bold_cIt" horiz-adv-x="396" >
<font-face units-per-em="1000" ascent="750" descent="-250" />
<missing-glyph horiz-adv-x="229" />
<glyph unicode="&#xfb01;" horiz-adv-x="449" d="M11 0l98 428h-53l19 80h53l22 93q8 32 21 53t30.5 33.5t39 17.5t45.5 5q34 0 63 -7l-22 -96q-8 2 -12.5 2.5t-9.5 0.5q-24 0 -33.5 -16t-15.5 -43l-10 -43h53l-18 -80h-54l-98 -428h-118zM236 0l117 508h120l-117 -508h-120zM371 586l28 120h120l-28 -120h-120z" />
<glyph unicode="&#xfb02;" horiz-adv-x="449" d="M11 0l98 428h-53l19 80h53l22 93q8 32 21 53t30.5 33.5t39 17.5t45.5 5q34 0 63 -7l-22 -96q-8 2 -12.5 2.5t-9.5 0.5q-24 0 -33.5 -16t-15.5 -43l-10 -43h53l-18 -80h-54l-98 -428h-118zM236 0l163 706h120l-163 -706h-120z" />
<glyph horiz-adv-x="1000" />
<glyph horiz-adv-x="1000" />
<glyph unicode="&#xd;" horiz-adv-x="229" />
<glyph unicode=" "  horiz-adv-x="229" />
<glyph unicode="&#x09;" horiz-adv-x="229" />
<glyph unicode="&#xa0;" horiz-adv-x="229" />
<glyph unicode="!" horiz-adv-x="229" d="M14 0l31 132h119l-31 -132h-119zM77 190l30 197l73 319h113l-72 -313l-66 -203h-78z" />
<glyph unicode="&#x22;" horiz-adv-x="306" d="M111 452l27 288h107l-109 -288h-25zM273 452l26 288h108l-109 -288h-25z" />
<glyph unicode="#" horiz-adv-x="583" d="M32 225l21 85h124l33 99h-121l20 85h127l68 212h92l-67 -212h82l67 212h91l-66 -212h115l-21 -85h-121l-32 -99h117l-21 -85h-122l-72 -225h-92l71 225h-82l-71 -225h-94l72 225h-118zM270 310h82l31 99h-82z" />
<glyph unicode="$" horiz-adv-x="417" d="M22 110q0 12 2.5 29.5t7.5 38.5l13 57h111l-16 -66q-4 -14 -5 -22.5t-1 -14.5q0 -20 14 -31t37 -11q32 0 51 22q5 5 9.5 17t9 26t7 28t2.5 23q0 19 -6.5 35.5t-21.5 36.5l-74 98q-18 24 -28.5 41t-16.5 31.5t-7.5 28t-1.5 29.5q0 26 8.5 59.5t29.5 64.5t55.5 52t86.5 21 h13l18 81h51l-18 -81q100 -13 100 -109q0 -12 -2 -26t-5 -27l-14 -60h-112l16 66q3 11 3.5 18t0.5 13q0 36 -44 36q-18 0 -32 -9t-23 -23.5t-13.5 -31t-4.5 -31.5q0 -26 17 -49l97 -131q22 -29 32.5 -58.5t10.5 -63.5q0 -35 -9.5 -74t-30.5 -72t-54 -54.5t-80 -21.5h-17 l-21 -94h-51l21 94q-56 6 -85.5 35.5t-29.5 79.5z" />
<glyph unicode="%" horiz-adv-x="708" d="M53 302q0 11 2 23.5t6 28.5l47 205q12 54 40 83t89 29q53 0 82.5 -20.5t29.5 -58.5q0 -12 -1.5 -27.5t-5.5 -30.5l-46 -199q-8 -35 -19.5 -57.5t-27.5 -36t-37 -19t-47 -5.5q-112 0 -112 85zM133 309q0 -29 36 -29q20 0 29.5 10.5t16.5 39.5l50 224q2 8 3 14.5t1 11.5 q0 29 -36 29q-20 0 -29 -10.5t-16 -39.5l-51 -224q-2 -8 -3 -14.5t-1 -11.5zM144 -23l424 739l58 -23l-423 -738zM420 80q0 20 7 52l47 202q6 24 14 44.5t22 36.5t36.5 25t57.5 9q53 0 82.5 -20.5t29.5 -58.5q0 -12 -1.5 -27.5t-5.5 -30.5l-46 -199q-8 -35 -19.5 -57.5 t-27.5 -36t-37 -19t-47 -5.5q-112 0 -112 85zM500 87q0 -30 36 -30q20 0 29 11t16 40l51 223q4 15 4 27q0 29 -36 29q-20 0 -29.5 -10.5t-16.5 -39.5l-50 -224q-2 -8 -3 -14.5t-1 -11.5z" />
<glyph unicode="&#x26;" horiz-adv-x="521" d="M9 158q0 36 11 66t31.5 57.5t50.5 54.5t69 56l17 13q-10 41 -13.5 67t-3.5 55q0 91 43 141t121 50q60 0 95 -31t35 -86q0 -21 -7 -41.5t-21 -43.5q-9 -15 -17.5 -26t-21 -23.5t-31.5 -30t-51 -46.5q17 -70 29.5 -112.5t22.5 -70.5q7 12 12.5 21.5t10.5 21.5t10 28.5 t12 41.5h103q-15 -63 -42.5 -117t-66.5 -95q10 -13 23.5 -18t38.5 -5h7l-20 -85q-20 -4 -30.5 -5t-23.5 -1q-15 0 -26 1t-20 4.5t-18.5 10.5t-21.5 18q-72 -39 -144 -39q-74 0 -118.5 46t-44.5 123zM131 167q0 -35 19.5 -54t55.5 -19q20 0 36 5t35 18q-6 17 -13.5 40.5 t-15.5 49t-15.5 51.5t-13.5 47q-24 -22 -41 -40t-27.5 -33.5t-15 -31t-4.5 -33.5zM285 550q0 -12 1.5 -23t5.5 -31q36 34 52 57.5t16 43.5q0 14 -8 22t-22 8q-20 0 -32.5 -20.5t-12.5 -56.5z" />
<glyph unicode="'" horiz-adv-x="144" d="M111 452l27 288h107l-109 -288h-25z" />
<glyph unicode="(" horiz-adv-x="292" d="M24 44q0 37 13 93l91 390q14 57 34.5 96.5t53 67.5t78 47t109.5 37l-21 -93l-14 -6q-28 -12 -48 -25.5t-34.5 -34t-25.5 -49.5t-21 -72l-89 -385q-5 -20 -6 -35t-1 -31q0 -10 1 -22t7 -27.5t18 -36.5t34 -51l-20 -88q-45 31 -75.5 60t-49 56.5t-26.5 54.5t-8 54z" />
<glyph unicode=")" horiz-adv-x="292" d="M-72 -181l21 93q31 11 53.5 25.5t39 36t28 51.5t21.5 73l89 385q5 18 6.5 32t1.5 28q0 35 -16 72t-45 72l21 88q82 -59 120 -113t38 -112q0 -38 -13 -93l-90 -391q-16 -70 -47 -113.5t-69 -70t-80 -40t-79 -23.5z" />
<glyph unicode="*" horiz-adv-x="378" d="M105 595l43 74l89 -51l25 100l84 -21l-25 -101l105 9l8 -85l-103 -10l38 -91l-78 -35l-42 96l-77 -67l-55 67l74 64z" />
<glyph unicode="+" horiz-adv-x="558" d="M90 247l23 101h141l36 157h115l-36 -157h139l-24 -101h-138l-36 -157h-115l36 157h-141z" />
<glyph unicode="," horiz-adv-x="187" d="M-55 -135l99 135h-58l30 129h117l-30 -129l-114 -135h-44z" />
<glyph unicode="-" horiz-adv-x="314" d="M37 242l23 99h249l-23 -99h-249z" />
<glyph unicode="." horiz-adv-x="187" d="M-14 0l30 129h117l-30 -129h-117z" />
<glyph unicode="/" horiz-adv-x="250" d="M-38 0l293 706h98l-292 -706h-99z" />
<glyph unicode="0" d="M12 105q0 15 2 30.5t7 36.5l80 345q36 156 188 156q72 0 111 -31.5t39 -90.5q0 -17 -1.5 -30.5t-7.5 -38.5l-70 -302q-12 -54 -28.5 -90.5t-39.5 -58.5t-54 -31.5t-73 -9.5q-72 0 -112.5 30.5t-40.5 84.5zM128 116q0 -17 12.5 -27.5t33.5 -10.5q29 0 42.5 16t21.5 54 l82 354q3 13 5 23t2 16q0 44 -49 44q-26 0 -38.5 -15t-22.5 -56l-82 -352q-5 -19 -6 -28.5t-1 -17.5z" />
<glyph unicode="1" d="M106 0l117 507l-10 -6q-16 -9 -41 -18t-58 -14l23 92q25 6 44.5 13.5t37.5 19t37 28.5t43 43h78l-154 -665h-117z" />
<glyph unicode="2" d="M-28 0q11 47 23.5 84.5t30 69t41.5 60t58 56.5q44 38 75 61t52 41t33.5 35t18.5 44l14 59q2 8 3.5 18t1.5 15q0 19 -12.5 30t-34.5 11q-25 0 -39 -14.5t-22 -48.5l-18 -79h-109l19 81q19 81 60 116.5t116 35.5q73 0 114.5 -31.5t41.5 -86.5q0 -11 -1 -22t-4 -22l-17 -71 q-8 -35 -21.5 -60.5t-41.5 -51.5q-7 -6 -16.5 -15t-25.5 -22.5t-39.5 -32.5t-58.5 -47q-22 -18 -36.5 -31t-24 -25t-16.5 -25.5t-13 -31.5h221l-23 -100h-350z" />
<glyph unicode="3" d="M0 101q0 18 8 52l13 56h115l-12 -53q-5 -25 -5 -35q0 -41 47 -41q29 0 41.5 14.5t22.5 55.5l14 57q5 17 6.5 31.5t1.5 24.5q0 29 -16 41t-54 12h-24l18 78h20q19 0 35.5 2.5t30 11t23.5 24.5t16 42l11 47q3 14 3 25q0 39 -44 39q-24 0 -38 -14t-24 -54l-12 -51h-110 l15 64q6 23 13.5 48.5t26 46.5t52 35t90.5 14q73 0 111 -28t38 -82q0 -21 -6 -45l-10 -44q-6 -29 -14.5 -49.5t-22 -34.5t-34 -21.5t-51.5 -10.5q72 -16 72 -84q0 -14 -2 -31.5t-6 -33.5l-15 -68q-9 -40 -22 -68.5t-35 -47t-54 -27t-77 -8.5q-156 0 -156 110z" />
<glyph unicode="4" d="M3 126l21 93l272 449h138l-103 -449h43l-21 -93h-44l-29 -126h-107l29 126h-199zM122 219h102l88 342z" />
<glyph unicode="5" d="M1 96q0 20 5 45l15 66h115l-12 -50q-5 -22 -5 -36q0 -17 9.5 -28t36.5 -11q15 0 26 4t18.5 14t13.5 27.5t12 44.5l26 119q5 21 6.5 29t1.5 15q0 20 -12 30.5t-33 10.5q-52 0 -75 -67h-92l89 356h310l-23 -100h-216l-34 -136q44 36 101 36q51 0 79.5 -25.5t28.5 -70.5 q0 -14 -2 -29.5t-9 -43.5l-38 -160q-9 -37 -22 -64.5t-34 -45.5t-52 -26.5t-76 -8.5q-158 0 -158 105z" />
<glyph unicode="6" d="M15 112q0 19 5 42l86 371q5 19 12.5 44.5t26.5 49t52.5 40t89.5 16.5q154 0 154 -110q0 -21 -5 -41l-8 -34h-110l9 36q2 5 2 10.5v10.5q0 18 -12 28.5t-34 10.5q-17 0 -28 -5t-18.5 -15.5t-12 -25.5t-9.5 -36l-26 -114q44 42 102 42q48 0 75 -26t27 -71q0 -14 -3 -31 t-10 -46l-23 -103q-11 -49 -27.5 -80.5t-39.5 -49.5t-52 -25t-65 -7q-75 0 -116.5 31t-41.5 88zM130 124q0 -41 48 -41q27 0 41.5 15t22.5 53l25 113q3 12 4 18.5t1 12.5q0 40 -46 40q-27 0 -42.5 -15t-23.5 -51l-25 -109q-2 -11 -3.5 -19.5t-1.5 -16.5z" />
<glyph unicode="7" d="M47 0q16 60 42.5 125t61 131t75.5 130.5t86 122.5l45 58h-155l-18 -78h-97l40 176h359l-23 -99q-18 -21 -40 -51t-45 -64.5t-45 -71t-41 -71.5q-23 -42 -42.5 -85t-36.5 -88q-7 -17 -12 -31.5t-9.5 -29.5t-9 -32.5t-10.5 -41.5h-125z" />
<glyph unicode="8" d="M11 103q0 12 2 25.5t6 30.5l18 83q6 30 15 49.5t21 32.5t28.5 21t38.5 13q-47 25 -47 74q0 22 4 39l17 72q16 67 58 99t116 32q71 0 108.5 -28t37.5 -82q0 -19 -5 -44l-12 -56q-5 -25 -12.5 -43.5t-19 -32t-27 -23t-36.5 -16.5q29 -14 42 -31.5t13 -45.5q0 -11 -2 -23.5 t-6 -29.5l-15 -66q-10 -44 -25 -74.5t-37.5 -50t-54 -28.5t-74.5 -9q-75 0 -113.5 28.5t-38.5 83.5zM128 122q0 -18 12.5 -28t34.5 -10q27 0 42.5 14.5t22.5 46.5l22 102q2 8 3 13.5t1 10.5q0 41 -49 41q-26 0 -40.5 -13.5t-21.5 -45.5l-23 -103q-2 -8 -3 -15.5t-1 -12.5z M203 435q0 -40 45 -40q23 0 37 11.5t22 51.5l14 66q3 12 3 21q0 39 -43 39q-26 0 -38.5 -12t-19.5 -41l-16 -69q-3 -12 -3.5 -17t-0.5 -10z" />
<glyph unicode="9" d="M16 103q0 18 5 41l8 38h110l-8 -39q-3 -12 -3 -22q0 -18 12 -28.5t34 -10.5q11 0 21 2.5t18.5 11t16 24.5t13.5 44l25 118q-39 -42 -95 -42q-52 0 -79.5 25t-27.5 73q0 29 11 76l24 98q6 24 11 41t10.5 30t11.5 22.5t14 19.5q45 51 136 51q76 0 117 -31.5t41 -88.5 q0 -19 -5 -41l-92 -396q-15 -66 -60 -96t-116 -30q-153 0 -153 110zM185 377q0 -40 46 -40q23 0 39.5 12.5t26.5 53.5l25 105q5 23 5 36q0 41 -48 41q-26 0 -40 -14.5t-23 -52.5l-26 -110q-2 -9 -3.5 -16t-1.5 -15z" />
<glyph unicode=":" horiz-adv-x="229" d="M29 0l30 129h117l-30 -129h-117zM118 383l29 129h117l-30 -129h-116z" />
<glyph unicode=";" horiz-adv-x="229" d="M-12 -135l99 135h-58l30 129h117l-30 -129l-114 -135h-44zM118 383l29 129h117l-30 -129h-116z" />
<glyph unicode="&#x3c;" horiz-adv-x="559" d="M95 270l25 107l402 195l-29 -125l-277 -129l222 -129l-27 -112z" />
<glyph unicode="=" horiz-adv-x="559" d="M75 163l22 98h390l-22 -98h-390zM119 355l23 98h389l-22 -98h-390z" />
<glyph unicode="&#x3e;" horiz-adv-x="559" d="M90 76l29 124l277 129l-222 129l27 113l316 -194l-25 -107z" />
<glyph unicode="?" horiz-adv-x="417" d="M86 0l30 130h116l-30 -130h-116zM116 466l17 74q8 35 19 67.5t31.5 57t54 39t87.5 14.5q69 0 106.5 -28t37.5 -82q0 -23 -6.5 -55.5t-17.5 -59.5q-5 -14 -9 -23t-10 -17.5t-15 -19.5t-26 -29l-83 -91q-16 -17 -24.5 -28.5t-13.5 -22t-8 -22t-8 -28.5l-6 -22h-113l7 32 q5 24 10 41t12 31.5t18 28.5t27 31l78 81q20 20 29.5 34t16.5 30q3 8 7 23t7.5 30.5t6 29.5t2.5 20q0 35 -40 35q-30 0 -41.5 -22t-20.5 -60l-21 -89h-111z" />
<glyph unicode="@" horiz-adv-x="829" d="M48 215q0 104 37 194.5t100.5 158.5t149.5 107t184 39q65 0 119 -19.5t92 -55t59 -85.5t21 -111q0 -71 -21.5 -138.5t-57 -120t-81.5 -84.5t-94 -32q-36 0 -59 18t-28 50q-59 -68 -128 -68q-60 0 -94.5 41t-34.5 114q0 59 19 113t51 96t73.5 67t86.5 25q31 0 54.5 -11.5 t46.5 -48.5l12 40h90l-41 -159q-20 -79 -28.5 -116.5t-8.5 -51.5q0 -25 19 -25q11 0 26 11.5t32 31.5q19 23 34.5 52t26 60.5t16.5 64.5t6 64q0 97 -56.5 150t-157.5 53q-75 0 -144 -34t-121 -91t-83 -132t-31 -158q0 -66 21.5 -116t59 -84t89 -51t112.5 -17q87 0 171 37 t160 109l42 -62q-21 -19 -37 -32.5t-30 -24t-27.5 -19t-30.5 -18.5q-120 -69 -254 -69q-76 0 -142.5 22.5t-115 66t-76.5 106.5t-28 143zM314 235q0 -37 15.5 -57t43.5 -20q23 0 46.5 17t42.5 44.5t31 62t12 69.5q0 15 -3 30t-10 27t-19.5 19.5t-30.5 7.5q-25 0 -48 -19 t-41 -48t-28.5 -64.5t-10.5 -68.5z" />
<glyph unicode="A" horiz-adv-x="437" d="M-39 0l288 706h149q-1 -27 -2 -72t-2.5 -100t-3.5 -116t-3 -120q-4 -139 -8 -298h-128l8 115h-120l-44 -115h-134zM178 224h90l22 303z" />
<glyph unicode="B" horiz-adv-x="478" d="M0 0l163 706h200q29 0 55.5 -3t47 -14t33 -31.5t12.5 -56.5q0 -24 -6 -50l-10 -45q-7 -33 -15.5 -54.5t-21.5 -36t-30.5 -22.5t-43.5 -13q66 -15 66 -69q0 -12 -2.5 -33.5t-7.5 -41.5l-20 -90q-5 -23 -14.5 -49t-29 -47.5t-52 -35.5t-85.5 -14h-239zM153 102h46 q25 0 41.5 1.5t27.5 8.5t17.5 21.5t12.5 39.5l19 83q2 8 3 17t1 14q0 21 -13.5 29.5t-46.5 8.5h-56zM229 427h35q26 0 43 2.5t28 10t17.5 20t10.5 32.5l9 42q2 7 3.5 16t1.5 16q0 21 -13 30t-42 9h-52z" />
<glyph unicode="C" horiz-adv-x="458" d="M32 112q0 17 3 35.5t8 38.5l81 348q12 51 30.5 86.5t45.5 58t64.5 32.5t88.5 10q82 0 124.5 -28.5t42.5 -84.5q0 -29 -10 -72l-20 -87h-128l16 72q5 19 7 31t2 20q0 23 -12.5 36t-41.5 13q-32 0 -49 -17.5t-27 -59.5l-86 -370q-6 -28 -6 -43q0 -45 54 -45q34 0 51 18.5 t28 68.5l21 92h128l-19 -85q-13 -58 -30.5 -96t-44 -60t-62.5 -30.5t-86 -8.5q-96 0 -134.5 34t-38.5 93z" />
<glyph unicode="D" horiz-adv-x="479" d="M0 0l163 706h197q156 0 156 -124q0 -14 -3.5 -35t-11.5 -56l-75 -324q-10 -42 -25 -73t-39 -52t-58.5 -31.5t-82.5 -10.5h-221zM154 103h46q26 0 42.5 3t27.5 12t18.5 26t13.5 45l76 330q6 27 6 39q0 25 -15.5 35t-56.5 10h-43z" />
<glyph unicode="E" horiz-adv-x="417" d="M0 0l163 706h342l-25 -107h-212l-38 -166h200l-25 -107h-200l-50 -217h222l-25 -109h-352z" />
<glyph unicode="F" d="M0 0l163 706h346l-25 -109h-215l-41 -177h202l-24 -105h-202l-73 -315h-131z" />
<glyph unicode="G" horiz-adv-x="488" d="M24 100q0 35 10 78l82 353q12 53 30 89t45 58.5t64 32.5t88 10q87 0 131.5 -28t44.5 -82q0 -20 -9 -56l-18 -77h-129l15 68q2 8 3 14.5t1 12.5q0 46 -56 46q-17 0 -29 -4.5t-21 -15t-16 -28t-13 -43.5l-81 -352q-4 -17 -5.5 -26t-1.5 -17q0 -22 14.5 -34.5t39.5 -12.5 q32 0 50 18.5t28 62.5l25 110h-80l25 106h210l-89 -383h-111l10 42q-51 -57 -131 -57q-60 0 -93 30t-33 85z" />
<glyph unicode="H" horiz-adv-x="479" d="M0 0l163 706h130l-64 -277h119l64 277h130l-163 -706h-130l74 323h-119l-74 -323h-130z" />
<glyph unicode="I" horiz-adv-x="228" d="M0 0l163 706h129l-163 -706h-129z" />
<glyph unicode="J" d="M-14 101q0 14 2 29t7 37l13 57h121l-14 -60q-5 -20 -6 -28t-1 -15q0 -15 10 -24t29 -9q25 0 37.5 15.5t22.5 57.5l126 545h131l-126 -546q-12 -50 -28 -84t-40 -54.5t-56 -29t-75 -8.5q-75 0 -114 30t-39 87z" />
<glyph unicode="K" horiz-adv-x="458" d="M0 0l163 706h132l-64 -275l197 275h138l-233 -315l78 -391h-137l-62 345l-80 -345h-132z" />
<glyph unicode="L" horiz-adv-x="375" d="M0 0l163 706h130l-138 -599h191l-25 -107h-321z" />
<glyph unicode="M" horiz-adv-x="688" d="M0 0l163 706h212l-31 -494l198 494h209l-163 -706h-130l153 612l-255 -612h-121l24 612l-131 -612h-128z" />
<glyph unicode="N" horiz-adv-x="500" d="M0 0l163 706h167q0 -16 0.5 -47.5t1 -71t1 -84.5t1.5 -89q2 -104 4 -226l106 518h119l-163 -706h-164v48.5v72t-0.5 86.5t-0.5 91q-1 106 -2 231l-111 -529h-122z" />
<glyph unicode="O" horiz-adv-x="479" d="M29 123q0 17 2.5 36t9.5 48l75 322q12 52 28.5 88.5t42 60t61 34t84.5 10.5q88 0 134.5 -35.5t46.5 -101.5q0 -14 -2.5 -31.5t-7.5 -37.5l-79 -344q-9 -39 -22.5 -73t-37.5 -59.5t-61.5 -40t-94.5 -14.5q-179 0 -179 138zM159 136q0 -49 59 -49q21 0 33.5 6.5t20.5 19 t13 29.5t10 38l80 344q5 22 6 30.5t1 18.5q0 24 -15 37t-41 13q-16 0 -28 -3.5t-21 -13.5t-16 -28t-14 -48l-78 -338q-6 -26 -8 -37t-2 -19z" />
<glyph unicode="P" horiz-adv-x="457" d="M0 0l163 706h227q53 0 87.5 -26t34.5 -81q0 -14 -2.5 -32t-5.5 -32l-23 -101q-9 -37 -21 -64t-31.5 -43.5t-48.5 -24.5t-71 -8h-110l-68 -294h-131zM222 395h63q19 0 31 2.5t20 9t13.5 19t9.5 32.5l16 72q5 23 5 33q0 21 -12 30t-41 9h-57z" />
<glyph unicode="Q" horiz-adv-x="479" d="M29 123q0 17 2.5 36t9.5 48l82 350q22 92 74.5 128.5t134.5 36.5q87 0 134 -35.5t47 -101.5q0 -14 -2.5 -31.5t-7.5 -37.5l-74 -323q-11 -50 -20.5 -77.5t-23.5 -50.5l71 -87l-86 -72l-75 92q-13 -4 -22.5 -6.5t-18.5 -4t-19.5 -2t-25.5 -0.5q-180 0 -180 138zM159 136 q0 -49 59 -49q32 0 48 17.5t26 63.5l83 356q5 22 6 30.5t1 18.5q0 24 -15 37t-41 13q-15 0 -26.5 -3.5t-21 -13.5t-17 -28t-14.5 -48l-78 -338q-6 -26 -8 -37t-2 -19z" />
<glyph unicode="R" horiz-adv-x="479" d="M0 0l163 706h223q74 0 103.5 -31t29.5 -81q0 -11 -1 -21.5t-4 -22.5l-16 -69q-7 -29 -16 -50t-23 -35t-33.5 -22t-46.5 -13q38 -11 54.5 -29.5t16.5 -53.5q0 -12 -1.5 -26.5t-6.5 -34.5l-28 -123q-2 -15 -4.5 -27.5t-2.5 -23.5q0 -17 3 -25.5t12 -17.5h-143 q-4 12 -5.5 19t-1.5 18q0 18 6 43l31 131q7 27 8.5 37.5t1.5 18.5q0 23 -14.5 33.5t-48.5 10.5h-54l-72 -311h-130zM225 412h52q25 0 40.5 2.5t25.5 11.5t16.5 25.5t12.5 43.5l12 52q3 11 3 20q0 20 -13 29t-44 9h-60z" />
<glyph unicode="S" horiz-adv-x="448" d="M9 114q0 14 1.5 28t9.5 45l15 62h129l-14 -57q-5 -22 -7.5 -38.5t-2.5 -24.5q0 -20 16 -32t42 -12q17 0 31.5 6.5t21.5 18.5q8 14 14 31t9.5 33.5t5.5 31t2 22.5q0 42 -41 74l-70 56q-32 26 -50.5 55t-18.5 73t13 86.5t37 76.5q50 72 165 72q86 0 130 -29.5t44 -86.5 q0 -20 -6 -46l-13 -60h-130l11 49q4 16 4 32q0 20 -12 31t-38 11q-23 0 -37.5 -13t-22.5 -31t-11 -35.5t-3 -26.5q0 -37 24 -57l82 -69q25 -21 40 -38t23.5 -32.5t11 -32.5t2.5 -38q0 -25 -8 -63t-21 -75q-23 -65 -70.5 -95.5t-126.5 -30.5q-88 0 -134.5 33.5t-46.5 95.5z " />
<glyph unicode="T" d="M81 0l140 604h-130l23 102h392l-23 -102h-131l-140 -604h-131z" />
<glyph unicode="U" horiz-adv-x="476" d="M29 120q0 8 0.5 15.5t2 16.5t4 21t6.5 28l116 505h130l-118 -512q-5 -21 -7 -32.5t-2 -18.5q0 -47 55 -47q29 0 45 18.5t27 67.5l121 524h131l-126 -547q-21 -91 -72.5 -132.5t-143.5 -41.5q-83 0 -126 34.5t-43 100.5z" />
<glyph unicode="V" horiz-adv-x="417" d="M91 0l23 706h134l-39 -467l172 467h137l-296 -706h-131z" />
<glyph unicode="W" horiz-adv-x="708" d="M89 0l34 706h131l-51 -532l198 532h123l-49 -532l197 532h136l-299 -706h-137l43 484l-187 -484h-139z" />
<glyph unicode="X" horiz-adv-x="479" d="M-32 0l240 380l-67 326h138l29 -193l107 193h148l-216 -334l74 -372h-137l-33 239l-134 -239h-149z" />
<glyph unicode="Y" horiz-adv-x="417" d="M91 0l51 218l-29 488h133q-1 -49 -2 -110.5t-2 -116.5q-1 -64 -2 -129l148 356h140l-255 -497l-49 -209h-133z" />
<glyph unicode="Z" horiz-adv-x="417" d="M-30 0l19 82l323 515h-185l26 109h343l-16 -70l-333 -526h217l-25 -110h-369z" />
<glyph unicode="[" horiz-adv-x="333" d="M-8 -170l215 931h240l-20 -89h-122l-174 -752h123l-21 -90h-241z" />
<glyph unicode="\" horiz-adv-x="312" d="M112 706h91l59 -706h-91z" />
<glyph unicode="]" horiz-adv-x="333" d="M-77 -168l21 89h122l173 751h-123l21 90h241l-215 -930h-240z" />
<glyph unicode="^" horiz-adv-x="559" d="M94 359l244 348h109l85 -349h-116l-42 242l-152 -241h-128z" />
<glyph unicode="_" horiz-adv-x="500" d="M-111 -221l21 92h520l-21 -92h-520z" />
<glyph unicode="`" horiz-adv-x="208" d="M-6 706h153l67 -132h-86z" />
<glyph unicode="a" d="M3 83q0 51 14.5 95.5t38.5 68.5q9 9 21.5 17.5t25.5 15.5t24 12t18 8l114 44l6 24q4 16 5 24t1 13q0 32 -38 32q-26 0 -35.5 -17.5t-15.5 -49.5l-3 -15h-109l7 33q15 71 53.5 102t111.5 31q71 0 110 -25t39 -71q0 -14 -3 -33.5t-11 -51.5l-50 -215q-8 -34 -12 -54t-4 -37 q0 -13 2 -19.5t8 -14.5h-125q-4 5 -5 9.5t-1 12.5v9.5t2 13.5q-41 -56 -102 -56q-42 0 -64.5 24t-22.5 70zM122 115q0 -33 28 -33q11 0 22.5 6t31.5 20l32 139q-23 -9 -38 -16t-25 -13t-16 -11.5t-12 -13.5q-10 -14 -16.5 -36.5t-6.5 -41.5z" />
<glyph unicode="b" horiz-adv-x="417" d="M-5 0l162 706h119l-55 -237q44 51 108 51q45 0 69.5 -25t24.5 -71q0 -12 -2 -23t-8 -37l-46 -204q-6 -25 -10.5 -43.5t-9 -32t-10 -24t-11.5 -19.5q-37 -52 -105 -52q-35 0 -58 14t-37 44q-3 -13 -5 -20.5t-4 -15.5t-3 -11h-119zM145 127q0 -40 41 -40q23 0 37.5 17 t23.5 59l43 193q2 11 3.5 18.5t1.5 13.5q0 37 -39 37q-25 0 -39 -15.5t-22 -50.5l-46 -204q-4 -12 -4 -28z" />
<glyph unicode="c" d="M19 104q0 25 9 67l44 194q11 50 30.5 81t44 47.5t52 22t54.5 5.5q75 0 115 -27.5t40 -78.5q0 -12 -2.5 -27t-6.5 -32l-9 -39h-117l11 45q4 17 5 24.5t1 14.5q0 35 -40 35q-8 0 -16.5 -2t-16 -9t-14 -20.5t-12.5 -37.5l-49 -209q-5 -20 -6.5 -29.5t-1.5 -16.5 q0 -16 11.5 -25t31.5 -9q23 0 34.5 13.5t20.5 51.5l14 59h117l-9 -40q-6 -29 -12 -49.5t-12 -35.5t-13 -25.5t-16 -19.5q-21 -22 -53 -33t-73 -11q-156 0 -156 116z" />
<glyph unicode="d" horiz-adv-x="417" d="M13 82q0 14 2.5 32.5t10.5 50.5l53 230q12 54 47 89t90 35q68 0 93 -55l56 242h119l-163 -706h-120l12 47q-41 -57 -104 -57q-46 0 -71 24t-25 68zM138 126q0 -35 38 -35q23 0 38 15t25 57l46 198q4 17 4 27q0 41 -44 41q-22 0 -35 -15t-21 -51l-45 -198q-4 -17 -5 -24 t-1 -15z" />
<glyph unicode="e" d="M20 106q0 16 3.5 38t12.5 62l37 167q7 33 20 59.5t34 46t52.5 30t75.5 10.5q70 0 106.5 -28.5t36.5 -85.5q0 -14 -2.5 -30t-8.5 -41l-24 -104h-203l-22 -101q-2 -10 -2 -16q0 -15 9 -24.5t29 -9.5t31.5 13t18.5 42l8 34h115l-4 -19q-8 -40 -21 -70t-33 -50t-49.5 -30 t-71.5 -10q-148 0 -148 117zM179 311h85l13 61q4 17 4 26q0 33 -36 33q-21 0 -32 -11.5t-18 -39.5z" />
<glyph unicode="f" horiz-adv-x="241" d="M11 0l98 428h-53l19 80h53l22 93q8 32 21 53t30.5 33.5t39 17.5t45.5 5q34 0 63 -7l-22 -96q-8 2 -12.5 2.5t-9.5 0.5q-24 0 -33.5 -16t-15.5 -43l-10 -43h53l-18 -80h-54l-98 -428h-118z" />
<glyph unicode="g" horiz-adv-x="417" d="M-23 -80q0 8 1 16t4 22h118q-4 -15 -4 -20q0 -15 11.5 -24t30.5 -9q26 0 38.5 15.5t22.5 60.5l12 55q-17 -22 -39.5 -32t-55.5 -10q-49 0 -76.5 23.5t-27.5 65.5q0 11 2.5 26t8.5 43l51 222q7 32 18.5 58t28.5 45.5t41.5 30t57.5 10.5q65 0 91 -51l9 41h120l-116 -506 q-10 -44 -22.5 -78.5t-33.5 -58t-54.5 -36t-86.5 -12.5q-74 0 -112 26t-38 77zM137 126q0 -38 41 -38q44 0 59 63l47 206q4 15 4 29q0 42 -42 42q-23 0 -35.5 -14t-20.5 -48l-46 -200q-7 -32 -7 -40z" />
<glyph unicode="h" horiz-adv-x="417" d="M-5 0l162 706h121l-55 -235q43 47 104 47q43 0 67.5 -22t24.5 -60q0 -23 -14 -84l-81 -352h-118l84 364q2 11 3.5 18.5t1.5 13.5q0 37 -36 37q-24 0 -38.5 -16t-22.5 -52l-84 -365h-119z" />
<glyph unicode="i" horiz-adv-x="208" d="M-5 0l117 508h120l-117 -508h-120zM130 586l28 120h120l-28 -120h-120z" />
<glyph unicode="j" horiz-adv-x="208" d="M-99 -174l23 99q20 0 32 4t18.5 11t9 16.5t5.5 20.5l122 531h119l-128 -556q-16 -69 -50.5 -99t-103.5 -30q-14 0 -23.5 0.5t-23.5 2.5zM129 587l28 119h119l-28 -119h-119z" />
<glyph unicode="k" d="M-5 0l163 706h118l-85 -369l131 171h132l-175 -212l83 -296h-129l-60 261l-60 -261h-118z" />
<glyph unicode="l" horiz-adv-x="208" d="M-5 0l163 706h120l-163 -706h-120z" />
<glyph unicode="m" horiz-adv-x="623" d="M-5 0l117 508h121l-10 -37q43 47 103 47q65 0 86 -52q30 28 58 40t62 12q44 0 68.5 -22t24.5 -60q0 -23 -14 -84l-81 -352h-118l84 364q4 19 4 32q0 37 -34 37q-16 0 -26.5 -7.5t-17.5 -18t-10.5 -22.5t-5.5 -21l-84 -364h-118l84 364q5 23 5 32q0 37 -35 37 q-23 0 -37.5 -16t-22.5 -52l-84 -365h-119z" />
<glyph unicode="n" horiz-adv-x="417" d="M-5 0l117 508h121l-10 -37q43 47 104 47q43 0 67.5 -22t24.5 -60q0 -23 -14 -84l-81 -352h-118l84 364q2 11 3.5 18.5t1.5 13.5q0 37 -36 37q-24 0 -38.5 -16t-22.5 -52l-84 -365h-119z" />
<glyph unicode="o" d="M16 103q0 11 1.5 23t6.5 32l50 215q18 76 61.5 112t116.5 36q69 0 107 -29t38 -80q0 -21 -6 -50l-51 -222q-18 -80 -59 -116t-114 -36q-74 0 -112.5 29.5t-38.5 85.5zM133 103q0 -15 9.5 -23.5t26.5 -8.5q21 0 32 12.5t19 46.5l54 237q7 28 7 41q0 33 -35 33 q-13 0 -21 -3.5t-14 -12t-10 -23t-9 -35.5l-54 -233q-3 -12 -4 -18.5t-1 -12.5z" />
<glyph unicode="p" horiz-adv-x="417" d="M-47 -176l158 684h120l-12 -47q41 57 104 57q46 0 71 -23.5t25 -68.5q0 -14 -2.5 -32.5t-10.5 -50.5l-50 -218q-16 -69 -52 -102.5t-88 -33.5q-68 0 -93 55l-51 -220h-119zM143 120q0 -41 43 -41q23 0 36 15t21 51l45 199q4 16 5 23t1 15q0 35 -38 35q-23 0 -38 -15 t-25 -57l-46 -198q-4 -17 -4 -27z" />
<glyph unicode="q" horiz-adv-x="417" d="M12 84q0 12 1.5 23t7.5 37l47 210q7 32 16.5 61.5t25.5 52.5t41 37t62 14q68 0 96 -58l12 47h118l-156 -684h-119l49 215q-44 -51 -107 -51q-45 0 -69.5 25t-24.5 71zM140 120q0 -37 39 -37q22 0 37 12.5t24 53.5l46 204q2 8 3 15.5t1 12.5q0 40 -41 40q-24 0 -38 -17.5 t-23 -58.5l-43 -193q-2 -11 -3.5 -18.5t-1.5 -13.5z" />
<glyph unicode="r" horiz-adv-x="292" d="M-5 0l118 508h119l-16 -65q39 74 124 74h10l-28 -118q-8 4 -17 6t-21 2q-46 0 -68 -28.5t-33 -76.5l-70 -302h-118z" />
<glyph unicode="s" horiz-adv-x="375" d="M8 90q0 8 0.5 14t1.5 13t3 17.5t6 26.5l4 18h110l-6 -24q-4 -14 -5.5 -25.5t-1.5 -19.5q0 -16 10.5 -25.5t28.5 -9.5q26 0 42.5 22.5t16.5 57.5q0 9 -2 16t-7 14.5t-14 16t-23 20.5l-45 38q-53 44 -53 106q0 72 47.5 113t128.5 41q63 0 98.5 -25t35.5 -71q0 -15 -5 -37 l-9 -40h-103l8 36q3 14 3 23q0 33 -38 33q-23 0 -36.5 -17t-13.5 -46q0 -22 22 -40l58 -48q32 -27 46.5 -54.5t14.5 -64.5q0 -87 -47.5 -133t-136.5 -46q-139 0 -139 100z" />
<glyph unicode="t" horiz-adv-x="255" d="M36 83q0 26 7 55l68 291h-53l18 79h52l44 190h118l-44 -190h59l-18 -79h-59l-63 -271q-3 -12 -5 -23.5t-2 -18.5q0 -14 9.5 -22.5t33.5 -8.5q7 0 10.5 0.5t11.5 1.5l-20 -86q-16 -3 -27.5 -4.5t-25.5 -1.5q-59 0 -86.5 21.5t-27.5 66.5z" />
<glyph unicode="u" horiz-adv-x="417" d="M13 72q0 12 3 33.5t10 50.5l82 352h118l-84 -364q-2 -11 -3.5 -18.5t-1.5 -13.5q0 -37 36 -37q23 0 38 16t23 52l84 365h119l-117 -508h-121l9 37q-41 -47 -103 -47q-43 0 -67.5 22t-24.5 60z" />
<glyph unicode="v" horiz-adv-x="354" d="M63 0q0 12 0.5 40t1 65.5t1 82t0.5 89.5q1 105 3 231h117l-29 -352l143 352h121l-242 -508h-116z" />
<glyph unicode="w" horiz-adv-x="562" d="M59 0q0 15 1 45t2 68.5t2.5 82.5t2.5 88q3 103 6 224h116l-26 -336l141 336h94l-24 -336l139 336h116l-235 -508h-112l23 307l-133 -307h-113z" />
<glyph unicode="x" horiz-adv-x="372" d="M-50 0l170 275l-40 233h120l11 -170l79 170h120l-144 -233l51 -275h-125l-17 205l-99 -205h-126z" />
<glyph unicode="y" horiz-adv-x="354" d="M-75 -168l39 93q14 -4 23.5 -5.5t18.5 -1.5q51 0 75 81q-3 128 -6 234q-1 45 -2.5 89.5t-2.5 82.5t-2 65.5t-1 37.5h116q0 -12 -0.5 -32.5t-1.5 -45.5t-1.5 -53t-1.5 -56q-2 -65 -3 -140l124 327h119l-257 -575q-12 -28 -25.5 -49t-31 -34.5t-41 -20t-55.5 -6.5 q-23 0 -42 2t-41 7z" />
<glyph unicode="z" horiz-adv-x="354" d="M-30 0l23 99l244 314h-158l23 95h281l-22 -95l-242 -314h183l-23 -99h-309z" />
<glyph unicode="{" horiz-adv-x="314" d="M16 260l20 88h5q26 0 43.5 3t29 13.5t20 31.5t16.5 57l39 170q8 34 19 60.5t27.5 44.5t40.5 27t58 9h90l-20 -90h-37q-33 0 -47.5 -21.5t-25.5 -70.5l-35 -151q-9 -40 -20 -64t-26.5 -38t-37 -20t-51.5 -9q39 -9 59.5 -32t20.5 -55q0 -25 -9 -64l-28 -121q-4 -17 -6 -28 t-3.5 -18.5t-2 -12.5t-0.5 -11q0 -40 43 -40h33l-20 -89h-73q-49 0 -75 26.5t-26 77.5q0 15 2.5 32t10.5 52l32 136q3 13 5 26t2 21q0 30 -14.5 43.5t-58.5 16.5z" />
<glyph unicode="|" horiz-adv-x="205" d="M-45 -169l215 931h119l-216 -931h-118z" />
<glyph unicode="}" horiz-adv-x="314" d="M-77 -171l20 90h37q33 0 47.5 22t25.5 71l35 152q9 40 21 63.5t28 37t37.5 19.5t49.5 9q-39 8 -59.5 31.5t-20.5 55.5q0 13 1.5 29t6.5 36l28 121q7 29 9.5 42t2.5 22q0 21 -9.5 33t-33.5 12h-33l21 90h72q52 0 77 -29t25 -81q0 -14 -3 -30t-11 -48l-31 -136 q-3 -13 -5.5 -26t-2.5 -21q0 -30 13.5 -44t59.5 -17l-20 -87h-5q-25 0 -42.5 -3t-29.5 -13.5t-20.5 -31.5t-16.5 -57l-38 -170q-7 -34 -18 -60.5t-28 -44.5t-41.5 -27.5t-58.5 -9.5h-90z" />
<glyph unicode="~" horiz-adv-x="559" d="M83 318q39 37 75 53.5t73 16.5q16 0 33 -5.5t34 -15.5l38 -23q16 -10 29 -13.5t24 -3.5q22 0 47.5 11.5t60.5 43.5l31 -100q-40 -38 -79 -52t-69 -14q-18 0 -33.5 4.5t-41.5 20.5l-26 16q-17 11 -31 15.5t-29 4.5q-21 0 -44 -11.5t-60 -44.5z" />
<glyph unicode="&#xa1;" horiz-adv-x="229" d="M-2 0l73 313l65 203h78l-29 -197l-74 -319h-113zM128 574l30 132h119l-30 -132h-119z" />
<glyph unicode="&#xa2;" horiz-adv-x="406" d="M25 104q0 25 9 67l44 194q18 81 57.5 118.5t114.5 37.5h4l18 77h51l-18 -80q109 -19 109 -103q0 -12 -2.5 -27t-6.5 -32l-9 -39h-117l11 45q4 17 5 24.5t1 14.5q0 35 -40 35q-23 0 -36 -14.5t-23 -54.5l-49 -209q-5 -20 -6 -29.5t-1 -16.5q0 -16 11 -25t31 -9 q23 0 34.5 13.5t20.5 51.5l14 59h118l-10 -40q-7 -29 -13 -49.5t-12 -35.5t-12.5 -25.5t-15.5 -19.5q-41 -43 -125 -44l-22 -94h-51l23 98q-56 10 -81.5 37t-25.5 75z" />
<glyph unicode="&#xa3;" horiz-adv-x="479" d="M-24 66q0 41 30 67.5t76 26.5q20 0 37 -5t42 -17q11 15 15.5 28.5t4.5 30.5q0 16 -3.5 34t-11.5 47h-111l14 61h84l-7 35q-3 17 -5.5 39t-2.5 42q0 32 8.5 70.5t22.5 68.5q24 53 68 81t115 28q78 0 115.5 -32.5t37.5 -92.5q0 -11 -2.5 -26t-7.5 -35l-8 -36h-115l10 41 q3 12 4 20t1 16q0 50 -47 50q-38 0 -60.5 -41t-22.5 -112q0 -18 2 -36t5 -35l9 -45h106l-15 -61h-84q1 -8 1 -13v-10q0 -21 -3 -38.5t-10 -34.5t-19 -35.5t-29 -39.5q20 -14 32 -19t25 -5q22 0 35 17t24 58l10 39h101l-13 -54q-10 -41 -18 -62t-22 -39q-42 -54 -106 -54 q-30 0 -59.5 12t-66.5 40l-11 -10q-19 -17 -42 -29t-49 -12q-37 0 -60.5 21t-23.5 56zM39 67q0 -10 6 -16.5t16 -6.5t20 5.5t24 19.5l5 5q-21 20 -42 20q-13 0 -21 -7.5t-8 -19.5z" />
<glyph unicode="&#xa4;" horiz-adv-x="700" d="M34 127l88 77q-13 28 -19 54.5t-6 57.5q0 101 66 185l-68 83l94 81l67 -82q30 18 66 28t77 10q42 0 75.5 -11t73.5 -39l88 77l77 -95l-86 -77q14 -29 20 -53t6 -51q0 -52 -16.5 -103.5t-51.5 -90.5l69 -84l-92 -82l-69 84q-35 -19 -67.5 -28.5t-73.5 -9.5 q-22 0 -40.5 2.5t-36 8t-35.5 15t-39 24.5l-88 -76zM219 321q0 -32 10.5 -59.5t29 -47.5t44.5 -31.5t56 -11.5q36 0 67 14.5t54.5 40t37 59.5t13.5 74q0 33 -10.5 60t-29.5 47t-45 31t-58 11q-36 0 -66.5 -14.5t-53.5 -39.5t-36 -59t-13 -74z" />
<glyph unicode="&#xa5;" horiz-adv-x="417" d="M9 150l17 71h118l-3 57h-102l17 73h81l-19 314h133q0 -11 -0.5 -30.5t-1.5 -43.5t-1.5 -51.5t-1.5 -54.5q-2 -63 -4 -136l133 316h135l-162 -314h79l-17 -73h-99l-31 -57h117l-17 -71h-120l-34 -150h-131l34 150h-120z" />
<glyph unicode="&#xa6;" horiz-adv-x="205" d="M-40 -169l92 402h115l-93 -402h-114zM82 361l93 402h114l-92 -402h-115z" />
<glyph unicode="&#xa7;" horiz-adv-x="437" d="M-12 -48q0 23 8 60l12 52h117l-11 -54q-2 -11 -4.5 -21.5t-2.5 -21.5q0 -42 52 -42q60 0 60 85q0 11 -1.5 20t-7 19t-15 22t-25.5 30l-90 101q-26 29 -37 54t-11 54q0 21 5.5 40t19 38.5t36 40t55.5 43.5q-12 20 -16.5 35t-4.5 36q0 79 48.5 127t144.5 48q74 0 116 -29.5 t42 -80.5q0 -12 -2 -27.5t-5 -30.5l-10 -46h-116l10 47q5 20 5 37q0 41 -48 41q-29 0 -45 -19t-16 -52q0 -17 8.5 -34t28.5 -39l94 -104q28 -30 40 -56t12 -55q0 -48 -25 -87t-88 -83q14 -20 20 -39.5t6 -42.5q0 -38 -10 -72t-32.5 -59.5t-59 -40t-90.5 -14.5 q-81 0 -124 30.5t-43 89.5zM147 334q0 -14 6.5 -26.5t24.5 -32.5l96 -108l4 4q15 15 24 25t13.5 17t5.5 13t1 15q0 25 -21 49l-107 120q-47 -40 -47 -76z" />
<glyph unicode="&#xa8;" horiz-adv-x="208" d="M-67 595l28 120h117l-28 -120h-117zM131 595l28 120h116l-28 -120h-116z" />
<glyph unicode="&#xa9;" horiz-adv-x="819" d="M65 353q0 74 28 139t76 113t113 76t139 28q73 0 138 -27.5t113.5 -75t76.5 -111t28 -136.5q0 -77 -27 -143.5t-75 -115t-113 -76t-142 -27.5q-74 0 -138.5 28t-112.5 76t-76 113t-28 139zM111 352q0 -66 24 -123.5t65.5 -100t98 -67t121.5 -24.5q63 0 119.5 24.5t99 67 t67.5 99t25 120.5q0 68 -23.5 127t-65.5 102t-98.5 67.5t-122.5 24.5q-64 0 -120.5 -25t-98.5 -68t-66.5 -100.5t-24.5 -123.5zM260 219q0 5 0.5 10t2 12.5t3.5 18.5t6 29l38 178q14 68 50 95.5t108 27.5q55 0 84.5 -22t29.5 -64q0 -11 -1.5 -26.5t-3.5 -23.5l-10 -42h-91 l7 31q2 9 3.5 19.5t1.5 15.5q0 29 -37 29q-20 0 -30.5 -11t-16.5 -38l-42 -195q-2 -8 -4 -17.5t-2 -14.5q0 -14 12 -20t26 -6q23 0 31.5 13t16.5 43l10 40h92l-12 -54q-8 -37 -19 -61t-27 -38.5t-39 -20.5t-56 -6q-63 0 -97 25.5t-34 72.5z" />
<glyph unicode="&#xaa;" horiz-adv-x="282" d="M75 426q0 56 24 90t64 50l90 35l4 17q2 6 2.5 12.5t0.5 11.5q0 21 -26 21q-24 0 -30 -30l-5 -24h-77l6 26q11 49 36 69t77 20q50 0 76.5 -17t26.5 -49q0 -11 -2 -25t-7 -35l-35 -150q-6 -26 -8 -39.5t-2 -23.5q0 -9 1 -13.5t5 -10.5h-87q-4 8 -4 15v7t2 10 q-28 -39 -68 -39q-32 0 -48 18.5t-16 53.5zM160 446q0 -22 19 -22q12 0 36 18l21 88q-31 -13 -42.5 -20t-19.5 -18q-6 -8 -10 -21.5t-4 -24.5z" />
<glyph unicode="&#xab;" horiz-adv-x="313" d="M32 221l22 92l124 97l-24 -103l-54 -44l35 -41l-22 -94zM177 221l22 92l124 97l-24 -103l-54 -44l35 -41l-22 -94z" />
<glyph unicode="&#xac;" horiz-adv-x="559" d="M69 249l23 99h419l-65 -285h-115l42 186h-304z" />
<glyph unicode="&#xad;" horiz-adv-x="314" d="M37 242l23 99h249l-23 -99h-249z" />
<glyph unicode="&#xae;" horiz-adv-x="819" d="M65 353q0 74 28 139t76 113t113 76t139 28q73 0 138 -27.5t113.5 -75t76.5 -111t28 -136.5q0 -77 -27 -143.5t-75 -115t-113 -76t-142 -27.5q-74 0 -138.5 28t-112.5 76t-76 113t-28 139zM111 352q0 -66 24 -123.5t65.5 -100t98 -67t121.5 -24.5q63 0 119.5 24.5t99 67 t67.5 99t25 120.5q0 68 -23.5 127t-65.5 102t-98.5 67.5t-122.5 24.5q-64 0 -120.5 -25t-98.5 -68t-66.5 -100.5t-24.5 -123.5zM250 133l98 452h152q34 0 53.5 -18.5t19.5 -53.5q0 -13 -3 -27l-10 -45q-8 -38 -23.5 -54.5t-47.5 -22.5q23 -7 32.5 -19t9.5 -34q0 -8 -1 -17 t-4 -22l-17 -79q-3 -18 -3 -33q0 -11 1.5 -16t6.5 -11h-91l-3 12t-1 11q0 13 4 28l17 80q4 17 5 23.5t1 11.5q0 29 -38 29h-32l-43 -195h-83zM392 401h31q15 0 24.5 2t15.5 7.5t9.5 16t7.5 27.5l5 20q3 12 3 17q0 14 -8 19t-27 5h-37z" />
<glyph unicode="&#xaf;" horiz-adv-x="208" d="M-48 594l18 81h285l-19 -81h-284z" />
<glyph unicode="&#xb0;" horiz-adv-x="354" d="M101 591q0 33 12.5 62.5t34.5 51.5t51 34.5t62 12.5q34 0 63.5 -12.5t51.5 -34t34.5 -51t12.5 -64.5q0 -33 -12.5 -62.5t-34.5 -51t-51 -34.5t-62 -13t-62.5 13t-51.5 35t-35 51.5t-13 62.5zM183 593q0 -32 23.5 -55.5t55.5 -23.5q33 0 56 23t23 57q0 16 -6 30 t-16.5 24.5t-25 17t-30.5 6.5q-33 0 -56.5 -23t-23.5 -56z" />
<glyph unicode="&#xb1;" horiz-adv-x="559" d="M35 0l23 101h395l-23 -101h-395zM107 315l23 100h141l36 157h115l-36 -157h139l-24 -100h-138l-36 -158h-115l36 158h-141z" />
<glyph unicode="&#xb2;" horiz-adv-x="319" d="M45 234q9 37 17 63.5t21.5 49t35.5 44t58 47.5q22 16 36.5 27t24 21.5t15 22t8.5 28.5l6 30q1 4 2 10.5t1 10.5q0 26 -31 26q-17 0 -26 -8t-14 -31l-11 -52h-78l12 53q12 52 40 76t79 24q53 0 81.5 -22t28.5 -58q0 -13 -3 -28l-6 -33q-7 -38 -22 -62t-43 -46l-70 -54 q-45 -34 -56 -71h147l-14 -68h-239z" />
<glyph unicode="&#xb3;" horiz-adv-x="319" d="M65 297q0 9 1.5 21t4.5 23l6 22h76l-5 -27q-3 -15 -3 -26q0 -30 33 -30q18 0 28 11t15 36l11 52q1 5 1.5 8.5t0.5 7.5q0 39 -49 39h-17l13 52h16q30 0 46 10t25 45l7 27q2 10 2 15q0 28 -32 28q-18 0 -27 -9.5t-16 -35.5l-8 -32h-76l7 31q13 57 41 82.5t87 25.5 q104 0 104 -77q0 -6 -1 -12.5t-3 -14.5l-6 -29q-9 -44 -29.5 -59t-53.5 -18q50 -12 50 -62q0 -15 -5 -37l-10 -46q-11 -51 -39.5 -75.5t-86.5 -24.5q-52 0 -80 20.5t-28 58.5z" />
<glyph unicode="&#xb4;" horiz-adv-x="208" d="M-14 574l90 132h146l-146 -132h-90z" />
<glyph unicode="&#xb5;" horiz-adv-x="445" d="M-32 -176l158 684h118l-81 -355q-2 -11 -3.5 -19t-1.5 -13q0 -38 36 -38q23 0 37.5 16.5t22.5 52.5l82 356h119l-88 -383q-5 -23 -8.5 -36.5t-5 -22.5t-2 -16t-0.5 -16q0 -13 1.5 -19.5t8.5 -14.5h-125q-4 5 -5 9.5t-1 12.5v8.5t2 11.5q-11 -25 -23 -35t-32 -10 q-17 0 -26.5 6t-17.5 22l-46 -201h-119z" />
<glyph unicode="&#xb6;" horiz-adv-x="580" d="M114 478q0 57 25 106t70 79q35 23 79.5 33t118.5 10h217l-20 -83h-35l-182 -790h-88l182 790h-91l-183 -790h-89l109 468q-113 54 -113 177z" />
<glyph unicode="&#xb7;" horiz-adv-x="187" d="M40 227l29 129h117l-29 -129h-117z" />
<glyph unicode="&#xb8;" horiz-adv-x="208" d="M-6 -172l9 29q18 -3 27 -4t20 -1q46 0 46 29q0 20 -26 28l26 100h45l-14 -60q87 -5 87 -62q0 -37 -29.5 -56.5t-85.5 -19.5q-58 0 -105 17z" />
<glyph unicode="&#xb9;" horiz-adv-x="319" d="M132 224l76 334q-14 -10 -33 -16t-39 -8l15 63q29 8 51.5 22t50.5 46h61l-101 -441h-81z" />
<glyph unicode="&#xba;" horiz-adv-x="282" d="M79 434q0 8 1.5 16t4.5 22l36 150q13 53 43.5 78t84.5 25q49 0 76.5 -20.5t27.5 -55.5q0 -8 -1 -16.5t-3 -18.5l-37 -154q-14 -56 -43 -80.5t-81 -24.5q-53 0 -81 20.5t-28 58.5zM164 440q0 -22 26 -22t34 31l39 163q5 22 5 29q0 23 -26 23q-16 0 -23 -10.5t-11 -24.5 l-41 -167q-2 -8 -2.5 -12.5t-0.5 -9.5z" />
<glyph unicode="&#xbb;" horiz-adv-x="313" d="M17 126l24 103l54 44l-34 41l21 94l81 -93l-21 -92zM162 126l24 103l54 44l-35 41l22 94l81 -93l-21 -92z" />
<glyph unicode="&#xbc;" horiz-adv-x="708" d="M118 224l76 334q-14 -10 -33 -16t-39 -8l15 63q29 8 51.5 22t50.5 46h61l-101 -441h-81zM132 -24l424 739l58 -23l-423 -738zM382 87l16 65l186 289h97l-65 -285h34l-17 -69h-33l-20 -87h-76l20 87h-142zM468 156h72l54 214z" />
<glyph unicode="&#xbd;" horiz-adv-x="708" d="M119 224l76 334q-14 -10 -33 -16t-39 -8l15 63q29 8 51.5 22t50.5 46h61l-101 -441h-81zM124 -24l424 739l57 -23l-422 -738zM383 0q9 37 17 63.5t21.5 49t35.5 44t58 47.5q22 16 36.5 27t24 21.5t15 22t8.5 28.5l6 30q1 4 2 10.5t1 10.5q0 26 -31 26q-17 0 -26 -8 t-14 -31l-11 -52h-78l12 53q12 52 40 76t79 24q53 0 81.5 -22t28.5 -58q0 -13 -3 -28l-6 -33q-7 -38 -22 -62t-43 -46l-70 -54q-45 -34 -56 -71h147l-14 -68h-239z" />
<glyph unicode="&#xbe;" horiz-adv-x="708" d="M61 297q0 9 1.5 21t4.5 23l6 22h76l-5 -27q-3 -15 -3 -26q0 -30 33 -30q18 0 28 11t15 36l11 52q1 5 1.5 8.5t0.5 7.5q0 39 -49 39h-17l13 52h16q30 0 46 10t25 45l7 27q2 10 2 15q0 28 -32 28q-18 0 -27 -9.5t-16 -35.5l-8 -32h-76l7 31q13 57 41 82.5t87 25.5 q104 0 104 -77q0 -6 -1 -12.5t-3 -14.5l-6 -29q-9 -44 -29.5 -59t-53.5 -18q50 -12 50 -62q0 -15 -5 -37l-10 -46q-11 -51 -39.5 -75.5t-86.5 -24.5q-52 0 -80 20.5t-28 58.5zM154 -23l424 739l58 -23l-423 -738zM389 87l16 65l186 289h97l-65 -285h34l-17 -69h-33l-20 -87 h-76l20 87h-142zM475 156h72l54 214z" />
<glyph unicode="&#xbf;" horiz-adv-x="417" d="M11 99q0 23 6.5 55.5t17.5 59.5q5 14 9 23t10 17.5t15.5 19.5t25.5 29l83 91q16 17 25 28.5t14 21.5t8.5 21.5t7.5 29.5l5 22h113l-7 -32q-5 -24 -10 -41t-12 -31.5t-17.5 -28.5t-27.5 -31l-78 -81q-20 -20 -29.5 -34t-16.5 -30q-3 -8 -7 -23t-7.5 -30.5t-6 -29.5 t-2.5 -20q0 -35 40 -35q30 0 41.5 22t20.5 60l21 89h111l-17 -74q-8 -35 -18 -67.5t-30.5 -57t-54.5 -39t-89 -14.5q-69 0 -106.5 28t-37.5 82zM249 576l30 130h116l-30 -130h-116z" />
<glyph unicode="&#xc0;" horiz-adv-x="437" d="M-39 0l288 706h149q-1 -27 -2 -72t-2.5 -100t-3 -116t-3.5 -120q-4 -139 -8 -298h-128l8 115h-120l-44 -115h-134zM178 224h90l22 303zM190 895h147l54 -133h-87z" />
<glyph unicode="&#xc1;" horiz-adv-x="437" d="M-39 0l288 706h149q-1 -27 -2 -72t-2.5 -100t-3 -116t-3.5 -120q-4 -139 -8 -298h-128l8 115h-120l-44 -115h-134zM178 224h90l22 303zM259 763l81 134h155l-144 -134h-92z" />
<glyph unicode="&#xc2;" horiz-adv-x="437" d="M-39 0l288 706h149q-1 -27 -2 -72t-2.5 -100t-3 -116t-3.5 -120q-4 -139 -8 -298h-128l8 115h-120l-44 -115h-134zM172 762l110 133h129l62 -133h-99l-34 73l-58 -73h-110zM178 224h90l22 303z" />
<glyph unicode="&#xc3;" horiz-adv-x="437" d="M-39 0l288 706h149q-1 -27 -2 -72t-2.5 -100t-3 -116t-3.5 -120q-4 -139 -8 -298h-128l8 115h-120l-44 -115h-134zM165 763q16 63 42 93.5t70 30.5q17 0 30 -4.5t27 -10.5l43 -20q18 -9 30 -9q14 0 22 8.5t18 34.5h61q-16 -67 -39.5 -97t-62.5 -30q-14 0 -29 5t-33 14 l-30 15q-14 8 -21 10t-16 2q-31 0 -45 -42h-67zM178 224h90l22 303z" />
<glyph unicode="&#xc4;" horiz-adv-x="437" d="M-39 0l288 706h149q-1 -27 -2 -72t-2.5 -100t-3 -116t-3.5 -120q-4 -139 -8 -298h-128l8 115h-120l-44 -115h-134zM171 762l28 121h117l-28 -121h-117zM178 224h90l22 303zM372 762l28 121h116l-28 -121h-116z" />
<glyph unicode="&#xc5;" horiz-adv-x="437" d="M-39 0l288 706h149q-1 -27 -2 -72t-2.5 -100t-3 -116t-3.5 -120q-4 -139 -8 -298h-128l8 115h-120l-44 -115h-134zM178 224h90l22 303zM246 830q0 18 7 34t19 28.5t28 19.5t34 7q38 0 64 -26t26 -65q0 -18 -7 -34t-19 -28t-28.5 -19t-34.5 -7q-37 0 -63 26t-26 64z M293 830q0 -18 12.5 -30.5t29.5 -12.5t29 12.5t12 30.5q0 17 -12 30t-29 13q-18 0 -30 -12.5t-12 -30.5z" />
<glyph unicode="&#xc6;" horiz-adv-x="712" d="M-45 0l429 706h402l-25 -109h-207l-38 -163h205l-25 -106h-204l-51 -219h240l-25 -109h-370l34 146h-131l-83 -146h-151zM248 253h96l73 307z" />
<glyph unicode="&#xc7;" horiz-adv-x="458" d="M32 112q0 32 11 74l81 348q12 51 30.5 86.5t45.5 58t64.5 32.5t88.5 10q82 0 124.5 -28t42.5 -85q0 -31 -10 -72l-20 -87h-128l16 72q3 14 5.5 27.5t2.5 25.5q0 20 -10.5 33.5t-42.5 13.5t-49 -17.5t-27 -59.5l-86 -370q-6 -28 -6 -43q0 -45 54 -45q34 0 51 18.5t28 68.5 l21 92h128l-19 -85q-13 -57 -31.5 -94.5t-44.5 -59.5t-61 -31.5t-82 -10.5l-8 -35q86 -5 86 -62q0 -76 -114 -76q-59 0 -103 16l8 30q17 -3 26.5 -4t19.5 -1q46 0 46 29q0 19 -26 28q5 20 8.5 33t7.5 29l4 16q-73 5 -102.5 39t-29.5 86z" />
<glyph unicode="&#xc8;" horiz-adv-x="417" d="M0 0l163 706h342l-25 -107h-212l-38 -166h200l-25 -107h-200l-50 -217h222l-25 -109h-352zM207 895h147l54 -133h-87z" />
<glyph unicode="&#xc9;" horiz-adv-x="417" d="M0 0l163 706h342l-25 -107h-212l-38 -166h200l-25 -107h-200l-50 -217h222l-25 -109h-352zM268 763l81 134h155l-144 -134h-92z" />
<glyph unicode="&#xca;" horiz-adv-x="417" d="M0 0l163 706h342l-25 -107h-212l-38 -166h200l-25 -107h-200l-50 -217h222l-25 -109h-352zM186 762l110 133h129l62 -133h-99l-34 73l-58 -73h-110z" />
<glyph unicode="&#xcb;" horiz-adv-x="417" d="M0 0l163 706h342l-25 -107h-212l-38 -166h200l-25 -107h-200l-50 -217h222l-25 -109h-352zM185 762l28 121h117l-28 -121h-117zM386 762l28 121h116l-28 -121h-116z" />
<glyph unicode="&#xcc;" horiz-adv-x="228" d="M0 0l163 706h129l-163 -706h-129zM104 895h147l54 -133h-87z" />
<glyph unicode="&#xcd;" horiz-adv-x="228" d="M0 0l163 706h129l-163 -706h-129zM162 763l81 134h155l-144 -134h-92z" />
<glyph unicode="&#xce;" horiz-adv-x="228" d="M0 0l163 706h129l-163 -706h-129zM85 762l110 133h129l62 -133h-99l-34 73l-58 -73h-110z" />
<glyph unicode="&#xcf;" horiz-adv-x="228" d="M0 0l163 706h129l-163 -706h-129zM80 762l28 121h117l-28 -121h-117zM281 762l28 121h116l-28 -121h-116z" />
<glyph unicode="&#xd0;" horiz-adv-x="479" d="M0 0l92 392h-58l18 75h57l54 239h197q156 0 156 -124q0 -14 -3.5 -35t-11.5 -56l-77 -332q-12 -50 -31.5 -81t-46.5 -48.5t-61 -23.5t-74 -6h-211zM154 103h46q24 0 41 3t28 12t19 26t14 45l76 330q6 27 6 39q0 25 -15.5 35t-56.5 10h-43l-30 -136h76l-17 -75h-76z" />
<glyph unicode="&#xd1;" horiz-adv-x="500" d="M0 0l163 706h167q0 -16 0.5 -47.5t1 -71t1 -84.5t1.5 -89q2 -104 3 -226l107 518h119l-163 -706h-164v48.5v72t-0.5 86.5t-0.5 91q-1 106 -2 231l-111 -529h-122zM218 763q16 63 42 93.5t70 30.5q17 0 30 -4.5t27 -10.5l43 -20q18 -9 30 -9q14 0 22 8.5t18 34.5h61 q-16 -67 -39.5 -97t-62.5 -30q-14 0 -29 5t-33 14l-30 15q-14 8 -21 10t-16 2q-31 0 -45 -42h-67z" />
<glyph unicode="&#xd2;" horiz-adv-x="479" d="M29 123q0 17 2.5 36t9.5 48l75 322q12 52 28.5 88.5t42 60t61 34t84.5 10.5q88 0 134.5 -35.5t46.5 -101.5q0 -14 -2.5 -31.5t-7.5 -37.5l-79 -344q-9 -39 -22.5 -73t-37.5 -59.5t-61.5 -40t-94.5 -14.5q-179 0 -179 138zM159 136q0 -49 59 -49q21 0 33.5 6.5t20.5 19 t13 29.5t10 38l80 344q5 22 6 30.5t1 18.5q0 24 -15 37t-41 13q-16 0 -28 -3.5t-21 -13.5t-16 -28t-14 -48l-78 -338q-6 -26 -8 -37t-2 -19zM205 895h147l54 -133h-87z" />
<glyph unicode="&#xd3;" horiz-adv-x="479" d="M29 123q0 17 2.5 36t9.5 48l75 322q12 52 28.5 88.5t42 60t61 34t84.5 10.5q88 0 134.5 -35.5t46.5 -101.5q0 -14 -2.5 -31.5t-7.5 -37.5l-79 -344q-9 -39 -22.5 -73t-37.5 -59.5t-61.5 -40t-94.5 -14.5q-179 0 -179 138zM159 136q0 -49 59 -49q21 0 33.5 6.5t20.5 19 t13 29.5t10 38l80 344q5 22 6 30.5t1 18.5q0 24 -15 37t-41 13q-16 0 -28 -3.5t-21 -13.5t-16 -28t-14 -48l-78 -338q-6 -26 -8 -37t-2 -19zM279 763l81 134h155l-144 -134h-92z" />
<glyph unicode="&#xd4;" horiz-adv-x="479" d="M29 123q0 17 2.5 36t9.5 48l75 322q12 52 28.5 88.5t42 60t61 34t84.5 10.5q88 0 134.5 -35.5t46.5 -101.5q0 -14 -2.5 -31.5t-7.5 -37.5l-79 -344q-9 -39 -22.5 -73t-37.5 -59.5t-61.5 -40t-94.5 -14.5q-179 0 -179 138zM159 136q0 -49 59 -49q21 0 33.5 6.5t20.5 19 t13 29.5t10 38l80 344q5 22 6 30.5t1 18.5q0 24 -15 37t-41 13q-16 0 -28 -3.5t-21 -13.5t-16 -28t-14 -48l-78 -338q-6 -26 -8 -37t-2 -19zM198 762l110 133h129l62 -133h-99l-34 73l-58 -73h-110z" />
<glyph unicode="&#xd5;" horiz-adv-x="479" d="M29 123q0 17 2.5 36t9.5 48l75 322q12 52 28.5 88.5t42 60t61 34t84.5 10.5q88 0 134.5 -35.5t46.5 -101.5q0 -14 -2.5 -31.5t-7.5 -37.5l-79 -344q-9 -39 -22.5 -73t-37.5 -59.5t-61.5 -40t-94.5 -14.5q-179 0 -179 138zM159 136q0 -49 59 -49q21 0 33.5 6.5t20.5 19 t13 29.5t10 38l80 344q5 22 6 30.5t1 18.5q0 24 -15 37t-41 13q-16 0 -28 -3.5t-21 -13.5t-16 -28t-14 -48l-78 -338q-6 -26 -8 -37t-2 -19zM190 763q16 63 42 93.5t70 30.5q17 0 30 -4.5t27 -10.5l43 -20q18 -9 30 -9q14 0 22 8.5t18 34.5h61q-16 -67 -39.5 -97t-62.5 -30 q-14 0 -29 5t-33 14l-30 15q-14 8 -21 10t-16 2q-31 0 -45 -42h-67z" />
<glyph unicode="&#xd6;" horiz-adv-x="479" d="M29 123q0 17 2.5 36t9.5 48l75 322q12 52 28.5 88.5t42 60t61 34t84.5 10.5q88 0 134.5 -35.5t46.5 -101.5q0 -14 -2.5 -31.5t-7.5 -37.5l-79 -344q-9 -39 -22.5 -73t-37.5 -59.5t-61.5 -40t-94.5 -14.5q-179 0 -179 138zM159 136q0 -49 59 -49q21 0 33.5 6.5t20.5 19 t13 29.5t10 38l80 344q5 22 6 30.5t1 18.5q0 24 -15 37t-41 13q-16 0 -28 -3.5t-21 -13.5t-16 -28t-14 -48l-78 -338q-6 -26 -8 -37t-2 -19zM192 762l28 121h117l-28 -121h-117zM393 762l28 121h116l-28 -121h-116z" />
<glyph unicode="&#xd7;" horiz-adv-x="558" d="M105 188l111 110l-79 130l91 66l70 -116l102 102l64 -79l-112 -111l80 -129l-92 -67l-70 116l-102 -101z" />
<glyph unicode="&#xd8;" horiz-adv-x="479" d="M-25 47l54 65v11q0 17 2.5 36t9.5 48l75 323q13 57 32 94t45.5 59t61 30.5t79.5 8.5q100 0 150 -52l28 33l50 -39l-50 -60q1 -6 1 -9v-8q0 -14 -2.5 -32.5t-7.5 -38.5l-74 -323q-11 -48 -19.5 -73.5t-19.5 -45.5q-25 -44 -71 -66.5t-109 -22.5q-64 0 -101.5 16t-54.5 38 l-28 -35zM159 133q0 -22 15.5 -34t43.5 -12q20 0 32.5 6t21 18t13.5 30t11 42l48 209l-179 -215q-6 -25 -6 -44zM198 319l180 221q3 12 3.5 18t0.5 14q0 25 -15 38t-41 13q-31 0 -48 -17t-27 -59z" />
<glyph unicode="&#xd9;" horiz-adv-x="476" d="M29 120q0 8 0.5 15.5t2 16.5t4 21t6.5 28l116 505h130l-118 -512q-5 -21 -7 -32.5t-2 -18.5q0 -47 55 -47q29 0 45 18.5t27 67.5l121 524h131l-126 -547q-21 -91 -72.5 -132.5t-143.5 -41.5q-83 0 -126 34.5t-43 100.5zM223 895h147l54 -133h-87z" />
<glyph unicode="&#xda;" horiz-adv-x="476" d="M29 120q0 8 0.5 15.5t2 16.5t4 21t6.5 28l116 505h130l-118 -512q-5 -21 -7 -32.5t-2 -18.5q0 -47 55 -47q29 0 45 18.5t27 67.5l121 524h131l-126 -547q-21 -91 -72.5 -132.5t-143.5 -41.5q-83 0 -126 34.5t-43 100.5zM280 763l81 134h155l-144 -134h-92z" />
<glyph unicode="&#xdb;" horiz-adv-x="476" d="M29 120q0 8 0.5 15.5t2 16.5t4 21t6.5 28l116 505h130l-118 -512q-5 -21 -7 -32.5t-2 -18.5q0 -47 55 -47q29 0 45 18.5t27 67.5l121 524h131l-126 -547q-21 -91 -72.5 -132.5t-143.5 -41.5q-83 0 -126 34.5t-43 100.5zM204 762l110 133h129l62 -133h-99l-34 73l-58 -73 h-110z" />
<glyph unicode="&#xdc;" horiz-adv-x="476" d="M29 120q0 8 0.5 15.5t2 16.5t4 21t6.5 28l116 505h130l-118 -512q-5 -21 -7 -32.5t-2 -18.5q0 -47 55 -47q29 0 45 18.5t27 67.5l121 524h131l-126 -547q-21 -91 -72.5 -132.5t-143.5 -41.5q-83 0 -126 34.5t-43 100.5zM198 762l28 121h117l-28 -121h-117zM399 762 l28 121h116l-28 -121h-116z" />
<glyph unicode="&#xdd;" horiz-adv-x="417" d="M91 0l51 218l-29 488h133q-1 -49 -2 -110.5t-2 -116.5q-1 -64 -2 -129l148 356h140l-255 -497l-49 -209h-133zM255 763l81 134h155l-144 -134h-92z" />
<glyph unicode="&#xde;" horiz-adv-x="457" d="M0 0l163 706h131l-33 -141h84q24 0 48 -4t43.5 -16t31.5 -33t12 -55q0 -14 -2 -31.5t-6 -31.5l-30 -128q-14 -60 -54 -86.5t-103 -26.5h-118l-36 -153h-131zM190 254h63q20 0 32 2.5t19.5 9t12.5 19t9 32.5l17 72q5 23 5 33q0 21 -12.5 30t-41.5 9h-56z" />
<glyph unicode="&#xdf;" horiz-adv-x="417" d="M-5 0l135 582q8 36 21 62t33 43t48.5 25.5t68.5 8.5q70 0 108.5 -27t38.5 -78q0 -23 -6 -47l-9 -41q-6 -26 -12.5 -43t-17 -27.5t-26 -16t-37.5 -8.5q39 -8 55.5 -23t16.5 -44q0 -9 -2 -24.5t-6 -30.5l-41 -179q-4 -18 -11.5 -42.5t-24 -46t-44.5 -37t-75 -15.5 q-14 0 -29 2t-38 7l17 69q8 -2 12.5 -2h10.5q26 0 40.5 13t22.5 49l42 181q2 10 3 18.5t1 15.5q0 34 -48 34h-18l19 81h14q32 0 45.5 11t21.5 44l13 55q4 17 4 31q0 35 -43 35q-14 0 -27.5 -7t-20.5 -37l-136 -591h-119z" />
<glyph unicode="&#xe0;" d="M3 83q0 51 14.5 95.5t38.5 68.5q9 9 21.5 17.5t25.5 15.5t24 12t18 8l114 44l6 24q4 16 5 24t1 13q0 32 -38 32q-26 0 -35.5 -17.5t-15.5 -49.5l-3 -15h-109l7 33q15 71 53.5 102t111.5 31q71 0 110 -25t39 -71q0 -14 -3 -33.5t-11 -51.5l-50 -215q-8 -34 -12 -54t-4 -37 q0 -13 2 -19.5t8 -14.5h-125q-4 5 -5 9.5t-1 12.5v9.5t2 13.5q-41 -56 -102 -56q-42 0 -64.5 24t-22.5 70zM103 706h153l67 -132h-86zM122 115q0 -33 28 -33q11 0 22.5 6t31.5 20l32 139q-23 -9 -38 -16t-25 -13t-16 -11.5t-12 -13.5q-10 -14 -16.5 -36.5t-6.5 -41.5z" />
<glyph unicode="&#xe1;" d="M3 83q0 51 14.5 95.5t38.5 68.5q9 9 21.5 17.5t25.5 15.5t24 12t18 8l114 44l6 24q4 16 5 24t1 13q0 32 -38 32q-26 0 -35.5 -17.5t-15.5 -49.5l-3 -15h-109l7 33q15 71 53.5 102t111.5 31q71 0 110 -25t39 -71q0 -14 -3 -33.5t-11 -51.5l-50 -215q-8 -34 -12 -54t-4 -37 q0 -13 2 -19.5t8 -14.5h-125q-4 5 -5 9.5t-1 12.5v9.5t2 13.5q-41 -56 -102 -56q-42 0 -64.5 24t-22.5 70zM122 115q0 -33 28 -33q11 0 22.5 6t31.5 20l32 139q-23 -9 -38 -16t-25 -13t-16 -11.5t-12 -13.5q-10 -14 -16.5 -36.5t-6.5 -41.5zM195 574l90 132h146l-146 -132 h-90z" />
<glyph unicode="&#xe2;" d="M3 83q0 51 14.5 95.5t38.5 68.5q9 9 21.5 17.5t25.5 15.5t24 12t18 8l114 44l6 24q4 16 5 24t1 13q0 32 -38 32q-26 0 -35.5 -17.5t-15.5 -49.5l-3 -15h-109l7 33q15 71 53.5 102t111.5 31q71 0 110 -25t39 -71q0 -14 -3 -33.5t-11 -51.5l-50 -215q-8 -34 -12 -54t-4 -37 q0 -13 2 -19.5t8 -14.5h-125q-4 5 -5 9.5t-1 12.5v9.5t2 13.5q-41 -56 -102 -56q-42 0 -64.5 24t-22.5 70zM107 574l117 132h129l56 -132h-100l-27 73l-65 -73h-110zM122 115q0 -33 28 -33q11 0 22.5 6t31.5 20l32 139q-23 -9 -38 -16t-25 -13t-16 -11.5t-12 -13.5 q-10 -14 -16.5 -36.5t-6.5 -41.5z" />
<glyph unicode="&#xe3;" d="M3 83q0 51 14.5 95.5t38.5 68.5q9 9 21.5 17.5t25.5 15.5t24 12t18 8l114 44l6 24q4 16 5 24t1 13q0 32 -38 32q-26 0 -35.5 -17.5t-15.5 -49.5l-3 -15h-109l7 33q15 71 53.5 102t111.5 31q71 0 110 -25t39 -71q0 -14 -3 -33.5t-11 -51.5l-50 -215q-8 -34 -12 -54t-4 -37 q0 -13 2 -19.5t8 -14.5h-125q-4 5 -5 9.5t-1 12.5v9.5t2 13.5q-41 -56 -102 -56q-42 0 -64.5 24t-22.5 70zM109 574q13 59 42 92t69 33q18 0 35 -6.5t32 -15t28 -15t23 -6.5q13 0 21 9.5t16 32.5h60q-14 -65 -37.5 -95.5t-60.5 -30.5q-16 0 -32 7t-31 15t-30 15t-30 7 t-25 -9.5t-20 -32.5h-60zM122 115q0 -33 28 -33q11 0 22.5 6t31.5 20l32 139q-23 -9 -38 -16t-25 -13t-16 -11.5t-12 -13.5q-10 -14 -16.5 -36.5t-6.5 -41.5z" />
<glyph unicode="&#xe4;" d="M3 83q0 51 14.5 95.5t38.5 68.5q9 9 21.5 17.5t25.5 15.5t24 12t18 8l114 44l6 24q4 16 5 24t1 13q0 32 -38 32q-26 0 -35.5 -17.5t-15.5 -49.5l-3 -15h-109l7 33q15 71 53.5 102t111.5 31q71 0 110 -25t39 -71q0 -14 -3 -33.5t-11 -51.5l-50 -215q-8 -34 -12 -54t-4 -37 q0 -13 2 -19.5t8 -14.5h-125q-4 5 -5 9.5t-1 12.5v9.5t2 13.5q-41 -56 -102 -56q-42 0 -64.5 24t-22.5 70zM106 595l28 120h117l-28 -120h-117zM122 115q0 -33 28 -33q11 0 22.5 6t31.5 20l32 139q-23 -9 -38 -16t-25 -13t-16 -11.5t-12 -13.5q-10 -14 -16.5 -36.5 t-6.5 -41.5zM304 595l28 120h116l-28 -120h-116z" />
<glyph unicode="&#xe5;" d="M3 83q0 51 14.5 95.5t38.5 68.5q9 9 21.5 17.5t25.5 15.5t24 12t18 8l114 44l6 24q4 16 5 24t1 13q0 32 -38 32q-26 0 -35.5 -17.5t-15.5 -49.5l-3 -15h-109l7 33q15 71 53.5 102t111.5 31q71 0 110 -25t39 -71q0 -14 -3 -33.5t-11 -51.5l-50 -215q-8 -34 -12 -54t-4 -37 q0 -13 2 -19.5t8 -14.5h-125q-4 5 -5 9.5t-1 12.5v9.5t2 13.5q-41 -56 -102 -56q-42 0 -64.5 24t-22.5 70zM122 115q0 -33 28 -33q11 0 22.5 6t31.5 20l32 139q-23 -9 -38 -16t-25 -13t-16 -11.5t-12 -13.5q-10 -14 -16.5 -36.5t-6.5 -41.5zM173 661q0 38 26 64.5t64 26.5 t64 -25.5t26 -64.5q0 -18 -7 -34t-19.5 -28.5t-29 -19.5t-34.5 -7q-37 0 -63.5 25.5t-26.5 62.5zM221 662q0 -17 12 -29.5t29 -12.5t29.5 12t12.5 31q0 17 -11.5 29.5t-28.5 12.5q-18 0 -30.5 -12.5t-12.5 -30.5z" />
<glyph unicode="&#xe6;" horiz-adv-x="583" d="M3 85q0 92 37.5 141t104.5 74l114 44l6 24q4 16 5 24t1 13q0 32 -38 32q-15 0 -24 -6t-14 -16t-8 -23t-6 -27l-2 -10h-109l7 32q15 69 52 101.5t113 32.5q31 0 57 -5.5t46 -15.5q28 12 47.5 16t47.5 4q145 0 145 -115q0 -13 -2.5 -29t-8.5 -41l-24 -104h-203l-17 -73 q-5 -22 -6 -28t-1 -14q0 -33 37 -33q20 0 31.5 13t19.5 42l8 31h115l-4 -19q-8 -40 -21 -70t-33 -50t-49.5 -30t-70.5 -10q-51 0 -82 13.5t-50 44.5q-57 -58 -126 -58q-95 0 -95 95zM122 115q0 -32 27 -32q24 0 62 31l26 134q-23 -10 -38.5 -17t-25.5 -13t-16 -11.5 t-12 -13.5q-10 -14 -16.5 -36.5t-6.5 -41.5zM366 312h85l12 55q4 17 4 26q0 33 -37 33q-20 0 -32 -11.5t-18 -39.5z" />
<glyph unicode="&#xe7;" d="M19 104q0 25 9 67l44 194q11 49 29.5 79.5t42.5 47.5t52 23t57 6q75 0 115 -27.5t40 -78.5q0 -12 -2.5 -27t-6.5 -32l-9 -39h-117l11 45q4 17 5 24.5t1 14.5q0 35 -40 35q-9 0 -17 -2t-15.5 -8.5t-14 -20.5t-12.5 -38l-49 -209q-5 -20 -6.5 -29.5t-1.5 -16.5 q0 -34 43 -34q23 0 34.5 13.5t20.5 51.5l14 59h117l-9 -40q-6 -29 -12 -49.5t-12 -35.5t-13 -25.5t-16 -19.5q-41 -42 -124 -44l-8 -39q86 -5 86 -62q0 -76 -115 -76q-60 0 -102 16l7 30q18 -3 27 -4t20 -1q45 0 45 29q0 21 -25 28q7 25 11 41t6 25l4 16q-60 8 -87 35 t-27 78z" />
<glyph unicode="&#xe8;" d="M20 106q0 16 3.5 38t12.5 62l37 167q7 33 20 59.5t34 46t52.5 30t75.5 10.5q70 0 106.5 -28.5t36.5 -85.5q0 -14 -2.5 -30t-8.5 -41l-24 -104h-203l-22 -101q-2 -10 -2 -16q0 -15 9 -24.5t29 -9.5t31.5 13t18.5 42l8 34h115l-4 -19q-8 -40 -21 -70t-33 -50t-49.5 -30 t-71.5 -10q-148 0 -148 117zM102 706h153l67 -132h-86zM179 311h85l13 61q4 17 4 26q0 33 -36 33q-21 0 -32 -11.5t-18 -39.5z" />
<glyph unicode="&#xe9;" d="M20 106q0 16 3.5 38t12.5 62l37 167q7 33 20 59.5t34 46t52.5 30t75.5 10.5q70 0 106.5 -28.5t36.5 -85.5q0 -14 -2.5 -30t-8.5 -41l-24 -104h-203l-22 -101q-2 -10 -2 -16q0 -15 9 -24.5t29 -9.5t31.5 13t18.5 42l8 34h115l-4 -19q-8 -40 -21 -70t-33 -50t-49.5 -30 t-71.5 -10q-148 0 -148 117zM179 311h85l13 61q4 17 4 26q0 33 -36 33q-21 0 -32 -11.5t-18 -39.5zM196 574l90 132h146l-146 -132h-90z" />
<glyph unicode="&#xea;" d="M20 106q0 16 3.5 38t12.5 62l37 167q7 33 20 59.5t34 46t52.5 30t75.5 10.5q70 0 106.5 -28.5t36.5 -85.5q0 -14 -2.5 -30t-8.5 -41l-24 -104h-203l-22 -101q-2 -10 -2 -16q0 -15 9 -24.5t29 -9.5t31.5 13t18.5 42l8 34h115l-4 -19q-8 -40 -21 -70t-33 -50t-49.5 -30 t-71.5 -10q-148 0 -148 117zM112 574l117 132h129l56 -132h-100l-27 73l-65 -73h-110zM179 311h85l13 61q4 17 4 26q0 33 -36 33q-21 0 -32 -11.5t-18 -39.5z" />
<glyph unicode="&#xeb;" d="M20 106q0 16 3.5 38t12.5 62l37 167q7 33 20 59.5t34 46t52.5 30t75.5 10.5q70 0 106.5 -28.5t36.5 -85.5q0 -14 -2.5 -30t-8.5 -41l-24 -104h-203l-22 -101q-2 -10 -2 -16q0 -15 9 -24.5t29 -9.5t31.5 13t18.5 42l8 34h115l-4 -19q-8 -40 -21 -70t-33 -50t-49.5 -30 t-71.5 -10q-148 0 -148 117zM108 595l28 120h117l-28 -120h-117zM179 311h85l13 61q4 17 4 26q0 33 -36 33q-21 0 -32 -11.5t-18 -39.5zM306 595l28 120h116l-28 -120h-116z" />
<glyph unicode="&#xec;" horiz-adv-x="208" d="M-5 0l117 508h120l-117 -508h-120zM32 706h153l67 -132h-86z" />
<glyph unicode="&#xed;" horiz-adv-x="208" d="M-5 0l117 508h120l-117 -508h-120zM109 574l90 132h146l-146 -132h-90z" />
<glyph unicode="&#xee;" horiz-adv-x="208" d="M-5 0l117 508h120l-117 -508h-120zM28 574l117 132h129l56 -132h-100l-27 73l-65 -73h-110z" />
<glyph unicode="&#xef;" horiz-adv-x="208" d="M-5 0l117 508h120l-117 -508h-120zM23 595l28 120h117l-28 -120h-117zM221 595l28 120h116l-28 -120h-116z" />
<glyph unicode="&#xf0;" d="M16 103q0 11 1.5 23t6.5 32l46 198q9 39 24.5 66.5t36 45.5t45 26.5t50.5 8.5q21 0 36.5 -5t29.5 -18q-4 32 -10 51.5t-17 43.5l-76 -46l-27 44l78 48l-4 5q-18 23 -28 36.5t-25 28.5l71 45q39 -28 66 -66l57 35l25 -45l-53 -33q51 -80 51 -173q0 -24 -3.5 -53t-9.5 -56 l-47 -205q-18 -80 -59 -116t-114 -36q-74 0 -112.5 29.5t-38.5 85.5zM133 103q0 -15 9.5 -23.5t26.5 -8.5q21 0 32 12.5t19 46.5l50 220q7 28 7 42q0 32 -35 32q-20 0 -31.5 -12t-17.5 -39l-55 -239q-3 -12 -4 -18.5t-1 -12.5z" />
<glyph unicode="&#xf1;" horiz-adv-x="417" d="M-5 0l117 508h121l-10 -37q43 47 104 47q43 0 67.5 -22t24.5 -60q0 -23 -14 -84l-81 -352h-118l84 364q2 11 3.5 18.5t1.5 13.5q0 37 -36 37q-24 0 -38.5 -16t-22.5 -52l-84 -365h-119zM125 574q13 59 42 92t69 33q18 0 35 -6.5t32 -15t28 -15t23 -6.5q13 0 21 9.5 t16 32.5h60q-14 -65 -37.5 -95.5t-60.5 -30.5q-16 0 -32 7t-31 15t-30 15t-30 7t-25 -9.5t-20 -32.5h-60z" />
<glyph unicode="&#xf2;" d="M16 103q0 11 1.5 23t6.5 32l50 215q18 76 61.5 112t116.5 36q69 0 107 -29t38 -80q0 -21 -6 -50l-51 -222q-18 -80 -59 -116t-114 -36q-74 0 -112.5 29.5t-38.5 85.5zM110 706h153l67 -132h-86zM133 103q0 -15 9.5 -23.5t26.5 -8.5q21 0 32 12.5t19 46.5l54 237 q7 28 7 41q0 33 -35 33q-13 0 -21 -3.5t-14 -12t-10 -23t-9 -35.5l-54 -233q-3 -12 -4 -18.5t-1 -12.5z" />
<glyph unicode="&#xf3;" d="M16 103q0 11 1.5 23t6.5 32l50 215q18 76 61.5 112t116.5 36q69 0 107 -29t38 -80q0 -21 -6 -50l-51 -222q-18 -80 -59 -116t-114 -36q-74 0 -112.5 29.5t-38.5 85.5zM133 103q0 -15 9.5 -23.5t26.5 -8.5q21 0 32 12.5t19 46.5l54 237q7 28 7 41q0 33 -35 33 q-13 0 -21 -3.5t-14 -12t-10 -23t-9 -35.5l-54 -233q-3 -12 -4 -18.5t-1 -12.5zM199 574l90 132h146l-146 -132h-90z" />
<glyph unicode="&#xf4;" d="M16 103q0 11 1.5 23t6.5 32l50 215q18 76 61.5 112t116.5 36q69 0 107 -29t38 -80q0 -21 -6 -50l-51 -222q-18 -80 -59 -116t-114 -36q-74 0 -112.5 29.5t-38.5 85.5zM111 574l117 132h129l56 -132h-100l-27 73l-65 -73h-110zM133 103q0 -15 9.5 -23.5t26.5 -8.5 q21 0 32 12.5t19 46.5l54 237q7 28 7 41q0 33 -35 33q-13 0 -21 -3.5t-14 -12t-10 -23t-9 -35.5l-54 -233q-3 -12 -4 -18.5t-1 -12.5z" />
<glyph unicode="&#xf5;" d="M16 103q0 11 1.5 23t6.5 32l50 215q18 76 61.5 112t116.5 36q69 0 107 -29t38 -80q0 -21 -6 -50l-51 -222q-18 -80 -59 -116t-114 -36q-74 0 -112.5 29.5t-38.5 85.5zM109 574q13 59 42 92t69 33q18 0 35 -6.5t32 -15t28 -15t23 -6.5q13 0 21 9.5t16 32.5h60 q-14 -65 -37.5 -95.5t-60.5 -30.5q-16 0 -32 7t-31 15t-30 15t-30 7t-25 -9.5t-20 -32.5h-60zM133 103q0 -15 9.5 -23.5t26.5 -8.5q21 0 32 12.5t19 46.5l54 237q7 28 7 41q0 33 -35 33q-13 0 -21 -3.5t-14 -12t-10 -23t-9 -35.5l-54 -233q-3 -12 -4 -18.5t-1 -12.5z" />
<glyph unicode="&#xf6;" d="M16 103q0 11 1.5 23t6.5 32l50 215q18 76 61.5 112t116.5 36q69 0 107 -29t38 -80q0 -21 -6 -50l-51 -222q-18 -80 -59 -116t-114 -36q-74 0 -112.5 29.5t-38.5 85.5zM112 595l28 120h117l-28 -120h-117zM133 103q0 -15 9.5 -23.5t26.5 -8.5q21 0 32 12.5t19 46.5l54 237 q7 28 7 41q0 33 -35 33q-13 0 -21 -3.5t-14 -12t-10 -23t-9 -35.5l-54 -233q-3 -12 -4 -18.5t-1 -12.5zM310 595l28 120h116l-28 -120h-116z" />
<glyph unicode="&#xf7;" horiz-adv-x="559" d="M84 248l23 101h410l-23 -101h-410zM192 64l29 128h112l-29 -128h-112zM269 405l29 128h112l-29 -128h-112z" />
<glyph unicode="&#xf8;" d="M-33 32l50 55v16q0 13 1.5 25t5.5 30l50 215q18 76 62 112t116 36q43 0 72 -11t52 -36l31 33l35 -34l-45 -46v-12q0 -24 -6 -53l-51 -222q-18 -80 -59 -116t-114 -36q-89 0 -130 48l-35 -35zM132 102q0 -32 37 -32q20 0 32 13t20 49l33 142l-113 -126l-4 -15 q-3 -11 -4 -18t-1 -13zM162 243l113 122l2 8q3 14 4 21.5t1 13.5q0 33 -36 33q-21 0 -32 -13t-16 -33z" />
<glyph unicode="&#xf9;" horiz-adv-x="417" d="M13 72q0 12 3 33.5t10 50.5l82 352h118l-84 -364q-2 -11 -3.5 -18.5t-1.5 -13.5q0 -37 36 -37q23 0 38 16t23 52l84 365h119l-117 -508h-121l9 37q-41 -47 -103 -47q-43 0 -67.5 22t-24.5 60zM131 706h153l67 -132h-86z" />
<glyph unicode="&#xfa;" horiz-adv-x="417" d="M13 72q0 12 3 33.5t10 50.5l82 352h118l-84 -364q-2 -11 -3.5 -18.5t-1.5 -13.5q0 -37 36 -37q23 0 38 16t23 52l84 365h119l-117 -508h-121l9 37q-41 -47 -103 -47q-43 0 -67.5 22t-24.5 60zM205 574l90 132h146l-146 -132h-90z" />
<glyph unicode="&#xfb;" horiz-adv-x="417" d="M13 72q0 12 3 33.5t10 50.5l82 352h118l-84 -364q-2 -11 -3.5 -18.5t-1.5 -13.5q0 -37 36 -37q23 0 38 16t23 52l84 365h119l-117 -508h-121l9 37q-41 -47 -103 -47q-43 0 -67.5 22t-24.5 60zM128 574l117 132h129l56 -132h-100l-27 73l-65 -73h-110z" />
<glyph unicode="&#xfc;" horiz-adv-x="417" d="M13 72q0 12 3 33.5t10 50.5l82 352h118l-84 -364q-2 -11 -3.5 -18.5t-1.5 -13.5q0 -37 36 -37q23 0 38 16t23 52l84 365h119l-117 -508h-121l9 37q-41 -47 -103 -47q-43 0 -67.5 22t-24.5 60zM128 595l28 120h117l-28 -120h-117zM326 595l28 120h116l-28 -120h-116z" />
<glyph unicode="&#xfd;" horiz-adv-x="354" d="M-75 -168l39 93q14 -4 23.5 -5.5t18.5 -1.5q51 0 75 81q-3 128 -6 234q-1 45 -2.5 89.5t-2.5 82.5t-2 65.5t-1 37.5h116q0 -12 -0.5 -32.5t-1.5 -45.5t-1.5 -53t-1.5 -56q-2 -65 -3 -140l124 327h119l-257 -575q-12 -28 -25.5 -49t-31 -34.5t-41 -20t-55.5 -6.5 q-23 0 -42 2t-41 7zM186 574l90 132h146l-146 -132h-90z" />
<glyph unicode="&#xfe;" horiz-adv-x="417" d="M-47 -176l204 882h120l-58 -245q41 57 104 57q46 0 71 -23.5t25 -68.5q0 -14 -2.5 -32.5t-10.5 -50.5l-47 -205q-10 -44 -24 -72.5t-32 -45.5t-40 -24t-47 -7q-68 0 -93 55l-51 -220h-119zM143 120q0 -41 43 -41q23 0 36 15t21 51l45 199q4 16 5 23t1 15q0 35 -38 35 q-23 0 -38 -15t-25 -57l-46 -198q-4 -17 -4 -27z" />
<glyph unicode="&#xff;" horiz-adv-x="354" d="M-75 -168l39 93q14 -4 23.5 -5.5t18.5 -1.5q51 0 75 81q-3 128 -6 234q-1 45 -2.5 89.5t-2.5 82.5t-2 65.5t-1 37.5h116q0 -12 -0.5 -32.5t-1.5 -45.5t-1.5 -53t-1.5 -56q-2 -65 -3 -140l124 327h119l-257 -575q-12 -28 -25.5 -49t-31 -34.5t-41 -20t-55.5 -6.5 q-23 0 -42 2t-41 7zM95 595l28 120h117l-28 -120h-117zM293 595l28 120h116l-28 -120h-116z" />
<glyph unicode="&#x131;" horiz-adv-x="208" d="M-5 0l117 508h120l-117 -508h-120z" />
<glyph unicode="&#x141;" horiz-adv-x="375" d="M-20 138l30 135l67 63l86 370h130l-56 -240l126 121l-31 -135l-126 -122l-51 -223h191l-25 -107h-321l47 203z" />
<glyph unicode="&#x142;" horiz-adv-x="208" d="M-5 0l61 263l-61 -63l26 112l61 62l76 332h120l-50 -216l60 59l-26 -112l-60 -60l-87 -377h-120z" />
<glyph unicode="&#x152;" horiz-adv-x="688" d="M25 110q0 9 1 17.5t3 19.5t5.5 27t8.5 38l72 312q12 53 29.5 90.5t42 61t57.5 34.5t76 11q51 0 82.5 -13.5t59.5 -45.5l10 44h281l-26 -109h-206l-38 -165h203l-24 -104h-203l-50 -217h231l-26 -111h-305l7 34q-29 -26 -61.5 -37.5t-76.5 -11.5q-71 0 -112 33.5t-41 91.5 zM160 138q0 -48 58 -48q32 0 48 18t26 63l78 341q5 24 8 38.5t3 23.5q0 22 -15 34.5t-41 12.5q-16 0 -28 -3.5t-21 -14.5t-16.5 -32t-15.5 -56l-77 -335q-5 -20 -6 -27t-1 -15z" />
<glyph unicode="&#x153;" horiz-adv-x="593" d="M16 103q0 11 1.5 23t6.5 32l50 215q18 77 61.5 112.5t116.5 35.5q29 0 55 -7.5t44 -21.5q45 26 103 26q69 0 105 -29.5t36 -85.5q0 -14 -2.5 -29.5t-8.5 -41.5l-24 -104h-203l-18 -77q-5 -20 -6 -27t-1 -15q0 -33 37 -33q20 0 31.5 12.5t19.5 42.5l9 35h115l-4 -19 q-8 -39 -21 -69t-33.5 -50.5t-50 -30.5t-71.5 -10q-38 0 -59.5 6t-41.5 20q-24 -14 -46.5 -19.5t-51.5 -5.5q-72 0 -110.5 30t-38.5 85zM133 101q0 -14 10 -22.5t27 -8.5q21 0 31.5 12.5t18.5 46.5l55 236q7 28 7 42q0 33 -36 33q-25 0 -34.5 -16.5t-16.5 -44.5l-57 -246 q-3 -12 -4 -19t-1 -13zM376 310h85l13 59q4 19 4 26q0 33 -37 33q-20 0 -32 -12t-18 -39z" />
<glyph unicode="&#x160;" horiz-adv-x="448" d="M9 114q0 14 1.5 28t9.5 45l15 62h129l-14 -57q-5 -22 -7.5 -38.5t-2.5 -24.5q0 -20 16 -32t42 -12q17 0 31.5 6.5t21.5 18.5q8 14 14 31t9.5 33.5t5.5 31t2 22.5q0 42 -41 74l-70 56q-32 26 -50.5 55t-18.5 73t13 86.5t37 76.5q50 72 165 72q86 0 130 -29.5t44 -86.5 q0 -20 -6 -46l-13 -60h-130l11 49q4 16 4 32q0 20 -12 31t-38 11q-23 0 -37.5 -13t-22.5 -31t-11 -35.5t-3 -26.5q0 -37 24 -57l82 -69q25 -21 40 -38t23.5 -32.5t11 -32.5t2.5 -38q0 -25 -8 -63t-21 -75q-23 -65 -70.5 -95.5t-126.5 -30.5q-88 0 -134.5 33.5t-46.5 95.5z M194 894h99l34 -73l58 73h110l-110 -133h-129z" />
<glyph unicode="&#x161;" horiz-adv-x="375" d="M8 90q0 8 0.5 14t1.5 13t3 17.5t6 26.5l4 18h110l-6 -24q-4 -14 -5.5 -25.5t-1.5 -19.5q0 -16 10.5 -25.5t28.5 -9.5q26 0 42.5 22.5t16.5 57.5q0 9 -2 16t-7 14.5t-14 16t-23 20.5l-45 38q-53 44 -53 106q0 72 47.5 113t128.5 41q63 0 98.5 -25t35.5 -71q0 -15 -5 -37 l-9 -40h-103l8 36q3 14 3 23q0 33 -38 33q-23 0 -36.5 -17t-13.5 -46q0 -22 22 -40l58 -48q32 -27 46.5 -54.5t14.5 -64.5q0 -87 -47.5 -133t-136.5 -46q-139 0 -139 100zM127 707h101l27 -73l65 73h109l-116 -132h-129z" />
<glyph unicode="&#x178;" horiz-adv-x="417" d="M91 0l51 218l-29 488h133q-1 -49 -2 -110.5t-2 -116.5q-1 -64 -2 -129l148 356h140l-255 -497l-49 -209h-133zM168 762l28 121h117l-28 -121h-117zM369 762l28 121h116l-28 -121h-116z" />
<glyph unicode="&#x17d;" horiz-adv-x="417" d="M-30 0l19 82l323 515h-185l26 109h343l-16 -70l-333 -526h217l-25 -110h-369zM192 894h99l34 -73l58 73h110l-110 -133h-129z" />
<glyph unicode="&#x17e;" horiz-adv-x="354" d="M-30 0l23 99l244 314h-158l23 95h281l-22 -95l-242 -314h183l-23 -99h-309zM120 707h101l27 -73l65 73h109l-116 -132h-129z" />
<glyph unicode="&#x192;" horiz-adv-x="327" d="M-44 -160l24 97q9 -1 13 -1h8q21 0 31 10t15 33l106 450h-52l17 79h54l16 66q13 53 46 76.5t106 23.5h22t25 -2l-23 -97q-9 1 -14.5 1.5t-10.5 0.5q-23 0 -30 -13t-12 -33l-6 -23h52l-18 -79h-53l-115 -485q-7 -30 -18.5 -50t-29.5 -32.5t-43 -18t-60 -5.5 q-8 0 -23.5 0.5t-26.5 1.5z" />
<glyph unicode="&#x2c6;" horiz-adv-x="208" d="M-47 574l117 132h129l56 -132h-100l-27 73l-65 -73h-110z" />
<glyph unicode="&#x2c7;" horiz-adv-x="208" d="M-47 707h101l27 -73l65 73h109l-116 -132h-129z" />
<glyph unicode="&#x2d8;" horiz-adv-x="208" d="M-55 723l66 16q6 -34 29.5 -52.5t61.5 -18.5q37 0 62 16.5t43 52.5l56 -29q-63 -133 -175 -133q-61 0 -98 38t-45 110z" />
<glyph unicode="&#x2d9;" horiz-adv-x="208" d="M31 595l28 120h118l-28 -120h-118z" />
<glyph unicode="&#x2da;" horiz-adv-x="208" d="M14 661q0 38 26 64.5t64 26.5t64 -25.5t26 -64.5q0 -18 -7 -34t-19.5 -28.5t-29 -19.5t-34.5 -7q-37 0 -63.5 25.5t-26.5 62.5zM62 662q0 -17 12 -29.5t29 -12.5t29.5 12t12.5 31q0 17 -11.5 29.5t-28.5 12.5q-18 0 -30.5 -12.5t-12.5 -30.5z" />
<glyph unicode="&#x2db;" horiz-adv-x="208" d="M7 -112q0 20 7 36t22 30t37.5 28t53.5 30h56q-77 -65 -77 -106q0 -17 9.5 -26t26.5 -9q13 0 26.5 4.5t32.5 14.5l-19 -65q-21 -8 -38 -11.5t-37 -3.5q-45 0 -72.5 21.5t-27.5 56.5z" />
<glyph unicode="&#x2dc;" horiz-adv-x="208" d="M-59 574q13 59 42 92t69 33q18 0 35 -6.5t32 -15t28 -15t23 -6.5q13 0 21 9.5t16 32.5h60q-14 -65 -37.5 -95.5t-60.5 -30.5q-16 0 -32 7t-31 15t-30 15t-30 7t-25 -9.5t-20 -32.5h-60z" />
<glyph unicode="&#x2dd;" horiz-adv-x="208" d="M-83 574l97 132h120l-145 -132h-72zM73 574l97 132h121l-145 -132h-73z" />
<glyph unicode="&#x37e;" horiz-adv-x="229" d="M-12 -135l99 135h-58l30 129h117l-30 -129l-114 -135h-44zM118 383l29 129h117l-30 -129h-116z" />
<glyph unicode="&#x394;" horiz-adv-x="506" d="M-49 0l351 706h131l23 -706h-505zM142 107h184q0 11 0.5 34.5t1 56t1 70t0.5 75.5q1 89 2 194z" />
<glyph unicode="&#x3a9;" horiz-adv-x="537" d="M-10 0l24 104h122q-53 55 -53 166q0 30 4 62t12 66l30 130q12 51 30.5 86.5t46 57.5t66 32t90.5 10q90 0 137 -35.5t47 -104.5q0 -18 -2.5 -37.5t-8.5 -45.5l-29 -124q-10 -46 -21.5 -84t-28 -70.5t-39.5 -59t-57 -49.5h114l-24 -104h-209l26 105q14 10 24.5 22.5 t19.5 30t16.5 41t14.5 55.5l59 249q6 25 8.5 38t2.5 24q0 26 -17 40.5t-46 14.5q-16 0 -29 -4t-23 -14.5t-18 -29.5t-15 -50l-37 -162q-9 -39 -15 -64.5t-9.5 -43.5t-5 -32.5t-1.5 -31.5q0 -25 3.5 -45.5t16.5 -37.5q-5 -21 -9.5 -40t-8.5 -35q-4 -17 -7 -30h-201z" />
<glyph unicode="&#x3bc;" horiz-adv-x="445" d="M-32 -176l158 684h118l-81 -355q-2 -11 -3.5 -19t-1.5 -13q0 -38 36 -38q23 0 37.5 16.5t22.5 52.5l82 356h119l-88 -383q-5 -23 -8.5 -36.5t-5 -22.5t-2 -16t-0.5 -16q0 -13 1.5 -19.5t8.5 -14.5h-125q-4 5 -5 9.5t-1 12.5v8.5t2 11.5q-11 -25 -23 -35t-32 -10 q-17 0 -26.5 6t-17.5 22l-46 -201h-119z" />
<glyph unicode="&#x3c0;" horiz-adv-x="478" d="M27 0l94 413h-35l21 95h397l-20 -95h-35l-61 -269q-4 -17 -5 -22.5t-1 -9.5q0 -14 7.5 -19.5t25.5 -5.5h5l-21 -88h-36q-54 0 -78.5 19t-24.5 62q0 10 2 22t7 32l63 279h-92l-94 -413h-119z" />
<glyph unicode="&#x2013;" horiz-adv-x="421" d="M37 243l23 98h356l-23 -98h-356z" />
<glyph unicode="&#x2014;" horiz-adv-x="626" d="M37 242l23 99h560l-22 -99h-561z" />
<glyph unicode="&#x2018;" horiz-adv-x="195" d="M88 440l30 130l115 136h48l-104 -136h59l-30 -130h-118z" />
<glyph unicode="&#x2019;" horiz-adv-x="193" d="M78 440l100 136h-59l30 130h120l-30 -130l-111 -136h-50z" />
<glyph unicode="&#x201a;" horiz-adv-x="193" d="M-55 -136l100 136h-59l30 130h120l-30 -130l-111 -136h-50z" />
<glyph unicode="&#x201c;" horiz-adv-x="375" d="M88 440l30 130l115 136h48l-104 -136h59l-30 -130h-118zM270 440l30 130l112 136h49l-99 -136h58l-30 -130h-120z" />
<glyph unicode="&#x201d;" horiz-adv-x="375" d="M78 440l100 136h-59l30 130h120l-30 -130l-111 -136h-50zM258 440l105 136h-60l30 130h118l-30 -130l-114 -136h-49z" />
<glyph unicode="&#x201e;" horiz-adv-x="375" d="M-55 -136l100 136h-59l30 130h120l-30 -130l-111 -136h-50zM125 -136l105 136h-60l30 130h118l-30 -130l-114 -136h-49z" />
<glyph unicode="&#x2020;" horiz-adv-x="437" d="M87 384l29 124h116l45 198h119l-45 -198h115l-29 -124h-115l-115 -497h-119l115 497h-116z" />
<glyph unicode="&#x2021;" horiz-adv-x="437" d="M17 92l28 124h116l44 188h-116l28 124h116l41 178h119l-41 -178h115l-28 -124h-115l-44 -188h115l-28 -124h-115l-48 -205h-119l48 205h-116z" />
<glyph unicode="&#x2022;" horiz-adv-x="333" d="M41 220l59 258h257l-59 -258h-257z" />
<glyph unicode="&#x2026;" horiz-adv-x="1000" d="M74 0l22 100h97l-23 -100h-96zM407 0l23 100h96l-22 -100h-97zM740 0l22 100h97l-22 -100h-97z" />
<glyph unicode="&#x2030;" horiz-adv-x="1002" d="M53 302q0 11 2 23.5t6 28.5l47 205q12 54 40 83t89 29q53 0 82.5 -20.5t29.5 -58.5q0 -12 -1.5 -27.5t-5.5 -30.5l-46 -199q-8 -35 -19.5 -57.5t-27 -36t-36.5 -19t-48 -5.5q-112 0 -112 85zM133 309q0 -29 36 -29q20 0 29.5 10.5t16.5 39.5l50 224q2 8 3 14.5t1 11.5 q0 29 -36 29q-20 0 -29 -10.5t-16 -39.5l-51 -224q-2 -8 -3 -14.5t-1 -11.5zM144 -23l424 739l58 -23l-423 -738zM420 80q0 20 7 52l47 202q6 24 14 44.5t22 36.5t36.5 25t57.5 9q53 0 82.5 -20.5t29.5 -58.5q0 -12 -1.5 -27.5t-5.5 -30.5l-46 -199q-8 -35 -20 -57.5 t-28.5 -36t-37 -19t-45.5 -5.5q-112 0 -112 85zM500 87q0 -30 36 -30q20 0 29 11t16 40l51 223q4 15 4 27q0 29 -36 29q-20 0 -29.5 -10.5t-16.5 -39.5l-50 -224q-2 -8 -3 -14.5t-1 -11.5zM714 80q0 20 7 52l46 202q5 24 13 44.5t22.5 36.5t37.5 25t57 9q53 0 83 -20.5 t30 -58.5q0 -12 -1.5 -27.5t-5.5 -30.5l-46 -199q-8 -35 -20 -57.5t-28.5 -36t-37 -19t-46.5 -5.5q-111 0 -111 85zM794 87q0 -30 36 -30q20 0 29 11t16 40l51 223q4 15 4 27q0 29 -36 29q-20 0 -29.5 -10.5t-16.5 -39.5l-50 -224q-2 -8 -3 -14.5t-1 -11.5z" />
<glyph unicode="&#x2039;" horiz-adv-x="168" d="M32 221l22 92l124 97l-24 -103l-54 -44l35 -41l-22 -94z" />
<glyph unicode="&#x203a;" horiz-adv-x="168" d="M17 126l24 103l54 44l-34 41l21 94l81 -93l-21 -92z" />
<glyph unicode="&#x2044;" horiz-adv-x="125" d="M-144 -23l424 739l57 -23l-422 -738z" />
<glyph unicode="&#x20ac;" horiz-adv-x="481" d="M51 253l29 67h45l11 48h-61l31 68h46l12 49q9 38 18 66t18.5 48.5t21.5 36t28 27.5q51 39 135 39q49 0 89.5 -11t79.5 -34l-49 -105q-25 28 -50 39t-58 11q-21 0 -36 -4t-27 -17t-21.5 -36t-18.5 -62l-11 -47h167l-30 -67h-152l-12 -49h139l-29 -67h-125l-11 -48 q-7 -31 -7 -51q0 -66 73 -66q33 0 65 12t76 44l-29 -126q-34 -14 -74 -23.5t-85 -9.5q-77 0 -119.5 35.5t-42.5 99.5q0 20 3.5 41.5t12.5 60.5l7 31h-59z" />
<glyph unicode="&#x2122;" horiz-adv-x="631" d="M124 645l15 61h215l-14 -61h-73l-62 -270h-68l62 270h-75zM307 375l78 331h96q0 -45 -1 -85q-1 -35 -1 -70.5t-1 -56.5l95 212h96l-77 -331h-64l63 262l-116 -262h-51q0 10 0.5 27t1.5 37.5t1.5 43.5t1.5 45q2 53 3 113l-60 -266h-65z" />
<glyph unicode="&#x2202;" horiz-adv-x="477" d="M35 167q0 55 16.5 104t44.5 86t66 58.5t80 21.5q35 0 59.5 -12.5t47.5 -41.5q13 65 13 120q0 60 -19.5 87t-64.5 27q-15 0 -29 -2t-40 -8l6 96q23 6 44.5 8.5t47.5 2.5q89 0 130.5 -50.5t41.5 -159.5q0 -34 -4 -73.5t-11.5 -80t-18.5 -81t-24 -76.5q-39 -107 -91.5 -156 t-127.5 -49q-78 0 -122.5 47.5t-44.5 131.5zM148 170q0 -42 16 -66t45 -24q43 0 69 52.5t45 152.5q-14 27 -34.5 42t-43.5 15q-20 0 -37.5 -13.5t-31 -37t-21 -55t-7.5 -66.5z" />
<glyph unicode="&#x2206;" horiz-adv-x="506" d="M-49 0l351 706h131l23 -706h-505zM142 107h184q0 11 0.5 34.5t1 56t1 70t0.5 75.5q1 89 2 194z" />
<glyph unicode="&#x220f;" horiz-adv-x="553" d="M-9 -122l191 828h418l-190 -828h-127l167 722h-166l-167 -722h-126z" />
<glyph unicode="&#x2211;" horiz-adv-x="473" d="M-32 -122l24 107l264 320l-122 292l25 109h389l-26 -107h-258l133 -304l-261 -310h250l-26 -107h-392z" />
<glyph unicode="&#x221a;" horiz-adv-x="559" d="M21 159l177 61l39 -238l276 724h121l-351 -891h-126l-48 267l-64 -23z" />
<glyph unicode="&#x221e;" horiz-adv-x="558" d="M25 258q0 46 13 86.5t35 71t52.5 48t64.5 17.5q40 0 67 -21t54 -72q35 50 68.5 71.5t74.5 21.5q53 0 84 -39.5t31 -105.5q0 -46 -12.5 -86.5t-34 -70.5t-51 -47.5t-63.5 -17.5q-43 0 -71.5 19.5t-55.5 69.5l-7 -9q-38 -42 -66.5 -62t-65.5 -20q-56 0 -86.5 38.5 t-30.5 107.5zM126 279q0 -29 8.5 -46t24.5 -17q14 0 30.5 17.5t48.5 62.5q-19 47 -32 64t-29 17q-22 0 -36.5 -29t-14.5 -69zM356 297q19 -47 31.5 -64t27.5 -17q22 0 37 29t15 69q0 29 -8 46t-24 17q-15 0 -32 -16.5t-47 -63.5z" />
<glyph unicode="&#x222b;" horiz-adv-x="308" d="M-70 -162l26 111q12 -11 20.5 -15t19.5 -4q21 0 32.5 16t21.5 59l122 547q8 34 19.5 64t30.5 52.5t47.5 35.5t71.5 13q17 0 31.5 -3.5t34.5 -11.5l-26 -109q-12 11 -21 15.5t-20 4.5q-19 0 -29.5 -16.5t-20.5 -58.5q-4 -17 -11 -48.5t-16.5 -72t-20 -87t-20.5 -91.5 q-25 -106 -53 -230q-6 -27 -15.5 -59.5t-28 -60.5t-48.5 -46.5t-78 -18.5q-33 0 -69 14z" />
<glyph unicode="&#x2248;" horiz-adv-x="559" d="M59 232q39 35 75 50.5t73 15.5q33 0 67 -20l38 -21q31 -17 53 -17t47.5 11.5t60.5 41.5l31 -95q-40 -36 -79 -49.5t-69 -13.5q-18 0 -33.5 4.5t-41.5 19.5l-26 15q-17 10 -31 14.5t-29 4.5q-21 0 -44 -11t-60 -43zM100 418q39 35 75 50.5t73 15.5q33 0 67 -20l38 -21 q31 -17 53 -17t47.5 11.5t60.5 41.5l31 -95q-40 -36 -79 -49.5t-69 -13.5q-18 0 -33.5 4.5t-41.5 19.5l-26 15q-17 10 -31 14.5t-29 4.5q-21 0 -44 -11t-60 -43z" />
<glyph unicode="&#x2260;" horiz-adv-x="544" d="M62 29l87 133h-83l22 99h123l61 93h-162l23 98h201l80 123h105l-80 -123h83l-23 -98h-122l-61 -93h161l-23 -99h-201l-86 -133h-105z" />
<glyph unicode="&#x2264;" horiz-adv-x="559" d="M42 0l23 101h362l-23 -101h-362zM118 326l25 107l403 195l-29 -125l-278 -129l222 -129l-27 -112z" />
<glyph unicode="&#x2265;" horiz-adv-x="559" d="M65 0l23 101h362l-22 -101h-363zM99 133l29 124l278 130l-222 128l27 112l316 -193l-25 -106z" />
<glyph unicode="&#x25ca;" horiz-adv-x="559" d="M105 355l234 351h103l78 -352l-235 -354h-102zM222 349l39 -227l143 239l-41 222z" />
<glyph unicode="&#xe000;" horiz-adv-x="510" d="M0 0v510h510v-510h-510z" />
</font>
</defs>
</svg>
