<?xml version="1.0" standalone="no"?>
<!DOCTYPE svg PUBLIC "-//W3C//DTD SVG 1.1//EN" "http://www.w3.org/Graphics/SVG/1.1/DTD/svg11.dtd" >
<svg xmlns="http://www.w3.org/2000/svg">
<metadata></metadata>
<defs>
<font id="akzidenz-grotesk_std_light_Rg" horiz-adv-x="313" >
<font-face units-per-em="1000" ascent="750" descent="-250" />
<missing-glyph horiz-adv-x="187" />
<glyph unicode="&#xfb01;" horiz-adv-x="333" d="M17 463v40h60v122q0 14 4.5 28t15 26t27.5 19.5t42 7.5q7 0 13 -0.5t12 -1.5v-39q-2 0 -6 0.5t-9 0.5q-9 0 -19.5 -2t-19 -8t-14 -17.5t-5.5 -31.5v-104h62v-40h-64v-463h-42v463h-57zM237 0v503h42v-503h-42zM237 562v78h43v-78h-43z" />
<glyph unicode="&#xfb02;" horiz-adv-x="333" d="M17 463v40h60v122q0 14 4.5 28t15 26t27.5 19.5t42 7.5q7 0 13 -0.5t12 -1.5v-39q-2 0 -6 0.5t-9 0.5q-9 0 -19.5 -2t-19 -8t-14 -17.5t-5.5 -31.5v-104h62v-40h-64v-463h-42v463h-57zM239 0v706h42v-706h-42z" />
<glyph horiz-adv-x="1000" />
<glyph horiz-adv-x="1000" />
<glyph unicode="&#xd;" horiz-adv-x="187" />
<glyph unicode=" "  horiz-adv-x="187" />
<glyph unicode="&#x09;" horiz-adv-x="187" />
<glyph unicode="&#xa0;" horiz-adv-x="187" />
<glyph unicode="!" horiz-adv-x="187" d="M92 0v90h45v-90h-45zM92 330v376h48v-383l-11 -136h-28z" />
<glyph unicode="&#x22;" horiz-adv-x="272" d="M39 740h58l-18 -288h-21zM175 740h58l-19 -288h-21z" />
<glyph unicode="#" horiz-adv-x="514" d="M20 263v40h138l10 112h-132v41h136l21 250h44l-21 -250h99l21 250h42l-21 -250h136v-41h-140l-9 -112h137v-40h-141l-21 -263h-43l23 263h-100l-22 -263h-44l22 263h-135zM203 303h99l9 112h-99z" />
<glyph unicode="$" horiz-adv-x="358" d="M30 180v44h44v-38q0 -75 24.5 -108.5t80.5 -33.5q99 0 99 119q0 26 -3.5 45t-13.5 37.5t-27.5 38t-44.5 46.5q-39 38 -65.5 63.5t-43 49t-24 51.5t-7.5 71q0 131 113 140v50h31v-50q27 -4 48 -12t35 -25.5t21.5 -46.5t7.5 -74v-21h-45v21q0 65 -19 90t-64 25 q-44 0 -62.5 -23t-18.5 -77q0 -32 7 -54.5t21 -42t35.5 -39.5t50.5 -47q34 -32 56 -57t35 -48.5t18 -48.5t5 -57q0 -154 -130 -167v-72h-31v72q-64 6 -98.5 47t-34.5 132z" />
<glyph unicode="%" horiz-adv-x="583" d="M20 367v241q0 13 3 30.5t12.5 33t28.5 26t51 10.5q48 0 68.5 -25.5t20.5 -76.5v-240q0 -18 -3 -37t-13 -34t-28 -25t-47 -10q-26 0 -44 8.5t-29 23t-15.5 34t-4.5 41.5zM58 371q0 -30 10.5 -52t44.5 -22q17 0 27.5 6t16.5 16t8 22.5t2 24.5v233q0 37 -10.5 53.5 t-42.5 16.5q-26 0 -41 -13t-15 -50v-235zM91 -59l366 845l26 -12l-367 -844zM374 102v241q0 13 3 30.5t12.5 33t28.5 26t51 10.5q48 0 68.5 -24.5t20.5 -75.5v-242q0 -18 -3 -37t-13 -34t-28 -25t-47 -10q-26 0 -44 8.5t-29 23t-15.5 34t-4.5 41.5zM412 106q0 -30 10.5 -52 t44.5 -22q17 0 27.5 6t16.5 16t8 22.5t2 24.5v238q0 36 -12.5 50.5t-40.5 14.5q-26 0 -41 -12.5t-15 -47.5v-238z" />
<glyph unicode="&#x26;" horiz-adv-x="437" d="M32 132q0 31 8 57.5t21 50.5t30.5 46t36.5 45q-2 7 -8 23t-12 38t-10.5 48t-4.5 52q0 14 3 34t13.5 38.5t29.5 32t50 13.5q40 0 62.5 -23.5t22.5 -62.5q0 -19 -4.5 -37.5t-16 -41t-30 -51t-46.5 -67.5q15 -35 44 -94t80 -139q10 15 18.5 30t15 41.5t10 68t3.5 108.5h44 q0 -30 -1 -62.5t-5 -64.5t-12.5 -63t-24.5 -58q-3 -6 -8 -13t-13 -19q19 -14 34 -19t36 -5q3 0 6.5 0.5t6.5 0.5h8v-41q-27 0 -45 1.5t-31.5 5.5t-24 10t-22.5 15q-20 -20 -52.5 -29.5t-63.5 -9.5q-6 0 -17 0.5t-25.5 3.5t-30 10t-29.5 19q-7 6 -15 15.5t-15 22t-11.5 30 t-4.5 40.5zM77 137q0 -27 9 -47t24 -33t34.5 -19t40.5 -6q35 0 54 9.5t30 19.5q-35 50 -66 109t-57 114q-41 -51 -55 -86t-14 -61zM135 492q0 -9 1 -24t4 -31.5t8 -33t12 -29.5q12 17 24.5 35t23 37.5t17 38.5t6.5 37q0 20 -11 35t-33 15q-23 0 -37.5 -19.5t-14.5 -60.5z " />
<glyph unicode="'" horiz-adv-x="137" d="M39 740h58l-18 -288h-21z" />
<glyph unicode="(" horiz-adv-x="229" d="M29 291q0 45 7 91.5t21 92.5t34.5 88.5t46.5 79.5q12 17 25 32.5t27 31.5v-56l-16 -24l-16 -24q-20 -33 -35.5 -72.5t-26.5 -81.5t-16.5 -84t-5.5 -80q0 -47 7.5 -96.5t22 -97t36.5 -92t52 -81.5v-58q-15 17 -29.5 33t-27.5 35q-25 37 -45 81.5t-33.5 92t-20.5 96 t-7 93.5z" />
<glyph unicode=")" horiz-adv-x="229" d="M37 650v58q39 -39 69.5 -89t51 -106.5t31.5 -116.5t11 -118q0 -43 -7 -88.5t-20 -90.5t-32 -86.5t-44 -77.5q-14 -20 -29 -37.5t-30 -35.5v56q29 36 51 80.5t36.5 92.5t22 97t7.5 95q0 49 -7.5 99t-22.5 98t-37 91.5t-51 78.5z" />
<glyph unicode="*" horiz-adv-x="305" d="M29 601l12 38l91 -25v96h40v-98l93 32l13 -36l-94 -35l57 -80l-31 -24l-59 79l-52 -79l-32 24l53 81z" />
<glyph unicode="+" horiz-adv-x="558" d="M84 276v41h173v184h45v-184h172v-41h-172v-184h-45v184h-173z" />
<glyph unicode="," horiz-adv-x="146" d="M50 -68q18 10 21.5 26.5t3.5 35.5v6h-24v91h45v-91q0 -32 -8 -54.5t-38 -35.5v22z" />
<glyph unicode="-" horiz-adv-x="248" d="M35 271v42h177v-42h-177z" />
<glyph unicode="." horiz-adv-x="146" d="M52 0v90h44v-90h-44z" />
<glyph unicode="/" d="M34 0l200 706h45l-199 -706h-46z" />
<glyph unicode="0" horiz-adv-x="354" d="M36 148v411q0 30 7.5 57.5t24.5 48t45 32.5t70 12q29 0 54 -8t43.5 -26t29 -46.5t10.5 -69.5v-409q0 -75 -40.5 -112.5t-102.5 -37.5q-60 0 -100.5 37.5t-40.5 110.5zM82 147q0 -43 24.5 -73t70.5 -30q9 0 25.5 3t32 14t27.5 32t12 57v410q0 49 -21 76.5t-73 27.5 q-55 0 -76.5 -29t-21.5 -79v-409z" />
<glyph unicode="1" horiz-adv-x="354" d="M50 564v39q33 5 55 17.5t36 27.5t21 30t9 24h45v-702h-50v615q-39 -33 -68 -41t-48 -10z" />
<glyph unicode="2" horiz-adv-x="354" d="M41 0v53q9 30 27.5 61t42.5 66q31 45 57.5 82t45.5 74t30 77t11 91v41q0 20 -2.5 41t-10.5 38.5t-23.5 29t-41.5 11.5q-28 0 -44 -12t-23.5 -31.5t-9.5 -44.5t-2 -51v-48h-44v67q0 27 3 55.5t15.5 52t37 39t67.5 15.5q35 0 59 -13t38 -33.5t20 -46t6 -50.5v-59 q0 -47 -7 -84t-22.5 -72t-39.5 -72t-58 -85q-28 -38 -52 -72.5t-38 -77.5h222v-42h-264z" />
<glyph unicode="3" horiz-adv-x="354" d="M35 180v35h44v-23q0 -30 2.5 -58.5t12 -50.5t29 -35.5t53.5 -13.5q23 0 40.5 9t29.5 24t18 34.5t6 41.5v75q0 42 -10.5 68t-30 40.5t-47.5 20.5t-64 8v46h4q23 0 46 6t41 18.5t29.5 32t11.5 46.5v65q0 20 -3 37t-11 30t-23.5 20.5t-41.5 7.5q-22 0 -36 -7t-22.5 -19.5 t-11.5 -28.5t-3 -34v-77h-44v79q0 39 10 64t26.5 39.5t38.5 20t46 5.5q38 0 61.5 -12t36.5 -31t17.5 -42t4.5 -46v-67q0 -37 -12.5 -60.5t-29 -37.5t-33.5 -20.5t-26 -10.5q18 -4 39 -11t39 -22.5t30 -43.5t12 -76v-76q0 -44 -11.5 -74.5t-31 -49t-45 -26.5t-52.5 -8 q-46 0 -73.5 17.5t-42 45t-19 61t-4.5 64.5z" />
<glyph unicode="4" horiz-adv-x="354" d="M19 225v46l182 430h62v-434h84v-42h-84v-225h-46v225h-198zM64 267h153v369z" />
<glyph unicode="5" horiz-adv-x="354" d="M46 147v75h44v-55q0 -24 1.5 -47t9 -41t23.5 -29t45 -11q31 0 48.5 10t26.5 28.5t11 46t2 62.5v146q0 21 -3 39.5t-11.5 32.5t-23.5 22t-39 8q-12 0 -26 -3t-27 -12.5t-21.5 -26.5t-8.5 -45v-10h-37v366h232v-43h-187v-210q10 7 29.5 17t50.5 10q36 0 58.5 -13.5 t35.5 -36t18 -51t5 -58.5v-133q0 -30 -2 -63.5t-14 -61.5t-38 -46t-74 -18q-41 0 -66.5 13t-39 34t-18 48.5t-4.5 55.5z" />
<glyph unicode="6" horiz-adv-x="354" d="M48 140v424q0 24 5.5 49.5t21 47.5t44 36t73.5 14q38 0 62.5 -11t39 -31t20.5 -48t6 -63v-40h-45v10q0 28 -1.5 53t-10 44t-25.5 30.5t-48 11.5t-49.5 -11t-29 -26.5t-14 -33.5t-3.5 -32v-178q19 20 49.5 31.5t56.5 11.5q61 0 90 -38t29 -97v-168q0 -41 -15 -66.5 t-36 -39.5t-44.5 -19t-40.5 -5q-64 0 -99.5 36t-35.5 108zM93 166q0 -18 2 -40t10.5 -41t26.5 -31.5t50 -12.5q25 0 42.5 8.5t28.5 22t16 31t5 34.5v157q0 42 -19.5 66.5t-57.5 24.5q-51 0 -77.5 -32t-26.5 -79v-108z" />
<glyph unicode="7" horiz-adv-x="354" d="M47 659v44h271v-44q-31 -71 -58.5 -141.5t-48 -144t-32 -151t-11.5 -161.5v-61h-49v42q0 69 8 139t26 145.5t47 157.5t71 175h-224z" />
<glyph unicode="8" horiz-adv-x="354" d="M41 131v139q0 35 8.5 57.5t20.5 36t25.5 20.5t23.5 11q-23 9 -36.5 21t-20.5 24.5t-9 26t-2 25.5v104q0 17 4 37.5t17.5 38t38.5 29.5t68 12q22 0 44.5 -4.5t41 -17.5t30 -37t11.5 -64v-89q0 -53 -20 -74t-53 -32q23 -8 38.5 -19.5t25.5 -27.5t14 -38.5t4 -52.5v-129 q0 -69 -37 -102t-99 -33q-64 0 -101 36t-37 102zM87 149q0 -63 25 -88t67 -25q29 0 46.5 10t27.5 25.5t13 34t3 35.5v124q0 17 -3 36t-12.5 34.5t-27 26t-46.5 10.5q-52 0 -72.5 -29.5t-20.5 -73.5v-120zM97 496q0 -42 23.5 -60.5t57.5 -18.5q35 0 58.5 21t23.5 67v72 q0 21 -3.5 38.5t-12.5 30t-25.5 19t-43.5 6.5q-23 0 -38 -6t-24 -16.5t-12.5 -25t-3.5 -30.5v-97z" />
<glyph unicode="9" horiz-adv-x="354" d="M33 133v57h46v-55q0 -15 3 -32t12 -31.5t26 -24t45 -9.5q51 0 74 27.5t23 69.5v188q-15 -16 -43 -29.5t-63 -13.5q-55 0 -88.5 31t-33.5 97v154q0 27 6 54t21.5 48.5t42.5 35t69 13.5q39 0 65 -11.5t41.5 -31.5t22.5 -46.5t7 -57.5v-419q0 -45 -12 -75t-32 -47.5 t-46 -24.5t-53 -7q-71 0 -102 38t-31 102zM81 406q0 -36 19.5 -59t54.5 -23q48 0 78 29t30 94v112q0 21 -3.5 40.5t-13 35t-28 24.5t-48.5 9q-17 0 -33 -5t-28.5 -15.5t-20 -27t-7.5 -40.5v-174z" />
<glyph unicode=":" horiz-adv-x="187" d="M92 0v90h44v-90h-44zM92 364v91h44v-91h-44z" />
<glyph unicode=";" horiz-adv-x="187" d="M91 0v91h45v-91q0 -32 -7.5 -53.5t-37.5 -36.5v22q18 13 21.5 27.5t3.5 34.5v6h-25zM91 364v91h46v-91h-46z" />
<glyph unicode="&#x3c;" horiz-adv-x="559" d="M89 270v45l357 195v-49l-312 -166l312 -167v-52z" />
<glyph unicode="=" horiz-adv-x="559" d="M85 203v42h389v-42h-389zM85 347v42h389v-42h-389z" />
<glyph unicode="&#x3e;" horiz-adv-x="559" d="M113 76v48l312 167l-312 167v51l357 -193v-45z" />
<glyph unicode="?" horiz-adv-x="354" d="M70 482v61q0 29 3.5 59.5t16 56.5t37 42.5t67.5 16.5q44 0 68.5 -18.5t37 -46.5t15.5 -61t3 -61t-1.5 -49.5t-6.5 -40.5t-13 -36.5t-22 -37.5q-9 -13 -19.5 -26.5t-19 -27.5t-14 -29t-5.5 -32v-78h-47v87q0 12 3.5 29t18.5 39l46 67q14 20 23.5 45t9.5 67v29 q0 30 -3.5 55.5t-12.5 44t-24.5 29t-38.5 10.5q-24 0 -38.5 -11.5t-22.5 -29.5t-11 -38.5t-3 -38.5v-76h-47zM170 0v90h48v-90h-48z" />
<glyph unicode="@" horiz-adv-x="878" d="M57 232q0 100 36.5 187.5t99 153t147 103t180.5 37.5q68 0 122.5 -20t93 -57.5t59 -91t20.5 -119.5q0 -69 -20 -132.5t-52.5 -112t-73 -78t-81.5 -29.5q-35 0 -56.5 22.5t-21.5 58.5v7t1 10q-64 -96 -149 -96q-59 0 -93 42t-34 114q0 56 17 107t45 90t65.5 62.5 t77.5 23.5q28 0 48.5 -10.5t34.5 -26t23 -33t13 -31.5l18 78h46l-50 -227q-7 -31 -9.5 -49t-2.5 -43q0 -56 45 -56q26 0 53 24t48.5 56t37 69.5t23.5 78.5t8 83q0 57 -18.5 103.5t-52 79t-81.5 50t-108 17.5q-86 0 -162 -35t-132.5 -95.5t-89.5 -141t-33 -171.5 q0 -71 24.5 -130t69 -101t107 -65.5t137.5 -23.5q65 0 123 16.5t115 49.5q17 10 29 18t23.5 16.5t24 19.5t28.5 26l23 -26q-78 -78 -170 -117t-195 -39q-84 0 -154.5 26t-120.5 72.5t-78 112t-28 143.5zM283 230q0 -54 25.5 -85.5t68.5 -31.5q42 0 73 25t51 62.5t30 80 t10 77.5q0 52 -27 85.5t-69 33.5q-32 0 -61.5 -20t-52 -54t-35.5 -79t-13 -94z" />
<glyph unicode="A" horiz-adv-x="375" d="M24 0l129 710h68l128 -710h-52l-36 215h-148l-37 -215h-52zM121 261h131l-65 384z" />
<glyph unicode="B" horiz-adv-x="375" d="M59 0v706h144q7 0 17 -0.5t21.5 -3.5t22.5 -9t20 -17q15 -17 19.5 -38.5t4.5 -42.5v-114q0 -31 -9 -49.5t-22 -28.5t-27 -14t-25 -6q4 0 12.5 -1.5t19 -4.5t22 -8t21.5 -13q24 -20 28.5 -48t4.5 -56v-125q0 -26 -6.5 -49t-21 -40.5t-39 -27.5t-60.5 -10h-147zM108 402h54 q35 0 54.5 10t29.5 24.5t12 30t2 26.5v101q0 26 -8 40t-20.5 20.5t-28.5 8t-33 1.5h-62v-262zM109 43h83q30 0 48.5 6.5t28 20t12.5 34t3 49.5v103q0 35 -11 55.5t-29 31t-40 13.5t-45 3h-50v-316z" />
<glyph unicode="C" horiz-adv-x="375" d="M52 144v428q0 39 12.5 66t32 43.5t45 24t50.5 7.5q57 0 95.5 -32t38.5 -99v-104h-49v61q0 26 -2 49.5t-10.5 41t-25 28t-46.5 10.5q-32 0 -50.5 -12.5t-28 -30t-12 -35t-2.5 -27.5v-382q0 -73 20 -109.5t78 -36.5q24 0 40.5 7.5t26.5 20.5t14.5 30t4.5 35v115h50v-109 q0 -24 -4.5 -49.5t-19.5 -46.5t-43.5 -35t-76.5 -14q-45 0 -72 15.5t-41.5 39t-19.5 50.5t-5 50z" />
<glyph unicode="D" horiz-adv-x="396" d="M60 0v706h61q24 0 47.5 -1.5t46 -7.5t42.5 -17.5t37 -31.5q15 -18 24 -39t14.5 -49t7.5 -63t2 -80v-199q0 -27 -5.5 -64.5t-24.5 -71.5t-56.5 -58t-102.5 -24h-93zM109 44h40q78 0 111.5 47.5t33.5 153.5v173q0 19 -0.5 43t-3 48.5t-7.5 47.5t-14 40q-12 21 -28 34 t-33 19.5t-33.5 8.5t-28.5 2h-37v-617z" />
<glyph unicode="E" horiz-adv-x="333" d="M59 0v706h250v-44h-202v-272h166v-43h-166v-303h201v-44h-249z" />
<glyph unicode="F" d="M59 0v706h249v-44h-201v-272h177v-43h-177v-347h-48z" />
<glyph unicode="G" horiz-adv-x="396" d="M55 182v376q0 36 7.5 65t25 49.5t45.5 31t69 10.5q38 0 64 -11t42 -29t23 -41.5t7 -47.5v-106h-47v83q0 21 -3.5 41t-13 35t-27.5 24.5t-48 9.5q-28 0 -47 -9t-29.5 -25t-15 -37t-4.5 -44v-361q0 -44 2 -69.5t12 -45.5q3 -6 8.5 -14t15 -15.5t22.5 -13t31 -5.5 q24 0 42.5 12t31 30t19.5 38.5t7 37.5v128h-104v43h153v-322h-37v56q-5 -9 -15 -20t-24.5 -21.5t-34 -17.5t-44.5 -7q-32 0 -60.5 13.5t-45.5 40.5q-8 13 -13.5 25.5t-8.5 28.5t-4 36t-1 48z" />
<glyph unicode="H" horiz-adv-x="396" d="M59 0v706h48v-314h182v314h49v-706h-49v349h-182v-349h-48z" />
<glyph unicode="I" horiz-adv-x="167" d="M58 0v706h51v-706h-51z" />
<glyph unicode="J" horiz-adv-x="333" d="M42 117v106h48v-110q0 -15 4 -29t12.5 -25t21.5 -18t31 -7q22 0 35.5 8.5t21 20.5t10 26t2.5 25v592h48v-583q0 -38 -10.5 -63.5t-27 -41t-38 -22t-43.5 -6.5q-39 0 -62 15t-34.5 35.5t-15 42t-3.5 34.5z" />
<glyph unicode="K" horiz-adv-x="354" d="M58 0v706h49v-346l176 346h55l-150 -281l152 -425h-53l-129 366l-52 -98v-268h-48z" />
<glyph unicode="L" d="M58 0v706h49v-662h184v-44h-233z" />
<glyph unicode="M" horiz-adv-x="500" d="M54 0v43t0.5 86t1 114t1.5 127q2 150 3 336h72l116 -603l118 603h72q0 -14 0.5 -51.5t1 -90t1 -114.5t1.5 -125q2 -147 3 -325h-47v53v101t-0.5 129t-0.5 139v130v101l-125 -653h-45l-125 653v-653h-48z" />
<glyph unicode="N" horiz-adv-x="396" d="M55 0v706h72l169 -679q-1 180 -3 325q-1 62 -1.5 122.5t-1 109.5t-1 82t-0.5 40h48v-706h-75l-164 667q1 -167 2 -306q0 -59 1 -118t1 -108.5v-85v-49.5h-47z" />
<glyph unicode="O" horiz-adv-x="396" d="M54 146v413q0 33 8.5 61t25.5 49t44.5 33t64.5 12q50 0 78.5 -16t43 -41.5t18 -56t3.5 -59.5v-403q0 -24 -6 -50t-22 -47.5t-44.5 -35.5t-72.5 -14q-39 0 -66 11t-43.5 31.5t-24 49t-7.5 63.5zM102 148q0 -54 22.5 -83.5t73.5 -29.5q30 0 49 11.5t29 29.5t13.5 39.5 t3.5 40.5v370q0 42 -7 70t-19.5 44.5t-30 23t-39.5 6.5q-26 0 -44 -9.5t-29.5 -24.5t-16.5 -34t-5 -39v-415z" />
<glyph unicode="P" horiz-adv-x="375" d="M58 0v706h125q29 0 58.5 -4t53.5 -24q14 -12 22 -26t11.5 -30.5t4 -34.5t0.5 -38v-80q0 -29 -4 -53.5t-24 -48.5q-13 -16 -30.5 -25t-34.5 -13.5t-33 -5.5t-28 -1h-72v-322h-49zM106 363h80q20 0 40 4t36 21q16 16 19.5 37t3.5 34v71q0 36 -2.5 61.5t-12 42t-29.5 24 t-55 7.5h-80v-302z" />
<glyph unicode="Q" horiz-adv-x="396" d="M54 187v361q0 30 5.5 60t21.5 54t45 39t75 15q69 0 104 -39.5t35 -116.5v-388q0 -21 -1.5 -42t-8 -40.5t-19 -38t-33.5 -34.5l92 -84l-29 -31l-107 95q-15 -3 -23.5 -4t-16.5 -1q-50 0 -78.5 19t-42 48t-16.5 63.5t-3 64.5zM102 195q0 -46 5.5 -76.5t17 -49t29 -26 t41.5 -7.5q27 0 46 11t30 29t16 42t5 50v393q0 51 -23.5 80.5t-70.5 29.5q-34 0 -53.5 -14t-29 -33t-11.5 -39t-2 -32v-358z" />
<glyph unicode="R" horiz-adv-x="375" d="M59 0v706h141q66 0 100.5 -29t34.5 -94v-118q0 -31 -9.5 -51.5t-23.5 -34t-31.5 -21t-34.5 -10.5l130 -348h-52l-129 344h-77v-344h-49zM108 386h90q25 0 41.5 6t26 16t13.5 23.5t4 27.5v111q0 44 -15.5 69t-62.5 25h-97v-278z" />
<glyph unicode="S" horiz-adv-x="375" d="M42 132v99h49v-56q0 -40 2.5 -64.5t18.5 -44.5q9 -11 20 -17.5t22 -10.5t21.5 -5t18.5 -1q26 0 43.5 8.5t28 23.5t15 36.5t4.5 47.5q0 29 -4.5 51t-16.5 43t-32 43.5t-50 52.5t-52.5 54.5t-38.5 49t-24 53t-8 65.5q0 22 3 49t16.5 51t40.5 40t75 16t74.5 -16t38.5 -40.5 t14.5 -53t2.5 -53.5v-51h-48v63q0 16 -1.5 35t-9 35.5t-24.5 27.5t-48 11q-46 0 -65.5 -27t-19.5 -79q0 -26 4 -46t16.5 -42t36 -49.5t63.5 -68.5q27 -28 47 -50.5t33 -45t19.5 -48.5t6.5 -61q0 -25 -3.5 -54.5t-18 -54.5t-43 -42t-79.5 -17q-31 0 -58 8t-47 25.5 t-31.5 44.5t-11.5 65z" />
<glyph unicode="T" d="M7 662v44h298v-44h-125v-662h-50v662h-123z" />
<glyph unicode="U" horiz-adv-x="396" d="M57 140v566h48v-547q0 -24 2.5 -47t12 -40t28.5 -27.5t51 -10.5q28 0 45.5 8.5t27.5 24t13.5 37.5t3.5 48v554h49v-566q0 -42 -11 -71t-30.5 -47t-45 -26t-55.5 -8q-27 0 -52 7.5t-44.5 25t-31 46.5t-11.5 73z" />
<glyph unicode="V" horiz-adv-x="354" d="M27 706h51l95 -602l103 602h50l-128 -706h-51z" />
<glyph unicode="W" horiz-adv-x="562" d="M21 706h50l95 -600l91 600h52l92 -600l92 600h49l-115 -706h-53l-91 607l-91 -607h-51z" />
<glyph unicode="X" horiz-adv-x="354" d="M24 0l128 389l-99 317h51l76 -268l82 268h51l-107 -318l124 -388h-51l-102 335l-103 -335h-50z" />
<glyph unicode="Y" horiz-adv-x="354" d="M14 706h52l113 -332l112 332h54l-144 -394v-312h-48v312z" />
<glyph unicode="Z" horiz-adv-x="354" d="M27 0v32l234 631h-192v43h249v-33l-236 -629h235v-44h-290z" />
<glyph unicode="[" horiz-adv-x="229" d="M53 -141v847h142v-36h-99v-773h99v-38h-142z" />
<glyph unicode="\" d="M34 706h44l203 -706h-47z" />
<glyph unicode="]" horiz-adv-x="229" d="M32 670v36h144v-847h-141v38h98v773h-101z" />
<glyph unicode="^" horiz-adv-x="559" d="M75 357l180 349h47l181 -349h-51l-154 304l-151 -304h-52z" />
<glyph unicode="_" horiz-adv-x="500" d="M-10 -155h520v-43h-520v43z" />
<glyph unicode="`" horiz-adv-x="229" d="M22 678h97l87 -109h-33z" />
<glyph unicode="a" d="M28 118q0 54 21.5 85t52.5 51.5t64 35.5t57 36v69q0 29 -12 50t-50 21q-39 0 -54 -20.5t-15 -71.5v-26h-43v27q0 74 28.5 102.5t85.5 28.5q54 0 78.5 -27t24.5 -74v-347q0 -13 9 -15.5t21 -2.5v-40h-9q-32 1 -45 10t-18 29q-11 -9 -35.5 -24t-62.5 -15q-26 0 -44.5 9.5 t-30.5 26t-17.5 38t-5.5 44.5zM71 117q0 -6 1.5 -19t8 -25.5t19.5 -22.5t37 -10q29 0 49 13.5t38 33.5v192q-19 -13 -41 -25t-42 -23q-35 -20 -52.5 -46t-17.5 -68z" />
<glyph unicode="b" horiz-adv-x="333" d="M52 0v706h42v-246q23 31 48 40t45 9q32 0 51 -12.5t29.5 -31t13.5 -41.5t3 -44v-264q0 -17 -5 -38t-17.5 -39t-33 -30t-50.5 -12q-5 0 -15 1t-22 5.5t-23.5 13.5t-20.5 25v-42h-45zM95 135q0 -31 9.5 -50.5t22.5 -30.5t26.5 -15t21.5 -4q35 0 51 28t16 68v250 q0 6 -1.5 20.5t-8 29.5t-20 26.5t-37.5 11.5q-35 0 -57.5 -24.5t-22.5 -66.5v-243z" />
<glyph unicode="c" d="M40 124v252q0 36 9 60t24.5 39t36.5 21.5t46 6.5q61 0 88 -36t27 -97v-46h-42v40q0 19 -3 37t-11 32.5t-22 23.5t-36 9q-24 0 -39 -9.5t-22.5 -23.5t-10 -30t-2.5 -30v-222q0 -18 1.5 -38.5t9.5 -37t24 -27.5t44 -11q23 0 36.5 8t21 20t10 26.5t2.5 27.5v73h44v-65 q0 -59 -26.5 -94.5t-96.5 -35.5q-33 0 -54.5 11.5t-34.5 29.5t-18.5 40.5t-5.5 45.5z" />
<glyph unicode="d" horiz-adv-x="333" d="M48 115v267q0 33 9 56t23 37.5t32 21t37 6.5q20 0 35 -5.5t25.5 -13t17.5 -15.5t11 -13v250h42v-706h-40v53q-3 -6 -10 -16t-18 -19t-27 -15.5t-37 -6.5q-18 0 -36 6t-32 20t-23 37t-9 56zM90 123q0 -12 2 -27t9 -29t21 -23.5t37 -9.5q32 0 53 22t26 51v267 q-5 38 -23.5 63.5t-55.5 25.5q-18 0 -31 -7t-21.5 -18.5t-12.5 -25.5t-4 -28v-261z" />
<glyph unicode="e" d="M43 116v270q0 23 5.5 44.5t19 38.5t35 27t54.5 10q57 0 86.5 -31.5t29.5 -98.5v-129h-188v-124q0 -10 2 -25t9.5 -28t21.5 -22.5t39 -9.5q26 0 41 9t22.5 23.5t9 32.5t1.5 36v36h42v-63q0 -20 -6 -40t-19.5 -36.5t-35.5 -26.5t-55 -10q-24 0 -44.5 6.5t-36 21t-24.5 36.5 t-9 53zM85 283h145v100q0 44 -21 64.5t-51 20.5q-38 0 -55.5 -25t-17.5 -64v-96z" />
<glyph unicode="f" horiz-adv-x="187" d="M17 463v40h60v122q0 14 4.5 28t15 26t27.5 19.5t42 7.5q7 0 13 -0.5t12 -1.5v-39q-2 0 -6 0.5t-9 0.5q-9 0 -19.5 -2t-19 -8t-14 -17.5t-5.5 -31.5v-104h62v-40h-64v-463h-42v463h-57z" />
<glyph unicode="g" horiz-adv-x="333" d="M46 -51h43q1 -3 1.5 -14.5t5.5 -22.5q6 -11 15.5 -17t19 -8.5t17.5 -3t10 -0.5q5 0 18.5 2t27 9.5t24 22.5t10.5 41v87l-11.5 -11.5t-18 -14.5t-25 -12.5t-33.5 -5.5q-27 0 -46 9.5t-30.5 25.5t-17 37.5t-5.5 45.5v275q0 34 9 56t23 35t33 18t38 5t33 -5t24 -12.5 t16.5 -15.5t10.5 -13v41h43v-539q0 -32 -10 -55t-27 -38t-39.5 -22t-47.5 -7q-28 0 -57.5 11.5t-42.5 39.5q-5 11 -7 22.5t-4 33.5zM93 128q0 -48 18.5 -67t48.5 -19q23 0 46.5 18t31.5 57v282q-5 28 -24.5 49t-50.5 21q-22 0 -35.5 -7.5t-21 -20.5t-10.5 -29t-3 -34v-250z " />
<glyph unicode="h" horiz-adv-x="333" d="M54 0v706h43v-243q4 5 11.5 13t18.5 15.5t26.5 12.5t34.5 5q14 0 31 -4.5t32 -15.5t25 -31t10 -52v-406h-43v376q0 17 -2 33.5t-9 29t-20 20.5t-35 8q-18 0 -32.5 -6.5t-24 -16t-15.5 -21t-8 -22.5v-401h-43z" />
<glyph unicode="i" horiz-adv-x="146" d="M51 0v503h42v-503h-42zM51 562v78h43v-78h-43z" />
<glyph unicode="j" horiz-adv-x="167" d="M7 -120q22 5 34.5 16t19 25t8 29t1.5 29v524h42v-545q0 -12 -2.5 -29.5t-13 -35.5t-31.5 -33.5t-58 -22.5v43zM70 561v78h42v-78h-42z" />
<glyph unicode="k" d="M52 0v706h42v-439l145 236h49l-117 -192l129 -311h-47l-110 265l-48 -78v-187h-43z" />
<glyph unicode="l" horiz-adv-x="146" d="M52 0v706h42v-706h-42z" />
<glyph unicode="m" horiz-adv-x="521" d="M53 0v503h43v-42q5 7 14 15t21 15.5t27 12.5t32 5q21 0 36 -7t25 -16.5t16 -19.5t9 -17q4 6 12 16.5t20 20t29 17t40 7.5q18 0 34.5 -6t30 -19.5t21.5 -34.5t8 -51v-399h-43v381q0 20 -2 36t-9 27.5t-19 18t-33 6.5q-32 0 -52.5 -19t-29.5 -43v-407h-43v399q0 33 -17 52 t-47 19q-17 0 -30.5 -6t-24 -14t-17 -17.5t-9.5 -17.5v-415h-42z" />
<glyph unicode="n" horiz-adv-x="333" d="M55 0v503h42v-48q12 19 25.5 29.5t26 16t23.5 7t18 1.5q15 0 32 -5t31 -16.5t23 -31t9 -48.5v-408h-42v396q0 14 -2.5 27.5t-9.5 24.5t-19 17.5t-31 6.5q-30 0 -50.5 -17t-33.5 -46v-409h-42z" />
<glyph unicode="o" d="M39 107v278q0 23 6.5 45t20.5 39t37.5 27t56.5 10q60 0 87 -32.5t27 -89.5v-252q0 -36 -9.5 -61.5t-25.5 -41.5t-38 -23.5t-46 -7.5q-53 0 -84.5 29t-31.5 80zM82 120q0 -40 19 -60.5t54 -20.5q24 0 39 9t23.5 22t11 28t2.5 28v252q0 14 -2.5 29t-10 27.5t-21.5 21 t-37 8.5q-25 0 -40.5 -8t-23.5 -21.5t-11 -31t-3 -35.5v-248z" />
<glyph unicode="p" horiz-adv-x="333" d="M54 -163v666h43v-44q19 28 45.5 38.5t47.5 10.5q30 0 48.5 -12t29 -31.5t14 -43.5t3.5 -47v-261q0 -50 -27 -83t-75 -33q-29 0 -53 14t-33 30v-204h-43zM97 94q7 -26 29.5 -41.5t48.5 -15.5q24 0 37 9.5t20 24t8.5 31.5t1.5 33v258q0 30 -16 53t-49 23q-18 0 -32 -6.5 t-24 -16t-16 -21t-8 -21.5v-310z" />
<glyph unicode="q" horiz-adv-x="333" d="M49 103v284q0 23 5.5 45t18 39t32.5 27.5t48 10.5q26 0 49 -12t35 -35v41h41v-666h-42v209q-30 -49 -91 -49q-25 0 -43 9.5t-30 24.5t-17.5 34t-5.5 38zM91 127q0 -44 17 -68t49 -24q18 0 33 8t25.5 21t16 29t5.5 32v239q0 50 -23.5 77.5t-54.5 27.5q-36 0 -52 -27.5 t-16 -64.5v-250z" />
<glyph unicode="r" horiz-adv-x="208" d="M53 0v503h41v-88q17 41 48 64.5t57 36.5v-57q-10 -3 -20.5 -6.5t-18.5 -8.5q-15 -9 -26.5 -22.5t-19.5 -27t-12.5 -24.5t-6.5 -15v-355h-42z" />
<glyph unicode="s" horiz-adv-x="292" d="M28 139v38h42v-44q0 -12 1 -28t8.5 -30.5t23.5 -25t45 -10.5q15 0 28 3.5t23.5 13t16.5 26t6 41.5q0 18 -3 31.5t-12 26t-25.5 28t-43.5 38.5q-21 18 -38 33.5t-29 32.5t-18 37t-6 47q0 16 3 35t14 35t32 27t57 11q39 0 60.5 -13.5t31 -32t11.5 -39t2 -35.5v-35h-43v35 q0 41 -14 60.5t-48 19.5q-23 0 -35.5 -7t-18.5 -17t-7.5 -21.5t-1.5 -19.5q0 -18 2 -30.5t11.5 -26.5t29.5 -33t56 -49q18 -15 32 -28t24 -28.5t15 -35t5 -45.5q0 -56 -27 -91t-90 -35q-38 0 -61.5 10.5t-36.5 29.5t-17.5 44.5t-4.5 56.5z" />
<glyph unicode="t" horiz-adv-x="187" d="M9 463v40h53v130h43v-130h76v-40h-76v-396q0 -11 4.5 -17t11 -8.5t13 -3t9.5 -0.5q10 0 20 0.5t18 1.5v-40q-13 -1 -24 -1.5t-21 -0.5q-42 0 -58 14t-16 44v407h-53z" />
<glyph unicode="u" horiz-adv-x="333" d="M50 97v406h42v-372q0 -16 2.5 -33.5t9.5 -31.5t20 -23t34 -9q28 0 48 17t30 48v404h43v-503h-43v47q-14 -22 -39 -36t-52 -14q-26 0 -44 10t-29.5 25t-16.5 32.5t-5 32.5z" />
<glyph unicode="v" horiz-adv-x="271" d="M14 503h44l76 -437l74 437h46l-96 -503h-49z" />
<glyph unicode="w" horiz-adv-x="437" d="M14 503h43l69 -431l76 431h35l68 -431l76 431h44l-97 -503h-43l-66 411l-72 -411h-44z" />
<glyph unicode="x" d="M12 0l109 262l-100 241h46l78 -198l80 198h46l-101 -236l107 -267h-47l-85 226l-86 -226h-47z" />
<glyph unicode="y" horiz-adv-x="292" d="M9 -122q8 -2 21 -2q11 0 23.5 2.5t24 10t20.5 21.5t14 36l13 58l-110 499h43l88 -418l89 418h45l-129 -560q-5 -22 -12 -40t-23 -35q-23 -24 -52 -28t-55 -4v42z" />
<glyph unicode="z" horiz-adv-x="292" d="M36 0v38l173 423h-159v42h210v-35l-175 -426h174v-42h-223z" />
<glyph unicode="{" horiz-adv-x="354" d="M77 267v33q11 2 18.5 4t16.5 9q11 8 17 23.5t9 33t3.5 34.5t0.5 29v88q0 35 5.5 67.5t20 57.5t41 41t68.5 19v-31q-28 -7 -46 -17.5t-28 -28.5t-14 -46t-4 -71v-39q0 -35 -1 -65.5t-7 -54.5t-18.5 -41.5t-34.5 -26.5q40 -20 50 -62t10 -105v-60q0 -43 4.5 -72t15 -48 t28.5 -29.5t45 -16.5v-32q-46 4 -72.5 22t-40 45.5t-17.5 62t-4 70.5v77q0 26 -2 48.5t-9 40t-20 28.5t-35 13z" />
<glyph unicode="|" horiz-adv-x="229" d="M93 -250v998h43v-998h-43z" />
<glyph unicode="}" horiz-adv-x="354" d="M77 -108q28 6 46 16.5t28.5 29.5t14.5 48t4 72v60q0 63 10 105t50 59q-22 12 -34 29.5t-18 41.5t-7.5 54.5t-1.5 65.5v39q0 43 -4 71t-14 46t-28 28.5t-46 17.5v31q42 -3 68 -19t40.5 -41t19.5 -57.5t5 -67.5v-88q0 -12 1 -29t4 -34.5t9.5 -33t17.5 -23.5q9 -7 16.5 -9 t18.5 -4v-33q-21 -2 -34.5 -13t-20.5 -28.5t-9.5 -40t-2.5 -48.5v-77q0 -36 -3.5 -70.5t-17 -62t-40 -45.5t-72.5 -22v32z" />
<glyph unicode="~" horiz-adv-x="568" d="M66 277q17 20 30.5 34t27 22t28.5 11.5t34 3.5q17 0 35 -4t41 -14l58 -25q26 -11 37.5 -14.5t23.5 -3.5q22 0 41 12t46 43l33 -27q-32 -39 -61 -55t-61 -16q-19 0 -38.5 5t-54.5 21l-26 12q-26 12 -44 17t-34 5q-21 0 -38 -10.5t-39 -36.5l-6 -6z" />
<glyph unicode="&#xa1;" horiz-adv-x="187" d="M47 618v88h45v-88h-45zM48 0v385l9 136h26l14 -146v-375h-49z" />
<glyph unicode="&#xa2;" d="M40 138v238q0 35 8 58.5t21.5 37.5t31.5 21t37 9v62h29v-61q33 -3 53 -15t31.5 -30.5t15.5 -41.5t4 -48v-44h-42v40q0 13 -2 30.5t-9.5 33.5t-21.5 27t-39 11q-27 0 -41.5 -11.5t-22 -26.5t-9 -29.5t-1.5 -21.5v-228q0 -19 1.5 -38.5t9.5 -36t24 -27t44 -10.5q26 0 40 10 t20.5 23t8 26t1.5 20v76h44v-74q0 -13 -2.5 -31.5t-12.5 -36.5t-30.5 -32.5t-57.5 -19.5v-69h-29v69q-58 6 -81 40.5t-23 99.5z" />
<glyph unicode="&#xa3;" horiz-adv-x="399" d="M30 0v49q78 14 118 52.5t40 110.5q0 35 -9 56.5t-30 50.5h-113v37h89q-11 19 -17.5 34t-10.5 35.5t-5 50t-1 77.5q0 83 32.5 121.5t97.5 38.5q38 0 61.5 -12.5t37 -34.5t18.5 -51.5t5 -62.5v-66h-46v35q0 34 -1.5 62t-9 47.5t-24 30t-45.5 10.5q-45 0 -62.5 -26.5 t-17.5 -88.5q0 -43 0.5 -71t4.5 -49t12.5 -39t24.5 -41h121v-37h-97q18 -27 25.5 -50.5t7.5 -53.5q0 -112 -101 -166q16 -1 36.5 -2.5t40.5 -3t37 -3t25 -1.5q44 0 102 12v-44q-26 -5 -47 -8t-41 -3q-5 0 -29.5 1.5t-54.5 3.5t-58.5 3.5t-42.5 1.5q-16 0 -33 -1t-40 -5z" />
<glyph unicode="&#xa4;" horiz-adv-x="619" d="M56 106l69 71q-55 70 -55 163q0 89 54 162l-68 74l36 33l66 -71q68 58 153 58q42 0 78.5 -14t71.5 -43l68 70l33 -35l-67 -72q54 -74 54 -164q0 -45 -13 -83t-42 -78l68 -75l-35 -35l-66 74q-38 -32 -73 -45t-80 -13q-43 0 -78.5 13.5t-71.5 43.5l-68 -70zM119 340 q0 -46 14.5 -85.5t40.5 -68t61.5 -45t77.5 -16.5q40 0 74 16.5t59 45t39 67.5t14 86q0 46 -14 85.5t-39.5 68t-60 44.5t-75.5 16q-40 0 -75 -16.5t-61 -45t-40.5 -68t-14.5 -84.5z" />
<glyph unicode="&#xa5;" horiz-adv-x="354" d="M14 706h52l114 -333l118 333h47l-109 -298h86v-43h-101l-16 -43v-17h117v-43h-121v-262h-48v262h-121v43h118v17l-15 43h-103v43h87z" />
<glyph unicode="&#xa6;" horiz-adv-x="229" d="M93 190h43v-440h-43v440zM93 308v439h43v-439h-43z" />
<glyph unicode="&#xa7;" horiz-adv-x="375" d="M45 61v53h45v-74q0 -17 3.5 -34t13.5 -30.5t29 -22t49 -8.5q37 0 57 12t29 28.5t10.5 35t1.5 31.5q0 27 -2.5 43t-12 28t-27.5 23t-50 29q-35 20 -62 36t-46 33.5t-28.5 38t-9.5 48.5q0 38 17 65t46 48q-9 7 -18.5 16t-17 22t-12.5 32t-5 47q0 47 12 77t31.5 47t45 23 t53.5 6q43 0 69 -12t39.5 -29.5t17.5 -38t4 -38.5v-81h-44v73q0 17 -3 32t-12 26.5t-26 18.5t-46 7q-57 0 -76.5 -30t-19.5 -81q0 -25 6.5 -42t20 -30.5t33 -25.5t45.5 -26q35 -19 61 -35t43 -32.5t25.5 -37t8.5 -49.5q0 -42 -16.5 -70t-31.5 -48q24 -25 28.5 -51t4.5 -62 q0 -68 -33 -107.5t-108 -39.5q-48 0 -76 13.5t-43 35.5t-19 50t-4 57zM88 338q0 -28 14.5 -47.5t53.5 -43.5q12 -7 27 -15.5t30.5 -17.5t30.5 -17t27 -15q9 11 18.5 29t9.5 53q0 42 -15.5 63t-37.5 35q-6 4 -21.5 13t-33.5 19t-34 19.5t-22 13.5q-47 -31 -47 -89z" />
<glyph unicode="&#xa8;" horiz-adv-x="229" d="M41 585v77h48v-77h-48zM140 585v77h48v-77h-48z" />
<glyph unicode="&#xa9;" horiz-adv-x="833" d="M61 355q0 74 27.5 138.5t75.5 112.5t113 75.5t140 27.5q74 0 139 -27.5t113 -75.5t76 -113.5t28 -142.5q0 -74 -28 -138.5t-76.5 -112t-113.5 -75t-139 -27.5t-139 28t-113 76t-75.5 113.5t-27.5 140.5zM93 352q0 -67 25.5 -126t69.5 -102.5t103 -69t126 -25.5t126 25.5 t103 69t69.5 102t25.5 126.5t-25 127.5t-68.5 103.5t-102.5 69t-127 25t-127 -25.5t-103 -69.5t-69.5 -103t-25.5 -127zM296 240v225q0 55 28 85t88 30q59 0 86.5 -27t27.5 -78v-58h-49v54q0 20 -5.5 32t-14.5 18.5t-21 8.5t-25 2q-27 0 -46 -12t-19 -50v-231 q0 -45 16.5 -58.5t48.5 -13.5q24 0 37.5 6t19.5 16.5t7.5 25t1.5 32.5v39h49v-58q0 -54 -26 -81.5t-88 -27.5q-40 0 -63.5 12t-35 30t-14.5 39.5t-3 39.5z" />
<glyph unicode="&#xaa;" horiz-adv-x="187" d="M16 490q0 26 8.5 42.5t23 28.5t35 23t44.5 26v26q0 21 -5 34t-28 13q-25 0 -30 -18t-5 -48h-31v17q0 10 1.5 23.5t8 26t20 21t38.5 8.5q35 0 49.5 -18.5t14.5 -46.5v-185q0 -5 2 -9.5t14 -4.5v-28q-2 0 -5.5 -0.5t-6.5 -0.5q-16 0 -24 5t-13 13q-7 -5 -20.5 -11.5 t-30.5 -6.5q-16 0 -27 6t-18.5 16t-11 22.5t-3.5 25.5zM50 492q0 -21 10 -31t23 -10q15 0 26.5 8.5t17.5 14.5v98q-23 -11 -38 -20t-23.5 -18t-12 -19t-3.5 -23z" />
<glyph unicode="&#xab;" horiz-adv-x="375" d="M27 293l125 100h61l-126 -99l122 -101h-60zM168 293l125 100h59l-122 -100l117 -100h-56z" />
<glyph unicode="&#xac;" horiz-adv-x="559" d="M66 274v41h409v-226h-45v185h-364z" />
<glyph unicode="&#xad;" horiz-adv-x="248" d="M35 271v42h177v-42h-177z" />
<glyph unicode="&#xae;" horiz-adv-x="833" d="M61 355q0 74 27.5 138.5t75.5 112.5t113 75.5t140 27.5q74 0 139 -27.5t113 -75.5t76 -113.5t28 -142.5q0 -74 -28 -138.5t-76.5 -112t-113.5 -75t-139 -27.5t-139 28t-113 76t-75.5 113.5t-27.5 140.5zM93 352q0 -67 25.5 -126t69.5 -102.5t103 -69t126 -25.5t126 25.5 t103 69t69.5 102t25.5 126.5t-25 127.5t-68.5 103.5t-102.5 69t-127 25t-127 -25.5t-103 -69.5t-69.5 -103t-25.5 -127zM317 126v449h92q27 0 50.5 -4.5t41 -17t27.5 -36.5t10 -63q0 -46 -19 -79t-63 -43l98 -206h-56l-94 200h-36v-200h-51zM368 370h40q25 0 40 6.5t23.5 18 t11.5 26.5t3 31q0 32 -13.5 54.5t-51.5 22.5h-53v-159z" />
<glyph unicode="&#xaf;" horiz-adv-x="229" d="M15 585v42h199v-42h-199z" />
<glyph unicode="&#xb0;" horiz-adv-x="354" d="M35 602q0 29 11 55t30.5 45.5t45.5 30.5t55 11q30 0 55.5 -11t45 -30.5t30.5 -45.5t11 -56q0 -29 -11 -55t-30.5 -45t-45 -30t-55.5 -11t-55.5 11t-45 30.5t-30.5 45t-11 55.5zM80 602q0 -20 7.5 -37.5t20.5 -31t31 -21.5t38 -8q41 0 69.5 28.5t28.5 70.5q0 20 -7.5 37.5 t-21 30.5t-31.5 20.5t-38 7.5t-37.5 -7.5t-31 -21t-21 -31t-7.5 -37.5z" />
<glyph unicode="&#xb1;" horiz-adv-x="559" d="M85 0v42h389v-42h-389zM85 274v42h174v184h42v-184h173v-42h-173v-183h-42v183h-174z" />
<glyph unicode="&#xb2;" horiz-adv-x="229" d="M25 265v35q2 8 3.5 13t4 11t7 13.5t12.5 19.5q26 39 45.5 65.5t33 51.5t20.5 54.5t7 74.5q0 10 -1 22.5t-5 23t-13 17.5t-24 7q-16 0 -25 -7.5t-13 -17t-5 -19t-1 -14.5v-56h-36v63q0 35 17.5 61t63.5 26q27 0 43 -10.5t24 -25.5t10 -31t2 -27q0 -43 -2.5 -70.5 t-11.5 -51.5t-26 -50.5t-46 -67.5q-19 -26 -29.5 -43t-15.5 -32h132v-35h-171z" />
<glyph unicode="&#xb3;" horiz-adv-x="229" d="M23 366v40h37q0 -25 1 -45.5t6 -35.5t16 -23t31 -8t30.5 8.5t16 19.5t6.5 22.5t1 17.5v46q0 25 -7 39.5t-19.5 22t-29 10t-34.5 3.5v37q15 0 29.5 2.5t26.5 10t19 20.5t7 33v42q0 6 -1 14t-5.5 14.5t-12.5 11.5t-22 5q-26 0 -34 -15t-8 -35v-50h-37v50q0 9 1.5 24 t9.5 28.5t24 23.5t44 10q15 0 29 -3.5t25.5 -13.5t18 -26.5t6.5 -42.5q0 -27 -1.5 -46.5t-6.5 -33t-16 -23t-29 -17.5q16 -6 27 -13.5t18.5 -19t11 -27.5t3.5 -40v-27q0 -52 -18.5 -84.5t-72.5 -32.5q-31 0 -49.5 12.5t-27.5 29.5t-11.5 35t-2.5 30z" />
<glyph unicode="&#xb4;" horiz-adv-x="229" d="M25 567l84 109h95l-143 -109h-36z" />
<glyph unicode="&#xb5;" horiz-adv-x="333" d="M50 -163v666h42v-384q0 -41 17 -63t49 -22q28 0 45.5 14.5t32.5 50.5v404h42v-430q0 -22 4 -28t19 -6h9v-40h-5q-38 0 -51 9t-16 36q-33 -46 -85 -46q-21 0 -35 6.5t-26 20.5v-188h-42z" />
<glyph unicode="&#xb6;" horiz-adv-x="627" d="M93 516q0 89 54 139.5t155 50.5h193v-42h-33v-831h-44v831h-135v-831h-45v505q-69 9 -107 56t-38 122z" />
<glyph unicode="&#xb7;" horiz-adv-x="146" d="M50 244v90h44v-90h-44z" />
<glyph unicode="&#xb8;" horiz-adv-x="229" d="M33 -129l19 22q12 -7 26.5 -13t28.5 -6q22 0 29 12.5t7 19.5q0 12 -6.5 20t-15.5 12.5t-18.5 6.5t-14.5 3l4 78h34l-4 -50q13 -3 26 -9.5t23.5 -15.5t17 -21.5t6.5 -27.5q0 -8 -3.5 -18.5t-11.5 -20t-21.5 -16.5t-34.5 -7q-26 0 -47.5 9t-43.5 22z" />
<glyph unicode="&#xb9;" horiz-adv-x="229" d="M43 610v35q19 5 30.5 11.5t19 14t12 17t7.5 19.5h34v-442h-39v372q-12 -9 -26 -16t-38 -11z" />
<glyph unicode="&#xba;" horiz-adv-x="187" d="M22 492v143q0 8 1.5 21.5t8.5 26.5t21.5 22.5t39.5 9.5q26 0 40 -9.5t21 -22t8 -25.5t1 -20v-140q0 -8 -1 -21.5t-8 -26t-21 -22t-41 -9.5q-25 0 -39 8t-21 19.5t-8.5 24t-1.5 21.5zM53 495q0 -6 1 -13.5t5 -14.5t12 -11.5t21 -4.5t20.5 5t11.5 11.5t5 14t1 13.5v138 q0 18 -5.5 34t-30.5 16q-20 0 -30.5 -10.5t-10.5 -36.5v-141z" />
<glyph unicode="&#xbb;" horiz-adv-x="375" d="M20 191l124 102l-116 98h55l122 -98l-124 -102h-61zM159 191l129 101l-122 99h61l121 -98l-126 -102h-63z" />
<glyph unicode="&#xbc;" horiz-adv-x="583" d="M43 610v35q19 5 30.5 11.5t19 14t12 17t7.5 19.5h34v-442h-39v372q-12 -9 -26 -16t-38 -11zM91 -59l367 845l25 -12l-367 -844zM371 132v43l113 266h47v-274h52v-35h-52v-132h-37v132h-123zM404 167h90v221z" />
<glyph unicode="&#xbd;" horiz-adv-x="583" d="M43 610v35q19 5 30.5 11.5t19 14t12 17t7.5 19.5h34v-442h-39v372q-12 -9 -26 -16t-38 -11zM82 -59l367 845l25 -12l-367 -844zM379 0v35q2 8 3.5 13t4 11t7 13.5t12.5 19.5q26 39 45.5 65.5t33 51.5t20.5 54.5t7 74.5q0 10 -1 22.5t-5 23t-13 17.5t-24 7q-16 0 -25 -7.5 t-13 -17t-5 -19t-1 -14.5v-56h-36v63q0 35 17.5 61t63.5 26q27 0 43 -10.5t24 -25.5t10 -31t2 -27q0 -43 -2.5 -70.5t-11.5 -51.5t-26 -50.5t-46 -67.5q-19 -26 -29.5 -43t-15.5 -32h132v-35h-171z" />
<glyph unicode="&#xbe;" horiz-adv-x="583" d="M23 366v40h37q0 -25 1 -45.5t6 -35.5t16 -23t31 -8t30.5 8.5t16 19.5t6.5 22.5t1 17.5v46q0 25 -7 39.5t-19.5 22t-29 10t-34.5 3.5v37q15 0 29.5 2.5t26.5 10t19 20.5t7 33v42q0 6 -1 14t-5.5 14.5t-12.5 11.5t-22 5q-26 0 -34 -15t-8 -35v-50h-37v50q0 9 1.5 24 t9.5 28.5t24 23.5t44 10q15 0 29 -3.5t25.5 -13.5t18 -26.5t6.5 -42.5q0 -27 -1.5 -46.5t-6.5 -33t-16 -23t-29 -17.5q16 -6 27 -13.5t18.5 -19t11 -27.5t3.5 -40v-27q0 -52 -18.5 -84.5t-72.5 -32.5q-31 0 -49.5 12.5t-27.5 29.5t-11.5 35t-2.5 30zM112 -59l366 845l26 -12 l-368 -844zM371 132v43l113 266h47v-274h52v-35h-52v-132h-37v132h-123zM404 167h90v221z" />
<glyph unicode="&#xbf;" horiz-adv-x="354" d="M37 175q0 28 1.5 50t6.5 40.5t13.5 36t21.5 37.5q9 14 19.5 27t19 27t14 29t5.5 32v78h47v-87q0 -12 -3.5 -29t-18.5 -39l-46 -67q-14 -20 -23.5 -45t-9.5 -67v-29q0 -30 3.5 -55.5t12.5 -44t24.5 -29t38.5 -10.5q24 0 38.5 11.5t22.5 29.5t11 38.5t3 38.5v76h47v-61 q0 -28 -3.5 -59t-16 -57t-37 -42.5t-67.5 -16.5t-68 18.5t-37.5 46.5t-15.5 61t-3 61zM137 616v90h48v-90h-48z" />
<glyph unicode="&#xc0;" horiz-adv-x="375" d="M24 0l129 710h68l128 -710h-52l-36 215h-148l-37 -215h-52zM45 880h97l88 -109h-33zM121 261h131l-65 384z" />
<glyph unicode="&#xc1;" horiz-adv-x="375" d="M24 0l129 710h68l128 -710h-52l-36 215h-148l-37 -215h-52zM121 261h131l-65 384zM135 769l85 109h94l-142 -109h-37z" />
<glyph unicode="&#xc2;" horiz-adv-x="375" d="M24 0l129 710h68l128 -710h-52l-36 215h-148l-37 -215h-52zM84 769l78 109h50l73 -108h-40l-58 68l-61 -69h-42zM121 261h131l-65 384z" />
<glyph unicode="&#xc3;" horiz-adv-x="375" d="M24 0l129 710h68l128 -710h-52l-36 215h-148l-37 -215h-52zM77 777q0 15 3 29.5t10 26.5t19 19t30 7q14 0 28 -5.5t28 -12.5t27 -12.5t23 -5.5q15 0 20.5 10.5t6.5 25.5h29q0 -17 -2 -32t-8 -26t-16.5 -17.5t-27.5 -6.5q-13 0 -28 6t-30 13t-28.5 13t-23.5 6 q-17 0 -23.5 -11.5t-7.5 -26.5h-29zM121 261h131l-65 384z" />
<glyph unicode="&#xc4;" horiz-adv-x="375" d="M24 0l129 710h68l128 -710h-52l-36 215h-148l-37 -215h-52zM87 789v76h52v-76h-52zM121 261h131l-65 384zM235 789v76h52v-76h-52z" />
<glyph unicode="&#xc5;" horiz-adv-x="375" d="M24 0l129 710h68l128 -710h-52l-36 215h-148l-37 -215h-52zM121 261h131l-65 384zM121 814q0 28 19.5 47t46.5 19q28 0 47 -19.5t19 -47.5q0 -27 -19.5 -46t-46.5 -19q-7 0 -18.5 3t-22 10.5t-18 20t-7.5 32.5zM143 814q0 -24 15 -34t29 -10q19 0 31.5 13t12.5 32 q0 18 -13 30.5t-31 12.5q-19 0 -31.5 -13t-12.5 -31z" />
<glyph unicode="&#xc6;" horiz-adv-x="500" d="M21 0l181 706h261v-43h-159v-273h146v-44h-146v-302h176v-44h-225v306h-108l-75 -306h-51zM157 347h98v316h-18z" />
<glyph unicode="&#xc7;" horiz-adv-x="375" d="M52 147v425q0 38 11.5 64.5t31 43.5t44.5 25t53 8q57 0 95.5 -32.5t38.5 -95.5v-107h-49v80q0 53 -18.5 81.5t-65.5 28.5q-31 0 -49.5 -11.5t-28 -28t-12.5 -34.5t-3 -31v-382q0 -27 2.5 -53.5t12.5 -47t29.5 -33t53.5 -12.5q32 0 49.5 12.5t25.5 28t9.5 31t1.5 21.5v115 h50v-109q0 -24 -4 -49t-18 -45t-40.5 -34t-70.5 -17l-1 -14q12 -3 25 -9t23.5 -14.5t17 -21t6.5 -28.5q0 -8 -3 -18.5t-11.5 -20t-22 -16.5t-34.5 -7q-26 0 -47.5 9.5t-42.5 21.5l19 22q12 -7 26 -13t28 -6q15 0 25.5 8.5t10.5 23.5q0 11 -5.5 18.5t-14 12t-17.5 7t-17 3.5 l2 43q-55 8 -85.5 45.5t-30.5 111.5z" />
<glyph unicode="&#xc8;" horiz-adv-x="333" d="M39 880h97l88 -109h-33zM59 0v706h250v-44h-202v-272h166v-43h-166v-303h201v-44h-249z" />
<glyph unicode="&#xc9;" horiz-adv-x="333" d="M59 0v706h250v-44h-202v-272h166v-43h-166v-303h201v-44h-249zM131 769l85 109h94l-142 -109h-37z" />
<glyph unicode="&#xca;" horiz-adv-x="333" d="M59 0v706h250v-44h-202v-272h166v-43h-166v-303h201v-44h-249zM74 769l78 109h50l73 -108h-40l-58 68l-61 -69h-42z" />
<glyph unicode="&#xcb;" horiz-adv-x="333" d="M59 0v706h250v-44h-202v-272h166v-43h-166v-303h201v-44h-249zM78 789v76h52v-76h-52zM226 789v76h52v-76h-52z" />
<glyph unicode="&#xcc;" horiz-adv-x="167" d="M-43 880h97l88 -109h-33zM58 0v706h51v-706h-51z" />
<glyph unicode="&#xcd;" horiz-adv-x="167" d="M23 769l85 109h94l-142 -109h-37zM58 0v706h51v-706h-51z" />
<glyph unicode="&#xce;" horiz-adv-x="167" d="M-19 769l78 109h50l73 -108h-40l-58 68l-61 -69h-42zM58 0v706h51v-706h-51z" />
<glyph unicode="&#xcf;" horiz-adv-x="167" d="M-15 789v76h52v-76h-52zM58 0v706h51v-706h-51zM133 789v76h52v-76h-52z" />
<glyph unicode="&#xd0;" horiz-adv-x="396" d="M0 370v42h60v294h81q19 0 39 -1.5t40 -8t39 -18.5t36 -33q29 -35 37.5 -91t8.5 -140v-169q0 -36 -4.5 -79t-23.5 -79.5t-58.5 -61.5t-109.5 -25h-85v370h-60zM109 45h41q51 0 79.5 20.5t43 49.5t17.5 62.5t3 58.5v183q0 39 -1.5 71t-6.5 58t-15.5 46t-27.5 35 q-25 22 -50 27t-51 5h-32v-249h109v-42h-109v-325z" />
<glyph unicode="&#xd1;" horiz-adv-x="396" d="M55 0v706h72l169 -679q-1 180 -3 325q-1 62 -1.5 122.5t-1 109.5t-1 82t-0.5 40h48v-706h-75l-164 667q1 -167 2 -306q0 -59 0.5 -118t1 -108.5t0.5 -85v-49.5h-47zM88 777q0 15 3 29.5t10 26.5t19 19t30 7q14 0 28 -5.5t28 -12.5t27 -12.5t23 -5.5q15 0 20.5 10.5 t6.5 25.5h29q0 -17 -2 -32t-8 -26t-16.5 -17.5t-27.5 -6.5q-13 0 -28 6t-30 13t-28.5 13t-23.5 6q-17 0 -23.5 -11.5t-7.5 -26.5h-29z" />
<glyph unicode="&#xd2;" horiz-adv-x="396" d="M54 146v413q0 33 8.5 61t25.5 49t44.5 33t64.5 12q50 0 78.5 -16t43 -41.5t18 -56t3.5 -59.5v-403q0 -24 -6 -50t-22 -47.5t-44.5 -35.5t-72.5 -14q-39 0 -66 11t-43.5 31.5t-24 49t-7.5 63.5zM60 880h97l88 -109h-33zM102 148q0 -54 22.5 -83.5t73.5 -29.5q30 0 49 11.5 t29 29.5t13.5 39.5t3.5 40.5v370q0 42 -7 70t-19.5 44.5t-30 23t-39.5 6.5q-26 0 -44 -9.5t-29.5 -24.5t-16.5 -34t-5 -39v-415z" />
<glyph unicode="&#xd3;" horiz-adv-x="396" d="M54 146v413q0 33 8.5 61t25.5 49t44.5 33t64.5 12q50 0 78.5 -16t43 -41.5t18 -56t3.5 -59.5v-403q0 -24 -6 -50t-22 -47.5t-44.5 -35.5t-72.5 -14q-39 0 -66 11t-43.5 31.5t-24 49t-7.5 63.5zM102 148q0 -54 22.5 -83.5t73.5 -29.5q30 0 49 11.5t29 29.5t13.5 39.5 t3.5 40.5v370q0 42 -7 70t-19.5 44.5t-30 23t-39.5 6.5q-26 0 -44 -9.5t-29.5 -24.5t-16.5 -34t-5 -39v-415zM146 769l85 109h94l-142 -109h-37z" />
<glyph unicode="&#xd4;" horiz-adv-x="396" d="M54 146v413q0 33 8.5 61t25.5 49t44.5 33t64.5 12q50 0 78.5 -16t43 -41.5t18 -56t3.5 -59.5v-403q0 -24 -6 -50t-22 -47.5t-44.5 -35.5t-72.5 -14q-39 0 -66 11t-43.5 31.5t-24 49t-7.5 63.5zM95 769l78 109h50l73 -108h-40l-58 68l-61 -69h-42zM102 148 q0 -54 22.5 -83.5t73.5 -29.5q30 0 49 11.5t29 29.5t13.5 39.5t3.5 40.5v370q0 42 -7 70t-19.5 44.5t-30 23t-39.5 6.5q-26 0 -44 -9.5t-29.5 -24.5t-16.5 -34t-5 -39v-415z" />
<glyph unicode="&#xd5;" horiz-adv-x="396" d="M54 146v413q0 33 8.5 61t25.5 49t44.5 33t64.5 12q50 0 78.5 -16t43 -41.5t18 -56t3.5 -59.5v-403q0 -24 -6 -50t-22 -47.5t-44.5 -35.5t-72.5 -14q-39 0 -66 11t-43.5 31.5t-24 49t-7.5 63.5zM88 777q0 15 3 29.5t10 26.5t19 19t30 7q14 0 28 -5.5t28 -12.5t27 -12.5 t23 -5.5q15 0 20.5 10.5t6.5 25.5h29q0 -17 -2 -32t-8 -26t-16.5 -17.5t-27.5 -6.5q-13 0 -28 6t-30 13t-28.5 13t-23.5 6q-17 0 -23.5 -11.5t-7.5 -26.5h-29zM102 148q0 -54 22.5 -83.5t73.5 -29.5q30 0 49 11.5t29 29.5t13.5 39.5t3.5 40.5v370q0 42 -7 70t-19.5 44.5 t-30 23t-39.5 6.5q-26 0 -44 -9.5t-29.5 -24.5t-16.5 -34t-5 -39v-415z" />
<glyph unicode="&#xd6;" horiz-adv-x="396" d="M54 146v413q0 33 8.5 61t25.5 49t44.5 33t64.5 12q50 0 78.5 -16t43 -41.5t18 -56t3.5 -59.5v-403q0 -24 -6 -50t-22 -47.5t-44.5 -35.5t-72.5 -14q-39 0 -66 11t-43.5 31.5t-24 49t-7.5 63.5zM97 789v76h52v-76h-52zM102 148q0 -54 22.5 -83.5t73.5 -29.5q30 0 49 11.5 t29 29.5t13.5 39.5t3.5 40.5v370q0 42 -7 70t-19.5 44.5t-30 23t-39.5 6.5q-26 0 -44 -9.5t-29.5 -24.5t-16.5 -34t-5 -39v-415zM245 789v76h52v-76h-52z" />
<glyph unicode="&#xd7;" horiz-adv-x="558" d="M119 427l31 31l129 -129l118 131l30 -29l-119 -132l127 -127l-30 -32l-127 126l-112 -126l-32 28l115 127z" />
<glyph unicode="&#xd8;" horiz-adv-x="396" d="M35 -18l36 85q-4 8 -7 15.5t-5.5 16t-3.5 20t-1 28.5v420q0 68 39 110t108 42q27 0 47.5 -7t35 -17.5t23.5 -22.5t13 -21l28 66l27 -13l-40 -94q4 -20 4.5 -30t0.5 -21v-405q0 -84 -40 -123t-105 -39q-24 0 -40.5 4t-28.5 10.5t-20.5 15l-16.5 16.5l-28 -67zM102 138 l188 443q-4 32 -14.5 51t-24 28.5t-28 12t-26.5 2.5q-29 0 -47.5 -12t-29 -30t-14.5 -38.5t-4 -37.5v-419zM112 92q5 -12 11 -22t15.5 -17.5t23.5 -11.5t35 -4q32 0 51 11.5t28.5 29.5t12.5 40.5t3 43.5v345z" />
<glyph unicode="&#xd9;" horiz-adv-x="396" d="M57 140v566h48v-547q0 -24 2.5 -47t12 -40t28.5 -27.5t51 -10.5q28 0 45.5 8.5t27.5 24t13.5 37.5t3.5 48v554h49v-566q0 -42 -11 -71t-30.5 -47t-45 -26t-55.5 -8q-27 0 -52 7.5t-44.5 25t-31 46.5t-11.5 73zM60 880h97l88 -109h-33z" />
<glyph unicode="&#xda;" horiz-adv-x="396" d="M57 140v566h48v-547q0 -24 2.5 -47t12 -40t28.5 -27.5t51 -10.5q28 0 45.5 8.5t27.5 24t13.5 37.5t3.5 48v554h49v-566q0 -42 -11 -71t-30.5 -47t-45 -26t-55.5 -8q-27 0 -52 7.5t-44.5 25t-31 46.5t-11.5 73zM146 769l85 109h94l-142 -109h-37z" />
<glyph unicode="&#xdb;" horiz-adv-x="396" d="M57 140v566h48v-547q0 -24 2.5 -47t12 -40t28.5 -27.5t51 -10.5q28 0 45.5 8.5t27.5 24t13.5 37.5t3.5 48v554h49v-566q0 -42 -11 -71t-30.5 -47t-45 -26t-55.5 -8q-27 0 -52 7.5t-44.5 25t-31 46.5t-11.5 73zM95 769l78 109h50l73 -108h-40l-58 68l-61 -69h-42z" />
<glyph unicode="&#xdc;" horiz-adv-x="396" d="M57 140v566h48v-547q0 -24 2.5 -47t12 -40t28.5 -27.5t51 -10.5q28 0 45.5 8.5t27.5 24t13.5 37.5t3.5 48v554h49v-566q0 -42 -11 -71t-30.5 -47t-45 -26t-55.5 -8q-27 0 -52 7.5t-44.5 25t-31 46.5t-11.5 73zM97 789v76h52v-76h-52zM245 789v76h52v-76h-52z" />
<glyph unicode="&#xdd;" horiz-adv-x="354" d="M14 706h52l113 -332l112 332h54l-144 -394v-312h-48v312zM141 769l85 109h94l-142 -109h-37z" />
<glyph unicode="&#xde;" horiz-adv-x="375" d="M58 0v706h48v-117h61q14 0 36.5 -1t36.5 -3q33 -6 51.5 -21t27.5 -34.5t11.5 -42t2.5 -44.5v-100q0 -48 -15 -75.5t-38 -41.5t-50 -18t-51 -4h-72v-204h-49zM106 245h80q18 0 35.5 3t32 13.5t23 32t8.5 58.5v60q0 43 -4 72t-23 46q-15 13 -36 15t-38 2h-78v-302z" />
<glyph unicode="&#xdf;" horiz-adv-x="354" d="M54 0v581q0 39 9.5 65t26 41t39.5 21t51 6q58 0 83.5 -28.5t25.5 -70.5v-85q0 -28 -8.5 -45.5t-19.5 -28t-23 -15t-20 -6.5q31 -10 48.5 -24.5t26.5 -31t11 -35t2 -38.5v-223q0 -15 -3.5 -31t-13 -29.5t-26.5 -22t-44 -8.5q-22 0 -36 6.5t-21.5 17t-10 22.5t-2.5 24v78 h29v-65q0 -13 8 -28t33 -15q27 0 35.5 19.5t8.5 40.5v197q0 26 -4.5 52.5t-26.5 45.5q-17 14 -35 17.5t-39 5.5v43q19 1 33.5 3.5t29.5 15.5q19 16 22 34t3 40v45q0 16 -2 31t-9 26t-21 18t-37 7q-26 0 -42 -7.5t-24.5 -20.5t-11 -31.5t-2.5 -40.5v-573h-43z" />
<glyph unicode="&#xe0;" d="M28 118q0 54 21.5 85t52.5 51.5t64 35.5t57 36v69q0 29 -12 50t-50 21q-39 0 -54 -20.5t-15 -71.5v-26h-43v27q0 74 28.5 102.5t85.5 28.5q54 0 78.5 -27t24.5 -74v-347q0 -13 9 -15.5t21 -2.5v-40h-9q-32 1 -45 10t-18 29q-11 -9 -35.5 -24t-62.5 -15q-26 0 -44.5 9.5 t-30.5 26t-17.5 38t-5.5 44.5zM30 678h97l87 -109h-33zM71 117q0 -6 1.5 -19t8 -25.5t19.5 -22.5t37 -10q29 0 49 13.5t38 33.5v192q-19 -13 -41 -25t-42 -23q-35 -20 -52.5 -46t-17.5 -68z" />
<glyph unicode="&#xe1;" d="M28 118q0 54 21.5 85t52.5 51.5t64 35.5t57 36v69q0 29 -12 50t-50 21q-39 0 -54 -20.5t-15 -71.5v-26h-43v27q0 74 28.5 102.5t85.5 28.5q54 0 78.5 -27t24.5 -74v-347q0 -13 9 -15.5t21 -2.5v-40h-9q-32 1 -45 10t-18 29q-11 -9 -35.5 -24t-62.5 -15q-26 0 -44.5 9.5 t-30.5 26t-17.5 38t-5.5 44.5zM71 117q0 -6 1.5 -19t8 -25.5t19.5 -22.5t37 -10q29 0 49 13.5t38 33.5v192q-19 -13 -41 -25t-42 -23q-35 -20 -52.5 -46t-17.5 -68zM109 567l84 109h95l-143 -109h-36z" />
<glyph unicode="&#xe2;" d="M28 118q0 54 21.5 85t52.5 51.5t64 35.5t57 36v69q0 29 -12 50t-50 21q-39 0 -54 -20.5t-15 -71.5v-26h-43v27q0 74 28.5 102.5t85.5 28.5q54 0 78.5 -27t24.5 -74v-347q0 -13 9 -15.5t21 -2.5v-40h-9q-32 1 -45 10t-18 29q-11 -9 -35.5 -24t-62.5 -15q-26 0 -44.5 9.5 t-30.5 26t-17.5 38t-5.5 44.5zM64 568l78 109h50l73 -109h-40l-58 69l-61 -69h-42zM71 117q0 -6 1.5 -19t8 -25.5t19.5 -22.5t37 -10q29 0 49 13.5t38 33.5v192q-19 -13 -41 -25t-42 -23q-35 -20 -52.5 -46t-17.5 -68z" />
<glyph unicode="&#xe3;" d="M28 118q0 54 21.5 85t52.5 51.5t64 35.5t57 36v69q0 29 -12 50t-50 21q-39 0 -54 -20.5t-15 -71.5v-26h-43v27q0 74 28.5 102.5t85.5 28.5q54 0 78.5 -27t24.5 -74v-347q0 -13 9 -15.5t21 -2.5v-40h-9q-32 1 -45 10t-18 29q-11 -9 -35.5 -24t-62.5 -15q-26 0 -44.5 9.5 t-30.5 26t-17.5 38t-5.5 44.5zM59 575q0 30 13.5 55t47.5 25q14 0 27.5 -5.5t26.5 -11.5t25 -11.5t22 -5.5q14 0 19.5 9.5t5.5 24.5h30q0 -17 -1.5 -31.5t-7 -25.5t-15.5 -17t-27 -6q-13 0 -28 5.5t-29.5 12t-28 12t-22.5 5.5q-16 0 -22 -10t-7 -25h-29zM71 117 q0 -6 1.5 -19t8 -25.5t19.5 -22.5t37 -10q29 0 49 13.5t38 33.5v192q-19 -13 -41 -25t-42 -23q-35 -20 -52.5 -46t-17.5 -68z" />
<glyph unicode="&#xe4;" d="M28 118q0 54 21.5 85t52.5 51.5t64 35.5t57 36v69q0 29 -12 50t-50 21q-39 0 -54 -20.5t-15 -71.5v-26h-43v27q0 74 28.5 102.5t85.5 28.5q54 0 78.5 -27t24.5 -74v-347q0 -13 9 -15.5t21 -2.5v-40h-9q-32 1 -45 10t-18 29q-11 -9 -35.5 -24t-62.5 -15q-26 0 -44.5 9.5 t-30.5 26t-17.5 38t-5.5 44.5zM71 117q0 -6 1.5 -19t8 -25.5t19.5 -22.5t37 -10q29 0 49 13.5t38 33.5v192q-19 -13 -41 -25t-42 -23q-35 -20 -52.5 -46t-17.5 -68zM91 585v77h48v-77h-48zM190 585v77h48v-77h-48z" />
<glyph unicode="&#xe5;" d="M28 118q0 54 21.5 85t52.5 51.5t64 35.5t57 36v69q0 29 -12 50t-50 21q-39 0 -54 -20.5t-15 -71.5v-26h-43v27q0 74 28.5 102.5t85.5 28.5q54 0 78.5 -27t24.5 -74v-347q0 -13 9 -15.5t21 -2.5v-40h-9q-32 1 -45 10t-18 29q-11 -9 -35.5 -24t-62.5 -15q-26 0 -44.5 9.5 t-30.5 26t-17.5 38t-5.5 44.5zM71 117q0 -6 1.5 -19t8 -25.5t19.5 -22.5t37 -10q29 0 49 13.5t38 33.5v192q-19 -13 -41 -25t-42 -23q-35 -20 -52.5 -46t-17.5 -68zM99 616q0 28 19.5 47.5t46.5 19.5q28 0 47 -20t19 -48q0 -27 -19.5 -46t-46.5 -19q-7 0 -18.5 3t-22 10.5 t-18 20t-7.5 32.5zM121 616q0 -22 15 -33t29 -11q19 0 31.5 13t12.5 32q0 18 -13 31t-31 13q-19 0 -31.5 -13.5t-12.5 -31.5z" />
<glyph unicode="&#xe6;" horiz-adv-x="500" d="M30 117q0 47 17.5 79t55.5 57q30 20 63 35t62 36v79q0 29 -14 46t-49 17q-19 0 -32.5 -7t-21.5 -18.5t-11.5 -26.5t-3.5 -31v-33h-42v36q0 34 8.5 56.5t23.5 36t36 19.5t45 6q19 0 32 -3t23 -8t18 -12t16 -16q17 23 41 31.5t50 8.5q40 0 62.5 -14t34 -34t14 -42t2.5 -38 v-120h-190v-113q0 -9 1.5 -27t8.5 -35.5t22.5 -30.5t42.5 -13q36 0 54.5 23.5t18.5 58.5v52h43v-37q0 -28 -6 -53t-19.5 -43.5t-35 -29.5t-53.5 -11q-24 0 -40.5 5t-28.5 13.5t-20.5 19.5t-16.5 23q-5 -9 -15 -20t-24.5 -20t-31.5 -15t-37 -6q-16 0 -34 5t-33.5 18 t-25.5 36.5t-10 59.5zM72 117q0 -13 3 -27t11 -25.5t21.5 -19t35.5 -7.5t37 7.5t24.5 18t15 21t8.5 16.5v180q-21 -17 -48 -30t-51 -29.5t-40.5 -41t-16.5 -63.5zM270 293h148v91q0 36 -16.5 59t-55.5 23q-38 0 -57 -24.5t-19 -69.5v-79z" />
<glyph unicode="&#xe7;" d="M40 144v232q0 46 14 71.5t32.5 38t38 15t31.5 2.5q34 0 56 -10.5t35 -29t18.5 -43t5.5 -52.5v-44h-42v39q0 47 -17 75t-55 28q-25 0 -40 -10.5t-22.5 -25t-9.5 -30.5t-2 -27v-223q0 -54 15 -83.5t64 -29.5q26 0 40.5 10.5t21 24t7.5 27.5t1 20v73h44v-65 q0 -68 -27.5 -95.5t-77.5 -33.5l-2 -22q12 -3 25 -9t23.5 -15t17 -21t6.5 -28q0 -8 -3 -18.5t-11 -20.5t-21.5 -17t-35.5 -7q-26 0 -47.5 9.5t-42.5 21.5l19 22q12 -7 26 -13t28 -6q22 0 29 12.5t7 19.5q0 20 -15.5 29t-38.5 13l3 50q-34 5 -53.5 20.5t-29.5 36t-12.5 44 t-2.5 45.5z" />
<glyph unicode="&#xe8;" d="M15 678h97l87 -109h-33zM43 116v270q0 23 5.5 44.5t19 38.5t35 27t54.5 10q57 0 86.5 -31.5t29.5 -98.5v-129h-188v-124q0 -10 2 -25t9.5 -28t21.5 -22.5t39 -9.5q26 0 41 9t22.5 23.5t9 32.5t1.5 36v36h42v-63q0 -20 -6 -40t-19.5 -36.5t-35.5 -26.5t-55 -10 q-24 0 -44.5 6.5t-36 21t-24.5 36.5t-9 53zM85 283h145v100q0 44 -21 64.5t-51 20.5q-38 0 -55.5 -25t-17.5 -64v-96z" />
<glyph unicode="&#xe9;" d="M43 116v270q0 23 5.5 44.5t19 38.5t35 27t54.5 10q57 0 86.5 -31.5t29.5 -98.5v-129h-188v-124q0 -10 2 -25t9.5 -28t21.5 -22.5t39 -9.5q26 0 41 9t22.5 23.5t9 32.5t1.5 36v36h42v-63q0 -20 -6 -40t-19.5 -36.5t-35.5 -26.5t-55 -10q-24 0 -44.5 6.5t-36 21t-24.5 36.5 t-9 53zM85 283h145v100q0 44 -21 64.5t-51 20.5q-38 0 -55.5 -25t-17.5 -64v-96zM103 567l84 109h95l-143 -109h-36z" />
<glyph unicode="&#xea;" d="M43 116v270q0 23 5.5 44.5t19 38.5t35 27t54.5 10q57 0 86.5 -31.5t29.5 -98.5v-129h-188v-124q0 -10 2 -25t9.5 -28t21.5 -22.5t39 -9.5q26 0 41 9t22.5 23.5t9 32.5t1.5 36v36h42v-63q0 -20 -6 -40t-19.5 -36.5t-35.5 -26.5t-55 -10q-24 0 -44.5 6.5t-36 21t-24.5 36.5 t-9 53zM53 568l78 109h50l73 -109h-40l-58 69l-61 -69h-42zM85 283h145v100q0 44 -21 64.5t-51 20.5q-38 0 -55.5 -25t-17.5 -64v-96z" />
<glyph unicode="&#xeb;" d="M43 116v270q0 23 5.5 44.5t19 38.5t35 27t54.5 10q57 0 86.5 -31.5t29.5 -98.5v-129h-188v-124q0 -10 2 -25t9.5 -28t21.5 -22.5t39 -9.5q26 0 41 9t22.5 23.5t9 32.5t1.5 36v36h42v-63q0 -20 -6 -40t-19.5 -36.5t-35.5 -26.5t-55 -10q-24 0 -44.5 6.5t-36 21t-24.5 36.5 t-9 53zM80 585v77h48v-77h-48zM85 283h145v100q0 44 -21 64.5t-51 20.5q-38 0 -55.5 -25t-17.5 -64v-96zM179 585v77h48v-77h-48z" />
<glyph unicode="&#xec;" horiz-adv-x="146" d="M-53 678h97l87 -109h-33zM52 0v503h43v-503h-43z" />
<glyph unicode="&#xed;" horiz-adv-x="146" d="M12 567l84 109h95l-143 -109h-36zM52 0v503h43v-503h-43z" />
<glyph unicode="&#xee;" horiz-adv-x="146" d="M-29 568l78 109h50l73 -109h-40l-58 69l-61 -69h-42zM52 0v503h43v-503h-43z" />
<glyph unicode="&#xef;" horiz-adv-x="146" d="M-2 585v77h48v-77h-48zM52 0v503h43v-503h-43zM97 585v77h48v-77h-48z" />
<glyph unicode="&#xf0;" d="M39 104v281q0 32 10.5 54.5t27 37.5t37 22t41.5 7q24 0 41.5 -8t36.5 -33q-3 36 -9.5 67t-29.5 66l-103 -38l-14 30l96 37q-1 2 -8 9.5t-16.5 17t-21 20t-23.5 19.5l35 18q12 -11 30 -27t40 -43l64 24l14 -31l-57 -22q13 -22 21.5 -43.5t13.5 -46.5t7 -57t2 -76v-266 q0 -24 -7 -46.5t-21 -40t-36.5 -28t-54.5 -10.5q-52 0 -84 28.5t-32 77.5zM82 122q0 -6 1 -20t8 -28t21.5 -24.5t41.5 -10.5q26 0 41 9.5t23 22.5t10.5 27t2.5 23v259q0 6 -1 20t-8 28.5t-21.5 25t-40.5 10.5q-27 0 -42.5 -9.5t-23.5 -23t-10 -28t-2 -25.5v-256z" />
<glyph unicode="&#xf1;" horiz-adv-x="333" d="M55 0v503h42v-48q12 19 25.5 29.5t26 16t23.5 7t18 1.5q15 0 32 -5t31 -16.5t23 -31t9 -48.5v-408h-42v396q0 14 -2.5 27.5t-9.5 24.5t-19 17.5t-31 6.5q-30 0 -50.5 -17t-33.5 -46v-409h-42zM59 575q0 30 13.5 55t47.5 25q14 0 27.5 -5.5t26.5 -11.5t25 -11.5t22 -5.5 q14 0 19.5 9.5t5.5 24.5h30q0 -17 -1.5 -31.5t-7 -25.5t-15.5 -17t-27 -6q-13 0 -28 5.5t-29.5 12t-28 12t-22.5 5.5q-16 0 -22 -10t-7 -25h-29z" />
<glyph unicode="&#xf2;" d="M20 678h97l87 -109h-33zM39 107v278q0 23 6.5 45t20.5 39t37.5 27t56.5 10q60 0 87 -32.5t27 -89.5v-252q0 -36 -9.5 -61.5t-25.5 -41.5t-38 -23.5t-46 -7.5q-53 0 -84.5 29t-31.5 80zM82 120q0 -40 19 -60.5t54 -20.5q24 0 39 9t23.5 22t11 28t2.5 28v252q0 14 -2.5 29 t-10 27.5t-21.5 21t-37 8.5q-25 0 -40.5 -8t-23.5 -21.5t-11 -31t-3 -35.5v-248z" />
<glyph unicode="&#xf3;" d="M39 107v278q0 23 6.5 45t20.5 39t37.5 27t56.5 10q60 0 87 -32.5t27 -89.5v-252q0 -36 -9.5 -61.5t-25.5 -41.5t-38 -23.5t-46 -7.5q-53 0 -84.5 29t-31.5 80zM82 120q0 -40 19 -60.5t54 -20.5q24 0 39 9t23.5 22t11 28t2.5 28v252q0 14 -2.5 29t-10 27.5t-21.5 21 t-37 8.5q-25 0 -40.5 -8t-23.5 -21.5t-11 -31t-3 -35.5v-248zM104 567l84 109h95l-143 -109h-36z" />
<glyph unicode="&#xf4;" d="M39 107v278q0 23 6.5 45t20.5 39t37.5 27t56.5 10q60 0 87 -32.5t27 -89.5v-252q0 -36 -9.5 -61.5t-25.5 -41.5t-38 -23.5t-46 -7.5q-53 0 -84.5 29t-31.5 80zM53 568l78 109h50l73 -109h-40l-58 69l-61 -69h-42zM82 120q0 -40 19 -60.5t54 -20.5q24 0 39 9t23.5 22 t11 28t2.5 28v252q0 14 -2.5 29t-10 27.5t-21.5 21t-37 8.5q-25 0 -40.5 -8t-23.5 -21.5t-11 -31t-3 -35.5v-248z" />
<glyph unicode="&#xf5;" d="M39 107v278q0 23 6.5 45t20.5 39t37.5 27t56.5 10q60 0 87 -32.5t27 -89.5v-252q0 -36 -9.5 -61.5t-25.5 -41.5t-38 -23.5t-46 -7.5q-53 0 -84.5 29t-31.5 80zM49 575q0 30 13.5 55t47.5 25q14 0 27.5 -5.5t26.5 -11.5t25 -11.5t22 -5.5q14 0 19.5 9.5t5.5 24.5h30 q0 -17 -1.5 -31.5t-7 -25.5t-15.5 -17t-27 -6q-13 0 -28 5.5t-29.5 12t-28 12t-22.5 5.5q-16 0 -22 -10t-7 -25h-29zM82 120q0 -40 19 -60.5t54 -20.5q24 0 39 9t23.5 22t11 28t2.5 28v252q0 14 -2.5 29t-10 27.5t-21.5 21t-37 8.5q-25 0 -40.5 -8t-23.5 -21.5t-11 -31 t-3 -35.5v-248z" />
<glyph unicode="&#xf6;" d="M39 107v278q0 23 6.5 45t20.5 39t37.5 27t56.5 10q60 0 87 -32.5t27 -89.5v-252q0 -36 -9.5 -61.5t-25.5 -41.5t-38 -23.5t-46 -7.5q-53 0 -84.5 29t-31.5 80zM82 120q0 -40 19 -60.5t54 -20.5q24 0 39 9t23.5 22t11 28t2.5 28v252q0 14 -2.5 29t-10 27.5t-21.5 21 t-37 8.5q-25 0 -40.5 -8t-23.5 -21.5t-11 -31t-3 -35.5v-248zM83 585v77h48v-77h-48zM182 585v77h48v-77h-48z" />
<glyph unicode="&#xf7;" horiz-adv-x="559" d="M85 275v42h390v-42h-390zM256 139v74h49v-74h-49zM256 378v74h49v-74h-49z" />
<glyph unicode="&#xf8;" d="M22 6l27 53q-3 9 -5 15.5t-3.5 12.5t-2 13t-0.5 17v254q0 21 4 44.5t17 43.5t37 33.5t64 13.5t62.5 -14t31.5 -28l22 41l18 -10l-29 -56q2 -6 3.5 -11t2.5 -10.5t1.5 -12.5t0.5 -19v-266q0 -34 -10.5 -57.5t-27.5 -37.5t-37.5 -20t-40.5 -6q-39 0 -62.5 11.5t-33.5 27.5 l-22 -42zM81 123l146 286q-2 8 -5.5 17.5t-11 18t-20 14t-33.5 5.5q-44 0 -60 -25t-16 -71v-245zM86 86q3 -15 18.5 -31.5t50.5 -16.5q28 0 43.5 11t22.5 27.5t8.5 35t1.5 34.5v224z" />
<glyph unicode="&#xf9;" horiz-adv-x="333" d="M30 678h97l87 -109h-33zM50 97v406h42v-372q0 -16 2.5 -33.5t9.5 -31.5t20 -23t34 -9q28 0 48 17t30 48v404h43v-503h-43v47q-14 -22 -39 -36t-52 -14q-26 0 -44 10t-29.5 25t-16.5 32.5t-5 32.5z" />
<glyph unicode="&#xfa;" horiz-adv-x="333" d="M50 97v406h42v-372q0 -16 2.5 -33.5t9.5 -31.5t20 -23t34 -9q28 0 48 17t30 48v404h43v-503h-43v47q-14 -22 -39 -36t-52 -14q-26 0 -44 10t-29.5 25t-16.5 32.5t-5 32.5zM115 567l84 109h95l-143 -109h-36z" />
<glyph unicode="&#xfb;" horiz-adv-x="333" d="M50 97v406h42v-372q0 -16 2.5 -33.5t9.5 -31.5t20 -23t34 -9q28 0 48 17t30 48v404h43v-503h-43v47q-14 -22 -39 -36t-52 -14q-26 0 -44 10t-29.5 25t-16.5 32.5t-5 32.5zM64 568l78 109h50l73 -109h-40l-58 69l-61 -69h-42z" />
<glyph unicode="&#xfc;" horiz-adv-x="333" d="M50 97v406h42v-372q0 -16 2.5 -33.5t9.5 -31.5t20 -23t34 -9q28 0 48 17t30 48v404h43v-503h-43v47q-14 -22 -39 -36t-52 -14q-26 0 -44 10t-29.5 25t-16.5 32.5t-5 32.5zM91 585v77h48v-77h-48zM190 585v77h48v-77h-48z" />
<glyph unicode="&#xfd;" horiz-adv-x="292" d="M9 -122q8 -2 21 -2q11 0 23.5 2.5t24 10t20.5 21.5t14 36l13 58l-110 499h43l88 -418l89 418h45l-129 -560q-5 -22 -12 -40t-23 -35q-23 -24 -52 -28t-55 -4v42zM107 567l84 109h95l-143 -109h-36z" />
<glyph unicode="&#xfe;" horiz-adv-x="333" d="M54 -163v869h40v-250q6 8 15 17t20 16.5t25.5 13t32.5 5.5q34 0 53.5 -14.5t29.5 -35.5t12.5 -44.5t2.5 -41.5v-260q0 -31 -9 -53t-23.5 -35.5t-32.5 -20t-37 -6.5q-35 0 -54.5 14t-31.5 30v-204h-43zM97 94q7 -19 18 -30.5t22.5 -17.5t22 -7.5t15.5 -1.5q24 0 37 10 t20 23.5t8.5 27.5t1.5 23v270q0 23 -6 38t-15.5 24t-21 12.5t-22.5 3.5q-7 0 -18 -2t-22.5 -8.5t-22.5 -19.5t-17 -35v-310z" />
<glyph unicode="&#xff;" horiz-adv-x="292" d="M9 -122q8 -2 21 -2q11 0 23.5 2.5t24 10t20.5 21.5t14 36l13 58l-110 499h43l88 -418l89 418h45l-129 -560q-5 -22 -12 -40t-23 -35q-23 -24 -52 -28t-55 -4v42zM80 585v77h48v-77h-48zM179 585v77h48v-77h-48z" />
<glyph unicode="&#x131;" horiz-adv-x="146" d="M52 0v503h43v-503h-43z" />
<glyph unicode="&#x141;" d="M0 181v69l59 85v371h49v-300l128 190v-69l-129 -190v-292h184v-45h-233v266z" />
<glyph unicode="&#x142;" horiz-adv-x="146" d="M0 239v65l52 85v317h42v-250l52 84v-67l-52 -84v-389h-42v323z" />
<glyph unicode="&#x152;" horiz-adv-x="542" d="M50 122v432q0 31 6.5 60t22.5 51t43.5 35.5t68.5 13.5q43 0 64.5 -13.5t35.5 -26.5v32h231v-43h-184v-276h163v-42h-162v-302h184v-43h-231v40q-3 -5 -12 -13.5t-22.5 -16.5t-32.5 -14t-43 -6q-39 0 -64.5 14t-40.5 34t-21 43t-6 41zM97 137q0 -21 5.5 -40t17 -33.5 t29 -23t41.5 -8.5q14 0 31.5 5t33 17t26.5 33t11 54v382q0 26 -3 52.5t-14 48t-31 35t-55 13.5q-48 0 -70 -29t-22 -74v-432z" />
<glyph unicode="&#x153;" horiz-adv-x="500" d="M42 115v280q0 45 29 77t87 32q22 0 37 -4.5t26.5 -11t19 -15.5t14.5 -18q13 26 41.5 38t56.5 12q37 0 58.5 -13.5t33 -33.5t14.5 -43t3 -43v-117h-188v-119q0 -54 22 -76.5t56 -22.5t50.5 21.5t16.5 56.5v54h43v-46q0 -22 -4 -45t-16 -41t-33.5 -29.5t-56.5 -11.5 q-32 0 -59.5 13t-41.5 45q-4 -6 -11.5 -16t-19.5 -19t-28.5 -16t-39.5 -7q-36 0 -58 12t-33.5 30t-15 38.5t-3.5 38.5zM84 136q0 -49 16.5 -74t54.5 -25q42 0 59 28t17 66v246q0 7 -1.5 21.5t-8 29.5t-21.5 26t-42 11q-22 0 -36.5 -8t-23 -20.5t-11.5 -27.5t-3 -29v-244z M273 291h146v90q0 35 -15 60t-54 25q-24 0 -39.5 -9.5t-23.5 -23.5t-11 -30t-3 -29v-83z" />
<glyph unicode="&#x160;" horiz-adv-x="375" d="M42 132v99h49v-56q0 -40 2.5 -64.5t18.5 -44.5q9 -11 20 -17.5t22 -10.5t21.5 -5t18.5 -1q26 0 43.5 8.5t28 23.5t15 36.5t4.5 47.5q0 29 -4.5 51t-16.5 43t-32 43.5t-50 52.5t-52.5 54.5t-38.5 49t-24 53t-8 65.5q0 22 3 49t16.5 51t40.5 40t75 16t74.5 -16t38.5 -40.5 t14.5 -53t2.5 -53.5v-51h-48v63q0 16 -1.5 35t-9 35.5t-24.5 27.5t-48 11q-46 0 -65.5 -27t-19.5 -79q0 -26 4 -46t16.5 -42t36 -49.5t63.5 -68.5q27 -28 47 -50.5t33 -45t19.5 -48.5t6.5 -61q0 -25 -3.5 -54.5t-18 -54.5t-43 -42t-79.5 -17q-31 0 -58 8t-47 25.5 t-31.5 44.5t-11.5 65zM94 877h39l58 -68l62 68h40l-77 -108h-51z" />
<glyph unicode="&#x161;" horiz-adv-x="292" d="M28 139v38h42v-44q0 -12 1 -28t8.5 -30.5t23.5 -25t45 -10.5q15 0 28 3.5t23.5 13t16.5 26t6 41.5q0 18 -3 31.5t-12 26t-25.5 28t-43.5 38.5q-21 18 -38 33.5t-29 32.5t-18 37t-6 47q0 16 3 35t14 35t32 27t57 11q39 0 60.5 -13.5t31 -32t11.5 -39t2 -35.5v-35h-43v35 q0 41 -14 60.5t-48 19.5q-23 0 -35.5 -7t-18.5 -17t-7.5 -21.5t-1.5 -19.5q0 -18 2 -30.5t11.5 -26.5t29.5 -33t56 -49q18 -15 32 -28t24 -28.5t15 -35t5 -45.5q0 -56 -27 -91t-90 -35q-38 0 -61.5 10.5t-36.5 29.5t-17.5 44.5t-4.5 56.5zM54 679h39l58 -67l61 68h41 l-77 -109h-50z" />
<glyph unicode="&#x178;" horiz-adv-x="354" d="M14 706h52l113 -332l112 332h54l-144 -394v-312h-48v312zM78 789v76h52v-76h-52zM226 789v76h52v-76h-52z" />
<glyph unicode="&#x17d;" horiz-adv-x="354" d="M27 0v32l234 631h-192v43h249v-33l-236 -629h235v-44h-290zM94 877h39l58 -68l62 68h40l-77 -108h-51z" />
<glyph unicode="&#x17e;" horiz-adv-x="292" d="M36 0v38l173 423h-159v42h210v-35l-175 -426h174v-42h-223zM59 679h39l58 -67l61 68h41l-77 -109h-50z" />
<glyph unicode="&#x192;" horiz-adv-x="283" d="M-46 -144l6 40q8 -1 12.5 -1.5t9.5 -0.5q33 0 49 16.5t22 65.5q3 21 7 52.5t9 69t10.5 78.5t10.5 80q12 92 26 196h-64l6 41h66l13 99q5 38 14 62t23 37.5t33 18.5t44 5q8 0 14 -0.5t17 -2.5l-6 -42q-13 4 -26 4q-19 0 -31 -5t-18.5 -15t-10 -25.5t-6.5 -35.5l-14 -100 h69l-6 -41h-71l-65 -489q-4 -33 -14 -54t-24.5 -33t-33.5 -17t-41 -5q-7 0 -13 0.5t-17 1.5z" />
<glyph unicode="&#x2c6;" horiz-adv-x="229" d="M14 568l78 109h50l73 -109h-40l-58 69l-61 -69h-42z" />
<glyph unicode="&#x2c7;" horiz-adv-x="229" d="M15 679h39l58 -67l61 68h41l-77 -109h-50z" />
<glyph unicode="&#x2d8;" horiz-adv-x="229" d="M22 671h23q14 -58 71 -58q18 0 30.5 6.5t20 15.5t11.5 19t7 17h21q-5 -46 -26.5 -74.5t-65.5 -28.5q-28 0 -45 12t-27 28.5t-14 34t-6 28.5z" />
<glyph unicode="&#x2d9;" horiz-adv-x="229" d="M89 588v75h51v-75h-51z" />
<glyph unicode="&#x2da;" horiz-adv-x="229" d="M48 616q0 28 19.5 47.5t46.5 19.5q28 0 47 -20t19 -48q0 -27 -19.5 -46t-46.5 -19q-7 0 -18.5 3t-22 10.5t-18 20t-7.5 32.5zM70 616q0 -22 15 -33t29 -11q19 0 31.5 13t12.5 32q0 18 -13 31t-31 13q-19 0 -31.5 -13.5t-12.5 -31.5z" />
<glyph unicode="&#x2db;" horiz-adv-x="229" d="M57 -91q0 32 18 53.5t44 49.5h45q-32 -32 -45 -54.5t-13 -36.5q0 -20 13.5 -24t30.5 -4h22v-44h-41q-7 0 -19.5 1.5t-24.5 7.5t-21 18t-9 33z" />
<glyph unicode="&#x2dc;" horiz-adv-x="229" d="M6 575q0 30 13.5 55t47.5 25q14 0 27.5 -5.5t26.5 -11.5t25 -11.5t22 -5.5q14 0 19.5 9.5t5.5 24.5h30q0 -17 -1.5 -31.5t-7 -25.5t-15.5 -17t-27 -6q-13 0 -28 5.5t-29.5 12t-28 12t-22.5 5.5q-16 0 -22 -10t-7 -25h-29z" />
<glyph unicode="&#x2dd;" horiz-adv-x="229" d="M-15 567l71 109h77l-115 -109h-33zM95 567l71 109h77l-115 -109h-33z" />
<glyph unicode="&#x37e;" horiz-adv-x="187" d="M91 0v91h45v-91q0 -32 -7.5 -53.5t-37.5 -36.5v22q18 13 21.5 27.5t3.5 34.5v6h-25zM91 364v91h46v-91h-46z" />
<glyph unicode="&#x394;" horiz-adv-x="377" d="M4 0l157 706h59l154 -706h-370zM66 44h247l-124 600z" />
<glyph unicode="&#x3a9;" horiz-adv-x="420" d="M56 0v44h80q-23 19 -37 47t-21.5 65t-9.5 81.5t-2 96.5v233q0 70 33 109t111 39q43 0 71 -11.5t44.5 -32.5t23 -49.5t6.5 -62.5v-225q0 -65 -3 -110.5t-11.5 -78.5t-22.5 -56.5t-35 -44.5h80v-44h-129v44q20 16 34 40.5t23 60t13 83t4 109.5v195q0 30 -2 55t-12 44 t-29 29.5t-54 10.5t-55 -10t-29.5 -28t-11.5 -43.5t-2 -57.5v-195q0 -55 2.5 -100t10.5 -80.5t22.5 -63.5t37.5 -49v-44h-130z" />
<glyph unicode="&#x3bc;" horiz-adv-x="333" d="M50 -163v666h42v-384q0 -41 17 -63t49 -22q28 0 45.5 14.5t32.5 50.5v404h42v-430q0 -22 4 -28t19 -6h9v-40h-5q-38 0 -51 9t-16 36q-33 -46 -85 -46q-21 0 -35 6.5t-26 20.5v-188h-42z" />
<glyph unicode="&#x3c0;" horiz-adv-x="351" d="M31 461v42h284v-43h-32v-378q0 -30 5 -36t22 -6h8v-40h-10q-41 0 -55 21t-14 55v384h-134v-460h-45v461h-29z" />
<glyph unicode="&#x2013;" horiz-adv-x="355" d="M35 271v42h284v-42h-284z" />
<glyph unicode="&#x2014;" horiz-adv-x="559" d="M69 271v42h421v-42h-421z" />
<glyph unicode="&#x2018;" horiz-adv-x="146" d="M54 525v91q0 32 8 53.5t37 36.5v-22q-17 -13 -20.5 -28t-3.5 -34v-6h24v-91h-45z" />
<glyph unicode="&#x2019;" horiz-adv-x="146" d="M50 525v22q19 13 22 30t3 38h-24v91h45v-91q0 -32 -8 -53.5t-38 -36.5z" />
<glyph unicode="&#x201a;" horiz-adv-x="146" d="M50 -68q19 13 22 30t3 38h-24v91h45v-91q0 -32 -8 -53.5t-38 -36.5v22z" />
<glyph unicode="&#x201c;" horiz-adv-x="250" d="M43 525v91q0 32 7.5 54t37.5 37v-22q-17 -13 -20.5 -28.5t-3.5 -34.5v-6h24v-91h-45zM152 525v91q0 32 8 54t37 37v-22q-17 -14 -20.5 -28.5t-3.5 -34.5v-6h24v-91h-45z" />
<glyph unicode="&#x201d;" horiz-adv-x="250" d="M47 525v22q19 13 22 30t3 38h-24v91h45v-91q0 -32 -8 -53.5t-38 -36.5zM156 525v22q19 13 22 30t3 38h-25v91h45v-91q0 -32 -7.5 -53.5t-37.5 -36.5z" />
<glyph unicode="&#x201e;" horiz-adv-x="250" d="M48 0v91h45v-90q0 -32 -8 -54.5t-37 -36.5v22q17 9 20.5 27t3.5 41h-24zM156 -68q19 11 22 29t3 39h-24v91h45v-91q0 -32 -8 -54t-38 -36v22z" />
<glyph unicode="&#x2020;" d="M12 454v46h123v206h47v-206h124v-46h-124v-454h-47v454h-123z" />
<glyph unicode="&#x2021;" d="M11 170v43h125v279h-125v44h125v170h43v-170h124v-44h-124v-279h124v-43h-124v-170h-43v170h-125z" />
<glyph unicode="&#x2022;" horiz-adv-x="333" d="M95 256v199h143v-199h-143z" />
<glyph unicode="&#x2026;" horiz-adv-x="1000" d="M141 0v65h52v-65h-52zM474 0v65h52v-65h-52zM807 0v65h51v-65h-51z" />
<glyph unicode="&#x2030;" horiz-adv-x="812" d="M20 367v241q0 13 3 30.5t12.5 33t28.5 26t51 10.5q48 0 68.5 -25.5t20.5 -76.5v-240q0 -18 -3 -37t-13 -34t-28 -25t-47 -10q-26 0 -44 8.5t-29 23t-15.5 34t-4.5 41.5zM58 371q0 -30 10.5 -52t44.5 -22q17 0 27.5 6t16.5 16t8 22.5t2 24.5v233q0 37 -10.5 53.5 t-42.5 16.5q-26 0 -41 -13t-15 -50v-235zM91 -59l366 845l26 -12l-367 -844zM374 102v241q0 13 3 30.5t12.5 33t28.5 26t51 10.5q48 0 68.5 -24.5t20.5 -75.5v-242q0 -18 -3 -37t-13 -34t-28 -25t-47 -10q-26 0 -44 8.5t-29 23t-15.5 34t-4.5 41.5zM412 106q0 -30 10.5 -52 t44.5 -22q17 0 27.5 6t16.5 16t8 22.5t2 24.5v238q0 36 -12.5 50.5t-40.5 14.5q-26 0 -41 -12.5t-15 -47.5v-238zM604 102v241q0 13 3 30.5t12.5 33t28.5 26t51 10.5q47 0 67.5 -24.5t20.5 -75.5v-242q0 -18 -3 -37t-13 -34t-27.5 -25t-46.5 -10q-26 0 -44 8.5t-29 23 t-15.5 34t-4.5 41.5zM642 106q0 -30 10.5 -52t44.5 -22q17 0 27 6t16 16t8 22.5t2 24.5v238q0 36 -12 50.5t-40 14.5q-26 0 -41 -12.5t-15 -47.5v-238z" />
<glyph unicode="&#x2039;" horiz-adv-x="250" d="M35 293l124 100h60l-122 -100l117 -100h-56z" />
<glyph unicode="&#x203a;" horiz-adv-x="250" d="M27 191l129 101l-122 99h60l121 -98l-126 -102h-62z" />
<glyph unicode="&#x2044;" horiz-adv-x="125" d="M-138 -59l367 845l25 -12l-367 -844z" />
<glyph unicode="&#x20ac;" horiz-adv-x="386" d="M26 310l8 38h52v51h-60l8 38h52v114q0 25 4.5 53.5t19.5 53t43.5 40.5t75.5 16q46 0 75.5 -13.5t53.5 -44.5l-16 -50q-24 35 -49.5 49.5t-62.5 14.5q-25 0 -43.5 -6.5t-30.5 -22t-18 -41.5t-6 -65v-98h179l-12 -38h-167v-51h158l-11 -38h-146v-104q0 -38 2.5 -70 t12.5 -54.5t30 -35t56 -12.5t65 14.5t58 47.5v-63q-32 -24 -60.5 -34t-66.5 -10q-144 0 -144 160v161h-60z" />
<glyph unicode="&#x2122;" horiz-adv-x="514" d="M22 670v36h162v-36h-60v-296h-40v296h-62zM214 706h57l60 -296l60 296h58v-104.5t0.5 -97.5t0.5 -79.5v-50.5h-39v22t0.5 38.5t1 48.5t0.5 53q1 62 2 138l-62 -300h-44l-62 300q1 -76 3 -138q1 -27 1.5 -53t1 -48t1 -38.5t0.5 -22.5h-39v194q0 65 -1 138z" />
<glyph unicode="&#x2202;" horiz-adv-x="409" d="M41 198q0 50 11.5 91t32.5 70t50.5 44.5t65.5 15.5q63 0 115 -54q1 11 1 17v14q0 148 -30.5 212t-90.5 64q-17 0 -30.5 -2.5t-33.5 -9.5l-6 41q22 8 38.5 10.5t34.5 2.5q52 0 84 -26t50 -70.5t24.5 -105t6.5 -129.5q0 -190 -38.5 -291.5t-125.5 -101.5q-36 0 -65 15 t-50 42.5t-32.5 66t-11.5 84.5zM93 203q0 -78 28.5 -124.5t76.5 -46.5q26 0 48 17.5t32 44.5q10 26 16.5 56.5t10.5 58.5t5.5 49t1.5 28v26q-49 66 -112 66q-50 0 -78.5 -47t-28.5 -128z" />
<glyph unicode="&#x2206;" horiz-adv-x="377" d="M4 0l157 706h59l154 -706h-370zM66 44h247l-124 600z" />
<glyph unicode="&#x220f;" horiz-adv-x="414" d="M69 -122v828h275v-828h-48v784h-179v-784h-48z" />
<glyph unicode="&#x2211;" horiz-adv-x="385" d="M49 -79l191 379l-191 362v44h281v-44h-228l195 -361l-199 -379h232v-44h-281v43z" />
<glyph unicode="&#x221a;" horiz-adv-x="559" d="M63 152l106 46l105 -304l163 812h49l-186 -891h-47l-116 319l-54 -23z" />
<glyph unicode="&#x221e;" horiz-adv-x="559" d="M28 291q0 68 33 109.5t90 41.5q41 0 69.5 -24.5t63.5 -83.5q19 30 35 50t32 33t33.5 18.5t39.5 5.5q51 0 79.5 -38t28.5 -103q0 -70 -32 -112t-87 -42q-39 0 -70 22.5t-68 84.5l-33 -46q-42 -58 -103 -58q-52 0 -81.5 39t-29.5 103zM74 293q0 -46 19 -75t49 -29 q11 0 21 3.5t21.5 13.5t25 28t31.5 46l9 14q-12 21 -24 40.5t-24.5 34t-26.5 23t-31 8.5q-31 0 -50.5 -29.5t-19.5 -77.5zM309 296q12 -21 24 -40.5t24.5 -34t27 -23t31.5 -8.5q30 0 49 29.5t19 77.5q0 46 -19 75t-48 29q-11 0 -21 -3.5t-21.5 -13.5t-25 -28t-31.5 -46z" />
<glyph unicode="&#x222b;" horiz-adv-x="231" d="M-6 -117q14 -8 24.5 -11.5t22.5 -3.5q29 0 37.5 19.5t8.5 57.5v674q0 52 18 76t59 24q15 0 28 -2.5t30 -9.5v-48q-14 10 -26.5 14t-23.5 4q-27 0 -32 -23.5t-5 -68.5v-640q0 -62 -17.5 -92.5t-67.5 -30.5q-15 0 -28 2.5t-28 7.5v51z" />
<glyph unicode="&#x2248;" horiz-adv-x="568" d="M66 204q17 20 30.5 33.5t27 22t28.5 12t34 3.5q17 0 35 -4t41 -14l58 -25q26 -11 37.5 -14.5t23.5 -3.5q22 0 41 12t46 42l33 -26q-32 -38 -61 -55t-61 -17q-19 0 -38.5 5.5t-54.5 21.5l-26 12q-26 12 -44 17t-34 5q-21 0 -39 -11.5t-44 -42.5zM66 347q17 20 31 34 t27.5 22t28.5 11.5t33 3.5q17 0 35 -4t41 -14l58 -25q26 -11 37.5 -14.5t23.5 -3.5q22 0 41 12t46 43l33 -27q-32 -39 -61 -55t-61 -16q-19 0 -38.5 5t-54.5 21l-26 12q-26 12 -44 17t-34 5q-21 0 -39 -11t-44 -42z" />
<glyph unicode="&#x2260;" horiz-adv-x="559" d="M85 202v42h147l47 103h-194v41h213l62 136h44l-62 -136h132v-41h-150l-47 -103h197v-42h-216l-67 -145h-44l66 145h-128z" />
<glyph unicode="&#x2264;" horiz-adv-x="559" d="M92 0v42h357v-42h-357zM92 280v45l357 195v-50l-310 -165l310 -170v-49z" />
<glyph unicode="&#x2265;" horiz-adv-x="559" d="M109 86v50l311 165l-311 170v49l358 -194v-45zM110 0v42h357v-42h-357z" />
<glyph unicode="&#x25ca;" horiz-adv-x="559" d="M92 358l161 348h47l167 -350l-168 -356h-47zM148 356l131 -306l133 308l-136 298z" />
<glyph unicode="&#xe000;" horiz-adv-x="505" d="M0 0v505h505v-505h-505z" />
</font>
</defs>
</svg>
