<?xml version="1.0" standalone="no"?>
<!DOCTYPE svg PUBLIC "-//W3C//DTD SVG 1.1//EN" "http://www.w3.org/Graphics/SVG/1.1/DTD/svg11.dtd" >
<svg xmlns="http://www.w3.org/2000/svg">
<metadata></metadata>
<defs>
<font id="akzidenz-grotesk_std_regulaIt" horiz-adv-x="542" >
<font-face units-per-em="1000" ascent="750" descent="-250" />
<missing-glyph horiz-adv-x="271" />
<glyph unicode="&#xfb01;" horiz-adv-x="500" d="M54 0l95 411h-75l14 60h74l30 130q9 39 23.5 62t31 34.5t32.5 14.5t28 3q20 0 37 -4.5t22 -6.5l-14 -60q-12 2 -22.5 3t-14.5 1q-23 0 -32 -14.5t-17 -47.5l-27 -115h84l-13 -60h-85l-95 -411h-76zM312 0l109 471h79l-108 -471h-80zM453 616l21 90h82l-21 -90h-82z" />
<glyph unicode="&#xfb02;" horiz-adv-x="500" d="M54 0l95 411h-75l14 60h74l30 130q9 39 23.5 62t31 34.5t32.5 14.5t28 3q20 0 37 -4.5t22 -6.5l-14 -60q-12 2 -22.5 3t-14.5 1q-23 0 -32 -14.5t-17 -47.5l-27 -115h84l-13 -60h-85l-95 -411h-76zM311 0l163 706h78l-163 -706h-78z" />
<glyph horiz-adv-x="1000" />
<glyph horiz-adv-x="1000" />
<glyph unicode="&#xd;" horiz-adv-x="271" />
<glyph unicode=" "  horiz-adv-x="271" />
<glyph unicode="&#x09;" horiz-adv-x="271" />
<glyph unicode="&#xa0;" horiz-adv-x="271" />
<glyph unicode="!" horiz-adv-x="271" d="M75 0l25 110h100l-26 -110h-99zM150 226l37 259l51 221h91l-54 -233l-78 -247h-47z" />
<glyph unicode="&#x22;" horiz-adv-x="347" d="M142 449l40 294h88l-96 -294h-32zM312 449l39 294h88l-95 -294h-32z" />
<glyph unicode="#" horiz-adv-x="667" d="M66 229l13 77h149l35 108h-142l14 77h152l68 214h80l-68 -214h110l69 214h78l-67 -214h138l-14 -77h-148l-35 -108h139l-14 -77h-150l-73 -229h-79l73 229h-111l-73 -229h-81l75 229h-138zM307 306h112l34 108h-111z" />
<glyph unicode="$" horiz-adv-x="667" d="M59 235l92 18q-1 -17 -1 -22v-8q0 -31 10 -57.5t28 -47.5t42 -35.5t52 -20.5l65 282q-37 15 -69.5 31.5t-57 37.5t-38.5 47.5t-14 61.5q0 29 12.5 63.5t42.5 64.5t80.5 50t125.5 20l18 77h67l-18 -81q81 -14 134.5 -60.5t59.5 -126.5l-91 -22q-6 36 -16.5 59.5t-26 38.5 t-35 24t-42.5 16l-52 -242q23 -10 56.5 -24t64.5 -36t53 -55t22 -82q0 -44 -17.5 -83.5t-52.5 -69.5t-87 -48t-121 -18h-12l-22 -94h-68l22 98q-41 6 -78 22t-65.5 45t-45.5 72.5t-17 104.5zM261 529q0 -38 30 -59t75 -37l47 216q-26 0 -53 -7.5t-49 -22.5t-36 -37.5 t-14 -52.5zM350 57q33 0 65.5 9.5t58.5 27.5t42 45t16 61q0 27 -11.5 45.5t-29.5 31.5t-39.5 22.5t-41.5 18.5z" />
<glyph unicode="%" horiz-adv-x="917" d="M91 390q0 45 12 94.5t37 91.5t64 69.5t93 27.5q48 0 75.5 -22t41.5 -51.5t17.5 -58.5t3.5 -43q0 -38 -11 -87t-36 -92.5t-64 -73t-95 -29.5q-19 0 -43 7t-45 26t-35.5 53t-14.5 88zM151 374q0 -50 22 -81.5t60 -31.5q30 0 55.5 21.5t45 56t30.5 78.5t11 89 q0 22 -3.5 43.5t-12.5 39t-24.5 28t-39.5 10.5q-34 0 -61 -23t-45.5 -60t-28 -81.5t-9.5 -88.5zM294 -6l363 697l43 -22l-362 -698zM563 166q0 45 12 94.5t37 91.5t64 69.5t93 27.5q48 0 75.5 -22t42 -51.5t18 -58.5t3.5 -43q0 -38 -11.5 -87t-36 -92.5t-64 -73t-95.5 -29.5 q-19 0 -43 7t-45 26t-35.5 53t-14.5 88zM623 150q0 -32 8 -53.5t20.5 -35t27 -19t26.5 -5.5q30 0 55.5 21.5t45 56t30.5 78.5t11 89q0 66 -22.5 94t-57.5 28q-27 0 -53 -19.5t-46.5 -54t-32.5 -80.5t-12 -100z" />
<glyph unicode="&#x26;" horiz-adv-x="625" d="M55 156q0 39 16 74.5t40.5 65t53 53t53.5 38.5q-1 7 -5 34.5t-4 55.5q0 24 4.5 50t13.5 50.5t23.5 46t34.5 36.5q31 23 60 29t43 6q15 0 38.5 -5t45 -18.5t37.5 -36.5t16 -59q0 -20 -12 -52.5t-47 -67.5q-14 -13 -28 -24t-32 -22t-41 -24.5t-55 -31.5q25 -54 53 -104 t78 -98q12 11 23.5 22.5t24 25.5t27 33t33.5 45l65 -41q-15 -22 -28 -39.5t-26 -33t-27.5 -30.5t-34.5 -33q11 -7 19.5 -11.5t17.5 -8.5t21 -8.5t31 -10.5l-18 -74q-25 6 -57 18.5t-79 43.5q-12 -8 -29 -18.5t-40 -19.5t-52 -15t-65 -6q-9 0 -35 1.5t-53 12.5 q-48 19 -76 59.5t-28 91.5zM144 160q0 -25 8.5 -43.5t23 -30.5t33 -17.5t38.5 -5.5q10 0 24.5 2t31.5 7t35 13.5t34 21.5q-30 33 -52 63.5t-37.5 57.5t-25.5 48.5t-16 36.5q-6 -4 -22 -16.5t-32.5 -32t-29.5 -46t-13 -58.5zM289 480q0 -14 1.5 -27t3.5 -27q16 9 28 15t24 13 t25.5 18t32.5 29q24 23 33.5 41t9.5 35q0 18 -7.5 28.5t-17 16t-19 7t-14.5 1.5q-13 0 -34.5 -8.5t-38.5 -36.5q-6 -10 -11 -23t-8.5 -27.5t-5.5 -28.5t-2 -26z" />
<glyph unicode="'" horiz-adv-x="177" d="M142 449l40 294h88l-96 -294h-32z" />
<glyph unicode="(" horiz-adv-x="315" d="M82 211q0 97 26 184t74 162t115 136.5t149 106.5l31 -44q-152 -95 -230 -235.5t-78 -318.5q0 -98 24.5 -174.5t81.5 -145.5l-44 -42q-76 79 -112.5 169.5t-36.5 201.5z" />
<glyph unicode=")" horiz-adv-x="315" d="M-79 -117q149 99 228.5 237t79.5 317q0 98 -25.5 176t-80.5 144l44 42q76 -79 112 -169.5t36 -201.5q0 -97 -26 -183.5t-73.5 -161.5t-114.5 -136.5t-149 -107.5z" />
<glyph unicode="*" horiz-adv-x="349" d="M122 612l30 52l93 -51l24 101l60 -14l-24 -102l108 9l8 -58l-110 -11l43 -96l-56 -24l-44 97l-77 -69l-41 46l77 69z" />
<glyph unicode="+" horiz-adv-x="724" d="M127 263l18 77h224l52 228h88l-53 -228h225l-18 -77h-225l-52 -230h-88l53 230h-224z" />
<glyph unicode="," horiz-adv-x="229" d="M8 -154q23 40 38.5 74.5t25.5 79.5h-41l26 110h95q-7 -57 -24 -110q-32 -94 -71 -154h-49z" />
<glyph unicode="-" horiz-adv-x="370" d="M70 262l18 76h280l-17 -76h-281z" />
<glyph unicode="." horiz-adv-x="229" d="M34 0l23 110h100l-22 -110h-101z" />
<glyph unicode="/" horiz-adv-x="313" d="M18 0l289 706h78l-287 -706h-80z" />
<glyph unicode="0" horiz-adv-x="583" d="M76 249q0 80 21 157t61 137t97 97t130 37q56 0 96 -22t65 -59t36.5 -85t11.5 -99q0 -46 -9 -95.5t-26.5 -97t-43.5 -89.5t-60.5 -73.5t-77 -50t-93.5 -18.5q-46 0 -84.5 17.5t-66 50.5t-42.5 81.5t-15 111.5zM162 225q0 -42 10 -74.5t27 -54t40 -33t49 -11.5 q35 0 65.5 17.5t55 46.5t43.5 67t31.5 79.5t19 84t6.5 79.5q0 60 -13 96.5t-32 57t-40.5 27t-39.5 6.5q-48 0 -88.5 -33t-70.5 -87t-46.5 -123.5t-16.5 -144.5z" />
<glyph unicode="1" horiz-adv-x="583" d="M178 491l16 68q2 0 13 -0.5t24 -0.5q49 0 79 14t47.5 33.5t25.5 39.5t11 32h82l-156 -677h-83l120 518q-11 -7 -26.5 -12.5t-32.5 -9.5t-35 -6t-34 -2q-25 0 -51 3z" />
<glyph unicode="2" horiz-adv-x="583" d="M30 0l20 86q69 37 137.5 81t131.5 93q12 9 38.5 32t52.5 55.5t46 72.5t20 83q0 29 -9.5 49t-24.5 32.5t-34.5 18.5t-39.5 6q-25 0 -50 -9.5t-45 -30t-32.5 -51t-12.5 -72.5q0 -15 1 -24.5t2 -17.5l-91 19v12q0 52 14.5 96.5t43 76.5t71.5 50.5t100 18.5q29 0 63.5 -8 t64 -27.5t49 -52.5t19.5 -84q0 -18 -3 -41t-12.5 -49.5t-26.5 -56t-45 -61.5q-13 -16 -38.5 -40.5t-66 -54.5t-97 -63.5t-132.5 -68.5q93 2 170 3q33 0 64.5 0.5t57.5 1t44 0.5h22l-17 -75h-455z" />
<glyph unicode="3" horiz-adv-x="583" d="M45 200l90 10q2 -24 9.5 -51.5t25 -50.5t47 -38t74.5 -15q34 0 62 10.5t47.5 28.5t30 42t10.5 52q0 33 -17 59.5t-47 41.5q-14 7 -28.5 11t-33 6.5t-41.5 3t-54 1.5l17 68q8 -1 17.5 -1.5t26.5 -0.5q31 0 65.5 6t63.5 21t48 40.5t19 65.5q0 26 -9.5 45t-25 31t-36 18 t-41.5 6q-38 0 -63.5 -13t-41 -31.5t-23 -38t-10.5 -32.5q-2 -13 -2.5 -21.5t-1.5 -13.5l-92 17q2 11 10 41t25 59q21 36 51 56.5t59 30t53.5 11.5t36.5 2q58 0 96 -17t60.5 -42.5t32 -55t9.5 -54.5q0 -36 -14 -65.5t-37.5 -51t-55.5 -34t-68 -14.5q67 -8 104.5 -51 t37.5 -105q0 -55 -24.5 -93t-61 -61.5t-80 -34t-82.5 -10.5q-62 0 -107 19t-74 49t-43 68t-14 76z" />
<glyph unicode="4" horiz-adv-x="583" d="M59 182l16 72l397 423h82l-91 -423h91l-17 -72h-91l-42 -182h-79l42 182h-308zM172 254h212l80 326z" />
<glyph unicode="5" horiz-adv-x="583" d="M47 187l82 13q7 -47 25 -76t40.5 -44.5t45.5 -20.5t40 -5q38 0 72 15.5t60 42.5t41 64t15 81q0 34 -9.5 59t-26 41t-37 23.5t-43.5 7.5q-24 0 -46 -7t-41 -18.5t-34 -26t-24 -28.5l-89 14l93 343h376l-17 -71h-307l-56 -209q11 11 24.5 23.5t32.5 23t43.5 17.5t56.5 7 q44 0 79 -14.5t60 -41t38 -62t13 -77.5q0 -57 -23 -111.5t-65 -93.5q-24 -23 -49 -36.5t-49 -20.5t-45.5 -9t-39.5 -2q-16 0 -36 1.5t-41.5 7.5t-44 16.5t-43.5 28.5q-23 20 -36.5 41t-21 40.5t-10 36.5t-3.5 27z" />
<glyph unicode="6" horiz-adv-x="583" d="M94 257q0 49 10 96t26.5 88.5t37 76t42.5 58.5q18 20 41 38.5t49.5 32.5t57 22t63.5 8q46 0 77.5 -13t50.5 -27q22 -16 35.5 -33t21 -33.5t11 -30.5t5.5 -23l-86 -17q-3 44 -34 75.5t-83 31.5q-57 0 -99 -31.5t-71 -76.5t-46 -94t-23 -84q10 16 25.5 37.5t39 41.5t56 34 t77.5 14q43 0 79 -14t61.5 -40.5t39.5 -63.5t14 -83q0 -42 -14.5 -87.5t-45 -84t-78.5 -63t-115 -24.5q-56 0 -98.5 20t-70.5 55.5t-42 85t-14 108.5zM192 194q0 -28 9 -53.5t25.5 -44.5t41 -30t55.5 -11q39 0 70 17t52 44t32.5 61t11.5 68q0 68 -35 101t-87 33 q-42 0 -74.5 -17t-55 -43.5t-34 -59t-11.5 -65.5z" />
<glyph unicode="7" horiz-adv-x="583" d="M117 471l45 194h414q-1 -13 -4.5 -33t-13.5 -49q-7 -22 -17 -42.5t-23.5 -44t-31.5 -53t-41 -69.5q-37 -65 -64 -119.5t-46 -100.5t-32 -84t-21 -70h-100q10 35 27 79t38.5 91t45.5 93.5t48 86.5q15 25 30.5 49t32.5 49q10 15 21.5 33.5t22 38t18.5 39t11 37.5h-255 l-29 -125h-76z" />
<glyph unicode="8" horiz-adv-x="583" d="M70 164q0 34 11.5 65t32 56t47 42.5t56.5 23.5q-8 4 -21.5 12.5t-26 22.5t-22 35.5t-9.5 52.5q0 35 14 71.5t43 65.5t73 47.5t105 18.5q44 0 80.5 -11t63.5 -32t42 -51.5t15 -69.5q0 -33 -10.5 -60t-28.5 -47t-41 -34t-48 -21q25 -6 45 -20.5t33.5 -34.5t20.5 -43.5 t7 -47.5q0 -40 -16 -78.5t-48 -69.5t-81.5 -50t-116.5 -19q-55 0 -96.5 14.5t-69 38.5t-41 56t-13.5 67zM154 167q0 -29 12 -51t31.5 -37t45 -22.5t52.5 -7.5q35 0 66 11.5t55 32t38 48.5t14 61q0 24 -10 45.5t-27.5 37t-42 25t-54.5 9.5q-34 0 -66 -10.5t-57.5 -30 t-41 -47.5t-15.5 -64zM222 480q0 -16 5.5 -33.5t19.5 -32.5t37 -24.5t59 -9.5q38 0 65.5 12.5t45.5 31t27 41.5t9 44q0 48 -33.5 75t-88.5 27q-39 0 -67 -13.5t-45.5 -33t-25.5 -42t-8 -42.5z" />
<glyph unicode="9" horiz-adv-x="583" d="M42 151l82 10q6 -28 19 -48t30 -32.5t37 -18t41 -5.5q56 0 97 26.5t69 67.5t45 90t25 94q-6 -10 -20 -30t-37.5 -40t-58 -35.5t-81.5 -15.5q-44 0 -80 15t-61 41t-38.5 62.5t-13.5 79.5q0 50 16.5 97.5t49.5 84.5t81 60t111 23q57 0 98.5 -20.5t68.5 -55.5t40 -82 t13 -100q0 -47 -8.5 -97.5t-26.5 -98.5t-45 -90.5t-63.5 -74.5t-82.5 -51t-103 -19q-34 0 -68.5 9t-63 29t-48.5 51t-24 74zM180 412q0 -33 10 -57.5t26.5 -40t38.5 -23.5t46 -8q29 0 60.5 11t57.5 34t43 58.5t17 84.5q0 64 -34 102t-93 38q-46 0 -78.5 -20t-53.5 -50 t-30.5 -64.5t-9.5 -64.5z" />
<glyph unicode=":" horiz-adv-x="271" d="M74 0l26 111h99l-26 -111h-99zM157 381l25 111h98l-25 -111h-98z" />
<glyph unicode=";" horiz-adv-x="271" d="M53 -155q20 38 36 75.5t27 79.5h-42l25 109h98q-4 -32 -11 -60t-13 -49q-21 -63 -36.5 -95.5t-33.5 -59.5h-50zM154 382l26 110h100l-25 -110h-101z" />
<glyph unicode="&#x3c;" horiz-adv-x="724" d="M149 262l21 90l520 232l-23 -94l-427 -189l341 -189l-20 -86z" />
<glyph unicode="=" horiz-adv-x="724" d="M105 164l18 76h526l-18 -76h-526zM148 351l19 77h525l-18 -77h-526z" />
<glyph unicode="&#x3e;" horiz-adv-x="724" d="M98 17l23 95l427 188l-341 190l20 85l412 -236l-21 -90z" />
<glyph unicode="?" d="M142 495q4 44 21 83.5t46.5 69.5t72 47.5t96.5 17.5t95 -16t68 -42.5t40.5 -60.5t13.5 -70q0 -33 -10.5 -65.5t-33.5 -60t-59.5 -47.5t-88.5 -26l-34 -149h-78l50 215h13q30 0 57.5 8.5t48.5 25t33.5 41t12.5 57.5q0 58 -35.5 88t-88.5 30q-41 0 -70 -14.5t-47.5 -38 t-27 -52t-8.5 -55.5zM244 0l25 112h92l-25 -112h-92z" />
<glyph unicode="@" horiz-adv-x="862" d="M80 218q0 101 38 191t103.5 157.5t153 106.5t185.5 39q65 0 118 -19.5t90 -55.5t57 -87t20 -114q0 -69 -21 -134.5t-55.5 -117t-79 -83t-90.5 -31.5q-76 0 -78 85q-35 -45 -71 -64.5t-74 -19.5q-59 0 -92.5 41t-33.5 112q0 57 18.5 109.5t49.5 93.5t70.5 65.5t82.5 24.5 q38 0 66 -19t46 -65l17 62h68q-16 -60 -28 -112q-5 -22 -10.5 -44.5t-10 -42t-8 -35t-5.5 -24.5q-3 -15 -5 -24.5t-3 -16.5t-1.5 -12.5t-0.5 -12.5q0 -41 29 -41q16 0 39.5 17t43.5 44q37 50 58 114t21 128q0 52 -16.5 93.5t-47.5 71t-75 45t-99 15.5q-82 0 -157 -35.5 t-132 -96t-90.5 -140t-33.5 -166.5q0 -66 22.5 -119t64.5 -91t100.5 -58.5t130.5 -20.5q52 0 101 11t98 36q19 10 35 19.5t32.5 20.5t34 25.5t38.5 33.5l30 -41q-80 -78 -175.5 -119t-195.5 -41q-82 0 -150.5 25t-118 70t-76.5 108t-27 139zM329 231q0 -45 20.5 -70 t56.5 -25q31 0 58 20.5t47.5 52.5t32 70t11.5 75q0 45 -20 72.5t-59 27.5q-28 0 -54.5 -19t-47 -50t-33 -71.5t-12.5 -82.5z" />
<glyph unicode="A" horiz-adv-x="667" d="M0 0l409 706h108l90 -706h-91l-25 222h-268l-128 -222h-95zM265 295h218l-35 353z" />
<glyph unicode="B" horiz-adv-x="708" d="M57 0l163 706h274q57 0 97.5 -13t66 -35.5t37 -52.5t11.5 -63q0 -45 -17 -77t-42.5 -52t-56 -31t-57.5 -14q27 0 52.5 -10.5t45 -29.5t31.5 -46.5t12 -62.5q0 -14 -4 -35.5t-14 -46t-28.5 -49t-47.5 -44t-70.5 -32t-97.5 -12.5h-355zM161 74h244q54 0 88.5 14.5t54 36.5 t27 48.5t7.5 50.5q0 29 -11.5 50t-30.5 34t-43.5 19t-50.5 6h-225zM238 407h216q43 0 73.5 11t50 29.5t28.5 42t9 48.5q0 16 -5 33t-16.5 31t-30.5 23t-47 9h-225z" />
<glyph unicode="C" horiz-adv-x="771" d="M87 312q0 83 26 157t75.5 129.5t120.5 88.5t161 33q74 0 127.5 -19t90 -49.5t58 -69t31.5 -77.5l-89 -17q-6 25 -20 53.5t-39.5 52.5t-64.5 39.5t-95 15.5t-99 -17t-74.5 -44.5t-53.5 -63t-35 -73t-19 -74.5t-6 -67q0 -51 12 -96.5t38.5 -80t69.5 -54.5t106 -20 q96 0 160 49t102 137l89 -12q-50 -123 -143 -184.5t-212 -61.5q-53 0 -109.5 15t-102.5 52.5t-75.5 100t-29.5 157.5z" />
<glyph unicode="D" horiz-adv-x="729" d="M58 0l163 706h241q60 0 109.5 -17t85.5 -50.5t55.5 -85t19.5 -120.5q0 -43 -8.5 -92t-27 -97.5t-47.5 -92.5t-71 -77.5t-97.5 -53.5t-126.5 -20h-296zM163 72h176q23 0 48 2t51 10t52.5 24t51.5 44q35 38 55 81t30.5 82t13.5 70.5t3 46.5q0 5 -0.5 19t-3.5 33t-9.5 40 t-18.5 39q-16 24 -36.5 38t-44 21.5t-48.5 9.5t-50 2h-141z" />
<glyph unicode="E" horiz-adv-x="625" d="M56 0l163 706h459l-17 -75h-370l-54 -233h339l-16 -70h-339l-59 -253h420l-17 -75h-509z" />
<glyph unicode="F" horiz-adv-x="562" d="M57 0l163 706h455l-17 -74h-367l-53 -230h342l-17 -72h-342l-76 -330h-88z" />
<glyph unicode="G" horiz-adv-x="792" d="M94 302q0 100 33.5 178t89 131t128 81t149.5 28q52 0 101 -13.5t89.5 -40.5t70 -67.5t42.5 -94.5l-94 -12q-6 19 -19 45t-36.5 50t-60.5 41t-92 17q-56 0 -101 -16t-79 -42.5t-58 -61.5t-39.5 -73t-22.5 -77t-7 -73q0 -40 10 -83t34.5 -78.5t67 -58.5t107.5 -23 q104 0 173.5 59.5t88.5 174.5h-265l16 73h345l-84 -366h-80l20 88q-15 -26 -40 -45t-56 -31.5t-65.5 -18.5t-67.5 -6q-75 0 -131 25.5t-93 68.5t-55.5 100t-18.5 121z" />
<glyph unicode="H" horiz-adv-x="750" d="M58 0l163 706h87l-68 -295h390l68 295h87l-163 -706h-87l78 337h-390l-78 -337h-87z" />
<glyph unicode="I" horiz-adv-x="271" d="M57 0l163 706h86l-163 -706h-86z" />
<glyph unicode="J" horiz-adv-x="437" d="M17 6l19 85q20 -9 43.5 -16.5t57.5 -7.5q40 0 65 16t40.5 41.5t24 56.5t15.5 61l107 464h88l-112 -485q-11 -49 -25 -92t-38.5 -74.5t-63.5 -49.5t-101 -18q-24 0 -41.5 1.5t-31 4t-25 6t-22.5 7.5z" />
<glyph unicode="K" horiz-adv-x="646" d="M58 0l163 706h85l-77 -332l419 332h118l-335 -267l194 -439h-96l-168 384l-158 -125l-60 -259h-85z" />
<glyph unicode="L" d="M57 0l163 706h88l-146 -630h335l-17 -76h-423z" />
<glyph unicode="M" horiz-adv-x="833" d="M58 0l163 706h105l72 -632l366 632h104l-163 -706h-84l153 600l-343 -600h-95l-67 611l-127 -611h-84z" />
<glyph unicode="N" horiz-adv-x="729" d="M57 0l163 706h95l231 -611l133 611h84l-163 -706h-91l-234 613l-133 -613h-85z" />
<glyph unicode="O" horiz-adv-x="792" d="M96 309q0 86 26.5 161t76 130.5t120 87.5t158.5 32q79 0 138.5 -25.5t99 -69t59 -102.5t19.5 -125q0 -90 -30 -165t-82.5 -130t-122.5 -85.5t-151 -30.5q-72 0 -130 24t-98 67t-61.5 101.5t-21.5 129.5zM191 306q0 -51 15 -96.5t43.5 -79t70 -53.5t93.5 -20 q71 0 124.5 30t89.5 79t54.5 111t18.5 126q0 66 -19 112.5t-50 76.5t-71.5 44t-82.5 14q-53 0 -95 -16t-74 -42.5t-54 -61.5t-36 -73t-20.5 -77t-6.5 -74z" />
<glyph unicode="P" horiz-adv-x="646" d="M56 0l163 706h285q43 0 79.5 -11t63.5 -33.5t42.5 -56.5t15.5 -79q0 -49 -18 -90t-53 -71t-88 -47t-122 -17h-211l-69 -301h-88zM230 375h165q26 0 51.5 1t50 6.5t46.5 17.5t40 33q24 28 29 53t5 39q0 47 -29 76.5t-85 29.5h-213z" />
<glyph unicode="Q" horiz-adv-x="792" d="M85 311q0 73 24.5 146t72 131.5t117 95t160.5 36.5q56 0 111 -18t99 -56.5t71.5 -99.5t27.5 -147q0 -54 -10 -99.5t-26 -83t-36 -66.5t-40 -49l90 -72l-63 -60l-96 76q-12 -9 -31 -19t-44.5 -19t-56.5 -14.5t-66 -5.5q-73 0 -129.5 26.5t-95.5 71t-59 103.5t-20 123z M180 304q0 -56 12.5 -96t32 -67.5t43.5 -44t47.5 -25t44.5 -11.5t33 -3q57 0 108.5 25t90 70t61 108t22.5 140q0 51 -13 97t-39.5 80t-67 54t-95.5 20q-71 0 -123.5 -31t-87.5 -80.5t-52 -111.5t-17 -124z" />
<glyph unicode="R" horiz-adv-x="667" d="M57 0l163 706h285q35 0 64 -4.5t61 -24.5q26 -16 41 -37.5t23 -42.5t10 -40t2 -30q0 -40 -13.5 -75.5t-38.5 -62.5t-61.5 -45t-82.5 -25l122 -319h-96l-114 307h-207l-71 -307h-87zM232 381h205q50 0 84 13t55.5 34t31 47t9.5 53q0 44 -28.5 73.5t-85.5 29.5h-213z" />
<glyph unicode="S" horiz-adv-x="667" d="M61 228l94 18q0 -3 -0.5 -7.5t-0.5 -10.5q0 -33 10 -64t32 -56t57 -40t86 -15q53 0 89.5 13t60 33.5t34 46t10.5 50.5q0 24 -9 41.5t-24 30.5t-35 23t-43 19l-86 34q-22 9 -51 21.5t-54.5 32.5t-43.5 50t-18 73q0 62 28.5 101t70 61t87.5 29.5t81 7.5q45 0 88.5 -9.5 t79 -32t59 -58.5t28.5 -90l-87 -21q-5 29 -16 55t-31.5 45.5t-51 31t-73.5 11.5q-39 0 -70.5 -9.5t-53.5 -25.5t-34 -38t-12 -48q0 -22 9.5 -37.5t26 -28t39.5 -22.5t50 -21l81 -32q33 -13 61.5 -29.5t49.5 -38t33 -49.5t12 -64q0 -31 -11.5 -69.5t-43 -72.5t-86.5 -57 t-141 -23q-43 0 -92.5 8.5t-91.5 34t-69.5 73t-27.5 125.5z" />
<glyph unicode="T" d="M125 630l17 76h518l-17 -76h-216l-145 -630h-89l150 630h-218z" />
<glyph unicode="U" horiz-adv-x="708" d="M107 192q0 24 5 63.5t18 94.5l82 356h88l-85 -365q-4 -16 -7 -35.5t-5.5 -38t-4 -35t-1.5 -26.5q0 -44 14.5 -72t37 -44t49.5 -22t53 -6q55 0 92 17t62 49.5t41.5 80t30.5 109.5l89 388h88l-98 -424q-13 -58 -32.5 -111.5t-53.5 -94.5t-87.5 -65t-136.5 -24 q-59 0 -103.5 15t-74.5 42t-45.5 65t-15.5 83z" />
<glyph unicode="V" horiz-adv-x="583" d="M142 706h89l46 -604l321 604h94l-389 -706h-93z" />
<glyph unicode="W" horiz-adv-x="1000" d="M128 706h85l57 -594l306 594h85l56 -594l302 594h92l-375 -706h-81l-53 613l-312 -613h-89z" />
<glyph unicode="X" horiz-adv-x="583" d="M-19 0l314 369l-138 337h91l109 -273l224 273h104l-296 -349l149 -357h-93l-120 294l-241 -294h-103z" />
<glyph unicode="Y" horiz-adv-x="583" d="M141 706h89l95 -319l276 319h106l-359 -399l-70 -307h-89l73 317z" />
<glyph unicode="Z" horiz-adv-x="583" d="M-1 0l21 90l502 537h-383l18 79h489l-18 -79l-512 -550h450l-18 -77h-549z" />
<glyph unicode="[" horiz-adv-x="277" d="M12 -144l213 923h185l-14 -59h-104l-186 -805h104l-14 -59h-184z" />
<glyph unicode="\" horiz-adv-x="375" d="M129 706h78l134 -706h-80z" />
<glyph unicode="]" horiz-adv-x="277" d="M-59 -144l14 60h104l185 805h-104l14 58h184l-213 -923h-184z" />
<glyph unicode="^" horiz-adv-x="724" d="M137 287l297 419h91l109 -419h-87l-79 338l-233 -338h-98z" />
<glyph unicode="_" horiz-adv-x="500" d="M-90 -214l18 75h519l-17 -75h-520z" />
<glyph unicode="`" horiz-adv-x="292" d="M72 683h101l47 -152h-53z" />
<glyph unicode="a" horiz-adv-x="500" d="M36 107q0 59 39.5 99t108.5 54q46 9 97 15t98 16q3 14 6.5 31t3.5 31q0 13 -4.5 25t-15 21.5t-28 15t-43.5 5.5q-38 0 -60 -12.5t-34 -28.5t-16 -31.5t-5 -22.5l-89 8q8 23 21 49t37 48t61.5 36t95.5 14q25 0 53 -6t52 -19.5t40 -35t16 -52.5q0 -17 -2.5 -33.5 t-6.5 -33.5l-43 -185q-2 -7 -3 -14t-1 -15q0 -15 8 -19.5t17 -4.5q6 0 12.5 1t18.5 6l-15 -65q-18 -5 -27.5 -6t-19.5 -1q-9 0 -21 2.5t-22.5 9t-18 18t-7.5 29.5v6.5t1 6.5q-6 -11 -18.5 -25t-32 -26t-47.5 -20t-66 -8q-41 0 -68 11.5t-43 29t-22.5 38t-6.5 38.5zM123 114 q0 -10 4 -21.5t13 -21.5t24.5 -16t38.5 -6t53 10t48 24q14 11 23 24.5t14 26.5t7.5 23.5t3.5 16.5l13 56l-17 -2q-35 -4 -74.5 -10t-73 -18t-55.5 -32.5t-22 -53.5z" />
<glyph unicode="b" horiz-adv-x="562" d="M44 0l164 706h76l-70 -305q29 41 68.5 60t86.5 19q44 0 76.5 -16.5t54 -43.5t32 -62.5t10.5 -74.5q0 -22 -4.5 -52.5t-15.5 -63t-29.5 -64t-47 -56.5t-68 -40.5t-92.5 -15.5t-93 22t-51 74l-20 -87h-77zM170 174q0 -39 12 -63t29 -37.5t36.5 -18.5t35.5 -5 q44 0 77.5 21.5t56 55.5t34.5 76t12 82q0 25 -6.5 48.5t-20.5 41.5t-36 29t-54 11q-14 0 -33.5 -4t-40 -15t-40 -31.5t-33.5 -53.5q-13 -29 -21 -67.5t-8 -69.5z" />
<glyph unicode="c" horiz-adv-x="509" d="M62 186q0 63 20 117.5t55 94t83 62.5t104 23q34 0 66 -9t57.5 -26.5t42 -44.5t19.5 -63l-74 -17q-3 12 -8.5 28.5t-17.5 31.5t-32.5 25.5t-53.5 10.5q-51 0 -85.5 -26t-55.5 -62.5t-30 -75.5t-9 -64q0 -26 7 -52t22 -46.5t38.5 -33.5t56.5 -13q21 0 41.5 6t39 19t34 33.5 t24.5 48.5l82 -11q-12 -27 -29.5 -54.5t-44.5 -49.5t-64.5 -36t-88.5 -14q-30 0 -65 8.5t-64.5 30.5t-49.5 60.5t-20 98.5z" />
<glyph unicode="d" horiz-adv-x="562" d="M63 190q0 58 18 110.5t51.5 92.5t81 63.5t107.5 23.5q26 0 51 -6t44.5 -18.5t32 -31t14.5 -44.5q16 71 31 133q6 27 13 54.5t13 53.5t11 48t8 37h77l-163 -706h-77l14 64q-20 -29 -56 -51t-91 -22q-49 0 -83.5 16.5t-56 44.5t-31 63.5t-9.5 74.5zM145 192 q0 -66 30.5 -103t87.5 -37q45 0 77.5 24.5t53.5 61t31.5 80t10.5 81.5q0 22 -6 43t-19 38t-34.5 27.5t-52.5 10.5q-37 0 -70 -17.5t-57 -47.5t-38 -71t-14 -90z" />
<glyph unicode="e" horiz-adv-x="521" d="M62 189q0 61 19 114.5t53.5 93.5t82 63t105.5 23q83 0 130.5 -48.5t47.5 -144.5q0 -14 -0.5 -26.5t-5.5 -36.5h-353q-1 -5 -1.5 -13.5t-0.5 -19.5q0 -48 16 -77t37.5 -44t44 -19.5t35.5 -4.5q40 0 78.5 24t55.5 72l75 -13q-6 -17 -21.5 -41.5t-42.5 -47.5t-67 -39 t-94 -16q-48 0 -84 15t-60.5 42t-37 64t-12.5 80zM156 285h266q0 3 0.5 8t0.5 11q0 54 -29.5 86t-76.5 32q-29 0 -55 -11.5t-47 -30.5t-36 -43.5t-23 -51.5z" />
<glyph unicode="f" horiz-adv-x="271" d="M54 0l95 411h-75l14 60h74l30 130q9 39 23.5 62t31 34.5t32.5 14.5t28 3q20 0 37 -4.5t22 -6.5l-14 -60q-12 2 -22.5 3t-14.5 1q-23 0 -32 -14.5t-17 -47.5l-27 -115h84l-13 -60h-85l-95 -411h-76z" />
<glyph unicode="g" d="M13 -75q0 6 0.5 13t2.5 19l80 9q-4 -14 -5 -21t-1 -15q0 -15 6 -30.5t19.5 -29t35 -22t52.5 -8.5q41 0 68 16t44.5 43.5t29.5 65.5t23 83q-10 -9 -22.5 -19t-29 -18.5t-37.5 -14t-48 -5.5q-47 0 -79.5 18.5t-52.5 47t-28.5 63t-8.5 66.5q0 21 4.5 51t16 62.5t30 65 t46.5 58t66.5 41.5t88.5 16q33 0 56.5 -9t39.5 -21.5t25.5 -26t14.5 -21.5l15 69h76l-102 -445q-14 -61 -33 -107t-47 -77t-66.5 -46.5t-92.5 -15.5q-34 0 -68 8.5t-60 26t-42.5 45t-16.5 65.5zM143 185q0 -40 10.5 -66t27 -41t36 -21t37.5 -6q34 0 59 14.5t43.5 37.5 t30.5 51.5t19 56t10 51t3 37.5q0 18 -4 39t-15 39t-30.5 29.5t-51.5 11.5q-50 0 -83.5 -25t-54 -61t-29 -76t-8.5 -71z" />
<glyph unicode="h" d="M45 0l163 706h78l-73 -315q11 17 26.5 33.5t36 29.5t46.5 21t58 8q66 0 99.5 -31.5t33.5 -79.5q0 -23 -4.5 -46t-6.5 -31l-68 -295h-79l70 304q5 18 6 27.5t1 19.5q0 34 -22.5 51t-54.5 17q-23 0 -48.5 -7.5t-49.5 -27t-44.5 -54.5t-33.5 -91l-56 -239h-78z" />
<glyph unicode="i" horiz-adv-x="229" d="M41 0l109 471h79l-108 -471h-80zM182 616l21 90h82l-21 -90h-82z" />
<glyph unicode="j" horiz-adv-x="229" d="M-97 -224l15 64q7 -1 13 -1.5t19 -0.5q20 0 32 4.5t19.5 14t12.5 26t11 40.5l131 548h76l-110 -471l-17 -76q-10 -43 -20 -72t-25.5 -47t-40 -25.5t-63.5 -7.5q-21 0 -32.5 1t-20.5 3zM186 617l20 89h80l-21 -89h-79z" />
<glyph unicode="k" horiz-adv-x="479" d="M41 0l163 706h78l-100 -431l249 196h105l-242 -190l180 -281h-96l-145 231l-74 -57l-40 -174h-78z" />
<glyph unicode="l" horiz-adv-x="229" d="M41 0l163 706h78l-163 -706h-78z" />
<glyph unicode="m" horiz-adv-x="792" d="M43 0l109 471h77l-18 -76q13 18 27.5 34t33 28t41.5 19t53 7q43 0 75 -22t37 -66q8 12 22 27t34.5 28.5t47.5 23t61 9.5q19 0 40 -5.5t38.5 -18t29 -34.5t11.5 -55q0 -11 -2 -24.5t-4 -26.5t-4.5 -23.5t-3.5 -15.5l-64 -280h-77l63 276q4 17 9 40t5 40q0 33 -21.5 49 t-51.5 16q-22 0 -44 -7t-41.5 -24.5t-35.5 -45.5t-26 -70l-63 -274h-77l55 240q6 26 14 58.5t8 54.5q0 32 -17.5 50t-53.5 18q-18 0 -39.5 -7t-43 -26t-40 -52.5t-30.5 -86.5l-57 -249h-77z" />
<glyph unicode="n" d="M41 0l109 471h79l-16 -68q7 7 21 20.5t34.5 26.5t47 23t59.5 10q15 0 38 -5t44.5 -18.5t37 -37t15.5 -59.5q0 -18 -3.5 -40t-7.5 -39l-66 -284h-78l67 291q5 18 6 29t1 25q0 38 -23 56.5t-58 18.5q-40 0 -69 -13.5t-49 -38.5t-33 -59.5t-23 -76.5l-54 -232h-79z" />
<glyph unicode="o" d="M62 196q0 49 16 100t48.5 92.5t82.5 68t117 26.5q47 0 83.5 -16.5t61.5 -45t38 -66.5t13 -82q0 -51 -17.5 -102t-50.5 -91.5t-82 -66t-112 -25.5q-48 0 -84.5 16t-62 44t-38.5 66t-13 82zM142 188q0 -39 10.5 -66t27.5 -43.5t38 -23.5t42 -7q41 0 74.5 20.5t57.5 53.5 t37 75t13 86q0 46 -13.5 73.5t-32 42t-38 19t-31.5 4.5q-46 0 -80.5 -21.5t-58 -55t-35 -75t-11.5 -82.5z" />
<glyph unicode="p" d="M-6 -215l158 686h78l-14 -59q8 10 19.5 21.5t28 22t39.5 17.5t53 7q7 0 22 -1.5t34 -7.5t39 -18t37 -32.5t27.5 -51.5t10.5 -76q0 -44 -13.5 -96.5t-43 -98.5t-76.5 -76.5t-115 -30.5q-9 0 -27.5 1.5t-38.5 10t-40 26.5t-32 52l-69 -296h-77zM167 167q0 -31 9.5 -52.5 t25 -34.5t35 -19t38.5 -6q30 0 61 15.5t55.5 45.5t40.5 75t16 104q0 36 -10.5 59.5t-27 37.5t-36 19.5t-37.5 5.5q-13 0 -31 -4t-37 -14.5t-37.5 -30t-32.5 -50.5q-14 -32 -23 -74t-9 -77z" />
<glyph unicode="q" d="M63 187q0 66 20.5 120t54.5 92.5t79 59.5t94 21q56 0 91.5 -23t42.5 -68l19 82h77l-158 -686h-77l64 280q-9 -12 -21 -25.5t-28.5 -24t-38 -17.5t-51.5 -7t-60 11t-54 34.5t-39 61t-15 89.5zM145 185q0 -37 10 -62t25.5 -40t34 -21.5t35.5 -6.5q15 0 32.5 4t34.5 14 t33.5 27t29.5 42q8 15 15.5 37t13 46t9 47.5t3.5 42.5q0 47 -28.5 75t-75.5 28q-36 0 -67.5 -18t-55 -49t-36.5 -73.5t-13 -92.5z" />
<glyph unicode="r" horiz-adv-x="313" d="M42 0l108 471h77l-19 -83q24 42 58.5 67t81.5 25h11q4 0 7 -1l-17 -75q-3 1 -7 1h-14q-20 0 -47 -8t-54 -40q-15 -18 -25.5 -39.5t-17.5 -41t-10.5 -35t-4.5 -20.5l-51 -221h-76z" />
<glyph unicode="s" horiz-adv-x="479" d="M46 131q0 6 0.5 12.5t2.5 18.5l80 13q-1 -5 -3.5 -15.5t-2.5 -24.5q0 -25 8.5 -41.5t23.5 -27t35.5 -15t43.5 -4.5q54 0 87 22.5t33 60.5q0 24 -16.5 38.5t-54.5 29.5l-83 32q-45 17 -71 44t-26 69q0 22 9.5 46.5t32 45.5t58.5 34.5t89 13.5q52 0 84.5 -12.5t50.5 -31 t24.5 -40t6.5 -40.5v-7.5t-1 -10.5l-76 -13q1 2 2 9.5t1 17.5q0 29 -25 49.5t-66 20.5q-28 0 -48 -6.5t-33 -17t-19.5 -23.5t-6.5 -25q0 -26 18.5 -37.5t53.5 -25.5l77 -30q21 -8 40 -18t33 -23.5t22 -31.5t8 -43q0 -16 -7 -42.5t-28 -51.5t-60.5 -43.5t-104.5 -18.5 q-101 0 -146.5 39.5t-45.5 103.5z" />
<glyph unicode="t" horiz-adv-x="271" d="M74 410l14 61h75l35 149h75l-35 -149h83l-13 -61h-84l-59 -258q-5 -21 -8 -36.5t-3 -23.5q0 -18 9 -24t26 -6q12 0 24.5 2.5t29.5 5.5l-14 -59q-10 -5 -30 -9.5t-46 -4.5q-33 0 -55.5 15.5t-22.5 51.5q0 13 2.5 29.5t8.5 43.5l64 273h-76z" />
<glyph unicode="u" d="M74 102q0 19 5.5 45t9.5 44l64 280h79l-65 -280q-7 -29 -8.5 -42t-1.5 -27q0 -30 21 -48t63 -18q7 0 20 1.5t29 6t33 14t32 25.5q29 31 41 69t21 77l51 222h75l-109 -471h-75l17 74q-30 -40 -76 -61.5t-96 -21.5q-33 0 -57.5 9t-40.5 24.5t-24 35.5t-8 42z" />
<glyph unicode="v" horiz-adv-x="458" d="M96 471h74l32 -389l228 389h86l-291 -471h-83z" />
<glyph unicode="w" horiz-adv-x="750" d="M97 471h75l31 -385l201 385h77l34 -385l208 385h83l-273 -471h-77l-32 384l-204 -384h-77z" />
<glyph unicode="x" horiz-adv-x="437" d="M-23 0l227 245l-67 226h76l46 -171l153 171h91l-218 -237l69 -234h-77l-46 180l-160 -180h-94z" />
<glyph unicode="y" horiz-adv-x="458" d="M-54 -228l16 68q9 -1 18.5 -1.5t18.5 -0.5q21 0 35 5.5t24.5 15t18.5 22.5t17 28l58 99l-53 463h78l37 -376l208 376h87l-279 -472l-77 -130q-20 -33 -37 -53t-34.5 -30.5t-38 -13.5t-47.5 -3q-21 0 -32 1t-18 2z" />
<glyph unicode="z" horiz-adv-x="458" d="M-1 0l15 63l356 340h-266l15 68h360l-17 -74l-345 -329h299l-16 -68h-401z" />
<glyph unicode="{" horiz-adv-x="281" d="M48 288q4 17 6 27t4 19l3 14q26 1 43.5 5t29.5 15t20.5 31.5t16.5 54.5l37 161q12 50 23.5 82.5t30 51.5t46.5 26t72 7h33l-14 -57h-17q-22 0 -36.5 -4.5t-24 -16t-16.5 -29.5t-13 -45l-42 -181q-7 -33 -16 -56t-22.5 -39t-31.5 -25.5t-42 -14.5q57 -19 57 -80 q0 -21 -8 -58l-36 -158q-4 -16 -6.5 -26.5t-3.5 -17t-1.5 -11t-0.5 -9.5q0 -44 56 -44h16l-13 -58h-38q-48 0 -74.5 25t-26.5 70q0 14 2 29.5t10 48.5l37 156q8 32 8 51q0 26 -15 38.5t-53 17.5z" />
<glyph unicode="|" horiz-adv-x="236" d="M11 -143l212 922h81l-213 -922h-80z" />
<glyph unicode="}" horiz-adv-x="281" d="M-57 -148l14 58h17q25 0 40 6t24 18t14.5 29t10.5 39l43 183q8 33 17.5 56.5t22.5 39.5t30.5 25.5t41.5 14.5q-57 19 -57 79q0 23 8 58l36 158q4 17 6 27t3.5 16.5t2 11t0.5 9.5q0 45 -56 45h-16l13 57h38q48 0 74.5 -25t26.5 -70q0 -14 -2 -29t-10 -48l-37 -157 q-3 -14 -5.5 -28.5t-2.5 -21.5q0 -27 15 -39t54 -17l-14 -60q-25 -1 -42.5 -4.5t-30 -15t-21 -32t-16.5 -54.5l-37 -162q-10 -47 -21 -78.5t-28.5 -51.5t-45 -28.5t-71.5 -8.5h-39z" />
<glyph unicode="~" horiz-adv-x="724" d="M104 290q27 28 49.5 47t43.5 30.5t42 16.5t45 5q27 0 50 -7.5t58 -25.5l57 -29q15 -8 25.5 -13t18.5 -7.5t15 -3.5t14 -1q29 0 60.5 16.5t78.5 62.5l40 -66q-57 -55 -100.5 -77t-84.5 -22q-25 0 -49.5 7.5t-64.5 30.5l-32 18q-30 17 -52.5 23.5t-43.5 6.5q-15 0 -27.5 -3 t-25 -10.5t-28 -21t-37.5 -33.5l-12 -11z" />
<glyph unicode="&#xa1;" horiz-adv-x="271" d="M35 0l56 232l76 248h46l-38 -260l-51 -220h-89zM165 595l26 111h99l-26 -111h-99z" />
<glyph unicode="&#xa2;" horiz-adv-x="500" d="M69 186q0 55 15 100t38.5 79.5t52 58.5t55.5 36q31 14 57 17t37 3l18 80h60l-18 -80q56 -8 92 -48t42 -93l-74 -18q-11 47 -30 66.5t-46 24.5l-78 -361q30 0 51.5 12.5t36.5 29.5t23.5 34.5t12.5 26.5l83 -10q-9 -26 -23 -46.5t-22 -29.5q-23 -26 -47 -41.5t-46 -23.5 t-40.5 -10t-30.5 -2h-12l-21 -92h-65l21 95q-5 2 -21 6t-33 14q-33 19 -50.5 45.5t-26 52.5t-10 46.5t-1.5 27.5zM152 185q0 -5 0.5 -17.5t4.5 -28.5t13 -33t25 -31q10 -8 19 -12t12 -6l83 359q-5 -1 -19 -3t-30 -10q-22 -11 -41.5 -31t-34.5 -48t-23.5 -63t-8.5 -76z" />
<glyph unicode="&#xa3;" horiz-adv-x="720" d="M2 81q0 21 10.5 38.5t28.5 30.5t42.5 20t52.5 7q32 0 56 -7.5t53 -18.5q8 15 13 28t9.5 28t9 35t10.5 49h-160l15 64h160q9 42 14 83t14 79.5t26 72.5t50 61q35 29 81.5 45.5t100.5 16.5q60 0 98.5 -17t61 -42.5t31.5 -55t9 -53.5l-89 -17q1 7 1.5 13t0.5 11 q0 21 -10.5 38t-27.5 29.5t-39.5 19.5t-46.5 7q-35 0 -61.5 -11.5t-46 -29t-32 -39.5t-18.5 -43q-6 -18 -9.5 -34t-6.5 -34.5t-7 -42.5t-11 -57h175l-15 -64h-175q-5 -29 -13.5 -56t-17.5 -49t-17 -38.5t-13 -25.5q44 -21 79.5 -38t73.5 -17q12 0 26.5 4.5t28 15t24 29 t15.5 45.5l85 -10q-6 -29 -20 -57t-36 -50.5t-52.5 -36t-71.5 -13.5q-51 0 -100.5 21.5t-94.5 47.5q-27 -30 -66.5 -49.5t-83.5 -19.5q-16 0 -36 4t-37.5 13.5t-29 26.5t-11.5 43zM65 84q0 -10 6 -16t14 -9t16 -4t12 -1q13 0 27.5 4t27 10.5t22.5 14.5t15 15q-11 4 -31 10.5 t-52 6.5q-7 0 -17 -1.5t-19 -5t-15 -9.5t-6 -15z" />
<glyph unicode="&#xa4;" horiz-adv-x="673" d="M73 123l81 68q-20 35 -28 63t-8 62q0 53 18.5 102.5t56.5 88.5l-66 78l62 54l64 -76q38 21 74 31t78 10q48 0 86.5 -13t75.5 -42l80 68l51 -61l-80 -69q18 -29 26 -57t8 -60q0 -111 -74 -197l65 -78l-62 -53l-65 77q-39 -23 -75 -32.5t-79 -9.5q-24 0 -44 2.5t-38.5 9 t-36.5 17t-38 26.5l-82 -69zM201 320q0 -37 12.5 -68t34 -53.5t51.5 -35t65 -12.5q44 0 81.5 16t65.5 44t44 66.5t16 83.5q0 38 -12 68.5t-34.5 52.5t-54 34t-69.5 12q-43 0 -79.5 -16t-63.5 -43.5t-42 -65.5t-15 -83z" />
<glyph unicode="&#xa5;" horiz-adv-x="610" d="M67 218l14 64h186l4 21l-4 23h-176l16 65h134l-96 283h89l99 -307l272 307h106l-261 -283h134l-15 -65h-181l-32 -35l-2 -9h205l-15 -64h-205l-50 -218h-87l50 218h-185z" />
<glyph unicode="&#xa6;" horiz-adv-x="236" d="M10 -143l93 402h83l-93 -402h-83zM131 377l92 402h83l-93 -402h-82z" />
<glyph unicode="&#xa7;" horiz-adv-x="604" d="M61 -60l19 82q23 -18 50.5 -36t56.5 -31.5t60 -22t61 -8.5q20 0 39 5t34 15.5t24.5 27t9.5 38.5q0 30 -22.5 51t-56.5 38t-73.5 34t-73.5 39.5t-56.5 53t-22.5 75.5q0 31 10 56t27.5 44.5t41.5 33.5t52 23q-23 23 -36.5 49t-13.5 59q0 35 15 63.5t39.5 48t55.5 30 t64 10.5q53 0 106 -16.5t96 -46.5l-17 -78q-39 28 -84.5 48t-95.5 20q-18 0 -35.5 -4.5t-31 -14t-22 -24.5t-8.5 -35q0 -19 7 -32t18 -22.5t25.5 -16.5t30.5 -14l80 -34q29 -12 55 -26.5t46 -33.5t31.5 -45t11.5 -61q0 -30 -10.5 -55t-28.5 -45.5t-42 -35t-52 -23.5 q25 -23 38 -49t13 -60q0 -41 -15.5 -71t-41.5 -49.5t-60 -29.5t-71 -10q-30 0 -63.5 6.5t-66.5 18.5t-63.5 27.5t-53.5 33.5zM187 316q0 -19 9 -35t22.5 -28.5t30.5 -22t32 -16.5l98 -46q23 0 45 6t39 18t27.5 31t10.5 44q0 20 -7.5 36t-19.5 28t-27.5 21.5t-32.5 16.5 q-26 11 -50.5 22.5t-50.5 23.5q-22 -1 -44.5 -6.5t-40.5 -17.5t-29.5 -30.5t-11.5 -44.5z" />
<glyph unicode="&#xa8;" horiz-adv-x="292" d="M-8 552l23 101h91l-23 -101h-91zM186 552l23 101h91l-23 -101h-91z" />
<glyph unicode="&#xa9;" horiz-adv-x="840" d="M113 354q0 74 28 139t76 113t113 76t140 28q73 0 137.5 -27.5t113 -75t76.5 -111t28 -136.5q0 -77 -27 -143.5t-75 -115t-113 -76t-142 -27.5q-74 0 -138.5 28t-112.5 76t-76 113t-28 139zM150 353q0 -67 25 -125.5t68 -102t101 -68.5t125 -25q65 0 123.5 25t102 68 t69 100.5t25.5 122.5q0 70 -24.5 130t-67.5 104t-101.5 69t-126.5 25q-66 0 -124.5 -25.5t-101.5 -69t-68 -102.5t-25 -126zM264 325q0 56 18 103.5t50 82t75.5 54.5t94.5 20q78 0 123 -36.5t61 -113.5l-71 -14q-11 54 -39 78t-82 24q-35 0 -63.5 -14t-49 -39.5t-32 -61 t-11.5 -78.5q0 -68 34 -106t94 -38q48 0 78.5 23t50.5 74l66 -19q-30 -75 -79 -109.5t-124 -34.5q-43 0 -78.5 15t-61 42.5t-40 65t-14.5 82.5z" />
<glyph unicode="&#xaa;" horiz-adv-x="354" d="M142 497q0 35 20 54.5t50 29t65 14t64 9.5q2 6 3.5 14.5t1.5 16.5q0 20 -13.5 29t-36.5 9q-29 0 -44.5 -16t-19.5 -39l-57 4q11 39 40.5 64.5t84.5 25.5q13 0 30 -3t32.5 -11t26 -21.5t10.5 -34.5q0 -10 -1.5 -19t-3.5 -19l-21 -90l-4 -18t-2 -14q0 -8 4 -10t7 -2 q5 0 9.5 1t12.5 6l-11 -45q-1 -1 -11 -3t-18 -2q-24 0 -32 11t-11 24q-12 -14 -26 -22t-27 -11.5t-23.5 -4.5t-13.5 -1q-16 0 -31.5 4.5t-27.5 13.5t-19 23t-7 33zM197 497q0 -13 5.5 -20t12.5 -10.5t14 -4t10 -0.5q28 0 51.5 14.5t31.5 44.5l10 40l-11 -1q-24 -2 -46.5 -6 t-39.5 -11t-27.5 -18t-10.5 -28z" />
<glyph unicode="&#xab;" horiz-adv-x="396" d="M74 294l15 66l165 115l-22 -95l-89 -58l60 -68l-19 -79zM245 293l16 67l164 113l-21 -94l-90 -58l61 -66l-19 -83z" />
<glyph unicode="&#xac;" horiz-adv-x="724" d="M95 262l18 79h566l-77 -335h-88l58 256h-477z" />
<glyph unicode="&#xad;" horiz-adv-x="370" d="M70 262l18 76h280l-17 -76h-281z" />
<glyph unicode="&#xae;" horiz-adv-x="840" d="M113 354q0 74 28 139t76 113t113 76t140 28q73 0 137.5 -27.5t113 -75t76.5 -111t28 -136.5q0 -77 -27 -143.5t-75 -115t-113 -76t-142 -27.5q-74 0 -138.5 28t-112.5 76t-76 113t-28 139zM150 353q0 -67 25 -125.5t68 -102t101 -68.5t125 -25q65 0 123.5 25t102 68 t69 100.5t25.5 122.5q0 70 -24.5 130t-67.5 104t-101.5 69t-126.5 25q-66 0 -124.5 -25.5t-101.5 -69t-68 -102.5t-25 -126zM286 135l103 444h67h32q56 0 85.5 -9t47.5 -32q11 -14 18 -34.5t7 -40.5q0 -115 -125 -135l68 -193h-72l-64 186h-54l-44 -186h-69zM413 381h77 q47 0 66.5 24t19.5 53q0 61 -65 61h-66z" />
<glyph unicode="&#xaf;" horiz-adv-x="292" d="M-5 542l15 66h287l-15 -66h-287z" />
<glyph unicode="&#xb0;" horiz-adv-x="354" d="M63 594q0 33 12.5 62.5t34.5 51.5t51.5 34.5t62.5 12.5q34 0 63.5 -12.5t51.5 -34t34.5 -51t12.5 -64.5q0 -33 -13 -62.5t-35 -51t-51.5 -34.5t-62.5 -13q-34 0 -63 13t-51 35t-34.5 51.5t-12.5 62.5zM145 596q0 -32 23.5 -55.5t55.5 -23.5q33 0 56 23t23 57q0 32 -23 55 t-56 23t-56 -23t-23 -56z" />
<glyph unicode="&#xb1;" horiz-adv-x="724" d="M86 0l18 77h536l-18 -77h-536zM168 356l18 77h223l50 217h88l-50 -217h224l-17 -77h-225l-50 -220h-88l50 220h-223z" />
<glyph unicode="&#xb2;" horiz-adv-x="396" d="M62 224l13 59q29 15 50.5 28.5t47.5 30.5q27 18 59 41t59.5 50t46 58t18.5 65q0 23 -8.5 36.5t-20 21t-23.5 9.5t-19 2q-23 0 -39.5 -9.5t-27.5 -25t-16.5 -34t-5.5 -36.5q0 -8 0.5 -15t1.5 -16l-63 13v12q0 51 17 82t41 48.5t50 23t44 5.5q25 0 48.5 -6.5t42 -20.5 t29.5 -36t11 -52q0 -48 -22 -87t-52 -69t-59.5 -50t-44.5 -29q-26 -16 -46.5 -27t-45.5 -22q58 1 106 2q21 0 41 0.5t37 0.5h29h16l-12 -53h-303z" />
<glyph unicode="&#xb3;" horiz-adv-x="396" d="M72 358l63 8q0 -10 3.5 -27t14 -34t30 -29.5t52.5 -12.5q28 0 46.5 8.5t30 21.5t16.5 28t5 28q0 28 -13.5 44t-34 23.5t-43 9.5t-40.5 2h-15l11 49q7 -1 15 -1.5t15 -0.5q67 0 97.5 24.5t30.5 62.5q0 9 -3 20t-11.5 20.5t-22.5 16t-35 6.5q-45 0 -68 -29.5t-23 -69.5 l-65 12q6 26 11 41t12 26q13 21 29.5 34.5t35 21t37.5 10t35 2.5q23 0 46 -6.5t41.5 -20t30 -35t11.5 -50.5q0 -47 -30.5 -75.5t-75.5 -34.5q3 -1 17.5 -4.5t27.5 -13.5q15 -12 23 -25.5t12 -25.5t4.5 -21.5t0.5 -13.5q-1 -35 -17 -60t-40 -40.5t-52 -23t-53 -7.5 q-19 0 -41 3.5t-43 13t-38.5 27t-28.5 44.5q-7 17 -8.5 33t-2.5 21z" />
<glyph unicode="&#xb4;" horiz-adv-x="292" d="M44 533l87 150h117l-143 -150h-61z" />
<glyph unicode="&#xb5;" horiz-adv-x="547" d="M-2 -216l160 687h76l-54 -234q-15 -66 -15 -95q0 -40 23.5 -62.5t65.5 -22.5q35 0 66 18t54 52q8 12 14.5 23t11.5 25t10.5 34t11.5 48l49 214h79l-83 -367q-3 -12 -3 -23q0 -25 25 -25q7 0 12.5 1t16.5 6l-15 -65q-16 -4 -27 -5.5t-23 -1.5q-76 0 -76 61v19 q-32 -45 -65 -63.5t-79 -18.5q-36 0 -59 13.5t-36 42.5l-58 -261h-82z" />
<glyph unicode="&#xb6;" horiz-adv-x="640" d="M151 494q0 51 22 95t63 73q17 12 35 20.5t40 14t49 7.5t63 2h226l-13 -54h-34l-189 -819h-57l189 819h-145l-189 -819h-57l113 490q-57 19 -86.5 63.5t-29.5 107.5z" />
<glyph unicode="&#xb7;" horiz-adv-x="200" d="M62 228l28 124h101l-27 -124h-102z" />
<glyph unicode="&#xb8;" horiz-adv-x="292" d="M72 -189l6 26h12q17 0 33 5.5t16 25.5q0 10 -5 17t-13 10.5t-17 5.5t-17 4l80 111h36l-43 -59q26 -2 43 -16t17 -43q0 -21 -9.5 -37.5t-25.5 -28t-36 -18t-41 -6.5q-6 0 -15 0.5t-21 2.5z" />
<glyph unicode="&#xb9;" horiz-adv-x="396" d="M151 547l11 49q8 -1 13 -1h12t22.5 1t32 8.5t31.5 23.5t21 45h58l-104 -449h-58l79 339q-27 -14 -51.5 -16t-32.5 -2q-9 0 -16.5 0.5t-17.5 1.5z" />
<glyph unicode="&#xba;" horiz-adv-x="354" d="M139 540q0 32 9.5 63t28.5 55t47.5 39t67.5 15q17 0 36.5 -5t37 -18.5t29 -37.5t11.5 -62q0 -36 -12 -67t-32 -53.5t-47.5 -35.5t-58.5 -13q-55 0 -86 34.5t-31 85.5zM191 541q0 -13 3.5 -27.5t11 -26t20.5 -19t31 -7.5q25 0 43.5 13t30.5 32.5t17.5 43t5.5 45.5 q0 13 -3.5 26.5t-11 24.5t-19.5 18t-30 7q-16 0 -34 -8t-32 -24.5t-23.5 -41t-9.5 -56.5z" />
<glyph unicode="&#xbb;" horiz-adv-x="396" d="M49 174l22 94l89 58l-61 66l19 81l111 -119l-16 -67zM221 173l22 94l88 59l-59 68l18 78l110 -118l-15 -67z" />
<glyph unicode="&#xbc;" horiz-adv-x="917" d="M151 547l11 49q8 -1 13 -1h12t22.5 1t32 8.5t31.5 23.5t21 45h58l-104 -449h-58l79 339q-27 -14 -51.5 -16t-32.5 -2q-9 0 -16.5 0.5t-17.5 1.5zM275 -6l363 697l43 -22l-362 -698zM552 120l12 50l262 279h57l-60 -279h60l-12 -50h-60l-27 -120h-56l28 120h-204zM634 170 h133l51 207z" />
<glyph unicode="&#xbd;" horiz-adv-x="917" d="M151 547l11 49q8 -1 13 -1h12t22.5 1t32 8.5t31.5 23.5t21 45h58l-104 -449h-58l79 339q-27 -14 -51.5 -16t-32.5 -2q-9 0 -16.5 0.5t-17.5 1.5zM253 -6l363 697l42 -22l-361 -698zM534 0l13 59q29 15 50.5 28.5t47.5 30.5q27 18 59 41t59.5 50t46 58t18.5 65 q0 23 -8.5 36.5t-20 21t-23.5 9.5t-19 2q-23 0 -39.5 -9.5t-27.5 -25t-16.5 -34t-5.5 -36.5q0 -8 0.5 -15t1.5 -16l-63 13v12q0 51 17 82t41 48.5t50 23t44 5.5q25 0 48.5 -6.5t42 -20.5t29.5 -36t11 -52q0 -48 -22 -87t-52 -69t-59.5 -50t-44.5 -29q-26 -16 -46.5 -27 t-45.5 -22q58 1 106 2q21 0 41 0.5t37 0.5h29h16l-12 -53h-303z" />
<glyph unicode="&#xbe;" horiz-adv-x="917" d="M72 358l63 8q0 -10 3.5 -27t14 -34t30 -29.5t52.5 -12.5q28 0 46.5 8.5t30 21.5t16.5 28t5 28q0 28 -13.5 44t-34 23.5t-43 9.5t-40.5 2h-15l11 49q7 -1 15 -1.5t15 -0.5q67 0 97.5 24.5t30.5 62.5q0 9 -3 20t-11.5 20.5t-22.5 16t-35 6.5q-45 0 -68 -29.5t-23 -69.5 l-65 12q6 26 11 41t12 26q13 21 29.5 34.5t35 21t37.5 10t35 2.5q23 0 46 -6.5t41.5 -20t30 -35t11.5 -50.5q0 -47 -30.5 -75.5t-75.5 -34.5q3 -1 17.5 -4.5t27.5 -13.5q15 -12 23 -25.5t12 -25.5t4.5 -21.5t0.5 -13.5q-1 -35 -17 -60t-40 -40.5t-52 -23t-53 -7.5 q-19 0 -41 3.5t-43 13t-38.5 27t-28.5 44.5q-7 17 -8.5 33t-2.5 21zM319 -6l363 697l43 -22l-362 -698zM552 120l12 50l262 279h57l-60 -279h60l-12 -50h-60l-27 -120h-56l28 120h-204zM634 170h133l51 207z" />
<glyph unicode="&#xbf;" d="M43 181q0 33 10.5 65.5t33.5 60t59.5 47.5t88.5 26l34 149h78l-50 -215h-13q-30 0 -57.5 -8.5t-48.5 -25t-33.5 -41t-12.5 -57.5q0 -58 35.5 -88t88.5 -30q41 0 70 14.5t47.5 38t27 52t8.5 55.5l87 -14q-4 -44 -21 -83.5t-46.5 -69.5t-72 -47.5t-96.5 -17.5t-95 16 t-68 42.5t-40.5 60.5t-13.5 70zM278 594l25 112h92l-25 -112h-92z" />
<glyph unicode="&#xc0;" horiz-adv-x="667" d="M0 0l409 706h108l90 -706h-91l-25 222h-268l-128 -222h-95zM265 295h218l-35 353zM376 895h104l36 -125h-54z" />
<glyph unicode="&#xc1;" horiz-adv-x="667" d="M0 0l409 706h108l90 -706h-91l-25 222h-268l-128 -222h-95zM265 295h218l-35 353zM418 768l87 127h125l-145 -127h-67z" />
<glyph unicode="&#xc2;" horiz-adv-x="667" d="M0 0l409 706h108l90 -706h-91l-25 222h-268l-128 -222h-95zM265 295h218l-35 353zM337 767l129 128h72l57 -128h-67l-33 79l-78 -79h-80z" />
<glyph unicode="&#xc3;" horiz-adv-x="667" d="M0 0l409 706h108l90 -706h-91l-25 222h-268l-128 -222h-95zM265 295h218l-35 353zM334 798q24 50 47 67.5t49 17.5q11 0 24.5 -5t28.5 -11.5t30 -11.5t30 -5q11 0 22 7.5t24 29.5l40 -21q-20 -44 -39.5 -63.5t-51.5 -19.5q-14 0 -29 5.5t-30 11.5t-29.5 11.5t-26.5 5.5 q-13 0 -24 -7.5t-22 -29.5z" />
<glyph unicode="&#xc4;" horiz-adv-x="667" d="M0 0l409 706h108l90 -706h-91l-25 222h-268l-128 -222h-95zM265 295h218l-35 353zM320 777l24 103h91l-23 -103h-92zM514 777l24 103h91l-24 -103h-91z" />
<glyph unicode="&#xc5;" horiz-adv-x="667" d="M0 0l409 706h108l90 -706h-91l-25 222h-268l-128 -222h-95zM265 295h218l-35 353zM385 857q0 19 7 35.5t19 28.5t28.5 19t35.5 7q38 0 64 -26t26 -65q0 -37 -26 -63t-64 -26t-64 26t-26 64zM428 856q0 -20 14 -34t34 -14t33.5 14t13.5 35q0 20 -14 33t-34 13t-33.5 -13.5 t-13.5 -33.5z" />
<glyph unicode="&#xc6;" horiz-adv-x="1062" d="M-18 0l649 706h438l-17 -74h-346l-46 -233h347l-16 -70h-348l-58 -254h423l-17 -75h-507l51 225h-240l-203 -225h-110zM359 295h193l79 320z" />
<glyph unicode="&#xc7;" horiz-adv-x="771" d="M87 311q0 82 25.5 156t74.5 130.5t120.5 89.5t162.5 33q47 0 94.5 -10t89 -34.5t74 -66t49.5 -104.5l-89 -17q-2 6 -10.5 31t-26.5 50q-18 24 -40.5 39.5t-46.5 24.5t-48.5 12.5t-45.5 3.5q-76 0 -130.5 -31t-89.5 -80.5t-51.5 -110t-16.5 -119.5q0 -54 13.5 -99.5 t41 -78.5t70.5 -52t103 -19q43 0 76 9.5t58.5 24.5t45 34.5t35.5 40.5q8 10 22 30.5t23 46.5l89 -12q-24 -57 -54 -97t-62 -67t-64.5 -43t-61.5 -24t-53 -10.5t-39 -3.5l-22 -31q2 -1 10.5 -2.5t17.5 -6.5q17 -9 27 -21t14.5 -23t5.5 -20t1 -13q0 -23 -9.5 -42.5t-26.5 -34 t-39.5 -23t-49.5 -8.5q-18 0 -34.5 2.5t-21.5 3.5l7 29q4 0 14 -0.5t18 -0.5q32 0 43 14t11 27t-7 22.5t-18 16t-24 10.5t-26 6l71 95q-31 3 -57.5 6.5t-55.5 14.5q-36 14 -70 38t-60 61t-41.5 87t-15.5 116z" />
<glyph unicode="&#xc8;" horiz-adv-x="625" d="M56 0l163 706h459l-17 -75h-370l-54 -233h339l-16 -70h-339l-59 -253h420l-17 -75h-509zM355 895h104l36 -125h-54z" />
<glyph unicode="&#xc9;" horiz-adv-x="625" d="M56 0l163 706h459l-17 -75h-370l-54 -233h339l-16 -70h-339l-59 -253h420l-17 -75h-509zM397 768l87 127h125l-145 -127h-67z" />
<glyph unicode="&#xca;" horiz-adv-x="625" d="M56 0l163 706h459l-17 -75h-370l-54 -233h339l-16 -70h-339l-59 -253h420l-17 -75h-509zM316 767l129 128h72l57 -128h-67l-33 79l-78 -79h-80z" />
<glyph unicode="&#xcb;" horiz-adv-x="625" d="M56 0l163 706h459l-17 -75h-370l-54 -233h339l-16 -70h-339l-59 -253h420l-17 -75h-509zM314 777l24 103h91l-23 -103h-92zM508 777l24 103h91l-24 -103h-91z" />
<glyph unicode="&#xcc;" horiz-adv-x="271" d="M57 0l163 706h86l-163 -706h-86zM178 895h104l36 -125h-54z" />
<glyph unicode="&#xcd;" horiz-adv-x="271" d="M57 0l163 706h86l-163 -706h-86zM220 768l87 127h125l-145 -127h-67z" />
<glyph unicode="&#xce;" horiz-adv-x="271" d="M57 0l163 706h86l-163 -706h-86zM139 767l129 128h72l57 -128h-67l-33 79l-78 -79h-80z" />
<glyph unicode="&#xcf;" horiz-adv-x="271" d="M57 0l163 706h86l-163 -706h-86zM137 777l24 103h91l-23 -103h-92zM331 777l24 103h91l-24 -103h-91z" />
<glyph unicode="&#xd0;" horiz-adv-x="729" d="M58 0l79 345h-79l16 67h79l68 294h194q26 0 55.5 -1t59.5 -6t59.5 -16.5t54.5 -31.5q26 -21 43 -47.5t27 -55t14 -57t4 -54.5q0 -46 -10.5 -105.5t-36.5 -117.5t-71.5 -108t-114.5 -79q-49 -20 -95 -23.5t-94 -3.5h-252zM163 72h196q51 0 92 17t72.5 45.5t54.5 65.5 t37.5 77t21.5 80t7 74q0 50 -10.5 84t-27.5 56.5t-39 35t-45.5 18.5t-46 7.5t-41.5 1.5h-142l-51 -222h185l-15 -67h-186z" />
<glyph unicode="&#xd1;" horiz-adv-x="729" d="M57 0l163 706h95l231 -611l133 611h84l-163 -706h-91l-234 613l-133 -613h-85zM365 798q24 50 47 67.5t49 17.5q11 0 24.5 -5t28.5 -11.5t30 -11.5t30 -5q11 0 22 7.5t24 29.5l40 -21q-20 -44 -39.5 -63.5t-51.5 -19.5q-14 0 -29 5.5t-30 11.5t-29.5 11.5t-26.5 5.5 q-13 0 -24 -7.5t-22 -29.5z" />
<glyph unicode="&#xd2;" horiz-adv-x="792" d="M96 309q0 86 26.5 161t76 130.5t120 87.5t158.5 32q79 0 138.5 -25.5t99 -69t59 -102.5t19.5 -125q0 -90 -30 -165t-82.5 -130t-122.5 -85.5t-151 -30.5q-72 0 -130 24t-98 67t-61.5 101.5t-21.5 129.5zM191 306q0 -51 15 -96.5t43.5 -79t70 -53.5t93.5 -20 q71 0 124.5 30t89.5 79t54.5 111t18.5 126q0 66 -19 112.5t-50 76.5t-71.5 44t-82.5 14q-53 0 -95 -16t-74 -42.5t-54 -61.5t-36 -73t-20.5 -77t-6.5 -74zM438 895h104l36 -125h-54z" />
<glyph unicode="&#xd3;" horiz-adv-x="792" d="M96 309q0 86 26.5 161t76 130.5t120 87.5t158.5 32q79 0 138.5 -25.5t99 -69t59 -102.5t19.5 -125q0 -90 -30 -165t-82.5 -130t-122.5 -85.5t-151 -30.5q-72 0 -130 24t-98 67t-61.5 101.5t-21.5 129.5zM191 306q0 -51 15 -96.5t43.5 -79t70 -53.5t93.5 -20 q71 0 124.5 30t89.5 79t54.5 111t18.5 126q0 66 -19 112.5t-50 76.5t-71.5 44t-82.5 14q-53 0 -95 -16t-74 -42.5t-54 -61.5t-36 -73t-20.5 -77t-6.5 -74zM480 768l87 127h125l-145 -127h-67z" />
<glyph unicode="&#xd4;" horiz-adv-x="792" d="M96 309q0 86 26.5 161t76 130.5t120 87.5t158.5 32q79 0 138.5 -25.5t99 -69t59 -102.5t19.5 -125q0 -90 -30 -165t-82.5 -130t-122.5 -85.5t-151 -30.5q-72 0 -130 24t-98 67t-61.5 101.5t-21.5 129.5zM191 306q0 -51 15 -96.5t43.5 -79t70 -53.5t93.5 -20 q71 0 124.5 30t89.5 79t54.5 111t18.5 126q0 66 -19 112.5t-50 76.5t-71.5 44t-82.5 14q-53 0 -95 -16t-74 -42.5t-54 -61.5t-36 -73t-20.5 -77t-6.5 -74zM400 767l129 128h72l57 -128h-67l-33 79l-78 -79h-80z" />
<glyph unicode="&#xd5;" horiz-adv-x="792" d="M96 309q0 86 26.5 161t76 130.5t120 87.5t158.5 32q79 0 138.5 -25.5t99 -69t59 -102.5t19.5 -125q0 -90 -30 -165t-82.5 -130t-122.5 -85.5t-151 -30.5q-72 0 -130 24t-98 67t-61.5 101.5t-21.5 129.5zM191 306q0 -51 15 -96.5t43.5 -79t70 -53.5t93.5 -20 q71 0 124.5 30t89.5 79t54.5 111t18.5 126q0 66 -19 112.5t-50 76.5t-71.5 44t-82.5 14q-53 0 -95 -16t-74 -42.5t-54 -61.5t-36 -73t-20.5 -77t-6.5 -74zM396 798q24 50 47 67.5t49 17.5q11 0 24.5 -5t28.5 -11.5t30 -11.5t30 -5q11 0 22 7.5t24 29.5l40 -21 q-20 -44 -39.5 -63.5t-51.5 -19.5q-14 0 -29 5.5t-30 11.5t-29.5 11.5t-26.5 5.5q-13 0 -24 -7.5t-22 -29.5z" />
<glyph unicode="&#xd6;" horiz-adv-x="792" d="M96 309q0 86 26.5 161t76 130.5t120 87.5t158.5 32q79 0 138.5 -25.5t99 -69t59 -102.5t19.5 -125q0 -90 -30 -165t-82.5 -130t-122.5 -85.5t-151 -30.5q-72 0 -130 24t-98 67t-61.5 101.5t-21.5 129.5zM191 306q0 -51 15 -96.5t43.5 -79t70 -53.5t93.5 -20 q71 0 124.5 30t89.5 79t54.5 111t18.5 126q0 66 -19 112.5t-50 76.5t-71.5 44t-82.5 14q-53 0 -95 -16t-74 -42.5t-54 -61.5t-36 -73t-20.5 -77t-6.5 -74zM349 777l24 103h91l-23 -103h-92zM543 777l24 103h91l-24 -103h-91z" />
<glyph unicode="&#xd7;" horiz-adv-x="724" d="M135 139l202 164l-142 176l68 56l142 -177l204 166l47 -59l-204 -166l143 -178l-69 -56l-142 178l-201 -163z" />
<glyph unicode="&#xd8;" horiz-adv-x="792" d="M94 306q0 85 26.5 160.5t76.5 131.5t122 89t163 33q37 0 66.5 -6t53 -15t41 -19.5t29.5 -19.5l53 61l48 -44l-54 -61q11 -13 24 -32.5t23.5 -46t17.5 -60.5t7 -77q0 -88 -28 -163.5t-78 -131t-119.5 -87t-152.5 -31.5q-16 0 -37.5 1.5t-48 7.5t-56 18.5t-61.5 33.5 l-57 -63l-49 41l60 67q-4 4 -15.5 18t-23.5 40t-21.5 64.5t-9.5 90.5zM184 300q0 -28 3.5 -50t9 -39t11.5 -30.5t12 -24.5l397 444q-5 5 -16 13.5t-28.5 17t-41.5 15t-55 6.5q-69 0 -123 -30t-91.5 -79t-57.5 -112.5t-20 -130.5zM261 105q34 -26 68.5 -37t77.5 -11 q67 0 121 26.5t92.5 72.5t59 106.5t20.5 128.5q0 32 -3.5 56t-9 43t-12.5 33.5t-15 27.5z" />
<glyph unicode="&#xd9;" horiz-adv-x="708" d="M107 192q0 24 5 63.5t18 94.5l82 356h88l-85 -365q-4 -16 -7 -35.5t-5.5 -38t-4 -35t-1.5 -26.5q0 -44 14.5 -72t37 -44t49.5 -22t53 -6q55 0 92 17t62 49.5t41.5 80t30.5 109.5l89 388h88l-98 -424q-13 -58 -32.5 -111.5t-53.5 -94.5t-87.5 -65t-136.5 -24 q-59 0 -103.5 15t-74.5 42t-45.5 65t-15.5 83zM397 895h104l36 -125h-54z" />
<glyph unicode="&#xda;" horiz-adv-x="708" d="M107 192q0 24 5 63.5t18 94.5l82 356h88l-85 -365q-4 -16 -7 -35.5t-5.5 -38t-4 -35t-1.5 -26.5q0 -44 14.5 -72t37 -44t49.5 -22t53 -6q55 0 92 17t62 49.5t41.5 80t30.5 109.5l89 388h88l-98 -424q-13 -58 -32.5 -111.5t-53.5 -94.5t-87.5 -65t-136.5 -24 q-59 0 -103.5 15t-74.5 42t-45.5 65t-15.5 83zM439 768l87 127h125l-145 -127h-67z" />
<glyph unicode="&#xdb;" horiz-adv-x="708" d="M107 192q0 24 5 63.5t18 94.5l82 356h88l-85 -365q-4 -16 -7 -35.5t-5.5 -38t-4 -35t-1.5 -26.5q0 -44 14.5 -72t37 -44t49.5 -22t53 -6q55 0 92 17t62 49.5t41.5 80t30.5 109.5l89 388h88l-98 -424q-13 -58 -32.5 -111.5t-53.5 -94.5t-87.5 -65t-136.5 -24 q-59 0 -103.5 15t-74.5 42t-45.5 65t-15.5 83zM358 767l129 128h72l57 -128h-67l-33 79l-78 -79h-80z" />
<glyph unicode="&#xdc;" horiz-adv-x="708" d="M107 192q0 24 5 63.5t18 94.5l82 356h88l-85 -365q-4 -16 -7 -35.5t-5.5 -38t-4 -35t-1.5 -26.5q0 -44 14.5 -72t37 -44t49.5 -22t53 -6q55 0 92 17t62 49.5t41.5 80t30.5 109.5l89 388h88l-98 -424q-13 -58 -32.5 -111.5t-53.5 -94.5t-87.5 -65t-136.5 -24 q-59 0 -103.5 15t-74.5 42t-45.5 65t-15.5 83zM357 777l24 103h91l-23 -103h-92zM551 777l24 103h91l-24 -103h-91z" />
<glyph unicode="&#xdd;" horiz-adv-x="583" d="M141 706h89l95 -319l276 319h106l-359 -399l-70 -307h-89l73 317zM376 768l87 127h125l-145 -127h-67z" />
<glyph unicode="&#xde;" horiz-adv-x="646" d="M56 0l163 706h88l-30 -129h197q34 0 69.5 -8.5t65 -29.5t48 -55.5t18.5 -86.5q0 -59 -23 -101.5t-61 -70t-88 -40.5t-103 -13h-217l-39 -172h-88zM200 245h193q52 0 89 12.5t60 33.5t34 48t11 56q0 54 -33 80.5t-87 26.5h-207z" />
<glyph unicode="&#xdf;" d="M45 0l115 503q15 63 37 104t50 65t62 33.5t73 9.5q33 0 64 -8.5t55 -26t38.5 -44.5t14.5 -65q0 -39 -12.5 -69t-35 -50.5t-53.5 -31.5t-68 -11q26 -5 49.5 -14t41 -26.5t28 -45.5t10.5 -71q0 -10 -3 -41t-16 -68t-39 -73t-72 -57q-19 -8 -39 -12.5t-38 -6.5t-32 -2.5 t-21 -0.5q-15 0 -34 1t-50 8q3 13 6 25t6 25q3 12 5 21q22 -6 36 -8.5t37 -2.5q60 0 98 21.5t59 80.5q1 3 4 12.5t6 22.5t5 28t2 30q0 8 -2.5 28t-15.5 40q-16 26 -45 36t-83 12l17 74h17q69 0 109.5 30.5t40.5 90.5q0 23 -8 38.5t-21 26t-29 15t-33 4.5q-41 0 -67.5 -18 t-43.5 -46.5t-26.5 -62.5t-17.5 -67l-106 -456h-75z" />
<glyph unicode="&#xe0;" horiz-adv-x="500" d="M36 107q0 59 39.5 99t108.5 54q46 9 97 15t98 16q3 14 6.5 31t3.5 31q0 13 -4.5 25t-15 21.5t-28 15t-43.5 5.5q-38 0 -60 -12.5t-34 -28.5t-16 -31.5t-5 -22.5l-89 8q8 23 21 49t37 48t61.5 36t95.5 14q25 0 53 -6t52 -19.5t40 -35t16 -52.5q0 -17 -2.5 -33.5 t-6.5 -33.5l-43 -185q-2 -7 -3 -14t-1 -15q0 -15 8 -19.5t17 -4.5q6 0 12.5 1t18.5 6l-15 -65q-18 -5 -27.5 -6t-19.5 -1q-9 0 -21 2.5t-22.5 9t-18 18t-7.5 29.5v6.5t1 6.5q-6 -11 -18.5 -25t-32 -26t-47.5 -20t-66 -8q-41 0 -68 11.5t-43 29t-22.5 38t-6.5 38.5zM123 114 q0 -10 4 -21.5t13 -21.5t24.5 -16t38.5 -6t53 10t48 24q14 11 23 24.5t14 26.5t7.5 23.5t3.5 16.5l13 56l-17 -2q-35 -4 -74.5 -10t-73 -18t-55.5 -32.5t-22 -53.5zM244 683h101l47 -152h-53z" />
<glyph unicode="&#xe1;" horiz-adv-x="500" d="M36 107q0 59 39.5 99t108.5 54q46 9 97 15t98 16q3 14 6.5 31t3.5 31q0 13 -4.5 25t-15 21.5t-28 15t-43.5 5.5q-38 0 -60 -12.5t-34 -28.5t-16 -31.5t-5 -22.5l-89 8q8 23 21 49t37 48t61.5 36t95.5 14q25 0 53 -6t52 -19.5t40 -35t16 -52.5q0 -17 -2.5 -33.5 t-6.5 -33.5l-43 -185q-2 -7 -3 -14t-1 -15q0 -15 8 -19.5t17 -4.5q6 0 12.5 1t18.5 6l-15 -65q-18 -5 -27.5 -6t-19.5 -1q-9 0 -21 2.5t-22.5 9t-18 18t-7.5 29.5v6.5t1 6.5q-6 -11 -18.5 -25t-32 -26t-47.5 -20t-66 -8q-41 0 -68 11.5t-43 29t-22.5 38t-6.5 38.5zM123 114 q0 -10 4 -21.5t13 -21.5t24.5 -16t38.5 -6t53 10t48 24q14 11 23 24.5t14 26.5t7.5 23.5t3.5 16.5l13 56l-17 -2q-35 -4 -74.5 -10t-73 -18t-55.5 -32.5t-22 -53.5zM277 533l87 150h117l-143 -150h-61z" />
<glyph unicode="&#xe2;" horiz-adv-x="500" d="M36 107q0 59 39.5 99t108.5 54q46 9 97 15t98 16q3 14 6.5 31t3.5 31q0 13 -4.5 25t-15 21.5t-28 15t-43.5 5.5q-38 0 -60 -12.5t-34 -28.5t-16 -31.5t-5 -22.5l-89 8q8 23 21 49t37 48t61.5 36t95.5 14q25 0 53 -6t52 -19.5t40 -35t16 -52.5q0 -17 -2.5 -33.5 t-6.5 -33.5l-43 -185q-2 -7 -3 -14t-1 -15q0 -15 8 -19.5t17 -4.5q6 0 12.5 1t18.5 6l-15 -65q-18 -5 -27.5 -6t-19.5 -1q-9 0 -21 2.5t-22.5 9t-18 18t-7.5 29.5v6.5t1 6.5q-6 -11 -18.5 -25t-32 -26t-47.5 -20t-66 -8q-41 0 -68 11.5t-43 29t-22.5 38t-6.5 38.5zM123 114 q0 -10 4 -21.5t13 -21.5t24.5 -16t38.5 -6t53 10t48 24q14 11 23 24.5t14 26.5t7.5 23.5t3.5 16.5l13 56l-17 -2q-35 -4 -74.5 -10t-73 -18t-55.5 -32.5t-22 -53.5zM182 529l155 154h73l68 -154h-68l-45 106l-100 -106h-83z" />
<glyph unicode="&#xe3;" horiz-adv-x="500" d="M36 107q0 59 39.5 99t108.5 54q46 9 97 15t98 16q3 14 6.5 31t3.5 31q0 13 -4.5 25t-15 21.5t-28 15t-43.5 5.5q-38 0 -60 -12.5t-34 -28.5t-16 -31.5t-5 -22.5l-89 8q8 23 21 49t37 48t61.5 36t95.5 14q25 0 53 -6t52 -19.5t40 -35t16 -52.5q0 -17 -2.5 -33.5 t-6.5 -33.5l-43 -185q-2 -7 -3 -14t-1 -15q0 -15 8 -19.5t17 -4.5q6 0 12.5 1t18.5 6l-15 -65q-18 -5 -27.5 -6t-19.5 -1q-9 0 -21 2.5t-22.5 9t-18 18t-7.5 29.5v6.5t1 6.5q-6 -11 -18.5 -25t-32 -26t-47.5 -20t-66 -8q-41 0 -68 11.5t-43 29t-22.5 38t-6.5 38.5zM123 114 q0 -10 4 -21.5t13 -21.5t24.5 -16t38.5 -6t53 10t48 24q14 11 23 24.5t14 26.5t7.5 23.5t3.5 16.5l13 56l-17 -2q-35 -4 -74.5 -10t-73 -18t-55.5 -32.5t-22 -53.5zM204 574q23 48 45 67.5t48 19.5q11 0 24.5 -5t28 -11t29.5 -11t30 -5q11 0 21.5 7.5t22.5 27.5l39 -19 q-20 -42 -38.5 -63.5t-49.5 -21.5q-13 0 -28 5t-30 11t-29.5 11t-26.5 5t-23 -7t-21 -28z" />
<glyph unicode="&#xe4;" horiz-adv-x="500" d="M36 107q0 59 39.5 99t108.5 54q46 9 97 15t98 16q3 14 6.5 31t3.5 31q0 13 -4.5 25t-15 21.5t-28 15t-43.5 5.5q-38 0 -60 -12.5t-34 -28.5t-16 -31.5t-5 -22.5l-89 8q8 23 21 49t37 48t61.5 36t95.5 14q25 0 53 -6t52 -19.5t40 -35t16 -52.5q0 -17 -2.5 -33.5 t-6.5 -33.5l-43 -185q-2 -7 -3 -14t-1 -15q0 -15 8 -19.5t17 -4.5q6 0 12.5 1t18.5 6l-15 -65q-18 -5 -27.5 -6t-19.5 -1q-9 0 -21 2.5t-22.5 9t-18 18t-7.5 29.5v6.5t1 6.5q-6 -11 -18.5 -25t-32 -26t-47.5 -20t-66 -8q-41 0 -68 11.5t-43 29t-22.5 38t-6.5 38.5zM123 114 q0 -10 4 -21.5t13 -21.5t24.5 -16t38.5 -6t53 10t48 24q14 11 23 24.5t14 26.5t7.5 23.5t3.5 16.5l13 56l-17 -2q-35 -4 -74.5 -10t-73 -18t-55.5 -32.5t-22 -53.5zM184 552l23 101h91l-23 -101h-91zM378 552l23 101h91l-23 -101h-91z" />
<glyph unicode="&#xe5;" horiz-adv-x="500" d="M36 107q0 59 39.5 99t108.5 54q46 9 97 15t98 16q3 14 6.5 31t3.5 31q0 13 -4.5 25t-15 21.5t-28 15t-43.5 5.5q-38 0 -60 -12.5t-34 -28.5t-16 -31.5t-5 -22.5l-89 8q8 23 21 49t37 48t61.5 36t95.5 14q25 0 53 -6t52 -19.5t40 -35t16 -52.5q0 -17 -2.5 -33.5 t-6.5 -33.5l-43 -185q-2 -7 -3 -14t-1 -15q0 -15 8 -19.5t17 -4.5q6 0 12.5 1t18.5 6l-15 -65q-18 -5 -27.5 -6t-19.5 -1q-9 0 -21 2.5t-22.5 9t-18 18t-7.5 29.5v6.5t1 6.5q-6 -11 -18.5 -25t-32 -26t-47.5 -20t-66 -8q-41 0 -68 11.5t-43 29t-22.5 38t-6.5 38.5zM123 114 q0 -10 4 -21.5t13 -21.5t24.5 -16t38.5 -6t53 10t48 24q14 11 23 24.5t14 26.5t7.5 23.5t3.5 16.5l13 56l-17 -2q-35 -4 -74.5 -10t-73 -18t-55.5 -32.5t-22 -53.5zM247 610q0 38 26 64t64 26q37 0 63.5 -26t26.5 -65q0 -18 -7 -34t-19.5 -28.5t-29 -19.5t-35.5 -7 q-37 0 -63 26t-26 64zM290 608q0 -20 14 -33.5t34 -13.5t33.5 14t13.5 35q0 19 -14 32.5t-34 13.5t-33.5 -14t-13.5 -34z" />
<glyph unicode="&#xe6;" horiz-adv-x="833" d="M34 109q0 13 3.5 31t14 36.5t29.5 36t50 30.5q23 10 54 17t64 12.5t64.5 9.5t55.5 7q2 14 5 30.5t3 30.5q0 38 -23 56t-60 18q-25 0 -44.5 -8t-34 -20.5t-22.5 -29t-11 -33.5l-87 13q8 19 22 43t37.5 45t57.5 35t82 14q36 0 62 -8.5t44 -21t29 -27t16 -26.5 q10 14 26.5 28.5t39 26.5t50.5 20t61 8q51 0 86.5 -16.5t58 -44t33 -63.5t10.5 -75q0 -15 -1 -29.5t-3 -28.5h-363q-1 -10 -1.5 -17.5t-0.5 -15.5q0 -22 7 -47.5t23 -47.5t43 -36t67 -14q48 0 84 25t53 71l77 -10q-7 -21 -22.5 -46.5t-41.5 -47.5t-64 -37t-91 -15 q-75 0 -123.5 28t-74.5 74q-35 -48 -84.5 -75t-114.5 -27q-29 0 -55 8t-46 23.5t-32 38t-12 51.5zM119 120q0 -34 23 -54.5t65 -20.5q33 0 62.5 17.5t47.5 45.5q11 16 23 47t20 78l-40 -6q-105 -16 -153 -40t-48 -67zM454 283h279q1 4 1 8v13q0 35 -11.5 57.5t-29 36t-38 19 t-37.5 5.5q-30 0 -56.5 -11t-48.5 -29.5t-37 -44t-22 -54.5z" />
<glyph unicode="&#xe7;" horiz-adv-x="509" d="M62 182q0 73 22 129t59 94.5t84 58t98 19.5q47 0 81 -13t56.5 -33.5t34 -46t12.5 -50.5l-74 -17q-3 13 -9.5 29.5t-19 31.5t-33 25t-51.5 10q-39 0 -72 -19.5t-56.5 -51t-37 -72t-13.5 -82.5q0 -24 6 -50.5t20.5 -48t38 -35.5t57.5 -14q30 0 53 9.5t40 24.5t29 34.5 t19 38.5l82 -10q-7 -19 -23 -45.5t-41.5 -50.5t-62 -41t-84.5 -17l-23 -31q7 -1 17 -4t19.5 -9.5t16 -18t6.5 -29.5t-7 -31.5t-13 -20.5q-23 -26 -49.5 -31.5t-50.5 -5.5h-11t-16 2l6 27h13q23 0 35.5 8t12.5 23q0 11 -6 18t-14 11t-17 5.5l-15 2.5l61 85l-14 1 q-43 3 -74 20t-51.5 43t-30.5 59t-10 69z" />
<glyph unicode="&#xe8;" horiz-adv-x="521" d="M62 189q0 61 19 114.5t53.5 93.5t82 63t105.5 23q83 0 130.5 -48.5t47.5 -144.5q0 -14 -0.5 -26.5t-5.5 -36.5h-353q-1 -5 -1.5 -13.5t-0.5 -19.5q0 -48 16 -77t37.5 -44t44 -19.5t35.5 -4.5q40 0 78.5 24t55.5 72l75 -13q-6 -17 -21.5 -41.5t-42.5 -47.5t-67 -39 t-94 -16q-48 0 -84 15t-60.5 42t-37 64t-12.5 80zM156 285h266q0 3 0.5 8t0.5 11q0 54 -29.5 86t-76.5 32q-29 0 -55 -11.5t-47 -30.5t-36 -43.5t-23 -51.5zM255 683h101l47 -152h-53z" />
<glyph unicode="&#xe9;" horiz-adv-x="521" d="M62 189q0 61 19 114.5t53.5 93.5t82 63t105.5 23q83 0 130.5 -48.5t47.5 -144.5q0 -14 -0.5 -26.5t-5.5 -36.5h-353q-1 -5 -1.5 -13.5t-0.5 -19.5q0 -48 16 -77t37.5 -44t44 -19.5t35.5 -4.5q40 0 78.5 24t55.5 72l75 -13q-6 -17 -21.5 -41.5t-42.5 -47.5t-67 -39 t-94 -16q-48 0 -84 15t-60.5 42t-37 64t-12.5 80zM156 285h266q0 3 0.5 8t0.5 11q0 54 -29.5 86t-76.5 32q-29 0 -55 -11.5t-47 -30.5t-36 -43.5t-23 -51.5zM288 533l87 150h117l-143 -150h-61z" />
<glyph unicode="&#xea;" horiz-adv-x="521" d="M62 189q0 61 19 114.5t53.5 93.5t82 63t105.5 23q83 0 130.5 -48.5t47.5 -144.5q0 -14 -0.5 -26.5t-5.5 -36.5h-353q-1 -5 -1.5 -13.5t-0.5 -19.5q0 -48 16 -77t37.5 -44t44 -19.5t35.5 -4.5q40 0 78.5 24t55.5 72l75 -13q-6 -17 -21.5 -41.5t-42.5 -47.5t-67 -39 t-94 -16q-48 0 -84 15t-60.5 42t-37 64t-12.5 80zM156 285h266q0 3 0.5 8t0.5 11q0 54 -29.5 86t-76.5 32q-29 0 -55 -11.5t-47 -30.5t-36 -43.5t-23 -51.5zM192 529l155 154h73l68 -154h-68l-45 106l-100 -106h-83z" />
<glyph unicode="&#xeb;" horiz-adv-x="521" d="M62 189q0 61 19 114.5t53.5 93.5t82 63t105.5 23q83 0 130.5 -48.5t47.5 -144.5q0 -14 -0.5 -26.5t-5.5 -36.5h-353q-1 -5 -1.5 -13.5t-0.5 -19.5q0 -48 16 -77t37.5 -44t44 -19.5t35.5 -4.5q40 0 78.5 24t55.5 72l75 -13q-6 -17 -21.5 -41.5t-42.5 -47.5t-67 -39 t-94 -16q-48 0 -84 15t-60.5 42t-37 64t-12.5 80zM156 285h266q0 3 0.5 8t0.5 11q0 54 -29.5 86t-76.5 32q-29 0 -55 -11.5t-47 -30.5t-36 -43.5t-23 -51.5zM214 552l23 101h91l-23 -101h-91zM408 552l23 101h91l-23 -101h-91z" />
<glyph unicode="&#xec;" horiz-adv-x="229" d="M42 0l108 471h78l-109 -471h-77zM104 683h101l47 -152h-53z" />
<glyph unicode="&#xed;" horiz-adv-x="229" d="M42 0l108 471h78l-109 -471h-77zM152 533l87 150h117l-143 -150h-61z" />
<glyph unicode="&#xee;" horiz-adv-x="229" d="M42 0l108 471h78l-109 -471h-77zM47 529l155 154h73l68 -154h-68l-45 106l-100 -106h-83z" />
<glyph unicode="&#xef;" horiz-adv-x="229" d="M42 0l108 471h78l-109 -471h-77zM69 552l23 101h91l-23 -101h-91zM263 552l23 101h91l-23 -101h-91z" />
<glyph unicode="&#xf0;" d="M61 199q0 52 19 103t53.5 91t82.5 65t107 25q26 0 46 -5.5t35 -14.5t26 -21t21 -26q-10 56 -25.5 92t-28.5 60l-165 -45l-15 44l154 43q-17 23 -31 41t-33 39l55 31q17 -21 27 -33t16.5 -21t12 -17.5t14.5 -22.5l87 24l17 -45l-79 -21q12 -22 24.5 -48.5t22.5 -59.5 t16 -73.5t6 -90.5q0 -84 -23.5 -145.5t-61 -101t-85 -59t-96.5 -19.5q-48 0 -85.5 16.5t-62.5 45t-38 67t-13 82.5zM142 189q0 -40 10.5 -67t27.5 -43.5t38.5 -23.5t43.5 -7q48 0 82 25t56 61t32 77t10 73q0 21 -5 45.5t-18 45t-35 34t-57 13.5q-47 0 -82 -22t-58 -56 t-34 -75t-11 -80z" />
<glyph unicode="&#xf1;" d="M41 0l109 471h79l-16 -68q7 7 21 20.5t34.5 26.5t47 23t59.5 10q15 0 38 -5t44.5 -18.5t37 -37t15.5 -59.5q0 -18 -3.5 -40t-7.5 -39l-66 -284h-78l67 291q5 18 6 29t1 25q0 38 -23 56.5t-58 18.5q-40 0 -69 -13.5t-49 -38.5t-33 -59.5t-23 -76.5l-54 -232h-79zM224 574 q23 48 45 67.5t48 19.5q11 0 24.5 -5t28 -11t29.5 -11t30 -5q11 0 21.5 7.5t22.5 27.5l39 -19q-20 -42 -38.5 -63.5t-49.5 -21.5q-13 0 -28 5t-30 11t-29.5 11t-26.5 5t-23 -7t-21 -28z" />
<glyph unicode="&#xf2;" d="M62 196q0 49 16 100t48.5 92.5t82.5 68t117 26.5q47 0 83.5 -16.5t61.5 -45t38 -66.5t13 -82q0 -51 -17.5 -102t-50.5 -91.5t-82 -66t-112 -25.5q-48 0 -84.5 16t-62 44t-38.5 66t-13 82zM142 188q0 -39 10.5 -66t27.5 -43.5t38 -23.5t42 -7q41 0 74.5 20.5t57.5 53.5 t37 75t13 86q0 46 -13.5 73.5t-32 42t-38 19t-31.5 4.5q-46 0 -80.5 -21.5t-58 -55t-35 -75t-11.5 -82.5zM265 683h101l47 -152h-53z" />
<glyph unicode="&#xf3;" d="M62 196q0 49 16 100t48.5 92.5t82.5 68t117 26.5q47 0 83.5 -16.5t61.5 -45t38 -66.5t13 -82q0 -51 -17.5 -102t-50.5 -91.5t-82 -66t-112 -25.5q-48 0 -84.5 16t-62 44t-38.5 66t-13 82zM142 188q0 -39 10.5 -66t27.5 -43.5t38 -23.5t42 -7q41 0 74.5 20.5t57.5 53.5 t37 75t13 86q0 46 -13.5 73.5t-32 42t-38 19t-31.5 4.5q-46 0 -80.5 -21.5t-58 -55t-35 -75t-11.5 -82.5zM298 533l87 150h117l-143 -150h-61z" />
<glyph unicode="&#xf4;" d="M62 196q0 49 16 100t48.5 92.5t82.5 68t117 26.5q47 0 83.5 -16.5t61.5 -45t38 -66.5t13 -82q0 -51 -17.5 -102t-50.5 -91.5t-82 -66t-112 -25.5q-48 0 -84.5 16t-62 44t-38.5 66t-13 82zM142 188q0 -39 10.5 -66t27.5 -43.5t38 -23.5t42 -7q41 0 74.5 20.5t57.5 53.5 t37 75t13 86q0 46 -13.5 73.5t-32 42t-38 19t-31.5 4.5q-46 0 -80.5 -21.5t-58 -55t-35 -75t-11.5 -82.5zM202 529l155 154h73l68 -154h-68l-45 106l-100 -106h-83z" />
<glyph unicode="&#xf5;" d="M62 196q0 49 16 100t48.5 92.5t82.5 68t117 26.5q47 0 83.5 -16.5t61.5 -45t38 -66.5t13 -82q0 -51 -17.5 -102t-50.5 -91.5t-82 -66t-112 -25.5q-48 0 -84.5 16t-62 44t-38.5 66t-13 82zM142 188q0 -39 10.5 -66t27.5 -43.5t38 -23.5t42 -7q41 0 74.5 20.5t57.5 53.5 t37 75t13 86q0 46 -13.5 73.5t-32 42t-38 19t-31.5 4.5q-46 0 -80.5 -21.5t-58 -55t-35 -75t-11.5 -82.5zM225 574q23 48 45 67.5t48 19.5q11 0 24.5 -5t28 -11t29.5 -11t30 -5q11 0 21.5 7.5t22.5 27.5l39 -19q-20 -42 -38.5 -63.5t-49.5 -21.5q-13 0 -28 5t-30 11 t-29.5 11t-26.5 5t-23 -7t-21 -28z" />
<glyph unicode="&#xf6;" d="M62 196q0 49 16 100t48.5 92.5t82.5 68t117 26.5q47 0 83.5 -16.5t61.5 -45t38 -66.5t13 -82q0 -51 -17.5 -102t-50.5 -91.5t-82 -66t-112 -25.5q-48 0 -84.5 16t-62 44t-38.5 66t-13 82zM142 188q0 -39 10.5 -66t27.5 -43.5t38 -23.5t42 -7q41 0 74.5 20.5t57.5 53.5 t37 75t13 86q0 46 -13.5 73.5t-32 42t-38 19t-31.5 4.5q-46 0 -80.5 -21.5t-58 -55t-35 -75t-11.5 -82.5zM203 552l23 101h91l-23 -101h-91zM397 552l23 101h91l-23 -101h-91z" />
<glyph unicode="&#xf7;" horiz-adv-x="724" d="M107 261l19 80h565l-18 -80h-566zM304 90l23 101h102l-23 -101h-102zM377 408l23 101h101l-23 -101h-101z" />
<glyph unicode="&#xf8;" d="M34 29l55 54q-11 20 -19 45t-8 67q0 59 19.5 111t54.5 91.5t83.5 62.5t106.5 23q47 0 77 -14.5t46 -25.5l44 44l35 -34l-45 -46q18 -24 28.5 -57t10.5 -76t-15.5 -93.5t-47.5 -93t-81 -71t-117 -28.5q-30 0 -52.5 5t-39.5 13.5t-29 18t-22 18.5l-50 -48zM138 192 q0 -13 0.5 -23t5.5 -30l258 258q-11 8 -28 16.5t-49 8.5q-49 0 -84.5 -24.5t-58.5 -59.5t-33.5 -75t-10.5 -71zM165 91q14 -16 37.5 -30t57.5 -14q44 0 79 22.5t59 57t36.5 77.5t12.5 83q0 28 -5 43t-11 28z" />
<glyph unicode="&#xf9;" d="M74 102q0 19 5.5 45t9.5 44l64 280h79l-65 -280q-7 -29 -8.5 -42t-1.5 -27q0 -30 21 -48t63 -18q7 0 20 1.5t29 6t33 14t32 25.5q29 31 41 69t21 77l51 222h75l-109 -471h-75l17 74q-30 -40 -76 -61.5t-96 -21.5q-33 0 -57.5 9t-40.5 24.5t-24 35.5t-8 42zM254 683h101 l47 -152h-53z" />
<glyph unicode="&#xfa;" d="M74 102q0 19 5.5 45t9.5 44l64 280h79l-65 -280q-7 -29 -8.5 -42t-1.5 -27q0 -30 21 -48t63 -18q7 0 20 1.5t29 6t33 14t32 25.5q29 31 41 69t21 77l51 222h75l-109 -471h-75l17 74q-30 -40 -76 -61.5t-96 -21.5q-33 0 -57.5 9t-40.5 24.5t-24 35.5t-8 42zM298 533 l87 150h117l-143 -150h-61z" />
<glyph unicode="&#xfb;" d="M74 102q0 19 5.5 45t9.5 44l64 280h79l-65 -280q-7 -29 -8.5 -42t-1.5 -27q0 -30 21 -48t63 -18q7 0 20 1.5t29 6t33 14t32 25.5q29 31 41 69t21 77l51 222h75l-109 -471h-75l17 74q-30 -40 -76 -61.5t-96 -21.5q-33 0 -57.5 9t-40.5 24.5t-24 35.5t-8 42zM202 529 l155 154h73l68 -154h-68l-45 106l-100 -106h-83z" />
<glyph unicode="&#xfc;" d="M74 102q0 19 5.5 45t9.5 44l64 280h79l-65 -280q-7 -29 -8.5 -42t-1.5 -27q0 -30 21 -48t63 -18q7 0 20 1.5t29 6t33 14t32 25.5q29 31 41 69t21 77l51 222h75l-109 -471h-75l17 74q-30 -40 -76 -61.5t-96 -21.5q-33 0 -57.5 9t-40.5 24.5t-24 35.5t-8 42zM226 552 l23 101h91l-23 -101h-91zM420 552l23 101h91l-23 -101h-91z" />
<glyph unicode="&#xfd;" horiz-adv-x="458" d="M-54 -228l16 68q9 -1 18.5 -1.5t18.5 -0.5q21 0 35 5.5t24.5 15t18.5 22.5t17 28l58 99l-53 463h78l37 -376l208 376h87l-279 -472l-77 -130q-20 -33 -37 -53t-34.5 -30.5t-38 -13.5t-47.5 -3q-21 0 -32 1t-18 2zM257 533l87 150h117l-143 -150h-61z" />
<glyph unicode="&#xfe;" d="M-6 -215l213 921h77l-68 -294q10 13 23 25t30 21.5t38.5 15.5t48.5 6q24 0 54 -8t55.5 -29t43 -57.5t17.5 -92.5q0 -28 -5.5 -62t-18 -68t-34 -66.5t-54.5 -58.5q-22 -18 -44 -27.5t-40.5 -14t-32.5 -5t-21 -0.5q-32 0 -54.5 7.5t-38.5 20.5t-26 29t-17 33l-69 -296h-77z M167 166q0 -36 12 -57.5t29 -33.5t35.5 -16t31.5 -4q37 0 68.5 18.5t55 50.5t36.5 74.5t13 90.5q0 45 -14.5 70.5t-33 38.5t-36.5 16t-26 3q-47 0 -79.5 -24t-53 -61t-29.5 -81t-9 -85z" />
<glyph unicode="&#xff;" horiz-adv-x="458" d="M-54 -228l16 68q9 -1 18.5 -1.5t18.5 -0.5q21 0 35 5.5t24.5 15t18.5 22.5t17 28l58 99l-53 463h78l37 -376l208 376h87l-279 -472l-77 -130q-20 -33 -37 -53t-34.5 -30.5t-38 -13.5t-47.5 -3q-21 0 -32 1t-18 2zM183 552l23 101h91l-23 -101h-91zM377 552l23 101h91 l-23 -101h-91z" />
<glyph unicode="&#x131;" horiz-adv-x="229" d="M42 0l108 471h78l-109 -471h-77z" />
<glyph unicode="&#x141;" d="M21 130l24 104l83 76l92 396h88l-67 -291l196 180l-24 -104l-196 -182l-55 -233h335l-17 -76h-423l47 208z" />
<glyph unicode="&#x142;" horiz-adv-x="229" d="M27 181l23 100l75 70l82 355h78l-60 -258l74 70l-24 -102l-74 -71l-79 -345h-78l57 250z" />
<glyph unicode="&#x152;" horiz-adv-x="1104" d="M94 306q0 97 31 173t82 128.5t117 80t136 27.5q48 0 84.5 -10.5t63 -28t44.5 -40.5t28 -47l23 117h419l-11 -73h-338l-48 -233h327l-17 -69h-326l-52 -257h402l-17 -74h-485l21 89q-21 -29 -48 -48t-55.5 -30t-56.5 -15.5t-51 -4.5q-58 0 -107.5 22.5t-86.5 64t-58 99.5 t-21 129zM187 300q0 -54 14 -97t39.5 -73.5t61.5 -47t80 -16.5q47 0 84.5 17.5t65.5 47.5t48 69t32.5 82.5t18.5 88t6 84.5q0 86 -45 137.5t-136 51.5q-54 0 -102.5 -24t-85.5 -68t-59 -107.5t-22 -144.5z" />
<glyph unicode="&#x153;" horiz-adv-x="875" d="M62 193q0 47 14.5 98t45 94t78 70.5t113.5 27.5q26 0 51.5 -6t48.5 -18t41.5 -30t29.5 -42q12 16 29 33t40 31t52 23t65 9q32 0 64.5 -10t59 -32.5t43.5 -59t17 -90.5q0 -13 -1 -27t-6 -40h-351q-2 -17 -2 -26.5v-11.5q0 -31 11.5 -57t30.5 -44.5t43.5 -28.5t49.5 -10 q19 0 39 6.5t38 19.5t33 31.5t24 43.5l76 -12q-2 -4 -7 -15.5t-14 -26t-23.5 -31.5t-35.5 -32q-19 -14 -40.5 -22.5t-40.5 -13t-34 -5.5t-22 -1q-35 0 -64 8.5t-52.5 22t-40 30t-27.5 33.5q-11 -12 -28 -28t-40.5 -30.5t-53 -24.5t-66.5 -10q-47 0 -82 16.5t-58.5 45 t-35.5 65.5t-12 77zM141 194q0 -40 11 -67.5t27.5 -44.5t36.5 -24.5t38 -7.5q32 0 62.5 17.5t54.5 49t38.5 76t14.5 98.5q0 35 -9.5 60t-25 41t-35.5 23.5t-42 7.5q-40 0 -71.5 -20.5t-53.5 -53.5t-34 -73.5t-12 -81.5zM507 283h267q2 8 2 27q0 34 -12 56t-29 34.5t-35.5 17 t-31.5 4.5q-33 0 -60.5 -14.5t-48.5 -36t-34.5 -45.5t-17.5 -43z" />
<glyph unicode="&#x160;" horiz-adv-x="667" d="M61 228l94 18q0 -3 -0.5 -7.5t-0.5 -10.5q0 -33 10 -64t32 -56t57 -40t86 -15q53 0 89.5 13t60 33.5t34 46t10.5 50.5q0 24 -9 41.5t-24 30.5t-35 23t-43 19l-86 34q-22 9 -51 21.5t-54.5 32.5t-43.5 50t-18 73q0 62 28.5 101t70 61t87.5 29.5t81 7.5q45 0 88.5 -9.5 t79 -32t59 -58.5t28.5 -90l-87 -21q-5 29 -16 55t-31.5 45.5t-51 31t-73.5 11.5q-39 0 -70.5 -9.5t-53.5 -25.5t-34 -38t-12 -48q0 -22 9.5 -37.5t26 -28t39.5 -22.5t50 -21l81 -32q33 -13 61.5 -29.5t49.5 -38t33 -49.5t12 -64q0 -31 -11.5 -69.5t-43 -72.5t-86.5 -57 t-141 -23q-43 0 -92.5 8.5t-91.5 34t-69.5 73t-27.5 125.5zM381 895h66l34 -80l77 80h80l-128 -128h-72z" />
<glyph unicode="&#x161;" horiz-adv-x="479" d="M46 131q0 6 0.5 12.5t2.5 18.5l80 13q-1 -5 -3.5 -15.5t-2.5 -24.5q0 -25 8.5 -41.5t23.5 -27t35.5 -15t43.5 -4.5q54 0 87 22.5t33 60.5q0 24 -16.5 38.5t-54.5 29.5l-83 32q-45 17 -71 44t-26 69q0 22 9.5 46.5t32 45.5t58.5 34.5t89 13.5q52 0 84.5 -12.5t50.5 -31 t24.5 -40t6.5 -40.5v-7.5t-1 -10.5l-76 -13q1 2 2 9.5t1 17.5q0 29 -25 49.5t-66 20.5q-28 0 -48 -6.5t-33 -17t-19.5 -23.5t-6.5 -25q0 -26 18.5 -37.5t53.5 -25.5l77 -30q21 -8 40 -18t33 -23.5t22 -31.5t8 -43q0 -16 -7 -42.5t-28 -51.5t-60.5 -43.5t-104.5 -18.5 q-101 0 -146.5 39.5t-45.5 103.5zM225 683h68l45 -104l103 104h80l-155 -153h-71z" />
<glyph unicode="&#x178;" horiz-adv-x="583" d="M141 706h89l95 -319l276 319h106l-359 -399l-70 -307h-89l73 317zM293 777l24 103h91l-23 -103h-92zM487 777l24 103h91l-24 -103h-91z" />
<glyph unicode="&#x17d;" horiz-adv-x="583" d="M-1 0l21 90l502 537h-383l18 79h489l-18 -79l-512 -550h450l-18 -77h-549zM340 895h66l34 -80l77 80h80l-128 -128h-72z" />
<glyph unicode="&#x17e;" horiz-adv-x="458" d="M-1 0l15 63l356 340h-266l15 68h360l-17 -74l-345 -329h299l-16 -68h-401zM214 683h68l45 -104l103 104h80l-155 -153h-71z" />
<glyph unicode="&#x192;" horiz-adv-x="250" d="M-99 -225l15 65q9 -2 16 -2.5t16 -0.5q22 0 35 6t20.5 16t11.5 24t8 30l107 463h-74l14 60h74l32 140q8 34 21.5 54t29.5 30.5t32.5 13.5t30.5 3q19 0 34.5 -2.5t23.5 -5.5l-14 -60q-14 2 -20 3t-14 1q-15 0 -24 -5t-14.5 -13t-8.5 -18t-5 -20l-28 -121h85l-14 -60h-84 l-109 -473q-7 -32 -16.5 -56.5t-25 -41t-40.5 -25.5t-63 -9q-14 0 -26 1t-26 3z" />
<glyph unicode="&#x2c6;" horiz-adv-x="292" d="M-2 529l155 154h73l68 -154h-68l-45 106l-100 -106h-83z" />
<glyph unicode="&#x2c7;" horiz-adv-x="292" d="M-2 683h68l45 -104l103 104h80l-155 -153h-71z" />
<glyph unicode="&#x2d8;" horiz-adv-x="292" d="M-2 652v16h72q-1 -6 -1.5 -11t-0.5 -11q0 -26 17.5 -39t40.5 -13q9 0 21.5 2.5t25 10.5t25 22.5t22.5 38.5h74q-6 -16 -18 -38t-32.5 -42.5t-49.5 -35t-69 -14.5q-25 0 -48.5 6.5t-40.5 20.5t-27.5 35.5t-10.5 51.5z" />
<glyph unicode="&#x2d9;" horiz-adv-x="292" d="M88 551l24 102h92l-24 -102h-92z" />
<glyph unicode="&#x2da;" horiz-adv-x="292" d="M56 610q0 38 26 64t64 26q37 0 63.5 -26t26.5 -65q0 -18 -7 -34t-19.5 -28.5t-29 -19.5t-35.5 -7q-37 0 -63 26t-26 64zM99 608q0 -20 14 -33.5t34 -13.5t33.5 14t13.5 35q0 19 -14 32.5t-34 13.5t-33.5 -14t-13.5 -34z" />
<glyph unicode="&#x2db;" horiz-adv-x="292" d="M64 -117q0 24 10 44t23.5 36t28 27.5t23.5 18.5h79q-9 -8 -23 -20t-27 -25.5t-22.5 -27t-9.5 -23.5q0 -11 7.5 -18t24.5 -7q12 0 22 1t22 2l-18 -75q-15 -2 -27 -3.5t-27 -1.5q-24 0 -40.5 6.5t-26.5 17t-14.5 23.5t-4.5 25z" />
<glyph unicode="&#x2dc;" horiz-adv-x="292" d="M2 574q23 48 45 67.5t48 19.5q11 0 24.5 -5t28 -11t29.5 -11t30 -5q11 0 21.5 7.5t22.5 27.5l39 -19q-20 -42 -38.5 -63.5t-49.5 -21.5q-13 0 -28 5t-30 11t-29.5 11t-26.5 5t-23 -7t-21 -28z" />
<glyph unicode="&#x2dd;" horiz-adv-x="292" d="M-25 533l85 150h110l-142 -150h-53zM123 533l85 150h110l-142 -150h-53z" />
<glyph unicode="&#x37e;" horiz-adv-x="271" d="M53 -155q20 38 36 75.5t27 79.5h-42l25 109h98q-4 -32 -11 -60t-13 -49q-21 -63 -36.5 -95.5t-33.5 -59.5h-50zM154 382l26 110h100l-25 -110h-101z" />
<glyph unicode="&#x394;" horiz-adv-x="640" d="M-23 0l411 706h98l139 -706h-648zM124 75h395l-97 544z" />
<glyph unicode="&#x3a9;" horiz-adv-x="742" d="M23 0l17 75h172q-59 45 -85.5 103.5t-26.5 137.5q0 88 27.5 162.5t76 129t115.5 85t145 30.5q64 0 116 -18.5t88.5 -53t56 -84t19.5 -110.5q0 -56 -15.5 -113t-44.5 -108t-71 -92.5t-96 -68.5h165l-17 -75h-272l18 80q53 13 97 49.5t76 87.5t50 112t18 122 q0 97 -49.5 149.5t-141.5 52.5q-59 0 -108.5 -26.5t-85.5 -73.5t-56 -112.5t-20 -142.5q0 -78 27.5 -133.5t93.5 -84.5l-17 -80h-272z" />
<glyph unicode="&#x3bc;" horiz-adv-x="547" d="M-2 -216l160 687h76l-54 -234q-15 -66 -15 -95q0 -40 23.5 -62.5t65.5 -22.5q35 0 66 18t54 52q8 12 14.5 23t11.5 25t10.5 34t11.5 48l49 214h79l-83 -367q-3 -12 -3 -23q0 -25 25 -25q7 0 12.5 1t16.5 6l-15 -65q-16 -4 -27 -5.5t-23 -1.5q-76 0 -76 61v19 q-32 -45 -65 -63.5t-79 -18.5q-36 0 -59 13.5t-36 42.5l-58 -261h-82z" />
<glyph unicode="&#x3c0;" horiz-adv-x="593" d="M73 0l92 397h-54l18 74h469l-17 -74h-55l-62 -267q-6 -25 -6 -37q0 -14 7.5 -22.5t20.5 -8.5h30l-14 -62h-25q-101 0 -101 71q0 20 9 57l62 269h-202l-92 -397h-80z" />
<glyph unicode="&#x2013;" horiz-adv-x="600" d="M70 262l18 76h510l-18 -76h-510z" />
<glyph unicode="&#x2014;" horiz-adv-x="895" d="M70 262l18 76h805l-18 -76h-805z" />
<glyph unicode="&#x2018;" horiz-adv-x="229" d="M134 442q5 39 13 72.5t19.5 65t26.5 62.5t34 64h50q-11 -20 -20.5 -38t-17.5 -36t-14 -37.5t-10 -42.5h37l-21 -110h-97z" />
<glyph unicode="&#x2019;" horiz-adv-x="229" d="M145 439q22 36 38 75t25 81h-38l26 111h99q-7 -59 -26 -112q-4 -13 -20 -52t-53 -103h-51z" />
<glyph unicode="&#x201a;" horiz-adv-x="229" d="M8 -154q23 40 38.5 74.5t25.5 79.5h-41l26 110h95q-7 -57 -24 -110q-4 -14 -18 -54t-53 -100h-49z" />
<glyph unicode="&#x201c;" horiz-adv-x="354" d="M121 443q7 56 24 108q4 14 18.5 54t50.5 101h47q-19 -37 -34 -75t-26 -78h40l-26 -110h-94zM271 443q7 56 24 108q5 15 20.5 55t52.5 100h48q-22 -34 -39 -74t-25 -79h42l-26 -110h-97z" />
<glyph unicode="&#x201d;" horiz-adv-x="354" d="M138 444q19 38 34.5 75t23.5 79h-44l25 108h97q-6 -41 -14.5 -73.5t-20 -62t-25.5 -60t-31 -66.5h-45zM292 444q19 38 34.5 75.5t26.5 78.5h-42l25 108h99q-7 -38 -16 -71t-21 -64.5t-27 -62.5t-34 -64h-45z" />
<glyph unicode="&#x201e;" horiz-adv-x="354" d="M-1 -152q20 38 35.5 74t26.5 78h-42l26 111h96q-8 -60 -25 -112q-4 -13 -18 -49.5t-51 -101.5h-48zM153 -152q18 37 34 74.5t26 77.5h-41l26 111h94q-7 -57 -24 -111q-4 -13 -18.5 -52t-49.5 -100h-47z" />
<glyph unicode="&#x2020;" horiz-adv-x="479" d="M93 454l17 74h180l39 178h79l-41 -178h175l-17 -74h-176l-107 -454h-78l109 454h-180z" />
<glyph unicode="&#x2021;" horiz-adv-x="458" d="M52 181l16 66h146l57 235h-150l16 64h151l37 160h71l-36 -160h147l-15 -64h-147l-58 -235h146l-15 -64h-145l-42 -183h-74l40 181h-145z" />
<glyph unicode="&#x2022;" horiz-adv-x="333" d="M73 241l52 225h227l-51 -225h-228z" />
<glyph unicode="&#x2026;" horiz-adv-x="1000" d="M84 0l22 93h94l-21 -93h-95zM418 0l21 93h95l-22 -93h-94zM752 0l21 93h95l-22 -93h-94z" />
<glyph unicode="&#x2030;" horiz-adv-x="1312" d="M91 390q0 45 12 94.5t37 91.5t64 69.5t93 27.5q48 0 75.5 -22t41.5 -51.5t17.5 -58.5t3.5 -43q0 -38 -11 -87t-36 -92.5t-64 -73t-95 -29.5q-19 0 -43 7t-45 26t-35.5 53t-14.5 88zM151 373q0 -49 22 -80.5t60 -31.5q30 0 55.5 21.5t45 56t30.5 78.5t11 89 q0 22 -3.5 43.5t-12.5 39t-24.5 28t-39.5 10.5q-34 0 -61 -23t-45.5 -60t-28 -81.5t-9.5 -89.5zM294 -6l363 697l43 -22l-362 -698zM563 166q0 45 12 94.5t37 91.5t64 69.5t93 27.5q48 0 75.5 -22t42 -51.5t18 -58.5t3.5 -43q0 -38 -11.5 -87t-36 -92.5t-64 -73t-95.5 -29.5 q-19 0 -43 7t-45 26t-35.5 53t-14.5 88zM623 149q0 -31 8 -52.5t20.5 -35t27 -19t26.5 -5.5q30 0 55.5 21.5t45 56t30.5 78.5t11 89q0 66 -22.5 94t-57.5 28q-27 0 -53 -19.5t-46.5 -54t-32.5 -80.5t-12 -101zM959 166q0 45 12 94.5t37 91.5t64 69.5t93 27.5q48 0 75.5 -22 t42 -51.5t18 -58.5t3.5 -43q0 -38 -11.5 -87t-36 -92.5t-64 -73t-95.5 -29.5q-19 0 -43 7t-45 26t-35.5 53t-14.5 88zM1019 149q0 -31 8 -52.5t20.5 -35t27 -19t26.5 -5.5q30 0 55.5 21.5t45 56t30.5 78.5t11 89q0 66 -22.5 94t-57.5 28q-27 0 -53 -19.5t-46.5 -54 t-32.5 -80.5t-12 -101z" />
<glyph unicode="&#x2039;" horiz-adv-x="229" d="M74 294l15 66l165 115l-23 -96l-88 -58l60 -66l-19 -80z" />
<glyph unicode="&#x203a;" horiz-adv-x="229" d="M55 173l22 94l89 60l-60 66l18 80l111 -118l-16 -69z" />
<glyph unicode="&#x2044;" horiz-adv-x="125" d="M-117 -6l363 697l42 -22l-361 -698z" />
<glyph unicode="&#x20ac;" horiz-adv-x="772" d="M59 267l38 62h51q2 26 6 49h-72l38 62h47q40 136 136.5 205t236.5 69q76 0 136.5 -24t107.5 -86l-48 -80q-31 60 -83 89t-118 29q-105 0 -170.5 -52.5t-100.5 -149.5h426l-37 -62h-403q-4 -23 -6 -49h382l-38 -62h-345q8 -100 66.5 -157t159.5 -57q37 0 69 4.5t61 15 t56 28t54 43.5l-27 -109q-51 -30 -104 -41.5t-112 -11.5q-67 0 -123 19t-97.5 55.5t-66.5 89.5t-30 121h-90z" />
<glyph unicode="&#x2122;" horiz-adv-x="694" d="M123 657l11 49h250l-11 -49h-94l-66 -283h-59l65 283h-96zM342 374l77 332h77l19 -265l142 265h75l-76 -332h-54l62 261l-135 -261h-54l-19 257l-58 -257h-56z" />
<glyph unicode="&#x2202;" horiz-adv-x="520" d="M61 170q0 53 18 99.5t49.5 81.5t73 55t89.5 20q39 0 70.5 -13.5t60.5 -42.5q6 33 10 67.5t4 59.5q0 145 -112 145q-18 0 -35 -3t-48 -12v74q26 8 50.5 11t52.5 3q176 0 176 -209q0 -32 -4 -71t-11 -79.5t-17 -80.5t-22 -75q-71 -211 -235 -211q-39 0 -70.5 13t-53.5 36.5 t-34 57t-12 74.5zM144 166q0 -49 26 -78t71 -29q32 0 58 16.5t46 47t35 74t25 96.5q-49 61 -118 61q-30 0 -56 -14.5t-45.5 -40t-30.5 -59.5t-11 -74z" />
<glyph unicode="&#x2206;" horiz-adv-x="640" d="M-23 0l411 706h98l139 -706h-648zM124 75h395l-97 544z" />
<glyph unicode="&#x220f;" horiz-adv-x="723" d="M21 -122l191 828h564l-191 -828h-90l174 753h-387l-174 -753h-87z" />
<glyph unicode="&#x2211;" horiz-adv-x="593" d="M-28 -122l18 78l359 348l-204 322l18 80h540l-18 -75h-451l218 -333l-359 -346h436l-18 -74h-539z" />
<glyph unicode="&#x221a;" horiz-adv-x="725" d="M54 153l159 58l65 -289l401 784h92l-466 -891h-87l-68 294l-77 -26z" />
<glyph unicode="&#x221e;" horiz-adv-x="724" d="M66 259q0 46 16 87t43 72t62.5 49t74.5 18q28 0 49.5 -7.5t38.5 -22.5t32 -38t30 -55q33 35 58.5 58.5t47.5 38t43.5 20.5t47.5 6q57 0 91 -39.5t34 -104.5q0 -46 -15.5 -87.5t-42 -73t-62 -49.5t-76.5 -18q-54 0 -87 29t-65 92q-57 -64 -102.5 -92.5t-92.5 -28.5 q-57 0 -91 40t-34 106zM144 269q0 -38 16.5 -59t45.5 -21q20 0 40.5 11.5t40 28t37 36t30.5 35.5q-24 57 -49.5 83t-55.5 26q-21 0 -40 -11.5t-33.5 -30.5t-23 -44.5t-8.5 -53.5zM446 297q29 -61 51.5 -85t55.5 -24q21 0 40 11t33 30t22.5 44.5t8.5 53.5q0 37 -15.5 58.5 t-44.5 21.5q-20 0 -44.5 -13.5t-47.5 -36.5z" />
<glyph unicode="&#x222b;" horiz-adv-x="339" d="M-36 -165l19 81q14 -10 23 -13.5t21 -3.5q29 0 40.5 19t20.5 58q5 20 13 56.5t18.5 82t22 98t23.5 103.5q27 121 58 260q7 32 17.5 58t27.5 44.5t42 29t60 10.5q17 0 30.5 -2.5t30.5 -9.5l-19 -80q-14 11 -23 15t-23 4q-26 0 -39.5 -17.5t-20.5 -46.5l-134 -591 q-11 -48 -22 -77t-22 -42q-18 -22 -45.5 -35t-59.5 -13q-16 0 -29 2.5t-30 9.5z" />
<glyph unicode="&#x2248;" horiz-adv-x="724" d="M79 191q26 26 48.5 44.5t43.5 29.5t42 16t46 5q27 0 50 -7.5t58 -24.5l57 -27q16 -7 26.5 -12t18.5 -7.5t14.5 -3.5t13.5 -1q16 0 30.5 3.5t30.5 12t35 23t43 36.5l40 -62q-30 -27 -54.5 -45t-46.5 -29t-42.5 -15.5t-41.5 -4.5q-25 0 -49.5 8t-64.5 28l-32 16 q-30 15 -52.5 22t-43.5 7q-16 0 -28.5 -2.5t-25 -10t-27.5 -19.5t-37 -32l-12 -11zM123 383q26 26 48 44t43 29.5t43 16.5t47 5q26 0 49.5 -7.5t58.5 -24.5l56 -27q16 -7 26.5 -12t18.5 -7.5t15 -3.5t14 -1q16 0 30 3t29.5 11.5t34.5 23t45 37.5l39 -62q-57 -52 -100 -73 t-85 -21q-24 0 -49 8t-65 28l-32 16q-30 15 -52 22t-43 7q-16 0 -28.5 -2.5t-25.5 -9.5t-28.5 -19.5t-36.5 -32.5l-12 -11z" />
<glyph unicode="&#x2260;" horiz-adv-x="724" d="M108 164l17 77h198l78 109h-250l18 78h289l115 159h76l-114 -159h159l-18 -78h-199l-78 -109h252l-18 -77h-290l-121 -169h-77l122 169h-159z" />
<glyph unicode="&#x2264;" horiz-adv-x="724" d="M115 0l18 77h466l-19 -77h-465zM195 344l20 90l517 221l-22 -94l-425 -177l343 -178l-20 -86z" />
<glyph unicode="&#x2265;" horiz-adv-x="724" d="M78 0l17 77h466l-18 -77h-465zM105 120l22 94l425 176l-343 179l20 86l413 -226l-21 -90z" />
<glyph unicode="&#x25ca;" horiz-adv-x="724" d="M180 353l263 353h88l96 -353l-263 -353h-88zM269 350l67 -270l204 279l-69 268z" />
<glyph unicode="&#xe000;" horiz-adv-x="470" d="M0 0v470h470v-470h-470z" />
</font>
</defs>
</svg>
