<?xml version="1.0" standalone="no"?>
<!DOCTYPE svg PUBLIC "-//W3C//DTD SVG 1.1//EN" "http://www.w3.org/Graphics/SVG/1.1/DTD/svg11.dtd" >
<svg xmlns="http://www.w3.org/2000/svg">
<metadata></metadata>
<defs>
<font id="akzidenz-grotesk_std_xbd_cnRg" horiz-adv-x="500" >
<font-face units-per-em="1000" ascent="750" descent="-250" />
<missing-glyph horiz-adv-x="271" />
<glyph unicode="&#xfb01;" horiz-adv-x="563" d="M5 432v99h70v60q0 32 6.5 54t21 35.5t38.5 19.5t59 6h104v-100h-30q-23 0 -32 -9t-9 -32v-34h71v-99h-71v-432h-158v432h-70zM358 0v531h159v-531h-159zM358 584v122h159v-122h-159z" />
<glyph unicode="&#xfb02;" horiz-adv-x="563" d="M5 432v99h70v60q0 32 6.5 54t21 35.5t38.5 19.5t59 6h104v-100h-30q-23 0 -32 -9t-9 -32v-34h71v-99h-71v-432h-158v432h-70zM357 0v706h160v-706h-160z" />
<glyph horiz-adv-x="1000" />
<glyph horiz-adv-x="1000" />
<glyph unicode="&#xd;" horiz-adv-x="271" />
<glyph unicode=" "  horiz-adv-x="271" />
<glyph unicode="&#x09;" horiz-adv-x="271" />
<glyph unicode="&#xa0;" horiz-adv-x="271" />
<glyph unicode="!" horiz-adv-x="292" d="M91 0v154h148v-154h-148zM92 621v85h148v-85q0 -44 -2.5 -87t-7.5 -87q-5 -53 -10 -108l-10 -110h-92l-8 108t-8 105q-3 45 -6.5 89.5t-3.5 89.5z" />
<glyph unicode="&#x22;" horiz-adv-x="313" d="M14 741h122l-43 -288h-36zM177 741h122l-43 -288h-36z" />
<glyph unicode="#" horiz-adv-x="561" d="M9 201v107h114l8 100h-108v107h117l17 191h108l-16 -191h90l16 191h109l-16 -191h103v-107h-112l-8 -100h109v-107h-119l-17 -201h-109l18 201h-91l-18 -201h-107l17 201h-105zM231 308h91l8 100h-90z" />
<glyph unicode="$" d="M25 188v39h170v-50q0 -12 1.5 -23.5t6.5 -20.5t16 -14.5t30 -5.5q20 0 31.5 4.5t17 13t7 20.5t1.5 26q0 20 -5 32.5t-15.5 23t-26 21t-37.5 25.5l-88 61q-24 17 -42 32t-31 34.5t-19.5 46.5t-6.5 67q0 39 6 74t24.5 61.5t53 43t90.5 18.5v117h83v-117q54 -1 87 -15 t51 -39t24 -58.5t6 -73.5v-42h-162v57q0 30 -11 41.5t-41 11.5q-17 0 -26 -6.5t-13.5 -16.5t-5 -23t-0.5 -25q0 -22 5.5 -35t17 -22.5t29 -19.5t40.5 -26l104 -70q21 -14 36.5 -28.5t25 -32.5t14 -42.5t4.5 -59.5q0 -42 -8 -82t-41 -70q-29 -27 -63.5 -35.5t-72.5 -13.5 v-128h-83v128q-45 5 -79.5 14t-57.5 30t-35 57.5t-12 95.5z" />
<glyph unicode="%" horiz-adv-x="792" d="M27 383v202q0 28 4.5 52t19.5 41.5t43.5 27.5t76.5 10q45 0 72.5 -9.5t42 -25.5t19 -36.5t4.5 -43.5v-211q0 -67 -31 -98t-103 -31q-50 0 -79.5 11t-44.5 28.5t-19.5 39.5t-4.5 43zM133 375q0 -15 6 -23.5t29 -8.5q24 0 30.5 9t6.5 23v229q0 20 -7.5 27t-30.5 7 q-13 0 -20 -3.5t-10 -9t-3.5 -11t-0.5 -10.5v-229zM241 0l233 706h71l-233 -706h-71zM482 118v202q0 28 4.5 52t19.5 42t43.5 28t76.5 10q45 0 72.5 -9.5t42 -26t19 -37t4.5 -43.5v-211q0 -67 -31 -98t-103 -31q-50 0 -79.5 11t-44.5 28.5t-19.5 39.5t-4.5 43zM589 110 q0 -15 6 -23.5t29 -8.5q24 0 30.5 9t6.5 23v229q0 20 -7.5 27.5t-30.5 7.5q-13 0 -20 -4t-10 -9t-3.5 -11t-0.5 -11v-229z" />
<glyph unicode="&#x26;" horiz-adv-x="604" d="M21 179q0 39 11 65.5t31.5 49t49.5 44t65 49.5l-27 42q-13 20 -21 36t-12 29.5t-5 25.5t-1 24q0 34 14 62t38.5 48t57.5 31t71 11q46 0 80.5 -11.5t57.5 -32t34.5 -48t11.5 -59.5q0 -11 -2.5 -29t-14.5 -41q-18 -35 -47.5 -60t-61.5 -48l73 -122q4 18 6 30.5t3 23.5 t1.5 23t0.5 31h119q-1 -52 -6.5 -89t-13.5 -64t-17.5 -46t-19.5 -35q2 -4 5.5 -9.5t11 -10t20 -7.5t32.5 -3h26v-89h-113q-21 0 -34 1.5t-22.5 5.5t-17 9.5t-16.5 13.5q-11 -7 -24 -14.5t-30.5 -13.5t-39.5 -10t-51 -4q-7 0 -26 1t-44 6.5t-52 17.5t-49.5 33t-37 53.5 t-14.5 79.5zM166 192q0 -12 6 -28.5t17.5 -31.5t27.5 -26t36 -11q24 0 43.5 10.5t33.5 20.5l-91 156q-10 -6 -23 -14.5t-24 -19.5t-18.5 -25t-7.5 -31zM257 552q0 -22 12.5 -45t25.5 -43q11 7 23 16t22.5 19.5t17.5 23t7 27.5q0 23 -18.5 38t-41.5 15q-24 0 -36 -16t-12 -35 z" />
<glyph unicode="'" horiz-adv-x="150" d="M14 741h122l-43 -288h-36z" />
<glyph unicode="(" horiz-adv-x="354" d="M84 32v450q0 53 12 94t54 76q41 34 85.5 44t95.5 13v-62q-30 -3 -49.5 -9t-31 -18t-16 -32t-4.5 -50v-574q0 -28 5.5 -46.5t18 -30t31.5 -17t46 -6.5v-60h-9q-47 0 -90 11.5t-76 38.5t-52.5 70.5t-19.5 107.5z" />
<glyph unicode=")" horiz-adv-x="354" d="M23 -134q30 3 49.5 9t31 18t16 32t4.5 50v574q0 22 -4 40t-15 31t-30.5 21t-51.5 9v59h9q50 0 93 -12t75.5 -39.5t51 -71.5t18.5 -108v-447q0 -53 -12 -94t-54 -76q-39 -33 -85 -43t-96 -13v61z" />
<glyph unicode="*" horiz-adv-x="411" d="M16 527l31 104l101 -30v105h108v-105l103 35l35 -102l-99 -34l61 -78l-85 -67l-66 85l-61 -85l-87 64l57 79z" />
<glyph unicode="+" horiz-adv-x="558" d="M81 237v126h121v146h156v-146h119v-126h-119v-146h-156v146h-121z" />
<glyph unicode="," horiz-adv-x="250" d="M45 -152l54 152h-47v153h147v-153l-84 -152h-70z" />
<glyph unicode="-" horiz-adv-x="329" d="M28 235v122h273v-122h-273z" />
<glyph unicode="." horiz-adv-x="250" d="M51 0v152h148v-152h-148z" />
<glyph unicode="/" horiz-adv-x="313" d="M9 0l172 706h124l-174 -706h-122z" />
<glyph unicode="0" d="M33 179v339q0 62 17 101t46.5 61t68.5 30.5t83 8.5q45 0 85 -8.5t69.5 -31t46.5 -61t17 -98.5v-334q0 -51 -11.5 -88t-37 -61.5t-67 -36.5t-100.5 -12q-46 0 -85.5 8t-68.5 29t-46 58t-17 96zM195 173q0 -13 1.5 -25t7 -21t16.5 -14t29 -5q20 0 31 6t16 15.5t6 20.5t1 21 v349q0 29 -10.5 49t-43.5 20q-31 0 -42.5 -17.5t-11.5 -49.5v-349z" />
<glyph unicode="1" d="M85 469v143q31 3 52.5 13.5t36.5 24t24 28.5t15 28h130v-706h-151v519q-15 -9 -27 -15.5t-24 -12.5t-25 -11t-31 -11z" />
<glyph unicode="2" d="M38 0v61q0 59 16.5 103t56.5 88q28 31 59.5 58.5t62.5 56.5q22 20 36 34t21.5 26.5t10 25.5t2.5 31v52q0 5 -1 15.5t-6 21t-16 18.5t-31 8q-36 0 -46.5 -20t-10.5 -44v-99h-148v100q0 94 52 138.5t157 44.5q41 0 78.5 -9t66 -29.5t45.5 -52t17 -76.5v-61q0 -17 -1 -35 t-6 -35.5t-15 -34.5t-27 -33l-108 -101q-23 -21 -37.5 -35.5t-23.5 -27t-14.5 -25t-10.5 -30.5h241v-134h-420z" />
<glyph unicode="3" d="M41 143v101h155v-74q0 -38 13.5 -52.5t41.5 -14.5q36 0 45.5 24t9.5 60v50q0 16 -1 29t-6 22.5t-16.5 14.5t-31.5 5h-70v121h65q34 0 47.5 14t13.5 50v31q0 16 -1 30t-6.5 25t-17 17.5t-32.5 6.5q-26 0 -40 -12t-14 -44v-59h-149v75q0 20 5 46.5t25 51t59.5 41.5 t109.5 17q109 0 158.5 -40.5t49.5 -121.5v-38q0 -33 -2.5 -53t-11 -35t-24.5 -27.5t-42 -30.5q17 -7 32 -15.5t27 -22t19 -34.5t7 -53v-74q0 -52 -10.5 -87.5t-35.5 -57.5t-66 -32t-102 -10q-45 0 -82.5 6t-64.5 23.5t-42 48t-15 78.5z" />
<glyph unicode="4" d="M34 155v129l202 422h169v-427h74v-124h-74v-155h-143v155h-228zM142 279h120v274z" />
<glyph unicode="5" d="M36 154v76h155v-55q0 -35 11.5 -50.5t43.5 -15.5q20 0 31 6.5t16 16.5t6 22.5t1 23.5v136q0 60 -56 60q-30 0 -41.5 -14.5t-11.5 -36.5h-146v383h396v-125h-250v-150q15 22 42 37t69 15q83 0 119.5 -48t36.5 -128v-132q0 -29 -5 -62t-26 -60.5t-63 -45.5t-116 -18 q-105 0 -158.5 38t-53.5 127z" />
<glyph unicode="6" d="M44 180v357q0 21 4.5 52t24.5 59.5t60.5 49t112.5 20.5q44 0 82 -8t66 -27.5t44 -52t16 -81.5v-55h-147v37q0 8 -1 18t-6 20t-15 16.5t-29 6.5q-21 0 -32.5 -7t-17.5 -17t-7.5 -22t-1.5 -21v-131q8 8 16.5 16t21 14.5t29.5 11t41 4.5q32 0 56.5 -7t42 -18.5t28.5 -25 t16 -26.5q5 -14 7.5 -26.5t2.5 -38.5v-143q0 -46 -17 -78t-45.5 -52t-65.5 -28.5t-78 -8.5q-62 0 -102 15.5t-63.5 42t-33 61t-9.5 73.5zM196 198q0 -43 8.5 -64.5t47.5 -21.5q21 0 32.5 7t16.5 19.5t6 30t1 38.5v45q0 48 -10.5 69.5t-45.5 21.5q-37 0 -46.5 -21t-9.5 -67 v-57z" />
<glyph unicode="7" d="M27 490v216h436v-128q-87 -142 -128 -287t-53 -291h-169q6 78 26 156.5t49 153t63 144t68 130.5h-152v-94h-140z" />
<glyph unicode="8" d="M39 160v88q0 23 3 43t12 36.5t26.5 29.5t47.5 22q-46 8 -63.5 42.5t-17.5 82.5v52q0 45 16.5 76t44.5 50.5t65.5 28t78.5 8.5q42 0 78.5 -9t64 -28.5t43 -51.5t15.5 -77v-50q0 -51 -19 -80.5t-62 -43.5q27 -11 44 -22.5t26.5 -27t12.5 -37t3 -52.5v-95q0 -49 -19.5 -79.5 t-50 -47t-68.5 -22.5t-75 -6q-57 0 -96.5 13t-64 35.5t-35 54t-10.5 67.5zM193 180q0 -16 1 -30.5t6.5 -24.5t16 -16t29.5 -6q36 0 46 19t10 65v56q0 40 -9 58.5t-44 18.5q-37 0 -46.5 -18.5t-9.5 -52.5v-69zM194 491q0 -34 8.5 -52t41.5 -18q28 0 44 11t16 49v50 q0 14 -1.5 26t-6.5 21t-16 14.5t-29 5.5q-21 0 -33 -6.5t-17 -18t-6 -27.5t-1 -36v-19z" />
<glyph unicode="9" d="M34 154v60h152v-50q0 -7 1 -17t6.5 -19t16.5 -15.5t31 -6.5q29 0 43.5 12t14.5 49v148q-5 -5 -13.5 -12.5t-21 -14t-29.5 -11.5t-40 -5q-45 0 -75.5 15t-48.5 40t-26 57.5t-8 66.5v65q0 49 11.5 87t36.5 64t65.5 39.5t97.5 13.5q58 0 97 -14.5t62.5 -41.5t33.5 -64 t10 -82v-344q0 -34 -9.5 -67.5t-33 -59t-64 -41.5t-103.5 -16q-56 0 -95.5 12.5t-64 35t-36 52.5t-11.5 64zM187 451q0 -16 1.5 -31t7 -27t16.5 -19t31 -7q19 0 30.5 6.5t17.5 18t8 27t2 32.5v33q0 27 -1 49t-6.5 37.5t-17 23.5t-33.5 8q-21 0 -32.5 -8t-16.5 -20.5 t-6 -28.5t-1 -32v-62z" />
<glyph unicode=":" horiz-adv-x="292" d="M91 0v152h147v-152h-147zM91 386v152h147v-152h-147z" />
<glyph unicode=";" horiz-adv-x="292" d="M82 -152l51 152h-45v153h147v-153l-84 -152h-69zM88 386v153h147v-153h-147z" />
<glyph unicode="&#x3c;" horiz-adv-x="559" d="M86 269v133l358 195v-141l-222 -116l222 -109v-155z" />
<glyph unicode="=" horiz-adv-x="559" d="M85 145v122h389v-122h-389zM85 357v122h389v-122h-389z" />
<glyph unicode="&#x3e;" horiz-adv-x="559" d="M115 76v141l222 116l-222 109v155l358 -193v-133z" />
<glyph unicode="?" d="M82 502v73q0 43 11.5 71t34.5 44.5t56.5 23t77.5 6.5q51 0 88.5 -7.5t61.5 -26.5t35.5 -49.5t11.5 -77.5q0 -29 -4 -52.5t-23 -41.5l-83 -80q-19 -18 -30.5 -29.5t-18 -21.5t-8.5 -21t-2 -27v-56h-146v50q0 24 3 42t10 33t17.5 28t25.5 28l75 73q19 18 27 31.5t8 39.5 q0 6 -1 15.5t-5.5 18t-12.5 15t-23 6.5t-23.5 -5t-13 -12.5t-5.5 -16t-1 -15.5v-59h-143zM142 1v151h148v-151h-148z" />
<glyph unicode="@" horiz-adv-x="834" d="M34 234q0 101 35.5 188.5t97 152.5t145 102t179.5 37q68 0 124 -20.5t96.5 -58t62.5 -89t22 -114.5q0 -71 -20.5 -136.5t-54.5 -116t-78 -81t-92 -30.5q-36 0 -59.5 18t-29.5 50q-56 -68 -126 -68q-63 0 -99 44t-36 120q0 58 18 111t48.5 93t70.5 64t83 24 q32 0 55.5 -12.5t43.5 -47.5l11 40h93l-35 -159q-9 -40 -15 -65t-9 -41.5t-4.5 -28t-1.5 -25.5q0 -27 20 -27q22 0 44 26.5t40 66.5t29.5 86t11.5 85q0 100 -57.5 156t-160.5 56q-73 0 -138 -32t-114 -86t-77.5 -126t-28.5 -152q0 -67 21.5 -118.5t60 -87t91.5 -53.5 t115 -18q85 0 168.5 36t155.5 105l48 -66q-20 -18 -35 -31t-29 -23.5t-29 -19.5t-34 -19q-63 -33 -124.5 -49t-129.5 -16q-81 0 -149 24.5t-118 70t-78 111.5t-28 150zM309 243q0 -37 15.5 -57.5t42.5 -20.5q22 0 43.5 16t38 42t26.5 58.5t10 66.5q0 36 -16.5 58t-45.5 22 q-22 0 -42.5 -15.5t-36.5 -41.5t-25.5 -59t-9.5 -69z" />
<glyph unicode="A" horiz-adv-x="521" d="M4 0l143 706h228l143 -706h-167l-24 161h-131l-25 -161h-167zM215 280h95l-47 314z" />
<glyph unicode="B" horiz-adv-x="521" d="M51 0v706h252q86 0 131 -36t45 -102v-48q0 -36 -5.5 -60t-17 -40.5t-29.5 -27t-43 -18.5q32 -8 52 -20.5t31.5 -30.5t16 -42.5t4.5 -55.5v-32q0 -65 -14 -103.5t-37.5 -58.5t-55.5 -25.5t-68 -5.5h-262zM211 127h66q18 0 29 4.5t16.5 15t7 27t1.5 39.5q0 24 -1 42 t-6.5 29t-16 16.5t-30.5 5.5h-66v-179zM211 430h70q32 0 39.5 18.5t7.5 58.5q0 42 -10 58t-42 16h-65v-151z" />
<glyph unicode="C" horiz-adv-x="521" d="M40 165v370q0 41 12 75t38.5 58t69.5 37.5t104 13.5q64 0 107.5 -13t69.5 -37.5t37.5 -59.5t11.5 -79v-85h-168v93q0 32 -13.5 45t-45.5 13q-33 0 -43 -17.5t-10 -46.5v-351q0 -34 9.5 -52t47.5 -18q35 0 45 17t10 53v88h172v-63q0 -59 -11 -100t-38 -66.5t-72.5 -37 t-114.5 -11.5q-65 0 -107 12.5t-67 35t-34.5 54.5t-9.5 72z" />
<glyph unicode="D" horiz-adv-x="542" d="M50 0v706h275q87 0 133 -40t46 -132v-364q0 -53 -13 -86t-37 -52t-59 -25.5t-80 -6.5h-265zM216 122h53q35 0 49 12t14 48v338q0 35 -14.5 49.5t-49.5 14.5h-52v-462z" />
<glyph unicode="E" horiz-adv-x="437" d="M51 0v706h365v-124h-194v-163h183v-124h-183v-170h194v-125h-365z" />
<glyph unicode="F" horiz-adv-x="396" d="M49 0v706h347v-121h-175v-158h161v-124h-161v-303h-172z" />
<glyph unicode="G" horiz-adv-x="521" d="M40 203v290q0 61 10.5 104t35.5 70t67 39.5t106 12.5q39 0 79 -5t72 -22.5t52.5 -51.5t20.5 -93v-82h-165v67q0 29 -10 46.5t-44 17.5q-36 0 -44.5 -19t-8.5 -48v-358q0 -26 11 -44t43 -18q17 0 27.5 5.5t16 15t7.5 21.5t2 25v80h-65v118h230v-374h-165v65 q-26 -38 -57 -52.5t-73 -14.5q-46 0 -75 16.5t-45 45t-22 65.5t-6 78z" />
<glyph unicode="H" horiz-adv-x="562" d="M51 0v706h170v-285h119v285h171v-706h-171v296h-119v-296h-170z" />
<glyph unicode="I" horiz-adv-x="271" d="M49 0v706h171v-706h-171z" />
<glyph unicode="J" horiz-adv-x="333" d="M16 0v122h59q29 0 37.5 13.5t8.5 41.5v529h171v-543q0 -37 -6.5 -67.5t-24.5 -51.5t-50 -32.5t-83 -11.5h-112z" />
<glyph unicode="K" horiz-adv-x="521" d="M50 0v706h169v-320l130 320h174l-143 -334l161 -372h-179l-143 345v-345h-169z" />
<glyph unicode="L" horiz-adv-x="417" d="M50 0v706h172v-581h176v-125h-348z" />
<glyph unicode="M" horiz-adv-x="771" d="M52 0v706h228l105 -518l105 518h231v-706h-152v508l-109 -508h-150l-109 508v-508h-149z" />
<glyph unicode="N" horiz-adv-x="562" d="M49 0v706h169l148 -458v458h146v-706h-172l-147 460v-460h-144z" />
<glyph unicode="O" horiz-adv-x="542" d="M40 206v305q0 113 59.5 161t170.5 48q122 0 175.5 -53t53.5 -167v-279q0 -38 -5 -78.5t-27 -74.5t-67 -55.5t-126 -21.5q-57 0 -100.5 11t-73 36t-45 66t-15.5 102zM211 175q0 -12 1 -23t6.5 -19t17.5 -13t34 -5q35 0 47 14.5t12 45.5v361q0 35 -13.5 46.5t-48.5 11.5 q-32 0 -44 -12.5t-12 -44.5v-362z" />
<glyph unicode="P" horiz-adv-x="521" d="M50 0v706h304q46 0 74.5 -11.5t44.5 -31t21.5 -45t5.5 -54.5v-168q0 -41 -11 -67.5t-30.5 -42.5t-46 -22t-57.5 -6h-135v-258h-170zM220 382h64q21 0 32 5t16.5 14t6.5 21.5t1 26.5v90q0 30 -15.5 38.5t-41.5 8.5h-63v-204z" />
<glyph unicode="Q" horiz-adv-x="542" d="M40 206v312q0 55 16.5 93.5t46.5 62.5t72.5 35t94.5 11q113 0 171 -49t58 -166v-297q0 -58 -12 -96t-34 -61.5t-51.5 -36t-64.5 -19.5v-37q0 -17 7 -26.5t36 -9.5h73v-107h-139q-66 0 -91.5 26.5t-25.5 86.5v68q-46 10 -76.5 28.5t-48.5 45t-25 60.5t-7 76zM211 175 q0 -12 1 -22.5t6.5 -18.5t17.5 -13t34 -5q35 0 47 14t12 45v361q0 35 -13.5 46.5t-48.5 11.5q-32 0 -44 -12.5t-12 -44.5v-362z" />
<glyph unicode="R" horiz-adv-x="521" d="M50 0v706h241q35 0 70.5 -4.5t64.5 -28.5q17 -14 26.5 -31.5t14.5 -37t6 -39.5t1 -40q0 -37 -5 -61t-16 -41t-28 -29t-40 -25q3 -1 11 -3t18.5 -6t21.5 -10.5t19 -17.5q14 -17 17 -40t3 -65v-150q0 -34 6 -48.5t18 -28.5h-157q-15 23 -18 48t-3 57v114q0 26 -2 42t-10 25 t-24 12t-44 3h-31v-301h-160zM210 422h53q21 0 32.5 4.5t17 15t7 27.5t1.5 42t-2.5 39.5t-9.5 22t-18.5 9.5t-28.5 2h-52v-162z" />
<glyph unicode="S" horiz-adv-x="479" d="M19 184v42h169v-56q0 -6 1 -15.5t5.5 -18.5t14.5 -15.5t29 -6.5q18 0 28.5 4.5t16.5 11.5t7.5 16t1.5 17q0 21 -1.5 34t-7.5 23.5t-19 21t-36 26.5l-102 74q-20 15 -38 27t-31.5 30t-21.5 45t-8 71q0 56 11 95t36.5 63t67.5 35t105 11q71 0 110.5 -14.5t59.5 -40 t24.5 -61t4.5 -77.5v-37h-161v50q0 27 -7.5 43t-40.5 16q-26 0 -34 -15t-8 -37v-26q0 -20 7.5 -33t24.5 -24l145 -101q27 -18 44.5 -33.5t28 -34.5t14.5 -43.5t4 -62.5q0 -33 -5.5 -68.5t-27.5 -64t-67 -47t-123 -18.5q-80 0 -130.5 20.5t-71.5 58.5q-14 26 -16.5 59 t-2.5 56z" />
<glyph unicode="T" horiz-adv-x="479" d="M13 583v123h454v-123h-141v-583h-173v583h-140z" />
<glyph unicode="U" horiz-adv-x="542" d="M48 177v529h170v-532q0 -29 12 -46t42 -17t40 17t10 46v532h171v-508q0 -46 -7.5 -84t-30.5 -66t-66 -43.5t-114 -15.5q-67 0 -111 13.5t-70 38t-36 59t-10 77.5z" />
<glyph unicode="V" d="M-3 706h173l79 -569l77 569h172l-126 -706h-243z" />
<glyph unicode="W" horiz-adv-x="812" d="M2 706h162l55 -562l86 562h197l101 -560l41 560h164l-85 -706h-221l-96 552l-92 -552h-222z" />
<glyph unicode="X" horiz-adv-x="479" d="M-1 706h172l70 -227l68 227h170l-125 -332l125 -374h-174l-64 270l-65 -270h-172l122 374z" />
<glyph unicode="Y" horiz-adv-x="521" d="M4 706h168l86 -312l86 312h171l-176 -458v-248h-167v248z" />
<glyph unicode="Z" horiz-adv-x="437" d="M-1 0v138l245 444h-214v124h391v-139l-245 -442h251v-125h-428z" />
<glyph unicode="[" horiz-adv-x="354" d="M87 -206v912h254v-64h-107v-781h107v-67h-254z" />
<glyph unicode="\" horiz-adv-x="313" d="M9 706h122l174 -706h-124z" />
<glyph unicode="]" horiz-adv-x="354" d="M14 -141h106v781h-106v66h254v-914h-254v67z" />
<glyph unicode="^" horiz-adv-x="559" d="M40 359l172 347h137l169 -347h-152l-84 215l-88 -215h-154z" />
<glyph unicode="_" d="M-10 -121h520v-109h-520v109z" />
<glyph unicode="`" horiz-adv-x="271" d="M1 736h174l95 -127h-128z" />
<glyph unicode="a" d="M31 124q0 67 20.5 104.5t75.5 59.5q42 17 83 32t81 35v32q0 24 -9.5 37.5t-38.5 13.5q-15 0 -23.5 -5t-13 -13.5t-6 -18.5t-1.5 -19v-27h-153v26q0 41 10 72t33.5 51.5t61 31t91.5 10.5q43 0 80.5 -6.5t66 -24t45 -48t16.5 -78.5v-306q0 -19 1 -31t3.5 -20.5t7 -15.5 t11.5 -16h-182v45q-12 -9 -24.5 -19.5t-27.5 -19.5t-34.5 -15t-46.5 -6q-36 0 -60.5 10.5t-39.5 29t-21 44t-6 55.5zM195 145q0 -25 6 -41.5t34 -16.5q26 0 41 13.5t15 46.5v120l-49 -26q-17 -9 -26.5 -17t-14 -17.5t-5.5 -21t-1 -26.5v-14z" />
<glyph unicode="b" d="M45 0v706h159v-217q11 11 22.5 21t26 18t32.5 13t42 5q40 0 65.5 -12t40.5 -33.5t21 -50.5t6 -63v-252q0 -26 -6.5 -52.5t-21.5 -48t-39.5 -35t-61.5 -13.5q-24 0 -45 7t-37.5 17t-27.5 19.5t-17 15.5v-45h-159zM204 159q0 -9 0.5 -20t5 -21.5t14 -17.5t27.5 -7 q19 0 29.5 7t15 17t5.5 21.5t1 21.5v217q0 8 -0.5 18t-5 19t-14 15t-26.5 6q-19 0 -30 -6t-15.5 -15t-5.5 -19t-1 -18v-218z" />
<glyph unicode="c" horiz-adv-x="465" d="M36 143v225q0 41 8 74.5t41 61.5q32 26 72 33.5t79 7.5q100 0 151.5 -38.5t51.5 -106.5v-72h-158v60q0 50 -41 50q-45 0 -45 -50v-251q0 -6 1 -14.5t5.5 -16t13.5 -13t26 -5.5q14 0 22 5t12 11.5t5 14t1 13.5v55h158v-60q0 -14 -4.5 -38t-24 -47t-58 -40t-106.5 -17 q-42 0 -80 6.5t-67 24t-46 48.5t-17 79z" />
<glyph unicode="d" d="M37 164v225q0 17 3 44t15.5 52t37.5 43t69 18q28 0 49 -6.5t36.5 -16.5t27 -23t20.5 -26v232h159v-706h-159v57q-21 -37 -54 -54.5t-74 -17.5q-43 0 -69 15.5t-39.5 41t-17.5 57.5t-4 65zM195 162q0 -9 1 -19.5t5.5 -19.5t15.5 -15t30 -6q18 0 28 6.5t14.5 16t5 21 t0.5 20.5v214q0 26 -11.5 41t-40.5 15q-18 0 -27.5 -6.5t-14 -15.5t-5.5 -18.5t-1 -16.5v-217z" />
<glyph unicode="e" horiz-adv-x="479" d="M37 180v159q0 53 9 92t32 64.5t62.5 38t100.5 12.5q41 0 77 -6.5t63 -24.5t43 -50.5t16 -83.5v-151h-242v-87q0 -6 0.5 -14.5t5 -17t13.5 -14t26 -5.5q26 0 38 12t12 41v31h153v-36q0 -49 -19.5 -79.5t-49.5 -47.5t-65.5 -22.5t-68.5 -5.5q-65 0 -105 15t-62.5 41.5 t-30.5 62t-8 76.5zM198 331h92v55q0 8 -0.5 18t-5 19t-13 15t-25.5 6q-18 0 -27.5 -6.5t-14 -15.5t-5.5 -19t-1 -17v-55z" />
<glyph unicode="f" horiz-adv-x="313" d="M5 432v99h70v60q0 32 6.5 54t21 35.5t38.5 19.5t59 6h104v-100h-30q-23 0 -32 -9t-9 -32v-34h71v-99h-71v-432h-158v432h-70z" />
<glyph unicode="g" d="M36 -56h160v-32q0 -29 10.5 -42t35.5 -13q32 0 41.5 17.5t9.5 42.5v127q-17 -33 -48 -45.5t-69 -12.5q-69 0 -104 37t-35 118v244q0 35 6 64.5t21 51t41.5 33.5t67.5 12q26 0 44.5 -4.5t32 -12.5t24 -20.5t19.5 -27.5v50h161v-587q0 -51 -11.5 -86.5t-37 -58t-65.5 -32.5 t-96 -10q-47 0 -85.5 7t-65.5 24.5t-42 46t-15 71.5v38zM196 143q0 -4 0.5 -12.5t5 -17t14 -15t27.5 -6.5q19 0 29 8t14.5 18.5t5.5 20.5t1 15v224q0 6 -0.5 15.5t-5 19t-14 16t-27.5 6.5q-19 0 -29 -7.5t-14.5 -17t-5.5 -20t-1 -16.5v-231z" />
<glyph unicode="h" d="M44 0v706h158v-223q7 9 15.5 20.5t22 21t32.5 16t46 6.5q72 0 104 -40.5t32 -107.5v-399h-159v368q0 10 -1.5 21t-6.5 20.5t-14 15.5t-24 6t-24.5 -6t-14.5 -15t-6.5 -19.5t-1.5 -19.5v-371h-158z" />
<glyph unicode="i" horiz-adv-x="250" d="M45 0v531h159v-531h-159zM45 584v122h159v-122h-159z" />
<glyph unicode="j" horiz-adv-x="250" d="M-30 -84q22 0 36 1.5t21.5 6.5t10.5 15.5t3 27.5v564h159v-596q0 -70 -32.5 -97.5t-106.5 -27.5h-91v106zM41 585v121h159v-121h-159z" />
<glyph unicode="k" d="M45 0v706h158v-376l111 201h178l-143 -228l154 -303h-178l-122 271v-271h-158z" />
<glyph unicode="l" horiz-adv-x="250" d="M45 0v706h160v-706h-160z" />
<glyph unicode="m" horiz-adv-x="750" d="M46 0v531h159v-56q13 26 30 40.5t34 21t31.5 8t23.5 1.5q50 0 80 -22.5t45 -48.5q23 39 52.5 55t69.5 16q69 0 99.5 -39t30.5 -110v-397h-159v383q0 8 -1 17t-5.5 17t-13.5 13.5t-24 5.5q-21 0 -33 -12.5t-12 -38.5v-385h-160v391q0 23 -12 34.5t-32 11.5q-6 0 -13.5 -2 t-14 -7t-11.5 -13.5t-5 -22.5v-392h-159z" />
<glyph unicode="n" d="M45 0v531h159v-50q5 6 14.5 17t24.5 21.5t35 18.5t45 8q59 0 96.5 -38t37.5 -111v-397h-158v381q0 23 -10 39t-37 16q-20 0 -34 -11t-14 -39v-386h-159z" />
<glyph unicode="o" horiz-adv-x="479" d="M36 153v209q0 44 9.5 78t33 57.5t62.5 35.5t98 12q43 0 80 -8t64.5 -27t43 -51t15.5 -79v-217q0 -91 -47 -135t-152 -44q-110 0 -158.5 45t-48.5 124zM193 149q0 -7 0.5 -16t5 -17t14 -13.5t26.5 -5.5t26.5 7t14 16.5t5 19.5t0.5 17v219q0 8 -0.5 18.5t-5 19.5t-14 15.5 t-26.5 6.5t-26.5 -7t-14 -17t-5 -21t-0.5 -18v-224z" />
<glyph unicode="p" d="M46 -187v718h159v-56q11 15 22 28t26 22.5t35 15t48 5.5q39 0 64 -13t39.5 -33.5t20 -45.5t5.5 -49v-241q0 -91 -30.5 -134.5t-102.5 -43.5q-33 0 -55.5 8t-37 19t-22.5 21.5t-12 14.5v-236h-159zM205 165q0 -8 1 -19t5.5 -21.5t15 -18t29.5 -7.5t29.5 8t15 18.5 t5.5 21.5t1 18v202q0 7 -1 17.5t-5.5 20t-14.5 16.5t-29 7t-30 -6.5t-15.5 -16t-5.5 -19.5t-1 -17v-204z" />
<glyph unicode="q" d="M37 155v215q0 36 6 68t21.5 55.5t42 37.5t67.5 14q49 0 77 -19t44 -47v52h159v-719h-159v235q-9 -12 -19 -23t-23.5 -19.5t-32 -13.5t-44.5 -5q-43 0 -70 14.5t-42.5 38.5t-21 54.5t-5.5 61.5zM195 165q0 -7 1 -18t5.5 -21t14.5 -17.5t29 -7.5t29 7t14.5 17t5.5 21.5 t1 20.5v204q0 9 -1 20t-6.5 20.5t-15.5 15.5t-28 6t-28 -7t-14.5 -17t-5.5 -21t-1 -19v-204z" />
<glyph unicode="r" horiz-adv-x="354" d="M46 0v531h160v-78q11 27 27.5 44.5t36.5 27.5t41 14t41 4v-138h-50q-32 0 -51 -7.5t-29 -21t-13 -32t-3 -39.5v-305h-160z" />
<glyph unicode="s" horiz-adv-x="437" d="M21 164h152v-14q0 -33 11 -44.5t34 -11.5q14 0 22 4.5t13 10.5t6.5 12.5t1.5 11.5q0 22 -14 33.5t-31 20.5l-106 57q-27 14 -43.5 29t-25.5 32t-12 38t-3 47q0 29 4.5 48.5t12.5 34t18.5 24t22.5 16.5q30 20 66 26.5t71 6.5q94 0 144.5 -37t50.5 -115v-20h-152v16 q0 7 -1 15.5t-5.5 16t-13 12.5t-22.5 5q-5 0 -12.5 -1.5t-14 -6.5t-11.5 -13.5t-5 -23.5q0 -22 17 -33.5t50 -28.5l92 -46q27 -13 43.5 -26.5t25.5 -28.5t12 -32.5t3 -38.5q0 -44 -8.5 -74t-35.5 -53q-29 -24 -68 -35.5t-93 -11.5q-26 0 -52.5 3t-50.5 11.5t-44 23.5t-32 39 q-9 18 -13 39.5t-4 61.5z" />
<glyph unicode="t" horiz-adv-x="313" d="M0 432v99h71v175h158v-175h71v-99h-71v-276q0 -32 13.5 -41t57.5 -9v-106h-90q-40 0 -67 7.5t-43 23.5t-22.5 41t-6.5 59v301h-71z" />
<glyph unicode="u" d="M42 152v379h158v-371q0 -9 1.5 -18t6 -16.5t14 -12.5t25.5 -5q18 0 28 6t14.5 15t5.5 18t1 15v369h158v-531h-158v58q-5 -9 -14 -21t-23 -23.5t-34.5 -19.5t-49.5 -8q-41 0 -67 13.5t-40.5 36.5t-20 53t-5.5 63z" />
<glyph unicode="v" horiz-adv-x="437" d="M4 531h155l64 -421l53 421h158l-108 -531h-212z" />
<glyph unicode="w" horiz-adv-x="708" d="M0 531h162l40 -386l66 386h179l63 -386l42 386h160l-112 -531h-164l-80 368l-81 -368h-164z" />
<glyph unicode="x" horiz-adv-x="437" d="M-1 0l125 276l-118 255h166l49 -156l44 156h162l-114 -255l124 -276h-166l-50 163l-58 -163h-164z" />
<glyph unicode="y" horiz-adv-x="437" d="M-2 531h156l64 -417l59 417h159l-127 -546q-9 -39 -19.5 -71t-33 -55.5t-63 -36t-109.5 -12.5h-77v103h70q20 0 31.5 4.5t17 11.5t7.5 16.5t3 19.5z" />
<glyph unicode="z" horiz-adv-x="396" d="M10 0v102l196 328h-160v101h339v-101l-197 -328h181v-102h-359z" />
<glyph unicode="{" horiz-adv-x="354" d="M31 219v75q30 3 46.5 18t24 36.5t9 47t1.5 48.5v101q0 47 12.5 78.5t36.5 50.5t59.5 27t81.5 8h29v-70q-30 0 -47 -6t-25.5 -19t-11 -32t-2.5 -45v-114q0 -31 -4 -58.5t-16 -49.5t-34 -36.5t-57 -19.5v-6q36 -4 57.5 -19t33.5 -37.5t16 -51t4 -59.5v-98q0 -27 1.5 -48 t9.5 -35.5t25.5 -22.5t49.5 -8v-70h-34q-51 0 -86 9.5t-57 30t-32 53.5t-10 80v95q0 23 -1.5 48t-9 46t-24 35.5t-46.5 17.5z" />
<glyph unicode="|" horiz-adv-x="229" d="M51 -199v906h127v-906h-127z" />
<glyph unicode="}" horiz-adv-x="354" d="M31 -125q30 0 47 6t25.5 19t11 32t2.5 45v114q0 31 4 58.5t16 49.5t34 36.5t57 19.5v6q-36 5 -57.5 19.5t-33.5 37t-16 51t-4 59.5v98q0 27 -1.5 48t-9.5 35.5t-25.5 22.5t-49.5 8v70h34q51 0 86 -9.5t57 -30t32 -53.5t10 -80v-95q0 -23 1.5 -48t9 -46t24 -35.5 t46.5 -17.5v-75q-30 -3 -46.5 -18t-24 -36.5t-9 -47t-1.5 -48.5v-101q0 -47 -12 -78.5t-36 -50.5t-59.5 -27t-82.5 -8h-29v70z" />
<glyph unicode="~" horiz-adv-x="561" d="M53 321q34 43 63 61.5t69 18.5q16 0 32.5 -4t42.5 -14l48 -18q22 -8 34 -10.5t21 -2.5q21 0 38.5 12t41.5 42l65 -112q-34 -42 -65.5 -61t-66.5 -19q-16 0 -35.5 4.5t-50.5 16.5l-25 10q-21 8 -35.5 12.5t-27.5 4.5q-23 0 -41 -12t-44 -44z" />
<glyph unicode="&#xa1;" horiz-adv-x="292" d="M49 0v87q0 11 2 41t5 69.5t6.5 83.5t7 84t6 70.5t3.5 43.5h93q1 -12 3 -43t5 -70.5t6 -84t5.5 -83.5t4 -69t1.5 -42v-87h-148zM49 554v152h148v-152h-148z" />
<glyph unicode="&#xa2;" horiz-adv-x="458" d="M36 148v220q0 25 4.5 54t21 54.5t48.5 44t88 23.5v107h83v-108q29 -4 57.5 -12.5t51 -25t36 -44t13.5 -69.5v-64h-158v61q0 20 -7.5 34.5t-35.5 14.5q-23 0 -33 -13.5t-10 -36.5v-251q0 -18 8.5 -33.5t35.5 -15.5q28 0 35 13t7 33v53h158v-48q0 -46 -14.5 -74 t-37.5 -44.5t-51 -23.5t-55 -10v-129h-83v130q-46 5 -77 17.5t-50 32t-27 47t-8 63.5z" />
<glyph unicode="&#xa3;" horiz-adv-x="583" d="M28 90q0 5 2 20.5t11.5 32.5t31 30.5t60.5 13.5q21 0 41 -4.5t40 -10.5q0 18 -2 32t-6.5 29.5t-13 35t-23.5 47.5h-138v81h99q-8 20 -14.5 37t-11 34.5t-6.5 36.5t-2 43q0 60 22.5 94t56 51.5t73 22t73.5 4.5q55 0 92.5 -11t60 -34t32 -58.5t9.5 -85.5v-44h-139v47 q0 35 -14.5 55.5t-46.5 20.5q-35 0 -50 -17t-15 -51q0 -23 5 -47t12 -44t13 -34.5t8 -19.5h162v-81h-131q10 -28 17.5 -55t7.5 -56q0 -14 -2.5 -30.5t-12.5 -43.5q3 -2 22 -9.5t38 -7.5q14 0 21.5 5t11.5 13t5 17t1 18v69h137v-57q0 -45 -5 -80t-18.5 -59t-38.5 -36.5 t-66 -12.5q-16 0 -32.5 3t-36 9t-43 16t-53.5 24q-7 -7 -18.5 -16.5t-27 -18t-36.5 -14.5t-48 -6q-51 0 -82.5 26t-31.5 76zM126 92q0 -9 4 -14t9 -7.5t9.5 -3.5t6.5 -1q18 0 28.5 12t12.5 17q-16 12 -25.5 16.5t-18.5 4.5q-17 0 -21.5 -9.5t-4.5 -14.5z" />
<glyph unicode="&#xa4;" horiz-adv-x="679" d="M20 107l80 82q-22 33 -32 68.5t-10 79.5t9.5 79.5t31.5 73.5l-78 80l93 95l78 -80q64 43 148 43q41 0 74.5 -10t71.5 -33l79 81l93 -96l-78 -80q21 -38 31 -73.5t10 -76.5q0 -42 -10 -78.5t-32 -74.5l78 -82l-93 -95l-79 82q-39 -23 -71.5 -32.5t-73.5 -9.5q-43 0 -77 10 t-71 34l-79 -82zM203 338q0 -31 10.5 -58.5t29 -48t43.5 -32t54 -11.5t53.5 12t43 32t29 47.5t10.5 59.5t-10.5 59.5t-29 48t-43 32.5t-53.5 12t-54 -12t-43.5 -32.5t-29 -48.5t-10.5 -60z" />
<glyph unicode="&#xa5;" horiz-adv-x="521" d="M4 706h168l87 -310l85 310h171l-125 -324h88v-87h-121l-17 -43v-12h138v-86h-139v-154h-167v154h-138v86h137v12l-16 43h-121v87h90z" />
<glyph unicode="&#xa6;" horiz-adv-x="229" d="M51 183h127v-382h-127v382zM51 324v383h127v-383h-127z" />
<glyph unicode="&#xa7;" horiz-adv-x="437" d="M4 53l63 108q14 -8 32 -19t37.5 -20.5t38.5 -16.5t35 -7t28.5 9t12.5 26q0 15 -8.5 23t-29.5 20l-84 48q-20 11 -37.5 23t-31 26.5t-21.5 33.5t-8 45q0 42 21 69.5t55 49.5q-30 20 -48.5 44.5t-18.5 63.5q0 38 14.5 64.5t39 43.5t56.5 25t66 8q29 0 55 -4t50 -10.5 t48 -16.5t50 -22l-58 -107q-13 6 -31 15t-37 17.5t-37 14.5t-31 6q-14 0 -24.5 -8.5t-10.5 -23.5q0 -16 16.5 -29t41.5 -25.5t54.5 -26.5t54.5 -33.5t41.5 -45t16.5 -61.5q0 -40 -18.5 -69t-45.5 -55q25 -17 40.5 -40t15.5 -55q0 -39 -18 -67.5t-46.5 -47t-63.5 -28 t-70 -9.5q-31 0 -57 4.5t-50 12.5t-47.5 20t-50.5 27zM141 384q0 -20 10.5 -29t21.5 -16q26 -16 54.5 -31.5t57.5 -31.5q11 8 20.5 19t9.5 29q0 15 -7.5 23.5t-15.5 13.5q-3 3 -10.5 7.5t-21.5 12.5t-35 20.5t-53 30.5q-10 -7 -20.5 -17.5t-10.5 -30.5z" />
<glyph unicode="&#xa8;" horiz-adv-x="271" d="M-47 609v124h144v-124h-144zM176 609v124h142v-124h-142z" />
<glyph unicode="&#xa9;" horiz-adv-x="799" d="M44 353q0 74 28 139t76 113t113 76t139 28q75 0 140 -27.5t113 -75.5t75.5 -113t27.5 -140t-27.5 -140t-75.5 -113t-113.5 -75.5t-140.5 -27.5q-74 0 -138.5 28t-112.5 76t-76 113t-28 139zM95 353q0 -65 23.5 -122t65 -99t97 -66.5t118.5 -24.5q64 0 119.5 24.5t97 66.5 t65.5 99t24 122q0 66 -23.5 123t-65 99t-97 66t-119.5 24q-63 0 -118.5 -24.5t-97 -67t-65.5 -99t-24 -121.5zM249 277v160q0 44 10 73.5t29.5 47t48 25t64.5 7.5q79 0 112 -32.5t33 -109.5v-35h-103v40q0 29 -10.5 41.5t-33.5 12.5q-12 0 -21 -2.5t-15 -10t-8.5 -21 t-2.5 -35.5v-162q0 -44 11 -56.5t36 -12.5q23 0 33.5 12.5t10.5 41.5v43h103v-39q0 -39 -8 -66t-25.5 -44.5t-45 -25t-67.5 -7.5q-79 0 -115 35t-36 120z" />
<glyph unicode="&#xaa;" horiz-adv-x="354" d="M33 447q0 28 5.5 46.5t16 30.5t26.5 20t37 15l89 32v19q0 12 -5 21.5t-28 9.5q-15 0 -24 -5.5t-9 -22.5v-22h-99v28q0 27 10 45t27.5 28.5t41 15t49.5 4.5q46 0 73.5 -8t42.5 -22.5t19.5 -36t4.5 -48.5v-173q0 -17 2.5 -28.5t12.5 -24.5h-118v23q-16 -9 -38 -21t-56 -12 q-30 0 -46 10t-23.5 24t-9 28.5t-1.5 23.5zM139 464q0 -6 0.5 -12.5t3.5 -12t9 -9.5t17 -4q14 0 21.5 4.5t11.5 11t4.5 13.5t0.5 13v64q-24 -9 -37.5 -14.5t-20.5 -12t-8.5 -15.5t-1.5 -26z" />
<glyph unicode="&#xab;" horiz-adv-x="396" d="M31 253v121l142 116v-126l-58 -48l58 -51v-128zM212 254v120l141 117v-128l-58 -48l58 -52v-125z" />
<glyph unicode="&#xac;" horiz-adv-x="559" d="M52 238v124h422v-310h-157v186h-265z" />
<glyph unicode="&#xad;" horiz-adv-x="329" d="M28 235v122h273v-122h-273z" />
<glyph unicode="&#xae;" horiz-adv-x="799" d="M44 353q0 74 28 139t76 113t113 76t139 28q75 0 140 -27.5t113 -75.5t75.5 -113t27.5 -140t-27.5 -140t-75.5 -113t-113.5 -75.5t-140.5 -27.5q-74 0 -138.5 28t-112.5 76t-76 113t-28 139zM95 353q0 -65 23.5 -122t65 -99t97 -66.5t118.5 -24.5q64 0 119.5 24.5t97 66.5 t65.5 99t24 122q0 66 -23.5 123t-65 99t-97 66t-119.5 24q-63 0 -118.5 -24.5t-97 -67t-65.5 -99t-24 -121.5zM265 130v449h153q66 0 93.5 -20.5t27.5 -70.5v-52q0 -36 -14.5 -56.5t-49.5 -31.5q38 -9 52.5 -29.5t14.5 -66.5v-65q0 -21 5 -33.5t16 -23.5h-109 q-8 12 -11 22.5t-3 30.5v78q0 32 -9 42t-38 10h-24v-183h-104zM369 401h22q26 0 36 10.5t10 36.5v14q0 35 -42 35h-26v-96z" />
<glyph unicode="&#xaf;" horiz-adv-x="271" d="M-20 609v90h311v-90h-311z" />
<glyph unicode="&#xb0;" horiz-adv-x="354" d="M5 573q0 36 13.5 67.5t36.5 54.5t54.5 36.5t67.5 13.5t67.5 -13.5t54.5 -36.5t36.5 -54.5t13.5 -68.5q0 -35 -13.5 -66.5t-37 -55t-54.5 -37t-67 -13.5t-67 13.5t-54.5 37t-37 55t-13.5 67.5zM122 575q0 -23 16 -39.5t39 -16.5t39.5 16.5t16.5 40.5q0 23 -16.5 38.5 t-39.5 15.5t-39 -16t-16 -39z" />
<glyph unicode="&#xb1;" horiz-adv-x="559" d="M82 0v126h396v-126h-396zM82 332v126h121v146h155v-146h120v-126h-120v-145h-155v145h-121z" />
<glyph unicode="&#xb2;" horiz-adv-x="333" d="M29 265v34q0 37 8 63.5t25 49t42.5 45.5t60.5 52q13 11 20.5 18t11.5 13.5t5.5 14t1.5 19.5v14q0 9 -1 17.5t-4.5 15.5t-11 11t-20.5 4q-14 0 -22 -4t-11.5 -10.5t-4.5 -14t-1 -14.5v-59h-99v59q0 19 3.5 40.5t17 39.5t40 29.5t72.5 11.5q69 0 106 -26.5t37 -88.5v-18 q0 -33 -5.5 -52.5t-17 -34.5t-29.5 -30t-43 -38q-28 -26 -40 -42.5t-20 -30.5h153v-88h-274z" />
<glyph unicode="&#xb3;" horiz-adv-x="333" d="M26 370v52h99v-44q0 -25 9 -34.5t28 -9.5t28 8.5t9 30.5v46q0 22 -10.5 28.5t-30.5 6.5h-49v81h45q28 0 36.5 9t8.5 27v25q0 27 -11 33.5t-28 6.5t-26 -9t-9 -32v-29h-99v49q0 48 28 72.5t100 24.5q78 0 110 -23t32 -76v-34q0 -22 -7.5 -45t-38.5 -37q18 -6 27.5 -16 t14.5 -22t6 -25.5t1 -25.5v-45q0 -25 -6.5 -44.5t-22 -33t-42.5 -20.5t-68 -7q-44 0 -70.5 7t-40.5 21t-18.5 35t-4.5 49z" />
<glyph unicode="&#xb4;" horiz-adv-x="271" d="M8 610l87 125h168l-137 -125h-118z" />
<glyph unicode="&#xb5;" d="M42 -187v718h158v-374q0 -49 47 -49q49 0 49 54v369h158v-448q0 -17 1 -28.5t3 -20.5t7 -16.5t12 -17.5h-176l-5 58q-11 -36 -24.5 -50t-37.5 -14q-21 0 -34 14v-195h-158z" />
<glyph unicode="&#xb6;" horiz-adv-x="575" d="M47 497q0 86 53 141q18 18 38 31t45 21.5t56 12t70 3.5h207v-88h-36v-786h-94v786h-83v-785h-97v468q-159 41 -159 196z" />
<glyph unicode="&#xb7;" horiz-adv-x="250" d="M51 280v152h148v-152h-148z" />
<glyph unicode="&#xb8;" horiz-adv-x="271" d="M34 -83l90 103h88l-66 -78q17 0 33 -4.5t29 -14.5t21 -24.5t8 -34.5q0 -24 -12 -42.5t-31 -30.5t-41 -18.5t-43 -6.5h-23t-25 1l-17 48q7 -1 14.5 -1.5t15.5 -0.5q23 0 41 12t18 34q0 11 -8 22.5t-34 11.5q-13 0 -21.5 -3t-19.5 -8z" />
<glyph unicode="&#xb9;" horiz-adv-x="333" d="M63 551v94q29 5 48.5 17.5t33.5 43.5h83v-441h-99v316q-14 -11 -31 -18t-35 -12z" />
<glyph unicode="&#xba;" horiz-adv-x="333" d="M32 478v95q0 29 2.5 54.5t15 44t39.5 29t76 10.5q70 0 103.5 -26.5t33.5 -86.5v-125q0 -22 -5 -43t-19 -37t-40 -25.5t-68 -9.5q-40 0 -66.5 8t-42.5 23.5t-22.5 38t-6.5 50.5zM134 473q0 -6 0.5 -13.5t3.5 -13.5t10 -10t19 -4q25 0 29 12.5t4 28.5v129q0 6 -0.5 13 t-3.5 13t-10 9.5t-19 3.5q-20 0 -26.5 -9.5t-6.5 -29.5v-129z" />
<glyph unicode="&#xbb;" horiz-adv-x="396" d="M42 139v128l56 47l-56 52v126l141 -117v-120zM222 141v125l57 47l-57 51v128l142 -117v-118z" />
<glyph unicode="&#xbc;" horiz-adv-x="792" d="M63 551v94q29 5 48.5 17.5t33.5 43.5h83v-441h-99v316q-14 -11 -31 -18t-35 -12zM239 0l240 706h72l-240 -706h-72zM479 92v85l124 265h123v-265h45v-85h-45v-92h-95v92h-152zM556 177h75v181z" />
<glyph unicode="&#xbd;" horiz-adv-x="792" d="M63 551v94q29 5 48.5 17.5t33.5 43.5h83v-441h-99v316q-14 -11 -31 -18t-35 -12zM215 0l240 706h73l-240 -706h-73zM487 0v34q0 37 8 63.5t25 49t42.5 45.5t60.5 52q13 11 20.5 18t11.5 13.5t5.5 14t1.5 19.5v14q0 9 -1 17.5t-4.5 15.5t-11 11t-20.5 4q-14 0 -22 -4 t-11.5 -10.5t-4.5 -14t-1 -14.5v-59h-99v59q0 19 3.5 40.5t17 39.5t40 29.5t72.5 11.5q69 0 106 -26.5t37 -88.5v-18q0 -33 -5.5 -52.5t-17 -34.5t-29.5 -30t-43 -38q-28 -26 -40 -42.5t-20 -30.5h153v-88h-274z" />
<glyph unicode="&#xbe;" horiz-adv-x="792" d="M26 370v52h99v-44q0 -25 9 -34.5t28 -9.5t28 8.5t9 30.5v46q0 22 -10.5 28.5t-30.5 6.5h-49v81h45q28 0 36.5 9t8.5 27v25q0 27 -11 33.5t-28 6.5t-26 -9t-9 -32v-29h-99v49q0 48 28 72.5t100 24.5q78 0 110 -23t32 -76v-34q0 -22 -7.5 -45t-38.5 -37q18 -6 27.5 -16 t14.5 -22t6 -25.5t1 -25.5v-45q0 -25 -6.5 -44.5t-22 -33t-42.5 -20.5t-68 -7q-44 0 -70.5 7t-40.5 21t-18.5 35t-4.5 49zM256 0l240 706h73l-240 -706h-73zM479 92v85l124 265h123v-265h45v-85h-45v-92h-95v92h-152zM556 177h75v181z" />
<glyph unicode="&#xbf;" d="M39 150q0 29 4 52.5t23 41.5l83 80q19 18 30.5 29.5t18 21.5t8.5 21t2 27v56h146v-50q0 -24 -3 -42t-10 -33t-17.5 -28t-25.5 -28l-75 -73q-19 -18 -27 -31.5t-8 -39.5q0 -6 1 -15.5t5.5 -18t12.5 -15t23 -6.5t23.5 5t13 12.5t5.5 16t1 15.5v59h143v-73q0 -43 -11.5 -71 t-34.5 -44.5t-56.5 -23t-77.5 -6.5q-51 0 -88.5 7.5t-61.5 26.5t-35.5 50t-11.5 77zM208 555v151h148v-151h-148z" />
<glyph unicode="&#xc0;" horiz-adv-x="521" d="M4 0l143 706h228l143 -706h-167l-24 161h-131l-25 -161h-167zM79 908h161l97 -142h-109zM215 280h95l-47 314z" />
<glyph unicode="&#xc1;" horiz-adv-x="521" d="M4 0l143 706h228l143 -706h-167l-24 161h-131l-25 -161h-167zM194 768l94 142h163l-151 -142h-106zM215 280h95l-47 314z" />
<glyph unicode="&#xc2;" horiz-adv-x="521" d="M4 0l143 706h228l143 -706h-167l-24 161h-131l-25 -161h-167zM81 765l96 142h167l106 -142h-130l-59 83l-58 -83h-122zM215 280h95l-47 314z" />
<glyph unicode="&#xc3;" horiz-adv-x="521" d="M4 0l143 706h228l143 -706h-167l-24 161h-131l-25 -161h-167zM95 781q2 26 8 48t18 38t31.5 25.5t47.5 9.5q19 0 37.5 -5.5t36 -12t33 -12t28.5 -5.5t23.5 6t14.5 26h50q-2 -24 -8.5 -46t-18.5 -39t-31 -27t-48 -10q-22 0 -41.5 6t-36.5 12.5t-32.5 12.5t-28.5 6 q-12 0 -18.5 -4t-10 -9t-4 -11t-0.5 -9h-50zM215 280h95l-47 314z" />
<glyph unicode="&#xc4;" horiz-adv-x="521" d="M4 0l143 706h228l143 -706h-167l-24 161h-131l-25 -161h-167zM95 785v113h136v-113h-136zM215 280h95l-47 314zM288 785v113h134v-113h-134z" />
<glyph unicode="&#xc5;" horiz-adv-x="521" d="M4 0l143 706h228l143 -706h-167l-24 161h-131l-25 -161h-167zM160 828q0 20 7.5 38t21 31.5t31.5 21.5t39 8q20 0 38 -8t31.5 -21.5t21.5 -31.5t8 -39q0 -19 -7.5 -37t-21 -31.5t-32 -21.5t-39.5 -8q-20 0 -38 8t-31.5 21.5t-21 31.5t-7.5 38zM215 280h95l-47 314z M222 828q0 -15 11 -26t26 -11t26 11t11 27q0 14 -11 25t-26 11t-26 -11t-11 -26z" />
<glyph unicode="&#xc6;" horiz-adv-x="771" d="M2 0l273 706h473v-127h-188v-157h175v-126h-175v-170h188v-126h-358v191h-146l-64 -191h-178zM286 311h104v268h-12z" />
<glyph unicode="&#xc7;" horiz-adv-x="521" d="M40 165v370q0 41 12 75t38.5 58t69.5 37.5t104 13.5q64 0 107.5 -13t69.5 -37.5t37.5 -59.5t11.5 -79v-85h-168v93q0 32 -13.5 45t-45.5 13q-33 0 -43 -17.5t-10 -46.5v-351q0 -34 9.5 -52t47.5 -18q35 0 45 17t10 53v88h172v-63q0 -54 -9 -92t-30 -63.5t-56.5 -39.5 t-89.5 -18l-43 -51q17 0 33 -4.5t29 -14t21 -24t8 -35.5q0 -24 -12 -42.5t-31 -30.5t-41 -18.5t-43 -6.5h-23t-25 1l-17 48q7 -1 14.5 -1.5t15.5 -0.5q23 0 41 12t18 34q0 11 -8 23t-34 12q-13 0 -21.5 -3.5t-19.5 -8.5l-17 35l66 75q-53 3 -87.5 16.5t-55 36t-29 53 t-8.5 67.5z" />
<glyph unicode="&#xc8;" horiz-adv-x="437" d="M48 908h161l97 -142h-109zM51 0v706h365v-124h-194v-163h183v-124h-183v-170h194v-125h-365z" />
<glyph unicode="&#xc9;" horiz-adv-x="437" d="M51 0v706h365v-124h-194v-163h183v-124h-183v-170h194v-125h-365zM163 768l94 142h163l-151 -142h-106z" />
<glyph unicode="&#xca;" horiz-adv-x="437" d="M50 765l96 142h167l106 -142h-130l-59 83l-58 -83h-122zM51 0v706h365v-124h-194v-163h183v-124h-183v-170h194v-125h-365z" />
<glyph unicode="&#xcb;" horiz-adv-x="437" d="M51 0v706h365v-124h-194v-163h183v-124h-183v-170h194v-125h-365zM64 785v113h136v-113h-136zM257 785v113h134v-113h-134z" />
<glyph unicode="&#xcc;" horiz-adv-x="271" d="M-45 908h161l97 -142h-109zM49 0v706h171v-706h-171z" />
<glyph unicode="&#xcd;" horiz-adv-x="271" d="M49 0v706h171v-706h-171zM69 768l94 142h163l-151 -142h-106z" />
<glyph unicode="&#xce;" horiz-adv-x="271" d="M-44 765l96 142h167l106 -142h-130l-59 83l-58 -83h-122zM49 0v706h171v-706h-171z" />
<glyph unicode="&#xcf;" horiz-adv-x="271" d="M-28 785v113h136v-113h-136zM49 0v706h171v-706h-171zM165 785v113h134v-113h-134z" />
<glyph unicode="&#xd0;" horiz-adv-x="542" d="M1 333v102h49v271h275q87 0 133 -40t46 -132v-364q0 -53 -13 -86t-37 -52t-59 -25.5t-80 -6.5h-265v333h-49zM216 122h53q35 0 49 12t14 48v338q0 35 -14.5 49.5t-49.5 14.5h-52v-149h64v-102h-64v-211z" />
<glyph unicode="&#xd1;" horiz-adv-x="562" d="M49 0v706h169l148 -458v458h146v-706h-172l-147 460v-460h-144zM116 781q2 26 8 48t18 38t31.5 25.5t47.5 9.5q19 0 37.5 -5.5t36 -12t33 -12t28.5 -5.5t23.5 6t14.5 26h50q-2 -24 -8.5 -46t-18.5 -39t-31 -27t-48 -10q-22 0 -41.5 6t-36.5 12.5t-32.5 12.5t-28.5 6 q-12 0 -18.5 -4t-10 -9t-4 -11t-0.5 -9h-50z" />
<glyph unicode="&#xd2;" horiz-adv-x="542" d="M40 206v305q0 113 59.5 161t170.5 48q122 0 175.5 -53t53.5 -167v-279q0 -38 -5 -78.5t-27 -74.5t-67 -55.5t-126 -21.5q-57 0 -100.5 11t-73 36t-45 66t-15.5 102zM90 908h161l97 -142h-109zM211 175q0 -12 1 -23t6.5 -19t17.5 -13t34 -5q35 0 47 14.5t12 45.5v361 q0 35 -13.5 46.5t-48.5 11.5q-32 0 -44 -12.5t-12 -44.5v-362z" />
<glyph unicode="&#xd3;" horiz-adv-x="542" d="M40 206v305q0 113 59.5 161t170.5 48q122 0 175.5 -53t53.5 -167v-279q0 -38 -5 -78.5t-27 -74.5t-67 -55.5t-126 -21.5q-57 0 -100.5 11t-73 36t-45 66t-15.5 102zM205 768l94 142h163l-151 -142h-106zM211 175q0 -12 1 -23t6.5 -19t17.5 -13t34 -5q35 0 47 14.5 t12 45.5v361q0 35 -13.5 46.5t-48.5 11.5q-32 0 -44 -12.5t-12 -44.5v-362z" />
<glyph unicode="&#xd4;" horiz-adv-x="542" d="M40 206v305q0 113 59.5 161t170.5 48q122 0 175.5 -53t53.5 -167v-279q0 -38 -5 -78.5t-27 -74.5t-67 -55.5t-126 -21.5q-57 0 -100.5 11t-73 36t-45 66t-15.5 102zM91 765l96 142h167l106 -142h-130l-59 83l-58 -83h-122zM211 175q0 -12 1 -23t6.5 -19t17.5 -13t34 -5 q35 0 47 14.5t12 45.5v361q0 35 -13.5 46.5t-48.5 11.5q-32 0 -44 -12.5t-12 -44.5v-362z" />
<glyph unicode="&#xd5;" horiz-adv-x="542" d="M40 206v305q0 113 59.5 161t170.5 48q122 0 175.5 -53t53.5 -167v-279q0 -38 -5 -78.5t-27 -74.5t-67 -55.5t-126 -21.5q-57 0 -100.5 11t-73 36t-45 66t-15.5 102zM106 781q2 26 8 48t18 38t31.5 25.5t47.5 9.5q19 0 37.5 -5.5t36 -12t33 -12t28.5 -5.5t23.5 6t14.5 26 h50q-2 -24 -8.5 -46t-18.5 -39t-31 -27t-48 -10q-22 0 -41.5 6t-36.5 12.5t-32.5 12.5t-28.5 6q-12 0 -18.5 -4t-10 -9t-4 -11t-0.5 -9h-50zM211 175q0 -12 1 -23t6.5 -19t17.5 -13t34 -5q35 0 47 14.5t12 45.5v361q0 35 -13.5 46.5t-48.5 11.5q-32 0 -44 -12.5t-12 -44.5 v-362z" />
<glyph unicode="&#xd6;" horiz-adv-x="542" d="M40 206v305q0 113 59.5 161t170.5 48q122 0 175.5 -53t53.5 -167v-279q0 -38 -5 -78.5t-27 -74.5t-67 -55.5t-126 -21.5q-57 0 -100.5 11t-73 36t-45 66t-15.5 102zM105 785v113h136v-113h-136zM211 175q0 -12 1 -23t6.5 -19t17.5 -13t34 -5q35 0 47 14.5t12 45.5v361 q0 35 -13.5 46.5t-48.5 11.5q-32 0 -44 -12.5t-12 -44.5v-362zM298 785v113h134v-113h-134z" />
<glyph unicode="&#xd7;" horiz-adv-x="558" d="M90 393l97 101l91 -93l84 94l94 -90l-86 -96l97 -97l-94 -101l-96 94l-86 -94l-94 90l88 96z" />
<glyph unicode="&#xd8;" horiz-adv-x="542" d="M5 19l52 79q-5 14 -8.5 24.5t-5.5 22.5t-3 28t-1 41v304q0 54 16 92.5t46 62.5t72.5 35t94.5 11q34 0 58.5 -3t44 -9t36 -16t34.5 -24l39 55l53 -35l-53 -78q5 -13 8.5 -24t5.5 -24t3 -30t1 -42v-279q0 -49 -9.5 -90t-35 -70t-69 -45t-112.5 -16q-70 0 -111 14t-65 37 l-39 -56zM204 201q0 -26 1 -44.5t6.5 -30.5t18 -18t34.5 -6q18 0 31 1.5t21.5 8t12.5 19t4 34.5v225zM204 317l129 190q0 23 -1 39.5t-6.5 27t-18 15t-35.5 4.5t-36.5 -4.5t-20.5 -12t-9 -17.5t-2 -22v-220z" />
<glyph unicode="&#xd9;" horiz-adv-x="542" d="M48 177v529h170v-532q0 -29 12 -46t42 -17t40 17t10 46v532h171v-508q0 -46 -7.5 -84t-30.5 -66t-66 -43.5t-114 -15.5q-67 0 -111 13.5t-70 38t-36 59t-10 77.5zM89 908h161l97 -142h-109z" />
<glyph unicode="&#xda;" horiz-adv-x="542" d="M48 177v529h170v-532q0 -29 12 -46t42 -17t40 17t10 46v532h171v-508q0 -46 -7.5 -84t-30.5 -66t-66 -43.5t-114 -15.5q-67 0 -111 13.5t-70 38t-36 59t-10 77.5zM205 768l94 142h163l-151 -142h-106z" />
<glyph unicode="&#xdb;" horiz-adv-x="542" d="M48 177v529h170v-532q0 -29 12 -46t42 -17t40 17t10 46v532h171v-508q0 -46 -7.5 -84t-30.5 -66t-66 -43.5t-114 -15.5q-67 0 -111 13.5t-70 38t-36 59t-10 77.5zM91 765l96 142h167l106 -142h-130l-59 83l-58 -83h-122z" />
<glyph unicode="&#xdc;" horiz-adv-x="542" d="M48 177v529h170v-532q0 -29 12 -46t42 -17t40 17t10 46v532h171v-508q0 -46 -7.5 -84t-30.5 -66t-66 -43.5t-114 -15.5q-67 0 -111 13.5t-70 38t-36 59t-10 77.5zM106 785v113h136v-113h-136zM299 785v113h134v-113h-134z" />
<glyph unicode="&#xdd;" horiz-adv-x="521" d="M4 706h168l86 -312l86 312h171l-176 -458v-248h-167v248zM194 768l94 142h163l-151 -142h-106z" />
<glyph unicode="&#xde;" horiz-adv-x="521" d="M50 0v706h170v-117h125q85 0 120 -35t35 -107v-158q0 -36 -7 -64t-23.5 -47t-45 -28.5t-72.5 -9.5h-132v-140h-170zM220 265h58q22 0 34.5 4t19 13t8 24t1.5 37v37q0 31 -1.5 48.5t-7.5 26.5t-19.5 11t-37.5 2h-55v-203z" />
<glyph unicode="&#xdf;" horiz-adv-x="521" d="M45 0v555q0 87 52 125t152 38q112 0 164.5 -41.5t52.5 -130.5v-28q0 -27 -2.5 -48t-9.5 -36t-20 -25.5t-34 -18.5q24 -10 40.5 -19.5t26.5 -26.5t14.5 -45t4.5 -76v-75q0 -37 -6.5 -64.5t-23.5 -46t-47 -28t-77 -9.5q-22 0 -43.5 2t-43.5 5v78q4 -2 13.5 -4.5t21.5 -2.5 q20 0 32 10.5t12 42.5v175q0 7 -1.5 15t-7.5 14.5t-17 11t-31 4.5h-20v96q1 -1 9 -1.5t16 -0.5q14 1 22 6.5t11.5 12.5t4 14.5t0.5 11.5v61q0 26 -10 44t-45 18q-10 0 -19.5 -1.5t-17 -7.5t-12 -18.5t-4.5 -34.5v-551h-157z" />
<glyph unicode="&#xe0;" d="M31 124q0 67 20.5 104.5t75.5 59.5q42 17 83 32t81 35v32q0 24 -9.5 37.5t-38.5 13.5q-15 0 -23.5 -5t-13 -13.5t-6 -18.5t-1.5 -19v-27h-153v26q0 41 10 72t33.5 51.5t61 31t91.5 10.5q43 0 80.5 -6.5t66 -24t45 -48t16.5 -78.5v-306q0 -19 1 -31t3.5 -20.5t7 -15.5 t11.5 -16h-182v45q-12 -9 -24.5 -19.5t-27.5 -19.5t-34.5 -15t-46.5 -6q-36 0 -60.5 10.5t-39.5 29t-21 44t-6 55.5zM80 736h174l95 -127h-128zM195 145q0 -25 6 -41.5t34 -16.5q26 0 41 13.5t15 46.5v120l-49 -26q-17 -9 -26.5 -17t-14 -17.5t-5.5 -21t-1 -26.5v-14z" />
<glyph unicode="&#xe1;" d="M31 124q0 67 20.5 104.5t75.5 59.5q42 17 83 32t81 35v32q0 24 -9.5 37.5t-38.5 13.5q-15 0 -23.5 -5t-13 -13.5t-6 -18.5t-1.5 -19v-27h-153v26q0 41 10 72t33.5 51.5t61 31t91.5 10.5q43 0 80.5 -6.5t66 -24t45 -48t16.5 -78.5v-306q0 -19 1 -31t3.5 -20.5t7 -15.5 t11.5 -16h-182v45q-12 -9 -24.5 -19.5t-27.5 -19.5t-34.5 -15t-46.5 -6q-36 0 -60.5 10.5t-39.5 29t-21 44t-6 55.5zM155 610l87 125h168l-137 -125h-118zM195 145q0 -25 6 -41.5t34 -16.5q26 0 41 13.5t15 46.5v120l-49 -26q-17 -9 -26.5 -17t-14 -17.5t-5.5 -21t-1 -26.5 v-14z" />
<glyph unicode="&#xe2;" d="M31 124q0 67 20.5 104.5t75.5 59.5q42 17 83 32t81 35v32q0 24 -9.5 37.5t-38.5 13.5q-15 0 -23.5 -5t-13 -13.5t-6 -18.5t-1.5 -19v-27h-153v26q0 41 10 72t33.5 51.5t61 31t91.5 10.5q43 0 80.5 -6.5t66 -24t45 -48t16.5 -78.5v-306q0 -19 1 -31t3.5 -20.5t7 -15.5 t11.5 -16h-182v45q-12 -9 -24.5 -19.5t-27.5 -19.5t-34.5 -15t-46.5 -6q-36 0 -60.5 10.5t-39.5 29t-21 44t-6 55.5zM87 612l99 124h126l102 -124h-118l-45 59l-43 -59h-121zM195 145q0 -25 6 -41.5t34 -16.5q26 0 41 13.5t15 46.5v120l-49 -26q-17 -9 -26.5 -17t-14 -17.5 t-5.5 -21t-1 -26.5v-14z" />
<glyph unicode="&#xe3;" d="M31 124q0 67 20.5 104.5t75.5 59.5q42 17 83 32t81 35v32q0 24 -9.5 37.5t-38.5 13.5q-15 0 -23.5 -5t-13 -13.5t-6 -18.5t-1.5 -19v-27h-153v26q0 41 10 72t33.5 51.5t61 31t91.5 10.5q43 0 80.5 -6.5t66 -24t45 -48t16.5 -78.5v-306q0 -19 1 -31t3.5 -20.5t7 -15.5 t11.5 -16h-182v45q-12 -9 -24.5 -19.5t-27.5 -19.5t-34.5 -15t-46.5 -6q-36 0 -60.5 10.5t-39.5 29t-21 44t-6 55.5zM86 621q2 26 8 48t18 38t31.5 25.5t47.5 9.5q19 0 37.5 -5.5t36 -12t33 -12t28.5 -5.5t23.5 6t14.5 26h50q-2 -24 -8.5 -46t-18.5 -39t-31 -27t-48 -10 q-22 0 -41.5 6t-36.5 12.5t-32.5 12.5t-28.5 6q-12 0 -18.5 -4t-10 -9t-4 -11t-0.5 -9h-50zM195 145q0 -25 6 -41.5t34 -16.5q26 0 41 13.5t15 46.5v120l-49 -26q-17 -9 -26.5 -17t-14 -17.5t-5.5 -21t-1 -26.5v-14z" />
<glyph unicode="&#xe4;" d="M31 124q0 67 20.5 104.5t75.5 59.5q42 17 83 32t81 35v32q0 24 -9.5 37.5t-38.5 13.5q-15 0 -23.5 -5t-13 -13.5t-6 -18.5t-1.5 -19v-27h-153v26q0 41 10 72t33.5 51.5t61 31t91.5 10.5q43 0 80.5 -6.5t66 -24t45 -48t16.5 -78.5v-306q0 -19 1 -31t3.5 -20.5t7 -15.5 t11.5 -16h-182v45q-12 -9 -24.5 -19.5t-27.5 -19.5t-34.5 -15t-46.5 -6q-36 0 -60.5 10.5t-39.5 29t-21 44t-6 55.5zM76 609v124h144v-124h-144zM195 145q0 -25 6 -41.5t34 -16.5q26 0 41 13.5t15 46.5v120l-49 -26q-17 -9 -26.5 -17t-14 -17.5t-5.5 -21t-1 -26.5v-14z M299 609v124h142v-124h-142z" />
<glyph unicode="&#xe5;" d="M31 124q0 67 20.5 104.5t75.5 59.5q42 17 83 32t81 35v32q0 24 -9.5 37.5t-38.5 13.5q-15 0 -23.5 -5t-13 -13.5t-6 -18.5t-1.5 -19v-27h-153v26q0 41 10 72t33.5 51.5t61 31t91.5 10.5q43 0 80.5 -6.5t66 -24t45 -48t16.5 -78.5v-306q0 -19 1 -31t3.5 -20.5t7 -15.5 t11.5 -16h-182v45q-12 -9 -24.5 -19.5t-27.5 -19.5t-34.5 -15t-46.5 -6q-36 0 -60.5 10.5t-39.5 29t-21 44t-6 55.5zM160 665q0 20 7.5 38t21 31.5t31.5 21.5t39 8q20 0 38 -8t31.5 -21.5t21.5 -31.5t8 -39q0 -19 -7.5 -37t-21 -31.5t-32 -21.5t-39.5 -8q-20 0 -38 8 t-31.5 21.5t-21 31.5t-7.5 38zM195 145q0 -25 6 -41.5t34 -16.5q26 0 41 13.5t15 46.5v120l-49 -26q-17 -9 -26.5 -17t-14 -17.5t-5.5 -21t-1 -26.5v-14zM222 665q0 -15 11 -26t26 -11t26 11t11 27q0 14 -11 25t-26 11t-26 -11t-11 -26z" />
<glyph unicode="&#xe6;" horiz-adv-x="729" d="M32 142q0 39 10 65t27 43.5t40.5 29t50.5 23.5l127 54v38q0 6 -0.5 14.5t-5 15.5t-13 12t-25.5 5q-16 0 -25 -5t-13 -12.5t-4.5 -15.5t-0.5 -14v-39h-151v32q0 42 14 72t39 49t60 28t77 9q25 0 43.5 -2.5t33 -8t26.5 -13t25 -16.5q14 10 26 17.5t27 13t34 8t46 2.5 q53 0 89.5 -11t59 -35t33 -62.5t10.5 -94.5v-110h-248v-100q0 -18 4.5 -27.5t11.5 -14t15.5 -5.5t15.5 -1q17 0 25.5 5t13 12.5t5 15.5t0.5 15v41h157v-31q0 -27 -3 -45t-9 -30.5t-15.5 -22t-22.5 -19.5q-25 -20 -68 -31t-85 -11q-27 0 -54 3.5t-51.5 12.5t-46 24t-37.5 38 q-27 -37 -61 -58t-80 -21q-70 0 -98.5 37t-28.5 121zM193 141q0 -5 1 -13.5t5.5 -16t13.5 -13t25 -5.5q28 0 38.5 12.5t10.5 38.5v122q-27 -14 -45 -24.5t-29 -21t-15.5 -23t-4.5 -32.5v-24zM444 330h91v67q0 6 -0.5 14t-4.5 15t-13 12t-25 5q-18 0 -27.5 -5t-14 -12 t-5.5 -15t-1 -14v-67z" />
<glyph unicode="&#xe7;" horiz-adv-x="465" d="M36 143v225q0 41 8 74.5t41 61.5q32 26 72 33.5t79 7.5q67 0 107 -15t61.5 -39t28 -53.5t6.5 -58.5v-51h-158v60q0 50 -41 50q-45 0 -45 -50v-251q0 -6 1 -14.5t5.5 -16t13.5 -13t26 -5.5q14 0 22 5t12 11.5t5 14t1 13.5v55h158v-60q0 -14 -3.5 -36t-20 -43.5 t-50.5 -38.5t-94 -23l-37 -44q17 0 33 -4t29 -13.5t21 -24.5t8 -36q0 -24 -12.5 -42.5t-31.5 -30.5t-41.5 -18.5t-43.5 -6.5h-21.5t-23.5 1l-17 48q7 -1 15 -1.5t16 -0.5q23 0 40 12t17 34q0 11 -8 22.5t-34 11.5q-13 0 -21.5 -3t-19.5 -8l-15 37l63 71q-31 3 -59 13t-48 28 t-32 45.5t-12 66.5z" />
<glyph unicode="&#xe8;" horiz-adv-x="479" d="M37 180v159q0 53 9 92t32 64.5t62.5 38t100.5 12.5q41 0 77 -6.5t63 -24.5t43 -50.5t16 -83.5v-151h-242v-87q0 -6 0.5 -14.5t5 -17t13.5 -14t26 -5.5q26 0 38 12t12 41v31h153v-36q0 -49 -19.5 -79.5t-49.5 -47.5t-65.5 -22.5t-68.5 -5.5q-65 0 -105 15t-62.5 41.5 t-30.5 62t-8 76.5zM65 736h174l95 -127h-128zM198 331h92v55q0 8 -0.5 18t-5 19t-13 15t-25.5 6q-18 0 -27.5 -6.5t-14 -15.5t-5.5 -19t-1 -17v-55z" />
<glyph unicode="&#xe9;" horiz-adv-x="479" d="M37 180v159q0 53 9 92t32 64.5t62.5 38t100.5 12.5q41 0 77 -6.5t63 -24.5t43 -50.5t16 -83.5v-151h-242v-87q0 -6 0.5 -14.5t5 -17t13.5 -14t26 -5.5q26 0 38 12t12 41v31h153v-36q0 -49 -19.5 -79.5t-49.5 -47.5t-65.5 -22.5t-68.5 -5.5q-65 0 -105 15t-62.5 41.5 t-30.5 62t-8 76.5zM155 610l87 125h168l-137 -125h-118zM198 331h92v55q0 8 -0.5 18t-5 19t-13 15t-25.5 6q-18 0 -27.5 -6.5t-14 -15.5t-5.5 -19t-1 -17v-55z" />
<glyph unicode="&#xea;" horiz-adv-x="479" d="M37 180v159q0 53 9 92t32 64.5t62.5 38t100.5 12.5q41 0 77 -6.5t63 -24.5t43 -50.5t16 -83.5v-151h-242v-87q0 -6 0.5 -14.5t5 -17t13.5 -14t26 -5.5q26 0 38 12t12 41v31h153v-36q0 -49 -19.5 -79.5t-49.5 -47.5t-65.5 -22.5t-68.5 -5.5q-65 0 -105 15t-62.5 41.5 t-30.5 62t-8 76.5zM76 612l99 124h126l102 -124h-118l-45 59l-43 -59h-121zM198 331h92v55q0 8 -0.5 18t-5 19t-13 15t-25.5 6q-18 0 -27.5 -6.5t-14 -15.5t-5.5 -19t-1 -17v-55z" />
<glyph unicode="&#xeb;" horiz-adv-x="479" d="M37 180v159q0 53 9 92t32 64.5t62.5 38t100.5 12.5q41 0 77 -6.5t63 -24.5t43 -50.5t16 -83.5v-151h-242v-87q0 -6 0.5 -14.5t5 -17t13.5 -14t26 -5.5q26 0 38 12t12 41v31h153v-36q0 -49 -19.5 -79.5t-49.5 -47.5t-65.5 -22.5t-68.5 -5.5q-65 0 -105 15t-62.5 41.5 t-30.5 62t-8 76.5zM56 609v124h144v-124h-144zM198 331h92v55q0 8 -0.5 18t-5 19t-13 15t-25.5 6q-18 0 -27.5 -6.5t-14 -15.5t-5.5 -19t-1 -17v-55zM279 609v124h142v-124h-142z" />
<glyph unicode="&#xec;" horiz-adv-x="250" d="M-48 736h174l95 -127h-128zM45 0v531h159v-531h-159z" />
<glyph unicode="&#xed;" horiz-adv-x="250" d="M38 610l87 125h168l-137 -125h-118zM45 0v531h159v-531h-159z" />
<glyph unicode="&#xee;" horiz-adv-x="250" d="M-39 612l99 124h126l102 -124h-118l-45 59l-43 -59h-121zM45 0v531h159v-531h-159z" />
<glyph unicode="&#xef;" horiz-adv-x="250" d="M-58 609v124h144v-124h-144zM45 0v531h159v-531h-159zM165 609v124h142v-124h-142z" />
<glyph unicode="&#xf0;" horiz-adv-x="479" d="M36 174v206q0 20 4.5 48t19.5 54t42.5 44.5t72.5 18.5q23 0 39.5 -5.5t28.5 -14.5t21 -20t16 -22q-3 16 -6.5 29.5t-8.5 26t-12.5 26t-18.5 29.5l-122 -32l-20 56l99 26l-12 12t-11 10t-14 10.5t-20 14.5l146 39q8 -5 17.5 -12.5t17.5 -15t14 -13t7 -6.5l68 19l22 -53 l-50 -14q8 -9 15 -21.5t16 -32.5q13 -29 20 -55t10.5 -51t4 -51t0.5 -55v-202q0 -19 -1.5 -43t-9.5 -44q-38 -96 -186 -96q-75 0 -122 21.5t-69 60.5q-14 25 -16 54t-2 54zM193 149q0 -7 0.5 -16t5 -17t14 -13.5t26.5 -5.5t26.5 7t14 16.5t5 19.5t0.5 17v219q0 8 -0.5 18.5 t-5 19.5t-14 15.5t-26.5 6.5t-26.5 -7t-14 -17t-5 -21t-0.5 -18v-224z" />
<glyph unicode="&#xf1;" d="M45 0v531h159v-50q5 6 14.5 17t24.5 21.5t35 18.5t45 8q59 0 96.5 -38t37.5 -111v-397h-158v381q0 23 -10 39t-37 16q-20 0 -34 -11t-14 -39v-386h-159zM86 621q2 26 8 48t18 38t31.5 25.5t47.5 9.5q19 0 37.5 -5.5t36 -12t33 -12t28.5 -5.5t23.5 6t14.5 26h50 q-2 -24 -8.5 -46t-18.5 -39t-31 -27t-48 -10q-22 0 -41.5 6t-36.5 12.5t-32.5 12.5t-28.5 6q-12 0 -18.5 -4t-10 -9t-4 -11t-0.5 -9h-50z" />
<glyph unicode="&#xf2;" horiz-adv-x="479" d="M36 153v209q0 44 9.5 78t33 57.5t62.5 35.5t98 12q43 0 80 -8t64.5 -27t43 -51t15.5 -79v-217q0 -91 -47 -135t-152 -44q-110 0 -158.5 45t-48.5 124zM65 736h174l95 -127h-128zM193 149q0 -7 0.5 -16t5 -17t14 -13.5t26.5 -5.5t26.5 7t14 16.5t5 19.5t0.5 17v219 q0 8 -0.5 18.5t-5 19.5t-14 15.5t-26.5 6.5t-26.5 -7t-14 -17t-5 -21t-0.5 -18v-224z" />
<glyph unicode="&#xf3;" horiz-adv-x="479" d="M36 153v209q0 44 9.5 78t33 57.5t62.5 35.5t98 12q43 0 80 -8t64.5 -27t43 -51t15.5 -79v-217q0 -91 -47 -135t-152 -44q-110 0 -158.5 45t-48.5 124zM153 610l87 125h168l-137 -125h-118zM193 149q0 -7 0.5 -16t5 -17t14 -13.5t26.5 -5.5t26.5 7t14 16.5t5 19.5t0.5 17 v219q0 8 -0.5 18.5t-5 19.5t-14 15.5t-26.5 6.5t-26.5 -7t-14 -17t-5 -21t-0.5 -18v-224z" />
<glyph unicode="&#xf4;" horiz-adv-x="479" d="M36 153v209q0 44 9.5 78t33 57.5t62.5 35.5t98 12q43 0 80 -8t64.5 -27t43 -51t15.5 -79v-217q0 -91 -47 -135t-152 -44q-110 0 -158.5 45t-48.5 124zM75 612l99 124h126l102 -124h-118l-45 59l-43 -59h-121zM193 149q0 -7 0.5 -16t5 -17t14 -13.5t26.5 -5.5t26.5 7 t14 16.5t5 19.5t0.5 17v219q0 8 -0.5 18.5t-5 19.5t-14 15.5t-26.5 6.5t-26.5 -7t-14 -17t-5 -21t-0.5 -18v-224z" />
<glyph unicode="&#xf5;" horiz-adv-x="479" d="M36 153v209q0 44 9.5 78t33 57.5t62.5 35.5t98 12q43 0 80 -8t64.5 -27t43 -51t15.5 -79v-217q0 -91 -47 -135t-152 -44q-110 0 -158.5 45t-48.5 124zM74 621q2 26 8 48t18 38t31.5 25.5t47.5 9.5q19 0 37.5 -5.5t36 -12t33 -12t28.5 -5.5t23.5 6t14.5 26h50 q-2 -24 -8.5 -46t-18.5 -39t-31 -27t-48 -10q-22 0 -41.5 6t-36.5 12.5t-32.5 12.5t-28.5 6q-12 0 -18.5 -4t-10 -9t-4 -11t-0.5 -9h-50zM193 149q0 -7 0.5 -16t5 -17t14 -13.5t26.5 -5.5t26.5 7t14 16.5t5 19.5t0.5 17v219q0 8 -0.5 18.5t-5 19.5t-14 15.5t-26.5 6.5 t-26.5 -7t-14 -17t-5 -21t-0.5 -18v-224z" />
<glyph unicode="&#xf6;" horiz-adv-x="479" d="M36 153v209q0 44 9.5 78t33 57.5t62.5 35.5t98 12q43 0 80 -8t64.5 -27t43 -51t15.5 -79v-217q0 -91 -47 -135t-152 -44q-110 0 -158.5 45t-48.5 124zM56 609v124h144v-124h-144zM193 149q0 -7 0.5 -16t5 -17t14 -13.5t26.5 -5.5t26.5 7t14 16.5t5 19.5t0.5 17v219 q0 8 -0.5 18.5t-5 19.5t-14 15.5t-26.5 6.5t-26.5 -7t-14 -17t-5 -21t-0.5 -18v-224zM279 609v124h142v-124h-142z" />
<glyph unicode="&#xf7;" horiz-adv-x="559" d="M70 237v126h419v-126h-419zM211 32v151h139v-151h-139zM211 417v150h139v-150h-139z" />
<glyph unicode="&#xf8;" horiz-adv-x="479" d="M18 14l38 55q-6 12 -10 21.5t-6.5 20.5t-3.5 26t-1 37v203q0 54 18.5 87t48 52t66 25.5t72.5 6.5q15 0 32.5 -1.5t35.5 -5t34.5 -9.5t29.5 -15l32 45l52 -36l-36 -50q11 -21 17 -41.5t6 -55.5v-194q0 -44 -8.5 -80.5t-31.5 -63t-62.5 -41t-102.5 -14.5q-16 0 -35.5 2 t-39 6.5t-36 10.5t-27.5 15l-30 -42zM187 140q1 -7 3 -15t7 -15t14.5 -11.5t25.5 -4.5q20 0 30.5 7t15.5 16.5t6 19.5t1 17v137zM187 253l103 148q-1 5 -2.5 11.5t-7 13t-15 11t-25.5 4.5q-20 0 -30.5 -7.5t-15.5 -18.5t-6 -23t-1 -20v-119z" />
<glyph unicode="&#xf9;" d="M42 152v379h158v-371q0 -9 1.5 -18t6 -16.5t14 -12.5t25.5 -5q18 0 28 6t14.5 15t5.5 18t1 15v369h158v-531h-158v58q-5 -9 -14 -21t-23 -23.5t-34.5 -19.5t-49.5 -8q-41 0 -67 13.5t-40.5 36.5t-20 53t-5.5 63zM86 736h174l95 -127h-128z" />
<glyph unicode="&#xfa;" d="M42 152v379h158v-371q0 -9 1.5 -18t6 -16.5t14 -12.5t25.5 -5q18 0 28 6t14.5 15t5.5 18t1 15v369h158v-531h-158v58q-5 -9 -14 -21t-23 -23.5t-34.5 -19.5t-49.5 -8q-41 0 -67 13.5t-40.5 36.5t-20 53t-5.5 63zM154 610l87 125h168l-137 -125h-118z" />
<glyph unicode="&#xfb;" d="M42 152v379h158v-371q0 -9 1.5 -18t6 -16.5t14 -12.5t25.5 -5q18 0 28 6t14.5 15t5.5 18t1 15v369h158v-531h-158v58q-5 -9 -14 -21t-23 -23.5t-34.5 -19.5t-49.5 -8q-41 0 -67 13.5t-40.5 36.5t-20 53t-5.5 63zM87 612l99 124h126l102 -124h-118l-45 59l-43 -59h-121z " />
<glyph unicode="&#xfc;" d="M42 152v379h158v-371q0 -9 1.5 -18t6 -16.5t14 -12.5t25.5 -5q18 0 28 6t14.5 15t5.5 18t1 15v369h158v-531h-158v58q-5 -9 -14 -21t-23 -23.5t-34.5 -19.5t-49.5 -8q-41 0 -67 13.5t-40.5 36.5t-20 53t-5.5 63zM62 609v124h144v-124h-144zM285 609v124h142v-124h-142z " />
<glyph unicode="&#xfd;" horiz-adv-x="437" d="M-2 531h156l64 -417l59 417h159l-127 -546q-9 -39 -19.5 -71t-33 -55.5t-63 -36t-109.5 -12.5h-77v103h70q20 0 31.5 4.5t17 11.5t7.5 16.5t3 19.5zM134 610l87 125h168l-137 -125h-118z" />
<glyph unicode="&#xfe;" d="M46 -187v893h159v-232q9 14 20 27t26 23t36 16t49 6q40 0 65 -13.5t39.5 -34t19.5 -45.5t5 -48v-241q0 -30 -3.5 -61.5t-16.5 -57.5t-39 -42.5t-70 -16.5q-27 0 -47 4.5t-35 13t-26.5 20t-22.5 25.5v-236h-159zM205 165q0 -8 1 -19t5.5 -21.5t15 -18t29.5 -7.5t29.5 7 t15 17.5t5.5 22t1 19.5v202q0 8 -1 18.5t-5.5 20.5t-14.5 16.5t-29 6.5t-30 -6.5t-15.5 -16t-5.5 -19.5t-1 -17v-205z" />
<glyph unicode="&#xff;" horiz-adv-x="437" d="M-2 531h156l64 -417l59 417h159l-127 -546q-9 -39 -19.5 -71t-33 -55.5t-63 -36t-109.5 -12.5h-77v103h70q20 0 31.5 4.5t17 11.5t7.5 16.5t3 19.5zM35 609v124h144v-124h-144zM258 609v124h142v-124h-142z" />
<glyph unicode="&#x131;" horiz-adv-x="250" d="M45 0v531h159v-531h-159z" />
<glyph unicode="&#x141;" horiz-adv-x="417" d="M1 199v96l49 36v375h172v-247l117 87v-99l-117 -86v-236h176v-125h-348v235z" />
<glyph unicode="&#x142;" horiz-adv-x="250" d="M0 224v83l45 44v355h160v-200l45 43v-79l-45 -44v-426h-160v268z" />
<glyph unicode="&#x152;" horiz-adv-x="708" d="M42 215v283q0 35 5 74t22 71.5t49.5 54t86.5 21.5q26 0 45 -4.5t33 -11.5t24.5 -15t18.5 -15v33h359v-125h-189v-158h174v-125h-174v-172h189v-126h-359v31q-7 -5 -18 -12t-26 -13.5t-33.5 -11t-41.5 -4.5q-38 0 -68.5 12.5t-52 39.5t-33 70t-11.5 103zM212 172 q0 -8 1 -19t6 -21.5t16.5 -18t32.5 -7.5q22 0 33.5 7t17 17t6.5 21.5t1 19.5v376q0 5 -1 14.5t-6 19t-16.5 17t-32.5 7.5q-22 0 -33.5 -7t-17 -17t-6.5 -19.5t-1 -14.5v-375z" />
<glyph unicode="&#x153;" horiz-adv-x="729" d="M35 178v201q0 52 17.5 84.5t45.5 50.5t64.5 24.5t73.5 6.5q52 0 80.5 -10t50.5 -28q12 11 23.5 18t25.5 11.5t33 6.5t44 2q54 0 92 -12.5t61.5 -34.5t34.5 -51t11 -62v-154h-248v-92q0 -22 8 -38t41 -16q29 0 38.5 15t9.5 58v12h154v-31q0 -34 -10.5 -62t-33.5 -48.5 t-59.5 -32t-89.5 -11.5q-16 0 -35 2t-38 6t-35 10.5t-27 16.5q-10 -6 -22 -12t-27.5 -11.5t-35.5 -8.5t-48 -3q-55 0 -93 11.5t-61.5 35t-34 60t-10.5 86.5zM192 136q0 -6 0.5 -15t5 -17t13.5 -14t26 -6q18 0 28 6t14.5 14t5 18t0.5 17v256q0 7 -0.5 15.5t-5 16.5t-14 13.5 t-26.5 5.5q-26 0 -36.5 -11t-10.5 -36v-263zM444 327h95v62q0 8 -0.5 16.5t-5 16.5t-14.5 13t-28 5t-27.5 -5.5t-14 -13.5t-5 -16.5t-0.5 -14.5v-63z" />
<glyph unicode="&#x160;" horiz-adv-x="479" d="M19 184v42h169v-56q0 -6 1 -15.5t5.5 -18.5t14.5 -15.5t29 -6.5q18 0 28.5 4.5t16.5 11.5t7.5 16t1.5 17q0 21 -1.5 34t-7.5 23.5t-19 21t-36 26.5l-102 74q-20 15 -38 27t-31.5 30t-21.5 45t-8 71q0 56 11 95t36.5 63t67.5 35t105 11q71 0 110.5 -14.5t59.5 -40 t24.5 -61t4.5 -77.5v-37h-161v50q0 27 -7.5 43t-40.5 16q-26 0 -34 -15t-8 -37v-26q0 -20 7.5 -33t24.5 -24l145 -101q27 -18 44.5 -33.5t28 -34.5t14.5 -43.5t4 -62.5q0 -33 -5.5 -68.5t-27.5 -64t-67 -47t-123 -18.5q-80 0 -130.5 20.5t-71.5 58.5q-14 26 -16.5 59 t-2.5 56zM50 909h130l59 -82l59 82h121l-96 -141h-166z" />
<glyph unicode="&#x161;" horiz-adv-x="437" d="M21 164h152v-14q0 -33 11 -44.5t34 -11.5q14 0 22 4.5t13 10.5t6.5 12.5t1.5 11.5q0 22 -14 33.5t-31 20.5l-106 57q-27 14 -43.5 29t-25.5 32t-12 38t-3 47q0 29 4.5 48.5t12.5 34t18.5 24t22.5 16.5q30 20 66 26.5t71 6.5q94 0 144.5 -37t50.5 -115v-20h-152v16 q0 7 -1 15.5t-5.5 16t-13 12.5t-22.5 5q-5 0 -12.5 -1.5t-14 -6.5t-11.5 -13.5t-5 -23.5q0 -22 17 -33.5t50 -28.5l92 -46q27 -13 43.5 -26.5t25.5 -28.5t12 -32.5t3 -38.5q0 -44 -8.5 -74t-35.5 -53q-29 -24 -68 -35.5t-93 -11.5q-26 0 -52.5 3t-50.5 11.5t-44 23.5t-32 39 q-9 18 -13 39.5t-4 61.5zM55 736h118l46 -59l42 59h121l-98 -125h-126z" />
<glyph unicode="&#x178;" horiz-adv-x="521" d="M4 706h168l86 -312l86 312h171l-176 -458v-248h-167v248zM96 785v113h136v-113h-136zM289 785v113h134v-113h-134z" />
<glyph unicode="&#x17d;" horiz-adv-x="437" d="M-1 0v138l245 444h-214v124h391v-139l-245 -442h251v-125h-428zM39 909h130l59 -82l59 82h121l-96 -141h-166z" />
<glyph unicode="&#x17e;" horiz-adv-x="396" d="M10 0v102l196 328h-160v101h339v-101l-197 -328h181v-102h-359zM50 736h118l46 -59l42 59h121l-98 -125h-126z" />
<glyph unicode="&#x192;" horiz-adv-x="354" d="M-36 -169l12 100h30q7 0 14.5 0.5t14 4.5t11 12.5t6.5 23.5l56 460h-70l12 99h70l7 60q3 23 8.5 44t20 37t41 25t70.5 9h103l-12 -100h-30q-23 0 -32 -8.5t-13 -32.5l-5 -34h71l-12 -99h-71l-59 -484q-3 -23 -8 -44t-19 -37t-40.5 -26t-71.5 -10h-104z" />
<glyph unicode="&#x2c6;" horiz-adv-x="271" d="M-28 612l99 124h126l102 -124h-118l-45 59l-43 -59h-121z" />
<glyph unicode="&#x2c7;" horiz-adv-x="271" d="M-28 736h118l46 -59l42 59h121l-98 -125h-126z" />
<glyph unicode="&#x2d8;" horiz-adv-x="271" d="M-11 728v5h63q4 -16 13.5 -26t22 -15t26 -7t24.5 -2q35 0 55.5 14.5t25.5 35.5h63q-6 -46 -24.5 -71.5t-41 -38t-45.5 -15.5t-37 -3q-42 0 -69.5 12t-44.5 30.5t-24 40t-7 40.5z" />
<glyph unicode="&#x2d9;" horiz-adv-x="271" d="M63 609v124h145v-124h-145z" />
<glyph unicode="&#x2da;" horiz-adv-x="271" d="M36 665q0 20 7.5 38t21 31.5t31.5 21.5t39 8q20 0 38 -8t31.5 -21.5t21.5 -31.5t8 -39q0 -19 -7.5 -37t-21 -31.5t-32 -21.5t-39.5 -8q-20 0 -38 8t-31.5 21.5t-21 31.5t-7.5 38zM98 665q0 -15 11 -26t26 -11t26 11t11 27q0 14 -11 25t-26 11t-26 -11t-11 -26z" />
<glyph unicode="&#x2db;" horiz-adv-x="271" d="M45 -96q0 30 14 52t26 36l7 8h99q-2 -2 -8.5 -7.5t-14 -13.5t-13.5 -18.5t-6 -21.5q0 -17 13.5 -26.5t38.5 -9.5q8 0 15.5 1.5t9.5 1.5v-96q-12 -2 -22 -2.5t-22 -0.5q-68 0 -102.5 26t-34.5 71z" />
<glyph unicode="&#x2dc;" horiz-adv-x="271" d="M-28 621q2 26 8 48t18 38t31.5 25.5t47.5 9.5q19 0 37.5 -5.5t36 -12t33 -12t28.5 -5.5t23.5 6t14.5 26h50q-2 -24 -8.5 -46t-18.5 -39t-31 -27t-48 -10q-22 0 -41.5 6t-36.5 12.5t-32.5 12.5t-28.5 6q-12 0 -18.5 -4t-10 -9t-4 -11t-0.5 -9h-50z" />
<glyph unicode="&#x2dd;" horiz-adv-x="271" d="M-74 610l80 125h157l-131 -125h-106zM107 610l80 125h157l-131 -125h-106z" />
<glyph unicode="&#x37e;" horiz-adv-x="292" d="M82 -152l51 152h-45v153h147v-153l-84 -152h-69zM88 386v153h147v-153h-147z" />
<glyph unicode="&#x394;" horiz-adv-x="559" d="M1 0l202 706h158l196 -706h-556zM199 124h157l-78 363z" />
<glyph unicode="&#x3a9;" horiz-adv-x="581" d="M43 0v125h142q-64 35 -93.5 89.5t-29.5 146.5v136q0 115 54 167t175 52q120 0 174 -52t54 -167v-136q0 -85 -26.5 -141.5t-96.5 -94.5h142v-125h-220v127q21 18 24.5 60t3.5 114v186q0 31 -3 49.5t-10 29t-17 14t-25 3.5t-25.5 -3.5t-17.5 -14t-10 -29t-3 -49.5v-186 q0 -55 1.5 -86t4.5 -47.5t8.5 -24t13.5 -16.5v-127h-220z" />
<glyph unicode="&#x3bc;" d="M42 -187v718h158v-374q0 -49 47 -49q49 0 49 54v369h158v-448q0 -17 1 -28.5t3 -20.5t7 -16.5t12 -17.5h-176l-5 58q-11 -36 -24.5 -50t-37.5 -14q-21 0 -34 14v-195h-158z" />
<glyph unicode="&#x3c0;" horiz-adv-x="554" d="M36 429v102h476v-102h-35v-272q0 -21 2 -33.5t7.5 -19t15 -8.5t24.5 -2v-95q-23 0 -37 -0.5t-21 -0.5q-40 0 -68.5 7t-46.5 24t-26 46t-8 72v282h-85v-429h-160v429h-38z" />
<glyph unicode="&#x2013;" horiz-adv-x="493" d="M28 235v122h437v-122h-437z" />
<glyph unicode="&#x2014;" horiz-adv-x="664" d="M28 235v122h608v-122h-608z" />
<glyph unicode="&#x2018;" horiz-adv-x="250" d="M55 401v153l80 152h67l-46 -152h46v-153h-147z" />
<glyph unicode="&#x2019;" horiz-adv-x="250" d="M51 402l46 152h-46v152h147v-152l-80 -152h-67z" />
<glyph unicode="&#x201a;" horiz-adv-x="250" d="M41 -152l56 152h-45v152h145v-152l-88 -152h-68z" />
<glyph unicode="&#x201c;" horiz-adv-x="437" d="M48 401v151l89 154h69l-56 -154h43v-151h-145zM246 401v151l87 154h69l-55 -154h44v-151h-145z" />
<glyph unicode="&#x201d;" horiz-adv-x="437" d="M36 403l56 153h-46v150h146v-150l-87 -153h-69zM233 403l56 153h-45v150h146v-150l-89 -153h-68z" />
<glyph unicode="&#x201e;" horiz-adv-x="437" d="M36 -152l56 152h-46v152h145v-152l-86 -152h-69zM233 -152l56 152h-45v152h146v-152l-89 -152h-68z" />
<glyph unicode="&#x2020;" horiz-adv-x="542" d="M41 379v133h153v194h157v-194h153v-133h-153v-492h-157v492h-153z" />
<glyph unicode="&#x2021;" horiz-adv-x="542" d="M41 79v133h153v187h-153v133h153v174h157v-174h153v-133h-153v-187h153v-133h-153v-192h-157v192h-153z" />
<glyph unicode="&#x2022;" horiz-adv-x="333" d="M49 225v246h234v-246h-234z" />
<glyph unicode="&#x2026;" horiz-adv-x="1000" d="M107 0v133h120v-133h-120zM440 0v133h120v-133h-120zM773 0v133h120v-133h-120z" />
<glyph unicode="&#x2030;" horiz-adv-x="1126" d="M27 383v202q0 28 4.5 52t19.5 41.5t43.5 27.5t76.5 10q45 0 72.5 -9.5t42 -25.5t19 -36.5t4.5 -43.5v-211q0 -67 -31 -98t-103 -31q-50 0 -79.5 11t-44.5 28.5t-19.5 39.5t-4.5 43zM133 375q0 -15 6 -23.5t29 -8.5q24 0 30.5 9t6.5 23v229q0 20 -7.5 27t-30.5 7 q-13 0 -20 -3.5t-10 -9t-3.5 -11t-0.5 -10.5v-229zM241 0l233 706h71l-233 -706h-71zM482 114v202q0 28 4.5 52t19.5 42t43.5 28t76.5 10q45 0 72.5 -9.5t42 -26t19 -37t4.5 -43.5v-211q0 -67 -31 -98t-103 -31q-50 0 -79.5 11t-44.5 28.5t-19.5 39.5t-4.5 43zM589 106 q0 -15 6 -23.5t29 -8.5q24 0 30.5 9t6.5 23v229q0 20 -7.5 27.5t-30.5 7.5q-13 0 -20 -4t-10 -9t-3.5 -11t-0.5 -11v-229zM816 114v202q0 28 4.5 52t19.5 42t43.5 28t76.5 10q45 0 72.5 -9.5t42 -26t19 -37t4.5 -43.5v-211q0 -67 -31 -98t-103 -31q-50 0 -79.5 11 t-44.5 28.5t-19.5 39.5t-4.5 43zM923 106q0 -15 6 -23.5t29 -8.5q24 0 30.5 9t6.5 23v229q0 20 -7.5 27.5t-30.5 7.5q-13 0 -20 -4t-10 -9t-3.5 -11t-0.5 -11v-229z" />
<glyph unicode="&#x2039;" horiz-adv-x="208" d="M27 253v121l143 116v-126l-59 -48l59 -51v-128z" />
<glyph unicode="&#x203a;" horiz-adv-x="208" d="M38 139v128l57 47l-57 52v126l142 -117v-120z" />
<glyph unicode="&#x2044;" horiz-adv-x="125" d="M-95 0l240 706h73l-240 -706h-73z" />
<glyph unicode="&#x20ac;" horiz-adv-x="520" d="M17 258l26 80h40v41h-66l26 80h39v42q0 66 18 108.5t50 67t77.5 33.5t99.5 9q53 0 97 -8t89 -37l-45 -130q-26 29 -54.5 40.5t-66.5 11.5q-36 0 -55 -10.5t-28 -29t-10.5 -43.5t-1.5 -54h187l-27 -80h-160v-41h146l-28 -80h-118v-46q0 -47 22.5 -69.5t71.5 -22.5 q37 0 68.5 14t59.5 38v-150q-45 -17 -85.5 -24t-88.5 -7q-21 0 -45.5 2t-48.5 7.5t-45.5 16t-36.5 27.5q-14 16 -22.5 36.5t-13 43t-5.5 46t-1 45.5v43h-65z" />
<glyph unicode="&#x2122;" horiz-adv-x="642" d="M8 638v68h231v-68h-69v-264h-90v264h-72zM263 374v332h130l41 -183l40 183h122v-332h-81q0 29 0.5 71.5t0.5 83.5v98l-48 -253h-71l-53 257q1 -62 2 -115q0 -22 0.5 -44.5t0.5 -42v-34v-21.5h-84z" />
<glyph unicode="&#x2202;" horiz-adv-x="502" d="M35 220q0 51 13 92.5t36 71t56 45.5t73 16q33 0 59.5 -11.5t49.5 -34.5v23q0 94 -23.5 135t-78.5 41q-15 0 -29 -2t-41 -8l-9 117q28 6 52 9t50 3q115 0 170.5 -78t55.5 -241q0 -97 -14.5 -173t-43 -128.5t-71.5 -80.5t-100 -28q-46 0 -84 16.5t-65 47t-41.5 73.5 t-14.5 95zM171 216q0 -52 19 -84t49 -32q34 0 50.5 46t18.5 131q-33 52 -73 52q-29 0 -46.5 -30.5t-17.5 -82.5z" />
<glyph unicode="&#x2206;" horiz-adv-x="559" d="M1 0l202 706h158l196 -706h-556zM199 124h157l-78 363z" />
<glyph unicode="&#x220f;" horiz-adv-x="618" d="M61 -122v828h496v-828h-166v704h-164v-704h-166z" />
<glyph unicode="&#x2211;" horiz-adv-x="496" d="M29 2l186 306l-186 278v120h435v-124h-250l184 -273l-194 -306h260v-125h-435v124z" />
<glyph unicode="&#x221a;" horiz-adv-x="559" d="M17 161l191 66l64 -200l129 679h136l-179 -891h-152l-83 256l-64 -24z" />
<glyph unicode="&#x221e;" horiz-adv-x="559" d="M8 285q0 46 10.5 85t30 67t46.5 43.5t61 15.5q39 0 68 -22t60 -75q30 51 61.5 74t73.5 23q61 0 96.5 -51.5t35.5 -136.5q0 -47 -10 -86t-28.5 -66.5t-45 -43t-60.5 -15.5q-42 0 -72 21t-62 72l-6 -10q-31 -46 -58 -65t-66 -19q-63 0 -99 50.5t-36 138.5zM123 291 q0 -31 8 -48t22 -17t27.5 15t35.5 53q-20 40 -32.5 55t-26.5 15q-16 0 -25 -19.5t-9 -53.5zM342 293q21 -41 33.5 -55.5t26.5 -14.5q16 0 26 20t10 53q0 31 -9 48.5t-23 17.5t-27.5 -15.5t-36.5 -53.5z" />
<glyph unicode="&#x222b;" horiz-adv-x="338" d="M15 -27q15 -11 23.5 -14.5t19.5 -3.5q20 0 26.5 13.5t6.5 54.5v492q0 48 6 85.5t21.5 63t43.5 39t73 13.5q20 0 37.5 -3.5t40.5 -12.5v-133q-15 12 -24 16t-19 4q-20 0 -26 -13.5t-6 -51.5v-501q0 -40 -5 -76t-20 -63t-43.5 -42.5t-76.5 -15.5q-22 0 -38.5 3.5 t-39.5 12.5v133z" />
<glyph unicode="&#x2248;" horiz-adv-x="561" d="M53 218q34 42 63 59.5t69 17.5q16 0 32.5 -4t42.5 -13l48 -18q22 -8 34 -10t21 -2q21 0 38.5 11.5t41.5 40.5l65 -108q-34 -40 -65.5 -58.5t-66.5 -18.5q-16 0 -35.5 4.5t-50.5 15.5l-25 10q-21 8 -35.5 12t-27.5 4q-23 0 -41 -11t-44 -42zM53 431q34 42 63 59.5t69 17.5 q16 0 32.5 -4t42.5 -13l48 -18q22 -8 34 -10t21 -2q21 0 38.5 11.5t41.5 40.5l65 -108q-34 -40 -65.5 -58.5t-66.5 -18.5q-16 0 -35.5 4.5t-50.5 15.5l-25 10q-21 8 -35.5 12t-27.5 4q-23 0 -41 -11t-44 -42z" />
<glyph unicode="&#x2260;" horiz-adv-x="546" d="M79 144v122h122l37 90h-159v123h207l47 117h110l-48 -117h72v-123h-120l-36 -90h156v-122h-205l-51 -129h-109l51 129h-74z" />
<glyph unicode="&#x2264;" horiz-adv-x="559" d="M87 0v126h362v-126h-362zM87 346v133l362 195v-141l-223 -115l223 -110v-156z" />
<glyph unicode="&#x2265;" horiz-adv-x="559" d="M109 0v126h362v-126h-362zM109 153v141l224 115l-224 111v155l362 -194v-133z" />
<glyph unicode="&#x25ca;" horiz-adv-x="559" d="M63 353l153 353h126l154 -353l-154 -353h-127zM202 354l77 -219l78 220l-76 217z" />
<glyph unicode="&#xe000;" horiz-adv-x="530" d="M0 0v530h530v-530h-530z" />
</font>
</defs>
</svg>
