<?xml version="1.0" standalone="no"?>
<!DOCTYPE svg PUBLIC "-//W3C//DTD SVG 1.1//EN" "http://www.w3.org/Graphics/SVG/1.1/DTD/svg11.dtd" >
<svg xmlns="http://www.w3.org/2000/svg">
<metadata></metadata>
<defs>
<font id="akzidenz-grotesk_std_bold_cRg" horiz-adv-x="396" >
<font-face units-per-em="1000" ascent="750" descent="-250" />
<missing-glyph horiz-adv-x="229" />
<glyph unicode="&#xfb01;" horiz-adv-x="458" d="M11 433v79h54v79q0 38 9 60.5t26.5 35.5t41.5 17t54 4q11 0 22.5 -0.5t22.5 -1.5v-98q-8 1 -14.5 1.5t-11.5 0.5q-20 0 -25.5 -11t-5.5 -24v-63h52v-79h-53v-433h-119v433h-53zM294 0v512h120v-512h-120zM294 586v120h120v-120h-120z" />
<glyph unicode="&#xfb02;" horiz-adv-x="458" d="M11 433v79h54v79q0 38 9 60.5t26.5 35.5t41.5 17t54 4q11 0 22.5 -0.5t22.5 -1.5v-98q-8 1 -14.5 1.5t-11.5 0.5q-20 0 -25.5 -11t-5.5 -24v-63h52v-79h-53v-433h-119v433h-53zM294 0v706h120v-706h-120z" />
<glyph horiz-adv-x="1000" />
<glyph horiz-adv-x="1000" />
<glyph unicode="&#xd;" horiz-adv-x="229" />
<glyph unicode=" "  horiz-adv-x="229" />
<glyph unicode="&#x09;" horiz-adv-x="229" />
<glyph unicode="&#xa0;" horiz-adv-x="229" />
<glyph unicode="!" horiz-adv-x="229" d="M75 0v132h119v-132h-119zM78 387v319h113v-313l-19 -203h-78z" />
<glyph unicode="&#x22;" horiz-adv-x="300" d="M25 741h104l-34 -289h-33zM171 741h105l-34 -289h-33z" />
<glyph unicode="#" horiz-adv-x="537" d="M15 220v96h126l8 89h-122v96h132l19 205h96l-19 -205h71l19 205h96l-20 -205h101v-96h-109l-9 -89h106v-96h-114l-21 -220h-95l20 220h-71l-21 -220h-96l20 220h-117zM238 316h71l8 89h-72z" />
<glyph unicode="$" horiz-adv-x="417" d="M37 537q0 4 0.5 16.5t3.5 29t9.5 35t18.5 33.5q14 18 32.5 28t35.5 15.5t31 7t20 1.5v80h51v-80q11 -2 34 -7t47 -25q26 -20 38 -52t12 -94v-45h-112v66q0 26 -9 47t-41 21q-19 0 -30.5 -7t-17.5 -17.5t-7.5 -24t-1.5 -27.5q0 -23 8.5 -36t17.5 -23l157 -164 q27 -28 39 -59t12 -80q0 -36 -7 -67.5t-24 -55t-45 -39t-70 -20.5v-94h-51v94q-45 3 -73.5 16.5t-45 34.5t-22.5 49.5t-6 61.5v78h110v-79q0 -23 6.5 -36t16 -20t20 -8.5t17.5 -1.5q22 0 34 9t18 21.5t7 27.5t1 27q0 36 -10 52.5t-22 28.5l-141 144q-26 27 -43.5 57 t-17.5 81z" />
<glyph unicode="%" horiz-adv-x="708" d="M26 328v226q0 35 9.5 57.5t25.5 35.5t37.5 18.5t46.5 5.5q57 0 89 -25t32 -85v-235q0 -51 -30 -79.5t-88 -28.5q-25 0 -47.5 4.5t-39 17t-26 34t-9.5 54.5zM106 320q0 -20 9 -29t31 -9q18 0 28.5 8.5t10.5 34.5v237q0 20 -5.5 33.5t-33.5 13.5q-15 0 -23 -4t-11.5 -11 t-4.5 -15.5t-1 -17.5v-241zM190 -23l266 738l63 -23l-265 -737zM443 104v226q0 35 9.5 57.5t25.5 35.5t37.5 18.5t46.5 5.5q57 0 89 -25t32 -85v-235q0 -51 -30 -79.5t-88 -28.5q-25 0 -47.5 4.5t-39 17t-26 34t-9.5 54.5zM523 96q0 -20 9 -29t31 -9q18 0 28.5 8.5 t10.5 34.5v237q0 20 -5.5 33.5t-33.5 13.5q-15 0 -23 -4t-11.5 -11t-4.5 -15.5t-1 -17.5v-241z" />
<glyph unicode="&#x26;" horiz-adv-x="521" d="M27 182q0 47 16.5 85t37.5 66.5t41 47t28 26.5q-6 10 -14.5 27.5t-17 39.5t-14.5 47t-6 50q0 65 38 106t108 41q22 0 46 -6.5t44 -21t33 -39t13 -60.5q0 -32 -9 -59.5t-23.5 -51.5t-33 -46t-37.5 -44l92 -181q11 26 15.5 50.5t5.5 60.5h103q-2 -43 -8 -75t-14.5 -57 t-19 -44t-22.5 -36q6 -7 12 -12t14 -8t20 -4.5t31 -1.5v-85q-6 -1 -22 -3.5t-35 -2.5q-38 0 -59 12.5t-33 24.5q-18 -10 -33.5 -17.5t-31 -12.5t-32.5 -7.5t-37 -2.5q-48 0 -85 15.5t-61.5 42t-37 62t-12.5 74.5zM144 181q0 -36 24 -61.5t62 -25.5q11 0 28.5 3.5t40.5 17.5 l-103 187q-21 -27 -36.5 -55t-15.5 -66zM204 577q0 -12 3.5 -26t8 -25.5t8 -19.5t4.5 -10l28 41q13 20 16 31.5t3 21.5q0 22 -12.5 29t-20.5 7q-20 0 -29 -16t-9 -33z" />
<glyph unicode="'" horiz-adv-x="154" d="M25 741h104l-34 -289h-33z" />
<glyph unicode="(" horiz-adv-x="292" d="M54 89v411q0 52 18 94t48 75.5t69.5 59.5t82.5 45v-93q-60 -34 -79.5 -85.5t-19.5 -115.5v-397q0 -31 6 -56t18.5 -46t31 -39.5t43.5 -36.5v-87q-103 36 -160.5 106t-57.5 165z" />
<glyph unicode=")" horiz-adv-x="292" d="M20 -89q30 16 49.5 38t30.5 47.5t15 54.5t4 61v397q0 33 -6.5 57.5t-19 45t-31 38t-42.5 37.5v87q26 -8 49.5 -21t45.5 -29q60 -44 91.5 -95.5t31.5 -126.5v-411q0 -52 -17.5 -94t-47.5 -75.5t-69.5 -59t-83.5 -44.5v93z" />
<glyph unicode="*" horiz-adv-x="378" d="M20 550l25 83l98 -28v103h87v-104l100 34l28 -81l-98 -34l60 -79l-68 -53l-64 83l-58 -83l-70 51l56 80z" />
<glyph unicode="+" horiz-adv-x="558" d="M82 249v100h138v157h119v-157h137v-100h-137v-158h-119v158h-138z" />
<glyph unicode="," horiz-adv-x="187" d="M26 -135l68 135h-58v129h117v-129l-83 -135h-44z" />
<glyph unicode="-" horiz-adv-x="314" d="M33 242v99h248v-99h-248z" />
<glyph unicode="." horiz-adv-x="187" d="M35 0v129h117v-129h-117z" />
<glyph unicode="/" horiz-adv-x="250" d="M12 0l130 706h98l-129 -706h-99z" />
<glyph unicode="0" d="M29 152v367q0 42 14 71.5t37 48t53 27t63 8.5q85 0 127.5 -39.5t42.5 -124.5v-358q0 -35 -9.5 -64.5t-30 -51t-51.5 -33.5t-74 -12q-58 0 -92 15.5t-52 39t-23 52t-5 54.5zM144 143q0 -24 9.5 -43t42.5 -19t44 19t11 51v361q0 17 -1.5 31t-7 23.5t-16 15t-27.5 5.5 q-20 0 -31 -6.5t-16.5 -17t-6.5 -22.5t-1 -24v-374z" />
<glyph unicode="1" d="M48 466v92q4 2 17 5t31.5 14t42 31.5t48.5 56.5h78v-665h-117v507q-7 -6 -29 -19.5t-71 -21.5z" />
<glyph unicode="2" d="M21 0q0 57 6.5 97t21 73t38 63t56.5 63q38 37 59 59t31.5 37t13 27.5t2.5 31.5v76q0 58 -49 58q-18 0 -29 -5.5t-17 -14.5t-8 -20.5t-2 -23.5v-79h-109v84q0 77 42.5 112.5t116.5 35.5q35 0 65.5 -7t54 -24t37 -44.5t13.5 -68.5v-88q0 -26 -4 -45.5t-14 -37.5 t-25.5 -36.5t-38.5 -41.5l-59 -59q-13 -13 -26 -26.5t-23.5 -28.5t-17 -31.5t-6.5 -35.5h221v-100h-350z" />
<glyph unicode="3" d="M29 128v81h115v-71q0 -25 10.5 -41.5t46.5 -16.5q27 0 38.5 15t11.5 39v100q0 44 -16.5 63t-69.5 19h-24v78h18q52 0 70 18.5t18 63.5v50q0 8 -1 18t-5.5 18.5t-15 14.5t-29.5 6q-20 0 -35.5 -10t-15.5 -38v-69h-110v82q0 34 13.5 58t36.5 39t53 22t63 7q44 0 74.5 -11.5 t50 -30t28.5 -43.5t9 -52v-75q0 -27 -5.5 -45t-17 -29.5t-29.5 -18t-43 -10.5q25 -5 43.5 -9.5t31 -15.5t18.5 -31.5t6 -56.5v-103q0 -30 -9 -57.5t-29 -48.5t-52 -33.5t-78 -12.5q-35 0 -66 9t-54 26t-36.5 43t-13.5 59z" />
<glyph unicode="4" d="M21 126v93l171 449h139v-449h40v-93h-40v-126h-107v126h-203zM119 219h105q0 7 0.5 25t1 42.5t1 53.5t1.5 58q2 69 3 152z" />
<glyph unicode="5" d="M29 138v69h114v-75q0 -26 14 -38t37 -12q20 0 31 6t16 15t6.5 18.5t1.5 15.5v176q0 28 -12 45.5t-41 17.5q-6 0 -15.5 -2t-19.5 -9t-18 -20.5t-11 -35.5h-91q1 91 3 166q1 32 1.5 63.5t1 58t1 44.5t0.5 24h309v-100h-216q0 -8 -0.5 -31t-0.5 -46q0 -27 -1 -60 q12 10 37.5 22.5t61.5 12.5q33 0 57 -10.5t40 -28t24 -41.5t8 -51v-179q0 -49 -13.5 -80.5t-36.5 -49.5t-52.5 -25t-61.5 -7q-92 0 -133 40t-41 107z" />
<glyph unicode="6" d="M31 136v394q0 72 45.5 108t125.5 36q35 0 64.5 -6.5t50.5 -22.5t33 -42t12 -64v-50h-110v39q0 11 -1.5 21t-6.5 18t-15 13t-28 5q-33 0 -44.5 -17t-11.5 -45v-135q6 5 15.5 12t22.5 13.5t30 11t38 4.5q36 0 58.5 -12t35.5 -31t18 -42t5 -44v-155q0 -13 -3 -38.5 t-18.5 -51t-49.5 -45t-97 -19.5q-28 0 -58 6.5t-55 23t-40.5 44.5t-15.5 71zM145 159q0 -10 1 -23.5t6 -25.5t16.5 -20t32.5 -8q20 0 30.5 7t15 16.5t5.5 20t1 16.5v120q0 11 -1 24t-5.5 23.5t-15 17.5t-30.5 7q-21 0 -32.5 -8t-16.5 -18.5t-6 -22t-1 -17.5v-109z" />
<glyph unicode="7" d="M19 489v176h359v-99q-27 -46 -55.5 -108t-52 -134.5t-38.5 -154.5t-15 -169h-125q2 68 19 145.5t42.5 154t57 146t61.5 121.5h-156v-78h-97z" />
<glyph unicode="8" d="M27 143v85q0 31 5 51.5t14.5 34.5t24.5 23t35 18q-14 6 -26.5 14t-22 20t-15 30t-5.5 43v70q0 44 14 71.5t37 43.5t52 21.5t58 5.5q46 0 76.5 -10.5t49 -30t26.5 -46t8 -58.5v-59q0 -24 -3 -41.5t-10.5 -30.5t-21.5 -23t-35 -20q44 -16 60.5 -43t16.5 -69v-103 q0 -39 -13.5 -67.5t-36 -46.5t-53 -26.5t-63.5 -8.5q-45 0 -77.5 11.5t-53.5 31.5t-31 48t-10 61zM143 143q0 -22 6.5 -34.5t15.5 -18t18 -6.5t14 -1q30 0 42.5 16.5t12.5 43.5v103q0 11 -1.5 22.5t-7 21t-16 16t-29.5 6.5q-21 0 -32 -7t-16 -17.5t-6 -21.5t-1 -20v-103z M147 452q0 -32 13 -44.5t39 -12.5q18 0 28 6t14.5 15t5.5 20.5t1 22.5v69q0 5 -1 14.5t-5.5 18.5t-14.5 15.5t-29 6.5q-7 0 -16 -2t-17 -7.5t-13 -15t-5 -25.5v-81z" />
<glyph unicode="9" d="M26 126v53h115v-42q0 -12 2 -22.5t7.5 -18.5t16 -12.5t27.5 -4.5q26 0 41 12t15 45v141q-6 -5 -15 -11.5t-21.5 -12.5t-28.5 -10.5t-36 -4.5q-36 0 -59.5 10t-38 26.5t-20 37.5t-5.5 43v164q0 81 41.5 118t131.5 37q47 0 79 -11.5t51 -31t27 -46t8 -57.5v-386 q0 -80 -47 -115.5t-129 -35.5q-31 0 -60.5 7t-52 22.5t-36 41.5t-13.5 64zM141 402q0 -12 1 -24.5t5.5 -23t15.5 -17.5t30 -7q21 0 33 7t17 17.5t6 23t1 24.5v122q0 9 -1.5 20t-7 20.5t-16 15.5t-28.5 6q-21 0 -32.5 -7t-16.5 -17.5t-6 -22t-1 -21.5v-116z" />
<glyph unicode=":" horiz-adv-x="229" d="M76 0v130h120v-130h-120zM76 381v131h120v-131h-120z" />
<glyph unicode=";" horiz-adv-x="229" d="M67 -135l71 135h-63v130h119v-130l-82 -135h-45zM75 382v130h119v-130h-119z" />
<glyph unicode="&#x3c;" horiz-adv-x="559" d="M87 269v107l358 195v-114l-249 -130l249 -127v-124z" />
<glyph unicode="=" horiz-adv-x="559" d="M85 162v98h389v-98h-389zM85 354v98h389v-98h-389z" />
<glyph unicode="&#x3e;" horiz-adv-x="559" d="M114 76v113l249 131l-249 127v124l358 -194v-106z" />
<glyph unicode="?" horiz-adv-x="417" d="M65 463v74q0 32 3.5 64t19.5 57.5t49.5 41t93.5 15.5q33 0 62 -6t50 -21.5t33 -43t12 -71.5v-52q0 -27 -6 -53.5t-16 -40.5l-68 -99q-15 -21 -23.5 -35.5t-13 -27t-5.5 -24.5t-1 -29v-22h-113v35q0 23 2 38.5t6 27.5t10.5 22.5t15.5 24.5l66 102q6 10 11.5 18t9 16.5 t5.5 20t2 27.5v63q0 4 -1 12t-5.5 16.5t-13.5 14.5t-25 6q-29 0 -39 -15t-10 -39v-117h-111zM142 0v130h116v-130h-116z" />
<glyph unicode="@" horiz-adv-x="834" d="M38 233q0 101 35 188.5t96 152.5t144 102.5t178 37.5q67 0 122.5 -20.5t95.5 -58t62 -89t22 -114.5q0 -71 -20 -137t-53.5 -116.5t-77.5 -80.5t-91 -30q-36 0 -59.5 18t-29.5 50q-56 -68 -126 -68q-63 0 -99 44t-36 120q0 58 18 111t48.5 93t70.5 64t84 24q31 0 55 -12 t48 -48l10 40h89l-35 -159q-17 -76 -24 -113.5t-7 -52.5q0 -27 20 -27q19 0 44 27q20 21 36 49.5t27 60.5t17.5 67t6.5 69q0 101 -58.5 157.5t-162.5 56.5q-74 0 -140 -32.5t-116 -87.5t-79.5 -128t-29.5 -155q0 -67 22 -119t61 -88t92.5 -54.5t116.5 -18.5q87 0 170 37 t155 109l45 -62q-21 -19 -36.5 -32.5t-29 -24t-27 -19.5t-29.5 -18q-60 -35 -120.5 -51.5t-132.5 -16.5q-33 0 -63 4t-57 12q-121 35 -186.5 121t-65.5 218zM304 240q0 -38 16 -60t45 -22q24 0 46.5 17t40 44.5t28 62t10.5 69.5q0 38 -18 61t-48 23q-23 0 -44.5 -16.5 t-38.5 -43.5t-27 -62t-10 -73z" />
<glyph unicode="A" horiz-adv-x="437" d="M10 0l137 706h149l132 -706h-132l-17 115h-120l-19 -115h-130zM175 224h90l-43 303z" />
<glyph unicode="B" horiz-adv-x="479" d="M50 0v706h230q76 0 112 -32t36 -112v-63q0 -54 -17 -82.5t-66 -36.5q31 -6 49 -16t27 -26t11.5 -37.5t2.5 -49.5v-102q0 -42 -8 -70.5t-26.5 -46t-49 -25t-74.5 -7.5h-227zM180 102h56q18 0 31.5 1.5t22.5 8.5t13.5 21.5t4.5 39.5v83q0 41 -14 55t-52 14h-62v-223z M180 427h50q17 0 30 1.5t21.5 8.5t13 20t4.5 35v51q0 38 -16.5 50t-50.5 12h-52v-178z" />
<glyph unicode="C" horiz-adv-x="458" d="M45 134v416q0 83 45.5 127t151.5 44q42 0 76.5 -8.5t59 -26t38.5 -44t14 -62.5v-131h-128v89q0 20 -2.5 35.5t-9.5 26t-20 16t-35 5.5q-37 0 -48.5 -21t-11.5 -56v-378q0 -17 2.5 -32t9.5 -25.5t19.5 -16.5t32.5 -6q22 0 34.5 6t19 17.5t8 27.5t1.5 36v92h128v-117 q0 -35 -10 -65t-32.5 -51.5t-59.5 -34t-91 -12.5q-19 0 -51.5 3.5t-63.5 18.5t-54 45t-23 82z" />
<glyph unicode="D" horiz-adv-x="479" d="M50 0v706h230q75 0 116.5 -43.5t41.5 -127.5v-354q0 -54 -12.5 -89.5t-36 -55.5t-56.5 -28t-74 -8h-209zM180 103h54q44 0 59.5 16.5t15.5 59.5v352q0 42 -15 57t-55 15h-59v-500z" />
<glyph unicode="E" horiz-adv-x="417" d="M50 0v706h342v-107h-212v-166h200v-107h-200v-217h222v-109h-352z" />
<glyph unicode="F" d="M50 0v706h346v-109h-215v-177h202v-105h-202v-315h-131z" />
<glyph unicode="G" horiz-adv-x="479" d="M44 125v418q0 98 53.5 138t147.5 40q34 0 67.5 -6.5t60.5 -21.5t43.5 -40.5t16.5 -64.5v-110h-130v75q0 12 -2 24t-8 21t-18 15t-33 6q-38 0 -52 -21.5t-14 -67.5v-380q0 -38 18 -51t44 -13q21 0 34 6t20 16.5t9 25.5t2 33v110h-80v106h210v-383h-111v42 q-17 -21 -35.5 -32.5t-35.5 -17t-31.5 -6.5t-23.5 -1q-43 0 -72 12.5t-47 32.5t-25.5 45t-7.5 50z" />
<glyph unicode="H" horiz-adv-x="479" d="M50 0v706h130v-277h119v277h130v-706h-130v323h-119v-323h-130z" />
<glyph unicode="I" horiz-adv-x="229" d="M50 0v706h129v-706h-129z" />
<glyph unicode="J" d="M1 129v95h121v-67q0 -35 9 -52t37 -17q23 0 35 14.5t12 56.5v547h131v-554q0 -54 -16.5 -87t-42.5 -51t-58 -23.5t-63 -5.5q-30 0 -60 6t-53 22t-37.5 44t-14.5 72z" />
<glyph unicode="K" horiz-adv-x="458" d="M50 0v706h132v-275l141 275h134l-161 -305l165 -401h-141l-138 345v-345h-132z" />
<glyph unicode="L" horiz-adv-x="375" d="M50 0v706h130v-599h191v-107h-321z" />
<glyph unicode="M" horiz-adv-x="688" d="M50 0v706h212l83 -494l84 494h209v-706h-130q2 132 5 251q1 51 2 103.5t2 100.5t2 89t1 68l-114 -612h-121l-117 612q2 -126 4 -241q1 -49 2 -101t1.5 -101t1.5 -92.5t1 -76.5h-128z" />
<glyph unicode="N" horiz-adv-x="500" d="M50 0v706h167l127 -518q-3 121 -6 225q-1 44 -2 89t-2 85t-2 71t-1 48h119v-706h-164l-125 529q2 -95 4 -189q1 -40 2 -84t1.5 -88t1.5 -87t2 -81h-122z" />
<glyph unicode="O" horiz-adv-x="479" d="M44 148v399q0 39 9.5 71.5t32.5 55t61 35t95 12.5q89 0 141 -39.5t52 -122.5v-409q0 -46 -14.5 -78t-40 -51t-61 -27.5t-78.5 -8.5q-45 0 -81.5 9t-62 28.5t-39.5 50.5t-14 75zM174 173q0 -15 1.5 -30.5t7.5 -27.5t19.5 -20t37.5 -8t37 8t19 20.5t7 27t1 27.5v364 q0 14 -1 29.5t-7 28.5t-18.5 21.5t-36.5 8.5q-25 0 -38.5 -9t-20 -23t-7.5 -30t-1 -31v-356z" />
<glyph unicode="P" horiz-adv-x="458" d="M50 0v706h261q44 0 68.5 -14.5t36 -37t13.5 -51t2 -56.5v-93q0 -46 -5 -76.5t-20 -49t-42.5 -26.5t-72.5 -8h-110v-294h-131zM181 395h66q39 0 47.5 15t8.5 48v74q0 35 -8.5 52.5t-47.5 17.5h-66v-207z" />
<glyph unicode="Q" horiz-adv-x="479" d="M44 138v420q0 81 51 122t145 41q42 0 77 -8.5t61 -28.5t40.5 -52t14.5 -79v-406q0 -36 -5 -53t-14 -34l71 -74l-80 -79l-89 91q-14 -5 -36.5 -9t-51.5 -4q-83 0 -133.5 37t-50.5 116zM175 173q0 -16 1 -31t7 -27t18.5 -19t36.5 -7t37 8t19 22t7 33.5t1 42.5v346 q0 13 -1 27.5t-7 26.5t-18.5 19.5t-35.5 7.5q-24 0 -37.5 -8.5t-19.5 -20.5t-7 -26t-1 -26v-368z" />
<glyph unicode="R" horiz-adv-x="479" d="M50 0v706h260q66 0 96.5 -31t30.5 -97v-97q0 -26 -3.5 -46t-13.5 -35t-27.5 -24.5t-46.5 -14.5q32 -7 51 -21.5t29 -32.5t13 -36.5t3 -32.5v-144q0 -6 0.5 -19.5t3.5 -28t9 -27.5t17 -19h-143q-7 14 -13 27.5t-6 40.5v165q0 40 -11.5 59t-53.5 19h-65v-311h-130zM180 412 h68q34 0 47 14.5t13 50.5v70q0 35 -14.5 46.5t-43.5 11.5h-70v-193z" />
<glyph unicode="S" horiz-adv-x="458" d="M38 146v103h130v-97q0 -11 1.5 -23t7.5 -21.5t18.5 -16t34.5 -6.5q42 0 53.5 21.5t11.5 65.5v24q0 36 -11 55t-34 34l-123 82q-15 10 -30 22.5t-27 31.5t-19.5 46t-7.5 66v14q0 92 51.5 133t140.5 41q33 0 65.5 -8t58 -26t41.5 -47t16 -71v-70h-129v62q0 12 -2 23 t-8 19.5t-17.5 13.5t-30.5 5q-14 0 -25 -3t-18.5 -11.5t-11.5 -23.5t-4 -38q0 -12 1 -23t5 -21.5t12.5 -20.5t23.5 -21l127 -86q39 -26 62.5 -62t23.5 -84v-67q0 -36 -7.5 -68t-28.5 -56t-58.5 -38t-96.5 -14q-35 0 -70 6.5t-63 24.5t-45.5 49.5t-17.5 80.5z" />
<glyph unicode="T" d="M2 604v102h392v-102h-131v-604h-131v604h-130z" />
<glyph unicode="U" horiz-adv-x="479" d="M48 162v544h131v-525q0 -17 1.5 -32.5t7.5 -27t18.5 -18.5t33.5 -7q22 0 34 7.5t18 19.5t7 27.5t1 31.5v524h131v-547q0 -43 -11 -73t-29 -49t-40 -29.5t-43.5 -15.5t-40.5 -6t-31 -1q-91 0 -139.5 44.5t-48.5 132.5z" />
<glyph unicode="V" horiz-adv-x="417" d="M6 706h138l69 -467l64 467h133l-133 -706h-131z" />
<glyph unicode="W" horiz-adv-x="708" d="M12 706h135l71 -532l76 532h123l74 -532l74 532h132l-136 -706h-137l-68 482l-76 -482h-139z" />
<glyph unicode="X" horiz-adv-x="479" d="M14 0l156 376l-139 330h142l67 -199l68 199h142l-141 -334l156 -372h-143l-83 245l-84 -245h-141z" />
<glyph unicode="Y" horiz-adv-x="417" d="M1 706h137l72 -356l69 356h137l-141 -497v-209h-133v218z" />
<glyph unicode="Z" horiz-adv-x="417" d="M23 0v82l225 515h-196v109h344v-70l-231 -526h227v-110h-369z" />
<glyph unicode="[" horiz-adv-x="333" d="M50 -172v931h240v-89h-122v-752h123v-90h-241z" />
<glyph unicode="\" horiz-adv-x="250" d="M12 706h99l129 -706h-98z" />
<glyph unicode="]" horiz-adv-x="333" d="M43 670v89h241v-931h-240v90h122v752h-123z" />
<glyph unicode="^" horiz-adv-x="559" d="M51 358l174 348h110l173 -348h-122l-105 242l-107 -242h-123z" />
<glyph unicode="_" horiz-adv-x="500" d="M-10 -129h520v-92h-520v92z" />
<glyph unicode="`" horiz-adv-x="250" d="M15 706h153l67 -132h-87z" />
<glyph unicode="a" d="M32 125v35q0 29 4 48.5t13 33.5t24 24.5t37 21.5l124 62v39q0 32 -10 42t-32 10q-28 0 -34.5 -16.5t-6.5 -51.5v-19h-109v58q0 9 3 27.5t18.5 37t47.5 32.5t89 14q4 0 28.5 -2t52 -12.5t49.5 -33.5t22 -65v-311q0 -29 3 -57.5t20 -41.5h-125q-7 8 -10 17.5t-4 27.5 q-8 -8 -16.5 -18t-20.5 -18.5t-27.5 -14t-38.5 -5.5q-33 0 -53 11.5t-30.5 30.5t-14 43.5t-3.5 50.5zM148 135q0 -30 6 -43t22 -13q9 0 22 5t35 24v150l-58 -38q-18 -12 -22.5 -29.5t-4.5 -55.5z" />
<glyph unicode="b" horiz-adv-x="417" d="M44 0v706h119v-234q8 6 18.5 15t24 16.5t30 13t34.5 5.5q20 0 39.5 -7.5t34.5 -22t24.5 -35t9.5 -46.5v-298q0 -60 -30.5 -92t-79.5 -32q-6 0 -19 2t-28 8t-30.5 17.5t-27.5 30.5v-47h-119zM162 158q0 -12 1 -24.5t6 -22t15 -15.5t27 -6q18 0 27.5 7.5t14 18t5 22 t0.5 20.5v215q0 7 -0.5 17t-5 19t-13 15.5t-25.5 6.5q-19 0 -30 -7t-15.5 -17t-5.5 -21.5t-1 -20.5v-207z" />
<glyph unicode="c" d="M38 137v235q0 38 13 66t35.5 46.5t53 28t65.5 9.5q23 0 51 -5t53 -19.5t41.5 -41t16.5 -69.5v-69h-118v62q0 9 -1 19t-5.5 18.5t-13.5 14t-24 5.5q-29 0 -39 -17.5t-10 -51.5v-223q0 -26 8.5 -46.5t38.5 -20.5q14 0 23 6t14 15.5t7 21t2 23.5v59h118v-58 q0 -72 -39 -113.5t-123 -41.5q-167 0 -167 147z" />
<glyph unicode="d" horiz-adv-x="417" d="M39 118v287q0 16 5.5 36.5t18 38.5t34 30.5t53.5 12.5q33 0 57 -16t46 -36v235h119v-706h-119v50q-4 -6 -11.5 -16t-18.5 -20t-28 -17t-41 -7q-58 0 -86.5 34.5t-28.5 93.5zM157 148q0 -9 0.5 -19.5t5 -19t14 -14t26.5 -5.5q19 0 29 7.5t14.5 17.5t5.5 20.5t1 16.5v220 q0 6 -1 16t-5.5 19.5t-14.5 16.5t-29 7q-17 0 -26.5 -6.5t-14 -16.5t-5 -21.5t-0.5 -20.5v-218z" />
<glyph unicode="e" d="M38 155v216q0 72 43 111.5t121 39.5q74 0 116 -37t42 -100v-155h-203v-90q0 -57 44 -57q15 0 23 6t12.5 16t5.5 22t1 25v17h115v-42q0 -73 -43 -105t-114 -32q-49 0 -81 14t-50 37.5t-25 53t-7 60.5zM157 314h85v63q0 4 -0.5 12.5t-4.5 17t-12.5 15t-23.5 6.5 q-16 0 -25 -6t-13 -14.5t-5 -17t-1 -13.5v-63z" />
<glyph unicode="f" horiz-adv-x="250" d="M11 433v79h54v79q0 38 9 60.5t26.5 35.5t41.5 17t54 4q11 0 22.5 -0.5t22.5 -1.5v-98q-8 1 -14.5 1.5t-11.5 0.5q-20 0 -25.5 -11t-5.5 -24v-63h52v-79h-53v-433h-119v433h-53z" />
<glyph unicode="g" horiz-adv-x="417" d="M38 118v271q0 20 3.5 43t15 43t33 33.5t57.5 13.5q35 0 58.5 -14t47.5 -37v41h119v-532q0 -34 -7 -63.5t-26 -51.5t-53 -34.5t-88 -12.5q-77 0 -117 31t-40 109h118q0 -9 1 -18.5t5.5 -17.5t14 -13t25.5 -5q29 0 38.5 18.5t9.5 42.5v79q-6 -7 -14.5 -15.5t-20.5 -16 t-29 -13t-40 -5.5q-33 0 -54 9.5t-34 26t-18 39.5t-5 49zM156 142q0 -6 0.5 -15.5t5 -19t14 -16t27.5 -6.5q16 0 25.5 5.5t15 14t7 18.5t1.5 20v226q0 8 -0.5 19t-5 21t-14.5 16.5t-28 6.5t-27.5 -7.5t-14 -17t-5.5 -20t-1 -16.5v-229z" />
<glyph unicode="h" horiz-adv-x="417" d="M44 0v706h117v-235q5 5 13.5 14t21.5 17t30.5 14t39.5 6q54 0 80 -35t26 -86v-401h-118v364q0 26 -7 44.5t-37 18.5q-16 0 -25 -5.5t-14 -14t-6.5 -18.5t-1.5 -18v-371h-119z" />
<glyph unicode="i" horiz-adv-x="208" d="M44 0v512h120v-512h-120zM44 586v120h120v-120h-120z" />
<glyph unicode="j" horiz-adv-x="208" d="M-8 -74q18 0 29 3t16 10t6.5 18.5t1.5 28.5v526h119v-560q0 -23 -3.5 -45.5t-16 -41.5t-37 -30.5t-66.5 -11.5q-7 0 -19.5 0.5t-29.5 2.5v100zM45 587v119h119v-119h-119z" />
<glyph unicode="k" d="M44 0v706h118v-369l98 175h132l-131 -213l145 -299h-134l-110 261v-261h-118z" />
<glyph unicode="l" horiz-adv-x="208" d="M44 0v706h120v-706h-120z" />
<glyph unicode="m" horiz-adv-x="625" d="M44 0v512h120v-34q5 5 13.5 12t21 14.5t29 12.5t37.5 5t37 -6t27.5 -14t19.5 -17t12 -14q27 26 53.5 38.5t63.5 12.5q50 0 76.5 -30.5t26.5 -80.5v-411h-119v379q0 25 -7.5 42t-35.5 17q-15 0 -24 -6t-14.5 -15.5t-7 -21t-1.5 -22.5v-373h-119v380q0 23 -7.5 41.5 t-36.5 18.5q-46 0 -46 -61v-379h-119z" />
<glyph unicode="n" horiz-adv-x="417" d="M44 0v512h120v-37q23 23 45 35t57 12q29 0 49 -9.5t33 -24t18.5 -33t5.5 -36.5v-419h-117v377q0 29 -8 45t-33 16q-27 0 -39 -16t-12 -53v-369h-119z" />
<glyph unicode="o" d="M38 144v230q0 77 42 112.5t120 35.5q29 0 57.5 -6t51 -22t36 -43t13.5 -69v-250q0 -39 -13 -66t-35 -44t-52 -24.5t-65 -7.5q-70 0 -112.5 35t-42.5 119zM157 125q0 -5 0.5 -14t4.5 -17.5t12.5 -15t23.5 -6.5q16 0 24.5 6t12.5 14t4.5 17.5t0.5 16.5v260q0 11 -1 22 t-5.5 20t-12 14.5t-21.5 5.5q-16 0 -25 -6.5t-13 -16t-4.5 -20.5t-0.5 -20v-260z" />
<glyph unicode="p" horiz-adv-x="417" d="M44 -177v689h119v-39q4 4 13 12t23 16.5t32 14.5t39 6q50 0 79 -34t29 -87v-286q0 -25 -5.5 -48t-18 -40t-32.5 -27t-48 -10q-37 0 -61 15t-50 38v-220h-119zM163 144q0 -26 10.5 -41.5t37.5 -15.5q16 0 25.5 5.5t14.5 13.5t6.5 17.5t1.5 16.5v237q0 26 -11.5 41 t-35.5 15q-18 0 -28 -7t-14.5 -17t-5.5 -19.5t-1 -15.5v-230z" />
<glyph unicode="q" horiz-adv-x="417" d="M38 108v285q0 54 30 91.5t88 37.5q20 0 36 -5.5t28.5 -13t21 -15t13.5 -12.5v36h118v-689h-118v220q-30 -27 -52.5 -40.5t-57.5 -13.5q-29 0 -49.5 10.5t-33 28t-18.5 38.5t-6 42zM157 143q0 -7 0.5 -16.5t5 -18t14 -14.5t27.5 -6q19 0 29 7t14.5 19t5.5 26.5t1 29.5v215 q0 17 -5.5 27t-13 15t-15.5 7t-14 2q-24 0 -36.5 -14t-12.5 -34v-245z" />
<glyph unicode="r" horiz-adv-x="292" d="M44 0v512h119v-65q36 74 110 74h6v-118q-7 3 -16 5.5t-24 2.5q-26 0 -41.5 -9.5t-23.5 -25.5t-10 -35t-2 -39v-302h-118z" />
<glyph unicode="s" horiz-adv-x="375" d="M27 125v55h110v-44q0 -9 1 -19.5t5.5 -19.5t14 -15.5t25.5 -6.5q3 0 11 1t16 6t14 16.5t6 32.5q0 14 -1.5 23t-5 16.5t-10.5 13.5t-18 14l-99 70q-27 19 -44 48.5t-17 74.5q0 38 11.5 63.5t31.5 40.5t48.5 21t62.5 6q48 0 77 -11.5t44 -28.5t20 -38t5 -39v-57h-103v37 q0 22 -8.5 39t-35.5 17q-25 0 -33 -13t-8 -33q0 -19 8.5 -31.5t25.5 -24.5l110 -77q31 -22 40 -49t9 -65q0 -41 -7 -71t-25 -49.5t-48 -28.5t-77 -9q-28 0 -56 5t-50.5 19.5t-36 41t-13.5 69.5z" />
<glyph unicode="t" horiz-adv-x="271" d="M7 433v79h64v186h118v-186h71v-79h-71v-294q0 -29 12 -41.5t42 -12.5q5 0 10 0.5t10 1.5v-86q-10 -2 -24 -4t-37 -2q-37 0 -62 5.5t-40 18.5t-21.5 33t-6.5 49v332h-65z" />
<glyph unicode="u" horiz-adv-x="417" d="M44 107v405h119v-368q0 -12 1 -23t5.5 -19.5t13.5 -14t24 -5.5t24.5 5.5t14 14.5t6 21.5t1.5 26.5v362h120v-512h-120v42q-5 -4 -15 -13t-24 -17t-31.5 -14.5t-38.5 -6.5q-28 0 -47 9.5t-31 25t-17 36.5t-5 45z" />
<glyph unicode="v" horiz-adv-x="354" d="M1 512h119l53 -355l61 355h119l-123 -512h-116z" />
<glyph unicode="w" horiz-adv-x="562" d="M4 512h116l54 -338l60 338h97l54 -338l58 338h116l-116 -512h-112l-50 304l-60 -304h-113z" />
<glyph unicode="x" horiz-adv-x="375" d="M4 0l111 278l-90 234h123l44 -171l46 171h115l-92 -234l110 -278h-128l-58 207l-58 -207h-123z" />
<glyph unicode="y" horiz-adv-x="354" d="M1 512h118l66 -329l51 329h117l-117 -549q-8 -40 -17.5 -63.5t-22.5 -39.5q-14 -17 -36.5 -27t-66.5 -10q-23 0 -38.5 2.5t-38.5 6.5l18 94q6 -2 17 -4.5t28 -2.5q15 0 25.5 7t16.5 17.5t8.5 22t3.5 20.5l1 14z" />
<glyph unicode="z" horiz-adv-x="354" d="M24 0v100l179 316h-160v96h282v-96l-177 -316h185v-100h-309z" />
<glyph unicode="{" horiz-adv-x="354" d="M38 257v78q11 2 23.5 4.5t22.5 8.5q14 9 22 23.5t11.5 31t4.5 34t1 33.5v126q0 50 9.5 84t31.5 55t58 30t90 9h24v-75q-29 0 -48 -5t-30.5 -17t-16 -33.5t-4.5 -56.5v-107q0 -31 -2.5 -61t-12.5 -55t-30 -42.5t-55 -23.5v-5q33 -5 53 -21t30.5 -39t13.5 -50t3 -55v-122 q0 -35 4 -57t15 -34t30.5 -16.5t49.5 -5.5v-75h-24q-49 0 -84.5 7.5t-59 27.5t-34.5 55t-11 90v105q0 30 -1.5 56.5t-9.5 47.5t-25 34.5t-49 15.5z" />
<glyph unicode="|" horiz-adv-x="205" d="M46 -168v930h114v-930h-114z" />
<glyph unicode="}" horiz-adv-x="354" d="M19 -107q29 0 48.5 5t30.5 17t15.5 33.5t4.5 56.5v107q0 31 2.5 61t12.5 55t30 42.5t55 23.5v5q-33 5 -53 21t-30.5 39t-13.5 50t-3 55v122q0 35 -4 57t-15 34t-30.5 16.5t-49.5 5.5v75h24q49 0 84.5 -7.5t59 -27.5t34.5 -55t11 -90v-105q0 -30 1.5 -56.5t9.5 -47.5 t25 -34.5t49 -15.5v-78q-11 -2 -23.5 -4.5t-22.5 -8.5q-14 -9 -22 -23.5t-11.5 -31t-4.5 -34t-1 -33.5v-126q0 -50 -9.5 -84t-31.5 -55t-58 -30t-90 -9h-24v75z" />
<glyph unicode="~" horiz-adv-x="563" d="M56 309q35 43 64.5 59.5t66.5 16.5q16 0 32 -4t42 -14l51 -20q23 -9 34.5 -12t21.5 -3q22 0 39.5 11.5t40.5 42.5l59 -88q-31 -40 -60.5 -58t-64.5 -18q-22 0 -41.5 4.5t-52.5 18.5l-26 11q-23 10 -39.5 14.5t-30.5 4.5q-25 0 -41 -13t-37 -42z" />
<glyph unicode="&#xa1;" horiz-adv-x="229" d="M35 574v132h119v-132h-119zM38 0v313l19 203h78l16 -197v-319h-113z" />
<glyph unicode="&#xa2;" d="M39 136v242q0 47 16.5 74t39 42t46.5 20t39 7v83h50v-83q15 -1 38.5 -5.5t45.5 -18.5t37.5 -40.5t15.5 -73.5v-66h-118v65q0 53 -45 53q-18 0 -33 -10.5t-15 -47.5v-240q0 -33 13 -46t34 -13q17 0 26.5 6t14 14.5t5 18.5t0.5 19v67h117v-66q0 -16 -3 -40t-16.5 -47 t-40.5 -40.5t-76 -21.5v-99h-50v99q-49 6 -77 22.5t-42 38t-18 45t-4 42.5z" />
<glyph unicode="&#xa3;" horiz-adv-x="479" d="M22 72q0 38 25.5 61.5t62.5 23.5q10 0 22 -2.5t23 -6t19.5 -6.5t10.5 -4q2 5 5.5 13.5t3.5 22.5q0 17 -9 43t-28 61h-111v61h86q-18 38 -34.5 82.5t-16.5 107.5q0 45 13.5 78t37 54.5t55.5 31.5t69 10q86 0 131 -46t45 -127v-50h-115v42q0 15 -1.5 30t-7.5 27t-17 20 t-31 8q-10 0 -20.5 -3t-19.5 -12.5t-15 -27t-6 -46.5q0 -51 16.5 -92.5t35.5 -86.5h105v-61h-84q2 -8 5.5 -20t3.5 -32q0 -21 -3.5 -39.5t-8.5 -34.5t-10 -27.5t-8 -18.5q4 -2 11.5 -6.5t16.5 -8.5t18.5 -7t16.5 -3q14 0 22 7t12.5 17.5t6 22t1.5 21.5v48h101v-75 q0 -20 -4 -43.5t-16 -43.5t-34.5 -33.5t-59.5 -13.5q-6 0 -16.5 1t-26.5 5.5t-38.5 15t-51.5 29.5q-4 -4 -12 -12.5t-21 -17t-29.5 -15t-37.5 -6.5q-14 0 -29.5 4.5t-28.5 14.5t-21.5 26t-8.5 39zM79 68q0 -11 7.5 -17.5t18.5 -6.5q12 0 19.5 5.5t24.5 23.5q-7 6 -20 13.5 t-24 7.5q-9 0 -17.5 -6.5t-8.5 -19.5z" />
<glyph unicode="&#xa4;" horiz-adv-x="658" d="M26 107l77 80q-23 35 -34 70.5t-11 80.5t10.5 80t33.5 73l-75 79l80 83l75 -78q64 45 148 45q42 0 74.5 -10.5t70.5 -34.5l77 79l80 -84l-76 -79q24 -42 33.5 -76t9.5 -76q0 -43 -10 -78.5t-34 -74.5l77 -81l-81 -83l-77 81q-21 -13 -38.5 -21.5t-34.5 -13.5t-34.5 -7.5 t-37.5 -2.5q-43 0 -76 10.5t-71 35.5l-76 -80zM176 339q0 -35 12 -65.5t32.5 -53t48.5 -35t61 -12.5q32 0 59.5 13t48 35t32.5 52t12 65t-12 66t-32.5 53.5t-48 35.5t-59.5 13q-33 0 -61 -13t-48.5 -35.5t-32.5 -53t-12 -65.5z" />
<glyph unicode="&#xa5;" horiz-adv-x="417" d="M12 665h133l64 -316l60 316h135l-90 -314h79v-73h-99l-18 -57h117v-71h-120v-150h-131v150h-120v71h118l-16 57h-102v73h81z" />
<glyph unicode="&#xa6;" horiz-adv-x="205" d="M46 -168v402h114v-402h-114zM46 361v401h114v-401h-114z" />
<glyph unicode="&#xa7;" horiz-adv-x="437" d="M14 310q0 46 25 81t56 66q-11 13 -18 22.5t-11.5 21t-6.5 27t-2 40.5q0 45 13 74.5t35.5 46t53 23t66.5 6.5q29 0 58.5 -4t54 -17.5t40 -38.5t15.5 -67v-79h-114v59q0 32 -12.5 45.5t-42.5 13.5q-26 0 -37 -14.5t-11 -39.5q0 -17 6 -30t15 -23.5t20.5 -19.5t22.5 -19 l120 -103q29 -24 45 -53.5t16 -67.5q0 -25 -6.5 -45t-17 -38t-25 -34t-30.5 -33q16 -17 25.5 -31t14 -28.5t6 -31.5t1.5 -41q0 -83 -46 -118t-126 -35q-29 0 -59.5 5.5t-55.5 20.5t-41 41.5t-16 68.5v89h116v-72q0 -27 11.5 -44t41.5 -17q26 0 39 14t13 40q0 21 -2 34.5 t-8 23.5t-16.5 20t-27.5 24l-126 107q-30 26 -51 57t-21 73zM122 334q0 -9 2.5 -18.5t17.5 -26t47.5 -44.5t92.5 -75q10 11 22 28t12 36t-14 38t-37 39t-52 42.5t-59 47.5q-13 -17 -22.5 -33.5t-9.5 -33.5z" />
<glyph unicode="&#xa8;" horiz-adv-x="250" d="M-26 595v124h119v-124h-119zM157 595v124h119v-124h-119z" />
<glyph unicode="&#xa9;" horiz-adv-x="799" d="M44 353q0 74 28 139t76 113t113 76t139 28q75 0 140 -27.5t113 -75.5t75.5 -113t27.5 -140t-27.5 -140t-75.5 -113t-113.5 -75.5t-140.5 -27.5q-74 0 -138.5 28t-112.5 76t-76 113t-28 139zM90 352q0 -66 24 -123.5t66 -100t98.5 -67t120.5 -24.5q65 0 121.5 24.5 t98.5 67.5t66.5 100.5t24.5 124.5q0 66 -24 123.5t-66 100t-98.5 67t-121.5 24.5q-64 0 -120.5 -25t-98.5 -68t-66.5 -100.5t-24.5 -123.5zM260 277v158q0 86 34.5 120.5t106.5 34.5t102.5 -32.5t30.5 -109.5v-35h-92v40q0 29 -10 41.5t-33 12.5t-34.5 -11.5t-11.5 -56.5 v-169q0 -23 4 -36t10.5 -19t14.5 -7.5t17 -1.5q23 0 33 12t10 42v44h92v-39q0 -78 -30.5 -110.5t-102.5 -32.5t-106.5 34.5t-34.5 120.5z" />
<glyph unicode="&#xaa;" horiz-adv-x="229" d="M22 494v10q0 18 1.5 30t9 22t23 20t43.5 23l34 16v20q0 12 -3 20.5t-20 8.5q-16 0 -19 -12.5t-3 -22.5v-12h-61v23q0 21 7 35.5t19 22.5t27 11.5t30 3.5q14 0 29.5 -2.5t29 -10t22.5 -20.5t9 -34v-174q0 -10 1.5 -26t9.5 -26h-69q-5 8 -5.5 12.5t-2.5 13.5 q-14 -17 -25.5 -23t-28.5 -6q-21 0 -32.5 7t-17 18.5t-7 25t-1.5 26.5zM87 502q0 -14 2 -24.5t13 -10.5q6 0 15.5 5t14.5 10v80l-29 -20q-11 -8 -13.5 -15.5t-2.5 -24.5z" />
<glyph unicode="&#xab;" horiz-adv-x="313" d="M31 220v92l102 97v-97l-39 -45l39 -40v-100zM176 221v94l102 94v-97l-43 -45l43 -42v-98z" />
<glyph unicode="&#xac;" horiz-adv-x="559" d="M56 249v99h418v-285h-120v186h-298z" />
<glyph unicode="&#xad;" horiz-adv-x="314" d="M33 242v99h248v-99h-248z" />
<glyph unicode="&#xae;" horiz-adv-x="799" d="M44 353q0 74 28 139t76 113t113 76t139 28q75 0 140 -27.5t113 -75.5t75.5 -113t27.5 -140t-27.5 -140t-75.5 -113t-113.5 -75.5t-140.5 -27.5q-74 0 -138.5 28t-112.5 76t-76 113t-28 139zM90 352q0 -66 24 -123.5t66 -100t98.5 -67t120.5 -24.5q65 0 121.5 24.5 t98.5 67.5t66.5 100.5t24.5 124.5q0 66 -24 123.5t-66 100t-98.5 67t-121.5 24.5q-64 0 -120.5 -25t-98.5 -68t-66.5 -100.5t-24.5 -123.5zM262 130v449h150q66 0 93.5 -20.5t27.5 -70.5v-45q0 -36 -13.5 -57t-49.5 -31q38 -9 52.5 -29.5t14.5 -66.5v-72q0 -21 5 -33.5 t16 -23.5h-100q-8 12 -11 22.5t-3 30.5v84q0 32 -9 42.5t-38 10.5h-44v-190h-91zM353 396h44q26 0 36 10.5t10 36.5v23q0 37 -42 37h-48v-107z" />
<glyph unicode="&#xaf;" horiz-adv-x="250" d="M-19 590v81h288v-81h-288z" />
<glyph unicode="&#xb0;" horiz-adv-x="354" d="M16 594q0 33 12.5 62.5t34.5 51.5t51.5 34.5t62.5 12.5q34 0 63.5 -12.5t51 -34t34 -51t12.5 -64.5q0 -33 -12.5 -62.5t-34 -51t-51 -34.5t-63.5 -13t-63 13t-51 35t-34.5 51.5t-12.5 62.5zM98 596q0 -32 23.5 -55.5t55.5 -23.5q33 0 56 23t23 57q0 32 -23 55t-56 23 t-56 -23t-23 -56z" />
<glyph unicode="&#xb1;" horiz-adv-x="559" d="M83 0v101h394v-101h-394zM83 315v101h139v157h118v-157h137v-101h-137v-157h-118v157h-139z" />
<glyph unicode="&#xb2;" horiz-adv-x="292" d="M21 224v13q0 38 7 65t19.5 49t31 41t40.5 40q13 12 25 22t21 20.5t14.5 22.5t5.5 28v47q0 5 -1 11t-4.5 11.5t-10.5 9.5t-20 4q-21 0 -32 -8t-11 -31v-55h-76v56q0 54 31.5 77.5t80.5 23.5q123 0 123 -99v-55q0 -19 -2.5 -32t-12 -27t-27.5 -31.5t-50 -46.5 q-18 -16 -30 -27t-19 -20.5t-10 -18t-3 -20.5h159v-70h-249z" />
<glyph unicode="&#xb3;" horiz-adv-x="292" d="M25 328v38h81v-41q0 -17 6 -30.5t32 -13.5q27 0 34 11.5t7 29.5v60q0 11 -1 19.5t-6 15.5t-16 10.5t-31 3.5h-32v56h32q18 0 28.5 4.5t15.5 11.5t6.5 16t1.5 19v36q0 20 -10.5 26.5t-28.5 6.5q-23 0 -30.5 -10.5t-7.5 -29.5v-37h-77v41q0 100 119 100q53 0 84.5 -23 t31.5 -71v-42q0 -23 -8 -42.5t-43 -30.5q19 -2 29.5 -9t16 -17.5t6.5 -23t1 -26.5v-66q0 -37 -16 -57.5t-36.5 -30.5t-39.5 -12t-25 -2q-26 0 -49 5.5t-39.5 18.5t-26 34t-9.5 52z" />
<glyph unicode="&#xb4;" horiz-adv-x="250" d="M15 574l67 132h153l-133 -132h-87z" />
<glyph unicode="&#xb5;" horiz-adv-x="417" d="M44 -177v689h120v-384q0 -46 43 -46q46 0 46 57v373h120v-422q0 -40 4.5 -59.5t18.5 -30.5h-137l-3 42q-11 -24 -23.5 -34t-31.5 -10q-11 0 -19 3.5t-18 12.5v-191h-120z" />
<glyph unicode="&#xb6;" horiz-adv-x="597" d="M63 496q0 98 59 155q15 15 31 25.5t35.5 17t45 9.5t58.5 3h211v-79h-36v-794h-85v794h-91v-794h-85v468q-16 5 -23.5 7t-16.5 6q-48 21 -75.5 69t-27.5 113z" />
<glyph unicode="&#xb7;" horiz-adv-x="187" d="M35 216v130h117v-130h-117z" />
<glyph unicode="&#xb8;" horiz-adv-x="250" d="M25 -156q7 -1 17.5 -2t21.5 -1q28 0 37.5 10t9.5 18q0 11 -5 17t-11 9t-12 4t-8 1v123h44v-79h10q11 0 27.5 -2t31.5 -9.5t26 -21t11 -35.5q0 -8 -5 -24.5t-24 -29.5q-10 -7 -24.5 -10.5t-27.5 -5t-23 -2t-11 -0.5q-17 0 -28 0.5t-20 2t-17.5 3.5t-19.5 4v30z" />
<glyph unicode="&#xb9;" horiz-adv-x="292" d="M40 529v66q23 7 38 14t26.5 15.5t21 18.5t19.5 22h54v-441h-81v332q-15 -9 -34.5 -16t-43.5 -11z" />
<glyph unicode="&#xba;" horiz-adv-x="229" d="M25 504v127q0 24 7 39.5t19.5 24.5t29.5 13t36 4q50 0 68.5 -23t18.5 -60v-130q0 -25 -9 -41t-22.5 -25t-29 -12.5t-29.5 -3.5q-31 0 -48.5 9t-26.5 22t-11.5 28.5t-2.5 27.5zM93 498q0 -11 2.5 -22t18.5 -11q17 0 19.5 11.5t2.5 20.5v138q0 11 -2.5 23t-19.5 12 q-14 0 -17.5 -11t-3.5 -23v-138z" />
<glyph unicode="&#xbb;" horiz-adv-x="313" d="M34 127v97l43 45l-43 42v98l103 -94v-94zM179 127v97l40 45l-40 40v100l102 -93v-92z" />
<glyph unicode="&#xbc;" horiz-adv-x="708" d="M40 529v66q23 7 38 14t26.5 15.5t21 18.5t19.5 22h54v-441h-81v332q-15 -9 -34.5 -16t-43.5 -11zM190 -23l266 738l63 -23l-265 -737zM437 83v64l127 294h95v-292h27v-66h-27v-83h-75v83h-147zM507 149h77q0 6 0.5 17.5t0.5 26.5t0.5 32.5t0.5 34.5q1 40 2 88z" />
<glyph unicode="&#xbd;" horiz-adv-x="708" d="M40 529v66q23 7 38 14t26.5 15.5t21 18.5t19.5 22h54v-441h-81v332q-15 -9 -34.5 -16t-43.5 -11zM173 -23l264 738l65 -23l-266 -737zM437 0v13q0 38 7 65t19.5 49t31 41t40.5 40q13 12 25 22t21 20.5t14.5 22.5t5.5 28v47q0 5 -1 11t-4.5 11.5t-10.5 9.5t-20 4 q-21 0 -32 -8t-11 -31v-55h-76v56q0 54 31.5 77.5t80.5 23.5q123 0 123 -99v-55q0 -19 -2.5 -32t-12 -27t-27.5 -31.5t-50 -46.5q-18 -16 -30 -27t-19 -20.5t-10 -18t-3 -20.5h159v-70h-249z" />
<glyph unicode="&#xbe;" horiz-adv-x="708" d="M25 328v38h81v-41q0 -17 6 -30.5t32 -13.5q27 0 34 11.5t7 29.5v60q0 11 -1 19.5t-6 15.5t-16 10.5t-31 3.5h-32v56h32q18 0 28.5 4.5t15.5 11.5t6.5 16t1.5 19v36q0 20 -10.5 26.5t-28.5 6.5q-23 0 -30.5 -10.5t-7.5 -29.5v-37h-77v41q0 100 119 100q53 0 84.5 -23 t31.5 -71v-42q0 -23 -8 -42.5t-43 -30.5q19 -2 29.5 -9t16 -17.5t6.5 -23t1 -26.5v-66q0 -37 -16 -57.5t-36.5 -30.5t-39.5 -12t-25 -2q-26 0 -49 5.5t-39.5 18.5t-26 34t-9.5 52zM217 -23l265 738l64 -23l-266 -737zM437 83v64l127 294h95v-292h27v-66h-27v-83h-75v83h-147 zM507 149h77q0 6 0.5 17.5t0.5 26.5t0.5 32.5t0.5 34.5q1 40 2 88z" />
<glyph unicode="&#xbf;" horiz-adv-x="417" d="M28 133v52q0 27 6 53.5t16 40.5l68 99q15 21 23.5 35.5t13 27t5.5 24.5t1 29v22h113v-35q0 -23 -2 -38.5t-6 -27.5t-10.5 -22.5t-15.5 -24.5l-66 -102q-6 -10 -11.5 -18t-9 -16.5t-5.5 -19.5t-2 -28v-63q0 -4 1 -12t5.5 -16.5t13.5 -14.5t25 -6q29 0 39 15t10 39v117h111 v-74q0 -32 -3.5 -64t-19.5 -57.5t-49.5 -41t-93.5 -15.5q-33 0 -62 6t-50 21.5t-33 43.5t-12 71zM158 576v130h116v-130h-116z" />
<glyph unicode="&#xc0;" horiz-adv-x="437" d="M10 0l137 706h149l132 -706h-132l-17 115h-120l-19 -115h-130zM63 895h154l66 -133h-86zM175 224h90l-43 303z" />
<glyph unicode="&#xc1;" horiz-adv-x="437" d="M10 0l137 706h149l132 -706h-132l-17 115h-120l-19 -115h-130zM156 763l64 134h155l-126 -134h-93zM175 224h90l-43 303z" />
<glyph unicode="&#xc2;" horiz-adv-x="437" d="M10 0l137 706h149l132 -706h-132l-17 115h-120l-19 -115h-130zM66 762l86 133h129l86 -133h-104l-44 73l-48 -73h-105zM175 224h90l-43 303z" />
<glyph unicode="&#xc3;" horiz-adv-x="437" d="M10 0l137 706h149l132 -706h-132l-17 115h-120l-19 -115h-130zM65 761q0 23 5 46t16 41t29 29.5t43 11.5q18 0 36.5 -6.5t35.5 -15t32 -15t27 -6.5t19 9t11 32h60q0 -22 -2.5 -44.5t-11 -41.5t-24.5 -31t-42 -12q-16 0 -35 7t-37.5 15t-34 15t-26.5 7q-12 0 -19.5 -5 t-12 -11.5t-6 -13.5t-2.5 -11h-61zM175 224h90l-43 303z" />
<glyph unicode="&#xc4;" horiz-adv-x="437" d="M10 0l137 706h149l132 -706h-132l-17 115h-120l-19 -115h-130zM68 762v121h117v-121h-117zM175 224h90l-43 303zM270 762v121h116v-121h-116z" />
<glyph unicode="&#xc5;" horiz-adv-x="437" d="M10 0l137 706h149l132 -706h-132l-17 115h-120l-19 -115h-130zM136 830q0 37 26.5 63t63.5 26q38 0 63.5 -26.5t25.5 -64.5q0 -18 -7 -34t-19 -28t-28.5 -19t-34.5 -7q-38 0 -64 26.5t-26 63.5zM175 224h90l-43 303zM184 828q0 -17 12.5 -29t29.5 -12t28.5 12t11.5 30 q0 13 -10.5 26.5t-30.5 13.5q-17 0 -29 -12t-12 -29z" />
<glyph unicode="&#xc6;" horiz-adv-x="708" d="M3 0l262 706h420v-109h-225v-163h212v-106h-212v-219h226v-109h-356v146h-138l-49 -146h-140zM228 253h102v300z" />
<glyph unicode="&#xc7;" horiz-adv-x="458" d="M45 134v416q0 83 45.5 127t151.5 44q42 0 76.5 -8.5t59 -26t38.5 -44t14 -62.5v-131h-128v89q0 20 -2.5 35.5t-9.5 26t-20 16t-35 5.5q-37 0 -48.5 -21t-11.5 -56v-378q0 -17 2.5 -32t9.5 -25.5t19.5 -16.5t32.5 -6q22 0 34.5 6t19 17.5t8 27.5t1.5 36v92h128v-117 q0 -33 -9 -62t-30 -50.5t-54 -34.5t-81 -15v-42h11q11 0 27.5 -2t31.5 -9.5t26 -21t11 -35.5q0 -8 -5 -24.5t-24 -29.5q-10 -7 -24.5 -10.5t-27.5 -5t-23 -2t-11 -0.5q-17 0 -28 0.5t-20 2t-17.5 3.5t-19.5 4v30q7 -1 17.5 -2t21.5 -1q28 0 37.5 10t9.5 18q0 11 -5 17t-11 9 t-12 4t-8 1v87q-23 2 -52.5 8t-55 21.5t-43 43.5t-17.5 74z" />
<glyph unicode="&#xc8;" horiz-adv-x="417" d="M50 0v706h342v-107h-212v-166h200v-107h-200v-217h222v-109h-352zM53 895h154l66 -133h-86z" />
<glyph unicode="&#xc9;" horiz-adv-x="417" d="M50 0v706h342v-107h-212v-166h200v-107h-200v-217h222v-109h-352zM146 763l64 134h155l-126 -134h-93z" />
<glyph unicode="&#xca;" horiz-adv-x="417" d="M50 0v706h342v-107h-212v-166h200v-107h-200v-217h222v-109h-352zM55 762l86 133h129l86 -133h-104l-44 73l-48 -73h-105z" />
<glyph unicode="&#xcb;" horiz-adv-x="417" d="M50 0v706h342v-107h-212v-166h200v-107h-200v-217h222v-109h-352zM61 762v121h117v-121h-117zM263 762v121h116v-121h-116z" />
<glyph unicode="&#xcc;" horiz-adv-x="229" d="M-40 895h154l66 -133h-86zM50 0v706h129v-706h-129z" />
<glyph unicode="&#xcd;" horiz-adv-x="229" d="M49 763l64 134h155l-126 -134h-93zM50 0v706h129v-706h-129z" />
<glyph unicode="&#xce;" horiz-adv-x="229" d="M-37 762l86 133h129l86 -133h-104l-44 73l-48 -73h-105zM50 0v706h129v-706h-129z" />
<glyph unicode="&#xcf;" horiz-adv-x="229" d="M-41 762v121h117v-121h-117zM50 0v706h129v-706h-129zM161 762v121h116v-121h-116z" />
<glyph unicode="&#xd0;" horiz-adv-x="479" d="M0 334v73h50v299h210q16 0 33 -0.5t34.5 -5t35 -13t33.5 -25.5q28 -29 35 -64.5t7 -77.5v-330q0 -37 -5 -71t-23 -60.5t-53.5 -42.5t-97.5 -16h-209v334h-50zM180 103h46q23 0 38.5 2.5t25 11t14 23.5t4.5 39v352q0 41 -14 56.5t-56 15.5h-58v-197h77v-72h-77v-231z" />
<glyph unicode="&#xd1;" horiz-adv-x="500" d="M50 0v706h167l127 -518q-3 121 -6 225q-1 44 -2 89t-2 85t-2 71t-1 48h119v-706h-164l-125 529q2 -95 4 -189q1 -40 2 -84t1.5 -88t1.5 -87t2 -81h-122zM96 761q0 23 5 46t16 41t29 29.5t43 11.5q18 0 36.5 -6.5t35.5 -15t32 -15t27 -6.5t19 9t11 32h60q0 -22 -2.5 -44.5 t-11 -41.5t-24.5 -31t-42 -12q-16 0 -35 7t-37.5 15t-34 15t-26.5 7q-12 0 -19.5 -5t-12 -11.5t-6 -13.5t-2.5 -11h-61z" />
<glyph unicode="&#xd2;" horiz-adv-x="479" d="M44 148v399q0 39 9.5 71.5t32.5 55t61 35t95 12.5q89 0 141 -39.5t52 -122.5v-409q0 -46 -14.5 -78t-40 -51t-61 -27.5t-78.5 -8.5q-45 0 -81.5 9t-62 28.5t-39.5 50.5t-14 75zM84 895h154l66 -133h-86zM174 173q0 -15 1.5 -30.5t7.5 -27.5t19.5 -20t37.5 -8t37 8 t19 20.5t7 27t1 27.5v364q0 14 -1 29.5t-7 28.5t-18.5 21.5t-36.5 8.5q-25 0 -38.5 -9t-20 -23t-7.5 -30t-1 -31v-356z" />
<glyph unicode="&#xd3;" horiz-adv-x="479" d="M44 148v399q0 39 9.5 71.5t32.5 55t61 35t95 12.5q89 0 141 -39.5t52 -122.5v-409q0 -46 -14.5 -78t-40 -51t-61 -27.5t-78.5 -8.5q-45 0 -81.5 9t-62 28.5t-39.5 50.5t-14 75zM167 763l64 134h155l-126 -134h-93zM174 173q0 -15 1.5 -30.5t7.5 -27.5t19.5 -20t37.5 -8 t37 8t19 20.5t7 27t1 27.5v364q0 14 -1 29.5t-7 28.5t-18.5 21.5t-36.5 8.5q-25 0 -38.5 -9t-20 -23t-7.5 -30t-1 -31v-356z" />
<glyph unicode="&#xd4;" horiz-adv-x="479" d="M44 148v399q0 39 9.5 71.5t32.5 55t61 35t95 12.5q89 0 141 -39.5t52 -122.5v-409q0 -46 -14.5 -78t-40 -51t-61 -27.5t-78.5 -8.5q-45 0 -81.5 9t-62 28.5t-39.5 50.5t-14 75zM87 762l86 133h129l86 -133h-104l-44 73l-48 -73h-105zM174 173q0 -15 1.5 -30.5t7.5 -27.5 t19.5 -20t37.5 -8t37 8t19 20.5t7 27t1 27.5v364q0 14 -1 29.5t-7 28.5t-18.5 21.5t-36.5 8.5q-25 0 -38.5 -9t-20 -23t-7.5 -30t-1 -31v-356z" />
<glyph unicode="&#xd5;" horiz-adv-x="479" d="M44 148v399q0 39 9.5 71.5t32.5 55t61 35t95 12.5q89 0 141 -39.5t52 -122.5v-409q0 -46 -14.5 -78t-40 -51t-61 -27.5t-78.5 -8.5q-45 0 -81.5 9t-62 28.5t-39.5 50.5t-14 75zM85 761q0 23 5 46t16 41t29 29.5t43 11.5q18 0 36.5 -6.5t35.5 -15t32 -15t27 -6.5t19 9 t11 32h60q0 -22 -2.5 -44.5t-11 -41.5t-24.5 -31t-42 -12q-16 0 -35 7t-37.5 15t-34 15t-26.5 7q-12 0 -19.5 -5t-12 -11.5t-6 -13.5t-2.5 -11h-61zM174 173q0 -15 1.5 -30.5t7.5 -27.5t19.5 -20t37.5 -8t37 8t19 20.5t7 27t1 27.5v364q0 14 -1 29.5t-7 28.5t-18.5 21.5 t-36.5 8.5q-25 0 -38.5 -9t-20 -23t-7.5 -30t-1 -31v-356z" />
<glyph unicode="&#xd6;" horiz-adv-x="479" d="M44 148v399q0 39 9.5 71.5t32.5 55t61 35t95 12.5q89 0 141 -39.5t52 -122.5v-409q0 -46 -14.5 -78t-40 -51t-61 -27.5t-78.5 -8.5q-45 0 -81.5 9t-62 28.5t-39.5 50.5t-14 75zM83 762v121h117v-121h-117zM174 173q0 -15 1.5 -30.5t7.5 -27.5t19.5 -20t37.5 -8t37 8 t19 20.5t7 27t1 27.5v364q0 14 -1 29.5t-7 28.5t-18.5 21.5t-36.5 8.5q-25 0 -38.5 -9t-20 -23t-7.5 -30t-1 -31v-356zM285 762v121h116v-121h-116z" />
<glyph unicode="&#xd7;" horiz-adv-x="558" d="M95 190l107 107l-107 107l80 81l105 -106l107 106l76 -76l-105 -106l106 -106l-78 -83l-106 108l-107 -107z" />
<glyph unicode="&#xd8;" horiz-adv-x="479" d="M33 20l32 62q-8 13 -13.5 30t-5.5 46v403q0 30 11 59t34 51.5t58 36t84 13.5q51 0 85.5 -13t51.5 -25l19 38l58 -29l-33 -64q7 -14 13 -30t6 -42v-403q0 -31 -9.5 -61.5t-31 -54t-57 -38t-88.5 -14.5q-55 0 -85 14t-50 29l-20 -39zM178 161q0 -10 1 -23t6.5 -23.5t18 -18 t34.5 -7.5q24 0 37 8t19.5 20t7.5 26.5t1 26.5v232zM178 304l125 241q0 11 -1 24t-6.5 24t-17.5 18.5t-34 7.5q-25 0 -38.5 -8t-19.5 -21t-7 -28.5t-1 -29.5v-228z" />
<glyph unicode="&#xd9;" horiz-adv-x="479" d="M48 162v544h131v-525q0 -17 1.5 -32.5t7.5 -27t18.5 -18.5t33.5 -7q22 0 34 7.5t18 19.5t7 27.5t1 31.5v524h131v-547q0 -43 -11 -73t-29 -49t-40 -29.5t-43.5 -15.5t-40.5 -6t-31 -1q-91 0 -139.5 44.5t-48.5 132.5zM84 895h154l66 -133h-86z" />
<glyph unicode="&#xda;" horiz-adv-x="479" d="M48 162v544h131v-525q0 -17 1.5 -32.5t7.5 -27t18.5 -18.5t33.5 -7q22 0 34 7.5t18 19.5t7 27.5t1 31.5v524h131v-547q0 -43 -11 -73t-29 -49t-40 -29.5t-43.5 -15.5t-40.5 -6t-31 -1q-91 0 -139.5 44.5t-48.5 132.5zM177 763l64 134h155l-126 -134h-93z" />
<glyph unicode="&#xdb;" horiz-adv-x="479" d="M48 162v544h131v-525q0 -17 1.5 -32.5t7.5 -27t18.5 -18.5t33.5 -7q22 0 34 7.5t18 19.5t7 27.5t1 31.5v524h131v-547q0 -43 -11 -73t-29 -49t-40 -29.5t-43.5 -15.5t-40.5 -6t-31 -1q-91 0 -139.5 44.5t-48.5 132.5zM87 762l86 133h129l86 -133h-104l-44 73l-48 -73 h-105z" />
<glyph unicode="&#xdc;" horiz-adv-x="479" d="M48 162v544h131v-525q0 -17 1.5 -32.5t7.5 -27t18.5 -18.5t33.5 -7q22 0 34 7.5t18 19.5t7 27.5t1 31.5v524h131v-547q0 -43 -11 -73t-29 -49t-40 -29.5t-43.5 -15.5t-40.5 -6t-31 -1q-91 0 -139.5 44.5t-48.5 132.5zM84 762v121h117v-121h-117zM286 762v121h116v-121 h-116z" />
<glyph unicode="&#xdd;" horiz-adv-x="417" d="M1 706h137l72 -356l69 356h137l-141 -497v-209h-133v218zM146 763l64 134h155l-126 -134h-93z" />
<glyph unicode="&#xde;" horiz-adv-x="458" d="M50 0v706h131v-117h131q38 0 61.5 -11t36.5 -30.5t17 -45.5t4 -56v-109q0 -34 -2.5 -63.5t-15 -51.5t-38.5 -34t-72 -12h-122v-176h-131zM181 277h71q25 0 38 10t13 48v96q0 18 -5 28.5t-12.5 16t-16 7t-16.5 1.5h-72v-207z" />
<glyph unicode="&#xdf;" horiz-adv-x="417" d="M44 0v592q0 24 5 47t21 41t46.5 29.5t82.5 11.5q32 0 61 -5t51.5 -19t35.5 -39t13 -65v-65q0 -30 -4 -47t-12 -26.5t-21.5 -13.5t-33.5 -8q26 -4 43.5 -9.5t28.5 -16t16 -28t5 -46.5v-220q0 -35 -9.5 -58.5t-26 -37.5t-39.5 -20t-49 -6q-18 0 -34 2.5t-34 6.5v69 q8 -1 15.5 -1.5t15.5 -0.5q15 0 23 6t12.5 14t5.5 17.5t1 15.5v191q0 34 -10.5 50.5t-48.5 16.5h-18v81h14q31 0 42.5 10t11.5 45v73q0 6 -0.5 14t-5 16t-13.5 13.5t-26 5.5q-31 0 -38.5 -12t-7.5 -33v-591h-119z" />
<glyph unicode="&#xe0;" d="M32 125v35q0 29 4 48.5t13 33.5t24 24.5t37 21.5l124 62v39q0 32 -10 42t-32 10q-28 0 -34.5 -16.5t-6.5 -51.5v-19h-109v58q0 9 3 27.5t18.5 37t47.5 32.5t89 14q4 0 28.5 -2t52 -12.5t49.5 -33.5t22 -65v-311q0 -29 3 -57.5t20 -41.5h-125q-7 8 -10 17.5t-4 27.5 q-8 -8 -16.5 -18t-20.5 -18.5t-27.5 -14t-38.5 -5.5q-33 0 -53 11.5t-30.5 30.5t-14 43.5t-3.5 50.5zM43 706h153l67 -132h-87zM148 135q0 -30 6 -43t22 -13q9 0 22 5t35 24v150l-58 -38q-18 -12 -22.5 -29.5t-4.5 -55.5z" />
<glyph unicode="&#xe1;" d="M32 125v35q0 29 4 48.5t13 33.5t24 24.5t37 21.5l124 62v39q0 32 -10 42t-32 10q-28 0 -34.5 -16.5t-6.5 -51.5v-19h-109v58q0 9 3 27.5t18.5 37t47.5 32.5t89 14q4 0 28.5 -2t52 -12.5t49.5 -33.5t22 -65v-311q0 -29 3 -57.5t20 -41.5h-125q-7 8 -10 17.5t-4 27.5 q-8 -8 -16.5 -18t-20.5 -18.5t-27.5 -14t-38.5 -5.5q-33 0 -53 11.5t-30.5 30.5t-14 43.5t-3.5 50.5zM124 574l67 132h153l-133 -132h-87zM148 135q0 -30 6 -43t22 -13q9 0 22 5t35 24v150l-58 -38q-18 -12 -22.5 -29.5t-4.5 -55.5z" />
<glyph unicode="&#xe2;" d="M32 125v35q0 29 4 48.5t13 33.5t24 24.5t37 21.5l124 62v39q0 32 -10 42t-32 10q-28 0 -34.5 -16.5t-6.5 -51.5v-19h-109v58q0 9 3 27.5t18.5 37t47.5 32.5t89 14q4 0 28.5 -2t52 -12.5t49.5 -33.5t22 -65v-311q0 -29 3 -57.5t20 -41.5h-125q-7 8 -10 17.5t-4 27.5 q-8 -8 -16.5 -18t-20.5 -18.5t-27.5 -14t-38.5 -5.5q-33 0 -53 11.5t-30.5 30.5t-14 43.5t-3.5 50.5zM45 574l86 132h129l87 -132h-105l-44 73l-48 -73h-105zM148 135q0 -30 6 -43t22 -13q9 0 22 5t35 24v150l-58 -38q-18 -12 -22.5 -29.5t-4.5 -55.5z" />
<glyph unicode="&#xe3;" d="M32 125v35q0 29 4 48.5t13 33.5t24 24.5t37 21.5l124 62v39q0 32 -10 42t-32 10q-28 0 -34.5 -16.5t-6.5 -51.5v-19h-109v58q0 9 3 27.5t18.5 37t47.5 32.5t89 14q4 0 28.5 -2t52 -12.5t49.5 -33.5t22 -65v-311q0 -29 3 -57.5t20 -41.5h-125q-7 8 -10 17.5t-4 27.5 q-8 -8 -16.5 -18t-20.5 -18.5t-27.5 -14t-38.5 -5.5q-33 0 -53 11.5t-30.5 30.5t-14 43.5t-3.5 50.5zM49 573q0 23 5 46t15.5 41t27.5 29.5t42 11.5q18 0 35.5 -6.5t33.5 -14.5t30.5 -14.5t26.5 -6.5t19.5 8.5t10.5 31.5h58q0 -22 -2.5 -44.5t-11 -41.5t-23.5 -31t-40 -12 q-17 0 -36 6.5t-37 15t-33 15t-24 6.5q-30 0 -37 -40h-60zM148 135q0 -30 6 -43t22 -13q9 0 22 5t35 24v150l-58 -38q-18 -12 -22.5 -29.5t-4.5 -55.5z" />
<glyph unicode="&#xe4;" d="M32 125v35q0 29 4 48.5t13 33.5t24 24.5t37 21.5l124 62v39q0 32 -10 42t-32 10q-28 0 -34.5 -16.5t-6.5 -51.5v-19h-109v58q0 9 3 27.5t18.5 37t47.5 32.5t89 14q4 0 28.5 -2t52 -12.5t49.5 -33.5t22 -65v-311q0 -29 3 -57.5t20 -41.5h-125q-7 8 -10 17.5t-4 27.5 q-8 -8 -16.5 -18t-20.5 -18.5t-27.5 -14t-38.5 -5.5q-33 0 -53 11.5t-30.5 30.5t-14 43.5t-3.5 50.5zM46 595v124h119v-124h-119zM148 135q0 -30 6 -43t22 -13q9 0 22 5t35 24v150l-58 -38q-18 -12 -22.5 -29.5t-4.5 -55.5zM229 595v124h119v-124h-119z" />
<glyph unicode="&#xe5;" d="M32 125v35q0 29 4 48.5t13 33.5t24 24.5t37 21.5l124 62v39q0 32 -10 42t-32 10q-28 0 -34.5 -16.5t-6.5 -51.5v-19h-109v58q0 9 3 27.5t18.5 37t47.5 32.5t89 14q4 0 28.5 -2t52 -12.5t49.5 -33.5t22 -65v-311q0 -29 3 -57.5t20 -41.5h-125q-7 8 -10 17.5t-4 27.5 q-8 -8 -16.5 -18t-20.5 -18.5t-27.5 -14t-38.5 -5.5q-33 0 -53 11.5t-30.5 30.5t-14 43.5t-3.5 50.5zM113 661q0 19 7 35.5t19.5 28.5t28.5 19t34 7t34.5 -7t29 -19t19.5 -28.5t7 -36.5q0 -18 -7 -34t-19 -28t-28.5 -19t-35.5 -7q-37 0 -63 26t-26 63zM148 135q0 -30 6 -43 t22 -13q9 0 22 5t35 24v150l-58 -38q-18 -12 -22.5 -29.5t-4.5 -55.5zM161 660q0 -17 12 -29t29 -12t29 12t12 30q0 17 -12 28.5t-29 11.5t-29 -12t-12 -29z" />
<glyph unicode="&#xe6;" horiz-adv-x="604" d="M31 111v47q0 26 3.5 46t13.5 35.5t28.5 28.5t48.5 25l114 47v43q0 19 -10 33t-34 14q-17 0 -26 -6t-13.5 -14t-5.5 -16.5t-1 -13.5v-31h-107v56q0 60 38.5 88.5t98.5 28.5q63 0 122 -29q46 29 117 29q26 0 52.5 -7.5t49 -24.5t36.5 -44.5t14 -67.5v-149h-212v-102 q0 -5 1 -12.5t5.5 -15t14 -12.5t25.5 -5q26 0 36 14.5t10 40.5v33h119v-35q0 -27 -6 -53t-23.5 -46.5t-49 -33t-81.5 -12.5q-20 0 -36 2.5t-30 7t-27.5 12.5t-30.5 18q-15 -10 -47.5 -25t-80.5 -15q-24 0 -46.5 5.5t-40 19t-28.5 37t-11 59.5zM144 147q0 -9 0.5 -20.5 t4.5 -21.5t13 -17t25 -7q20 0 32.5 9.5t19.5 17.5v143q-25 -10 -43 -19t-29.5 -20t-17 -26t-5.5 -39zM358 309h92v63q0 8 -0.5 17.5t-5 18t-13.5 14.5t-26 6t-26.5 -6t-14 -14.5t-5.5 -17.5t-1 -15v-66z" />
<glyph unicode="&#xe7;" d="M38 137v235q0 38 13 66t35.5 46.5t53 28t65.5 9.5q23 0 51 -5t53 -19.5t41.5 -41t16.5 -69.5v-69h-118v62q0 9 -1 19t-5.5 18.5t-13.5 14t-24 5.5q-29 0 -39 -17.5t-10 -51.5v-223q0 -26 8.5 -46.5t38.5 -20.5q14 0 23 6t14 15.5t7 21t2 23.5v59h118v-58 q0 -69 -36 -110.5t-113 -43.5v-47h11q11 0 27.5 -2t31.5 -9.5t26 -21t11 -35.5q0 -8 -5 -24.5t-24 -29.5q-10 -7 -24.5 -10.5t-27.5 -5t-23 -2t-11 -0.5q-17 0 -28 0.5t-20 2t-17.5 3.5t-19.5 4v30q7 -1 17.5 -2t21.5 -1q28 0 37.5 10t9.5 18q0 11 -5 17t-11 9t-12 4t-8 1 v92q-137 12 -137 145z" />
<glyph unicode="&#xe8;" d="M38 155v216q0 72 43 111.5t121 39.5q74 0 116 -37t42 -100v-155h-203v-90q0 -57 44 -57q15 0 23 6t12.5 16t5.5 22t1 25v17h115v-42q0 -73 -43 -105t-114 -32q-49 0 -81 14t-50 37.5t-25 53t-7 60.5zM43 706h153l67 -132h-87zM157 314h85v63q0 4 -0.5 12.5t-4.5 17 t-12.5 15t-23.5 6.5q-16 0 -25 -6t-13 -14.5t-5 -17t-1 -13.5v-63z" />
<glyph unicode="&#xe9;" d="M38 155v216q0 72 43 111.5t121 39.5q74 0 116 -37t42 -100v-155h-203v-90q0 -57 44 -57q15 0 23 6t12.5 16t5.5 22t1 25v17h115v-42q0 -73 -43 -105t-114 -32q-49 0 -81 14t-50 37.5t-25 53t-7 60.5zM124 574l67 132h153l-133 -132h-87zM157 314h85v63q0 4 -0.5 12.5 t-4.5 17t-12.5 15t-23.5 6.5q-16 0 -25 -6t-13 -14.5t-5 -17t-1 -13.5v-63z" />
<glyph unicode="&#xea;" d="M38 155v216q0 72 43 111.5t121 39.5q74 0 116 -37t42 -100v-155h-203v-90q0 -57 44 -57q15 0 23 6t12.5 16t5.5 22t1 25v17h115v-42q0 -73 -43 -105t-114 -32q-49 0 -81 14t-50 37.5t-25 53t-7 60.5zM45 574l86 132h129l87 -132h-105l-44 73l-48 -73h-105zM157 314h85v63 q0 4 -0.5 12.5t-4.5 17t-12.5 15t-23.5 6.5q-16 0 -25 -6t-13 -14.5t-5 -17t-1 -13.5v-63z" />
<glyph unicode="&#xeb;" d="M38 155v216q0 72 43 111.5t121 39.5q74 0 116 -37t42 -100v-155h-203v-90q0 -57 44 -57q15 0 23 6t12.5 16t5.5 22t1 25v17h115v-42q0 -73 -43 -105t-114 -32q-49 0 -81 14t-50 37.5t-25 53t-7 60.5zM44 595v124h119v-124h-119zM157 314h85v63q0 4 -0.5 12.5t-4.5 17 t-12.5 15t-23.5 6.5q-16 0 -25 -6t-13 -14.5t-5 -17t-1 -13.5v-63zM227 595v124h119v-124h-119z" />
<glyph unicode="&#xec;" horiz-adv-x="208" d="M-50 706h153l67 -132h-87zM44 0v512h120v-512h-120z" />
<glyph unicode="&#xed;" horiz-adv-x="208" d="M36 574l67 132h153l-133 -132h-87zM44 0v512h120v-512h-120z" />
<glyph unicode="&#xee;" horiz-adv-x="208" d="M-48 574l86 132h129l87 -132h-105l-44 73l-48 -73h-105zM44 0v512h120v-512h-120z" />
<glyph unicode="&#xef;" horiz-adv-x="208" d="M-48 595v124h119v-124h-119zM44 0v512h120v-512h-120zM135 595v124h119v-124h-119z" />
<glyph unicode="&#xf0;" d="M38 144v240q0 38 13.5 64.5t33.5 43t43.5 24t44.5 7.5q29 0 43.5 -8.5t26.5 -24.5q-3 14 -8.5 36.5t-22.5 56.5l-113 -38l-23 53l103 35q-14 14 -24.5 24t-25.5 22l99 41q16 -14 27.5 -26t25.5 -27l70 23l23 -55l-61 -19q16 -30 25 -57.5t13 -55t5 -55.5t1 -57v-258 q0 -69 -41 -106t-120 -37q-51 0 -82 14t-48 36t-22.5 49.5t-5.5 54.5zM157 125q0 -5 0.5 -14t4.5 -17.5t12.5 -15t23.5 -6.5q16 0 24.5 6t12.5 14t4.5 17.5t0.5 16.5v260q0 11 -1 22t-5.5 20t-12 14.5t-21.5 5.5q-16 0 -25 -6.5t-13 -16t-4.5 -20.5t-0.5 -20v-260z" />
<glyph unicode="&#xf1;" horiz-adv-x="417" d="M44 0v512h120v-37q23 23 45 35t57 12q29 0 49 -9.5t33 -24t18.5 -33t5.5 -36.5v-419h-117v377q0 29 -8 45t-33 16q-27 0 -39 -16t-12 -53v-369h-119zM60 573q0 23 5 46t15.5 41t27.5 29.5t42 11.5q18 0 35.5 -6.5t33.5 -14.5t30.5 -14.5t26.5 -6.5t19.5 8.5t10.5 31.5h58 q0 -22 -2.5 -44.5t-11 -41.5t-23.5 -31t-40 -12q-17 0 -36 6.5t-37 15t-33 15t-24 6.5q-30 0 -37 -40h-60z" />
<glyph unicode="&#xf2;" d="M38 144v230q0 77 42 112.5t120 35.5q29 0 57.5 -6t51 -22t36 -43t13.5 -69v-250q0 -39 -13 -66t-35 -44t-52 -24.5t-65 -7.5q-70 0 -112.5 35t-42.5 119zM43 706h153l67 -132h-87zM157 125q0 -5 0.5 -14t4.5 -17.5t12.5 -15t23.5 -6.5q16 0 24.5 6t12.5 14t4.5 17.5 t0.5 16.5v260q0 11 -1 22t-5.5 20t-12 14.5t-21.5 5.5q-16 0 -25 -6.5t-13 -16t-4.5 -20.5t-0.5 -20v-260z" />
<glyph unicode="&#xf3;" d="M38 144v230q0 77 42 112.5t120 35.5q29 0 57.5 -6t51 -22t36 -43t13.5 -69v-250q0 -39 -13 -66t-35 -44t-52 -24.5t-65 -7.5q-70 0 -112.5 35t-42.5 119zM124 574l67 132h153l-133 -132h-87zM157 125q0 -5 0.5 -14t4.5 -17.5t12.5 -15t23.5 -6.5q16 0 24.5 6t12.5 14 t4.5 17.5t0.5 16.5v260q0 11 -1 22t-5.5 20t-12 14.5t-21.5 5.5q-16 0 -25 -6.5t-13 -16t-4.5 -20.5t-0.5 -20v-260z" />
<glyph unicode="&#xf4;" d="M38 144v230q0 77 42 112.5t120 35.5q29 0 57.5 -6t51 -22t36 -43t13.5 -69v-250q0 -39 -13 -66t-35 -44t-52 -24.5t-65 -7.5q-70 0 -112.5 35t-42.5 119zM45 574l86 132h129l87 -132h-105l-44 73l-48 -73h-105zM157 125q0 -5 0.5 -14t4.5 -17.5t12.5 -15t23.5 -6.5 q16 0 24.5 6t12.5 14t4.5 17.5t0.5 16.5v260q0 11 -1 22t-5.5 20t-12 14.5t-21.5 5.5q-16 0 -25 -6.5t-13 -16t-4.5 -20.5t-0.5 -20v-260z" />
<glyph unicode="&#xf5;" d="M38 144v230q0 77 42 112.5t120 35.5q29 0 57.5 -6t51 -22t36 -43t13.5 -69v-250q0 -39 -13 -66t-35 -44t-52 -24.5t-65 -7.5q-70 0 -112.5 35t-42.5 119zM49 573q0 23 5 46t15.5 41t27.5 29.5t42 11.5q18 0 35.5 -6.5t33.5 -14.5t30.5 -14.5t26.5 -6.5t19.5 8.5 t10.5 31.5h58q0 -22 -2.5 -44.5t-11 -41.5t-23.5 -31t-40 -12q-17 0 -36 6.5t-37 15t-33 15t-24 6.5q-30 0 -37 -40h-60zM157 125q0 -5 0.5 -14t4.5 -17.5t12.5 -15t23.5 -6.5q16 0 24.5 6t12.5 14t4.5 17.5t0.5 16.5v260q0 11 -1 22t-5.5 20t-12 14.5t-21.5 5.5 q-16 0 -25 -6.5t-13 -16t-4.5 -20.5t-0.5 -20v-260z" />
<glyph unicode="&#xf6;" d="M38 144v230q0 77 42 112.5t120 35.5q29 0 57.5 -6t51 -22t36 -43t13.5 -69v-250q0 -39 -13 -66t-35 -44t-52 -24.5t-65 -7.5q-70 0 -112.5 35t-42.5 119zM43 595v124h119v-124h-119zM157 125q0 -5 0.5 -14t4.5 -17.5t12.5 -15t23.5 -6.5q16 0 24.5 6t12.5 14t4.5 17.5 t0.5 16.5v260q0 11 -1 22t-5.5 20t-12 14.5t-21.5 5.5q-16 0 -25 -6.5t-13 -16t-4.5 -20.5t-0.5 -20v-260zM226 595v124h119v-124h-119z" />
<glyph unicode="&#xf7;" horiz-adv-x="559" d="M74 248v101h411v-101h-411zM224 64v128h112v-128h-112zM224 405v128h112v-128h-112z" />
<glyph unicode="&#xf8;" d="M9 16l36 57q-4 11 -5 20t-1 22v268q0 73 44 106t115 33q45 0 71.5 -11.5t43.5 -21.5l25 38l41 -26l-36 -52q11 -18 12.5 -35.5t1.5 -38.5v-241q0 -40 -12.5 -67.5t-33.5 -44.5t-48 -24.5t-56 -7.5q-23 0 -40 2t-31.5 6.5t-28 13t-30.5 20.5l-28 -41zM146 141q0 -10 1 -21 t5.5 -20.5t14.5 -15.5t28 -6q19 0 29.5 7t15 16t5.5 18.5t1 14.5v165zM146 232l102 156q0 6 -1.5 15t-6 17.5t-14 14t-26.5 5.5q-54 0 -54 -61v-147z" />
<glyph unicode="&#xf9;" horiz-adv-x="417" d="M44 107v405h119v-368q0 -12 1 -23t5.5 -19.5t13.5 -14t24 -5.5t24.5 5.5t14 14.5t6 21.5t1.5 26.5v362h120v-512h-120v42q-5 -4 -15 -13t-24 -17t-31.5 -14.5t-38.5 -6.5q-28 0 -47 9.5t-31 25t-17 36.5t-5 45zM54 706h153l67 -132h-87z" />
<glyph unicode="&#xfa;" horiz-adv-x="417" d="M44 107v405h119v-368q0 -12 1 -23t5.5 -19.5t13.5 -14t24 -5.5t24.5 5.5t14 14.5t6 21.5t1.5 26.5v362h120v-512h-120v42q-5 -4 -15 -13t-24 -17t-31.5 -14.5t-38.5 -6.5q-28 0 -47 9.5t-31 25t-17 36.5t-5 45zM134 574l67 132h153l-133 -132h-87z" />
<glyph unicode="&#xfb;" horiz-adv-x="417" d="M44 107v405h119v-368q0 -12 1 -23t5.5 -19.5t13.5 -14t24 -5.5t24.5 5.5t14 14.5t6 21.5t1.5 26.5v362h120v-512h-120v42q-5 -4 -15 -13t-24 -17t-31.5 -14.5t-38.5 -6.5q-28 0 -47 9.5t-31 25t-17 36.5t-5 45zM57 574l86 132h129l87 -132h-105l-44 73l-48 -73h-105z" />
<glyph unicode="&#xfc;" horiz-adv-x="417" d="M44 107v405h119v-368q0 -12 1 -23t5.5 -19.5t13.5 -14t24 -5.5t24.5 5.5t14 14.5t6 21.5t1.5 26.5v362h120v-512h-120v42q-5 -4 -15 -13t-24 -17t-31.5 -14.5t-38.5 -6.5q-28 0 -47 9.5t-31 25t-17 36.5t-5 45zM53 595v124h119v-124h-119zM236 595v124h119v-124h-119z " />
<glyph unicode="&#xfd;" horiz-adv-x="354" d="M1 512h118l66 -329l51 329h117l-117 -549q-8 -40 -17.5 -63.5t-22.5 -39.5q-14 -17 -36.5 -27t-66.5 -10q-23 0 -38.5 2.5t-38.5 6.5l18 94q6 -2 17 -4.5t28 -2.5q15 0 25.5 7t16.5 17.5t8.5 22t3.5 20.5l1 14zM121 574l67 132h153l-133 -132h-87z" />
<glyph unicode="&#xfe;" horiz-adv-x="417" d="M44 -177v883h119v-233q7 7 17.5 15.5t24 16t30 12.5t34.5 5q21 0 41 -6t35 -22t24.5 -43t9.5 -68v-267q0 -36 -9 -60t-24 -38.5t-34 -21t-39 -6.5q-21 0 -37.5 5.5t-30 13.5t-24 17.5t-18.5 16.5v-220h-119zM163 144q0 -26 10.5 -41.5t37.5 -15.5q16 0 25.5 5.5 t14.5 13.5t6.5 17.5t1.5 16.5v237q0 56 -47 56q-18 0 -28 -7t-14.5 -17t-5.5 -19.5t-1 -15.5v-230z" />
<glyph unicode="&#xff;" horiz-adv-x="354" d="M1 512h118l66 -329l51 329h117l-117 -549q-8 -40 -17.5 -63.5t-22.5 -39.5q-14 -17 -36.5 -27t-66.5 -10q-23 0 -38.5 2.5t-38.5 6.5l18 94q6 -2 17 -4.5t28 -2.5q15 0 25.5 7t16.5 17.5t8.5 22t3.5 20.5l1 14zM23 595v124h119v-124h-119zM206 595v124h119v-124h-119z " />
<glyph unicode="&#x131;" horiz-adv-x="208" d="M44 0v512h120v-512h-120z" />
<glyph unicode="&#x141;" horiz-adv-x="375" d="M0 125v119l50 63v399h130v-226l94 124v-118l-94 -122v-257h191v-107h-321v192z" />
<glyph unicode="&#x142;" horiz-adv-x="208" d="M0 190v105l44 59v352h120v-188l44 61v-105l-44 -63v-411h-120v250z" />
<glyph unicode="&#x152;" horiz-adv-x="688" d="M44 151v388q0 33 7 65.5t26.5 58.5t54 42t89.5 16q9 0 24.5 -1t34.5 -6.5t39.5 -16.5t39.5 -31v40h297v-109h-223v-165h211v-104h-211v-217h231v-111h-306v31q-7 -6 -17.5 -14t-27 -15t-39.5 -12t-54 -5q-30 0 -61.5 7t-57 25.5t-41.5 50.5t-16 83zM175 163 q0 -35 15 -54.5t49 -19.5q24 0 36.5 9t18.5 21.5t7 27t1 24.5v360q0 16 -1 32t-7 28.5t-19.5 20.5t-37.5 8q-23 0 -35.5 -8.5t-18.5 -22t-7 -29.5t-1 -30v-367z" />
<glyph unicode="&#x153;" horiz-adv-x="604" d="M38 140v227q0 42 12.5 71t33.5 48t49.5 27.5t59.5 8.5q22 0 46 -6t61 -32q7 4 18 10.5t26.5 12.5t34.5 10.5t41 4.5q29 0 55 -9t46.5 -26.5t32.5 -42.5t12 -58v-156h-203v-94q0 -9 1 -18.5t5.5 -17.5t14 -13.5t25.5 -5.5q15 0 23 5.5t12 13.5t5 16t1 13v43h116v-45 q0 -68 -33.5 -102.5t-107.5 -34.5q-27 0 -46.5 3t-34 7.5t-25 10.5t-20.5 12q-16 -10 -42 -21.5t-71 -11.5q-28 0 -54.5 7.5t-47.5 25t-33.5 46.5t-12.5 71zM159 127q0 -20 8 -34.5t31 -14.5q16 0 31 10t15 42v248q0 6 -0.5 15t-4.5 18t-12.5 15.5t-23.5 6.5q-16 0 -25 -7 t-13.5 -16.5t-5 -18.5t-0.5 -13v-251zM362 310h87v68q0 7 -0.5 16.5t-4.5 18.5t-13 15t-25 6t-25 -6.5t-13.5 -15.5t-5 -18t-0.5 -14v-70z" />
<glyph unicode="&#x160;" horiz-adv-x="458" d="M38 146v103h130v-97q0 -11 1.5 -23t7.5 -21.5t18.5 -16t34.5 -6.5q42 0 53.5 21.5t11.5 65.5v24q0 36 -11 55t-34 34l-123 82q-15 10 -30 22.5t-27 31.5t-19.5 46t-7.5 66v14q0 92 51.5 133t140.5 41q33 0 65.5 -8t58 -26t41.5 -47t16 -71v-70h-129v62q0 12 -2 23 t-8 19.5t-17.5 13.5t-30.5 5q-14 0 -25 -3t-18.5 -11.5t-11.5 -23.5t-4 -38q0 -12 1 -23t5 -21.5t12.5 -20.5t23.5 -21l127 -86q39 -26 62.5 -62t23.5 -84v-67q0 -36 -7.5 -68t-28.5 -56t-58.5 -38t-96.5 -14q-35 0 -70 6.5t-63 24.5t-45.5 49.5t-17.5 80.5zM77 895h105 l45 -74l48 74h104l-85 -133h-132z" />
<glyph unicode="&#x161;" horiz-adv-x="375" d="M27 125v55h110v-44q0 -9 1 -19.5t5.5 -19.5t14 -15.5t25.5 -6.5q3 0 11 1t16 6t14 16.5t6 32.5q0 14 -1.5 23t-5 16.5t-10.5 13.5t-18 14l-99 70q-27 19 -44 48.5t-17 74.5q0 38 11.5 63.5t31.5 40.5t48.5 21t62.5 6q48 0 77 -11.5t44 -28.5t20 -38t5 -39v-57h-103v37 q0 22 -8.5 39t-35.5 17q-25 0 -33 -13t-8 -33q0 -19 8.5 -31.5t25.5 -24.5l110 -77q31 -22 40 -49t9 -65q0 -41 -7 -71t-25 -49.5t-48 -28.5t-77 -9q-28 0 -56 5t-50.5 19.5t-36 41t-13.5 69.5zM35 706h105l45 -73l48 73h104l-85 -132h-132z" />
<glyph unicode="&#x178;" horiz-adv-x="417" d="M1 706h137l72 -356l69 356h137l-141 -497v-209h-133v218zM51 762v121h117v-121h-117zM253 762v121h116v-121h-116z" />
<glyph unicode="&#x17d;" horiz-adv-x="417" d="M23 0v82l225 515h-196v109h344v-70l-231 -526h227v-110h-369zM72 895h105l45 -74l48 74h104l-85 -133h-132z" />
<glyph unicode="&#x17e;" horiz-adv-x="354" d="M24 0v100l179 316h-160v96h282v-96l-177 -316h185v-100h-309zM35 706h105l45 -73l48 73h104l-85 -132h-132z" />
<glyph unicode="&#x192;" horiz-adv-x="354" d="M-6 -160l12 97q7 -1 12.5 -1h12.5q12 0 19 4t10.5 9.5t5 11.5t1.5 10l52 462h-52l9 79h53l6 56q2 20 9 39t22.5 34t41 24t64.5 9q12 0 28.5 -0.5t22.5 -0.5l-11 -98q-8 1 -13 1h-13q-12 0 -18.5 -4t-10 -10t-5 -12t-1.5 -10l-3 -28h52l-9 -79h-53l-55 -488 q-4 -35 -17.5 -56.5t-33.5 -32.5t-44.5 -14.5t-51.5 -3.5q-11 0 -20.5 0.5t-21.5 1.5z" />
<glyph unicode="&#x2c6;" horiz-adv-x="250" d="M-26 574l86 132h129l87 -132h-105l-44 73l-48 -73h-105z" />
<glyph unicode="&#x2c7;" horiz-adv-x="250" d="M-26 706h105l45 -73l48 73h104l-85 -132h-132z" />
<glyph unicode="&#x2d8;" horiz-adv-x="250" d="M-19 706h80q2 -5 6 -13.5t11.5 -16.5t19.5 -14t31 -6q29 0 43.5 15t20.5 35h77q-3 -12 -9.5 -34t-22 -43t-42 -37t-69.5 -16q-45 0 -72 16t-43 37t-22 43t-9 34z" />
<glyph unicode="&#x2d9;" horiz-adv-x="250" d="M56 574v132h138v-132h-138z" />
<glyph unicode="&#x2da;" horiz-adv-x="250" d="M35 661q0 19 7 35.5t19.5 28.5t28.5 19t34 7t34.5 -7t29 -19t19.5 -28.5t7 -36.5q0 -18 -7 -34t-19 -28t-28.5 -19t-35.5 -7q-37 0 -63 26t-26 63zM83 660q0 -17 12 -29t29 -12t29 12t12 30q0 17 -12 28.5t-29 11.5t-29 -12t-12 -29z" />
<glyph unicode="&#x2db;" horiz-adv-x="250" d="M47 -101q0 29 15 52t38 49h93q-7 -5 -16.5 -14t-18.5 -18.5t-15 -20t-6 -18.5q0 -10 4 -15t10 -7.5t12.5 -3t11.5 -0.5h28v-84h-52q-37 0 -56.5 6t-34.5 28q-10 14 -11.5 28t-1.5 18z" />
<glyph unicode="&#x2dc;" horiz-adv-x="250" d="M-27 573q0 23 5 46t15.5 41t27.5 29.5t42 11.5q18 0 35.5 -6.5t33.5 -14.5t30.5 -14.5t26.5 -6.5t19.5 8.5t10.5 31.5h58q0 -22 -2.5 -44.5t-11 -41.5t-23.5 -31t-40 -12q-17 0 -36 6.5t-37 15t-33 15t-24 6.5q-30 0 -37 -40h-60z" />
<glyph unicode="&#x2dd;" horiz-adv-x="250" d="M-48 574l58 132h134l-121 -132h-71zM106 574l58 132h134l-121 -132h-71z" />
<glyph unicode="&#x37e;" horiz-adv-x="229" d="M67 -135l71 135h-63v130h119v-130l-82 -135h-45zM75 382v130h119v-130h-119z" />
<glyph unicode="&#x394;" horiz-adv-x="505" d="M2 0l188 706h128l184 -706h-500zM160 105h183l-91 400z" />
<glyph unicode="&#x3a9;" horiz-adv-x="522" d="M45 0v93h118q-48 33 -75.5 101t-27.5 159v161q0 58 12.5 96.5t38 62t63 33.5t87.5 10q51 0 88.5 -10t62.5 -33.5t37.5 -62.5t12.5 -97v-160q0 -93 -26 -159t-77 -101h118v-93h-194v95q12 12 21 26.5t15 38.5t9 62.5t3 98.5v192q0 35 -4 56.5t-12.5 33t-21.5 15.5t-32 4 q-18 0 -31 -4t-22 -15.5t-13 -33t-4 -56.5v-192q0 -56 2.5 -93.5t8 -63t15 -41t23.5 -28.5v-95h-195z" />
<glyph unicode="&#x3bc;" horiz-adv-x="417" d="M44 -177v689h120v-384q0 -46 43 -46q46 0 46 57v373h120v-422q0 -40 4.5 -59.5t18.5 -30.5h-137l-3 42q-11 -24 -23.5 -34t-31.5 -10q-11 0 -19 3.5t-18 12.5v-191h-120z" />
<glyph unicode="&#x3c0;" horiz-adv-x="483" d="M37 421v91h398v-91h-34v-278q0 -39 8.5 -48t32.5 -9h4v-86q-14 -1 -22.5 -1h-14.5q-65 0 -95.5 26t-30.5 88v308h-92v-421h-119v421h-35z" />
<glyph unicode="&#x2013;" horiz-adv-x="421" d="M33 243v98h355v-98h-355z" />
<glyph unicode="&#x2014;" horiz-adv-x="626" d="M33 242v99h560v-99h-560z" />
<glyph unicode="&#x2018;" horiz-adv-x="187" d="M34 438v134l75 134h43l-61 -134h61v-134h-118z" />
<glyph unicode="&#x2019;" horiz-adv-x="187" d="M25 438l69 135h-62v133h118v-133l-80 -135h-45z" />
<glyph unicode="&#x201a;" horiz-adv-x="187" d="M25 -135l69 135h-59v129h118v-129l-83 -135h-45z" />
<glyph unicode="&#x201c;" horiz-adv-x="375" d="M33 440v130l85 136h46l-74 -136h62v-130h-119zM217 440v130l79 136h47l-68 -136h61v-130h-119z" />
<glyph unicode="&#x201d;" horiz-adv-x="375" d="M30 440l68 136h-61v130h119v-130l-79 -136h-47zM209 440l74 136h-62v130h119v-130l-85 -136h-46z" />
<glyph unicode="&#x201e;" horiz-adv-x="375" d="M38 0v130h118v-130l-70 -137h-43l58 137h-63zM219 0v130h118v-130l-73 -137h-45l64 137h-64z" />
<glyph unicode="&#x2020;" horiz-adv-x="437" d="M43 384v124h116v198h119v-198h115v-124h-115v-497h-119v497h-116z" />
<glyph unicode="&#x2021;" horiz-adv-x="437" d="M43 92v124h116v188h-116v124h116v178h119v-178h115v-124h-115v-188h115v-124h-115v-205h-119v205h-116z" />
<glyph unicode="&#x2022;" horiz-adv-x="333" d="M51 214v276h231v-276h-231z" />
<glyph unicode="&#x2026;" horiz-adv-x="1000" d="M113 0v125h107v-125h-107zM447 0v125h106v-125h-106zM780 0v125h106v-125h-106z" />
<glyph unicode="&#x2030;" horiz-adv-x="1000" d="M26 328v226q0 35 9.5 57.5t25.5 35.5t37.5 18.5t46.5 5.5q57 0 89 -25t32 -85v-235q0 -51 -30 -79.5t-88 -28.5q-25 0 -47.5 4.5t-39 17t-26 34t-9.5 54.5zM106 320q0 -20 9 -29t31 -9q18 0 28.5 8.5t10.5 34.5v237q0 20 -5.5 33.5t-33.5 13.5q-15 0 -23 -4t-11.5 -11 t-4.5 -15.5t-1 -17.5v-241zM190 -23l266 738l63 -23l-265 -737zM443 104v226q0 35 9.5 57.5t25.5 35.5t37.5 18.5t46.5 5.5q57 0 89 -25t32 -85v-235q0 -51 -30 -79.5t-88 -28.5q-25 0 -47.5 4.5t-39 17t-26 34t-9.5 54.5zM523 96q0 -20 9 -29t31 -9q18 0 28.5 8.5 t10.5 34.5v237q0 20 -5.5 33.5t-33.5 13.5q-15 0 -23 -4t-11.5 -11t-4.5 -15.5t-1 -17.5v-241zM734 104v226q0 35 9.5 57.5t25.5 35.5t37.5 18.5t46.5 5.5q57 0 89 -25t32 -85v-235q0 -51 -30 -79.5t-88 -28.5q-25 0 -47.5 4.5t-39 17t-26 34t-9.5 54.5zM814 96q0 -20 9 -29 t31 -9q18 0 28.5 8.5t10.5 34.5v237q0 20 -5.5 33.5t-33.5 13.5q-15 0 -23 -4t-11.5 -11t-4.5 -15.5t-1 -17.5v-241z" />
<glyph unicode="&#x2039;" horiz-adv-x="167" d="M31 220v92l101 97v-97l-39 -45l39 -40v-100z" />
<glyph unicode="&#x203a;" horiz-adv-x="167" d="M34 127v97l43 45l-43 42v98l102 -94v-94z" />
<glyph unicode="&#x2044;" horiz-adv-x="125" d="M-102 -23l264 738l65 -23l-266 -737z" />
<glyph unicode="&#x20ac;" horiz-adv-x="481" d="M31 368l15 68h46v63q0 22 1 43t6 41t14.5 38.5t27.5 33.5q32 28 73 37t82 9t77 -7t72 -27l-26 -109q-26 23 -50 33.5t-59 10.5q-30 0 -47.5 -8.5t-26.5 -24.5t-11 -38t-2 -48v-47h167l-15 -67h-152v-49h139l-14 -67h-125v-63q0 -25 3.5 -44t13.5 -32t27.5 -19.5 t45.5 -6.5q21 0 38.5 3t32.5 9.5t29.5 17t30.5 24.5v-124q-36 -20 -78.5 -26.5t-83.5 -6.5q-69 0 -107 18t-56.5 49.5t-22.5 75t-4 94.5v31h-59l14 67h45v48h-61z" />
<glyph unicode="&#x2122;" horiz-adv-x="627" d="M9 638v68h231v-68h-73v-264h-81v264h-77zM269 374v332h115l42 -195l40 195h114v-332h-71q0 17 0.5 58t0.5 85v110l-52 -253h-63l-57 257q1 -64 2 -117q0 -22 0.5 -44.5t1 -42t0.5 -33.5v-20h-73z" />
<glyph unicode="&#x2202;" horiz-adv-x="474" d="M37 213q0 51 12.5 92t35 70.5t54.5 45.5t71 16q32 0 59 -11.5t51 -37.5q0 9 0.5 14t0.5 10q0 107 -24.5 157.5t-83.5 50.5q-15 0 -29 -2t-39 -9l-8 95q26 7 47.5 9.5t44.5 2.5q107 0 158 -78t51 -244q0 -96 -13 -171t-39 -127t-65.5 -79.5t-92.5 -27.5q-43 0 -78.5 16 t-60.5 45.5t-38.5 70.5t-13.5 92zM148 212q0 -60 21.5 -96.5t57.5 -36.5q20 0 35.5 15.5t26 43t15.5 66t5 84.5q-38 56 -85 56q-35 0 -55.5 -35.5t-20.5 -96.5z" />
<glyph unicode="&#x2206;" horiz-adv-x="505" d="M2 0l188 706h128l184 -706h-500zM160 105h183l-91 400z" />
<glyph unicode="&#x220f;" horiz-adv-x="552" d="M64 -122v828h424v-828h-126v721h-171v-721h-127z" />
<glyph unicode="&#x2211;" horiz-adv-x="463" d="M35 -22l182 327l-182 303v98h389v-107h-240l183 -290l-188 -322h245v-109h-389v100z" />
<glyph unicode="&#x221a;" horiz-adv-x="559" d="M31 158l173 64l72 -230l133 714h118l-183 -891h-126l-92 273l-60 -24z" />
<glyph unicode="&#x221e;" horiz-adv-x="559" d="M7 287q0 41 10 76t29 60t45 39t58 14q38 0 69.5 -21.5t64.5 -75.5q32 51 65 74t76 23q58 0 93 -47t35 -123q0 -42 -10 -77.5t-28 -60.5t-44 -39t-58 -14q-42 0 -73.5 21t-65.5 74l-8 -10q-33 -51 -63.5 -67.5t-64.5 -16.5q-62 0 -96 46t-34 125zM101 292 q0 -32 11.5 -52.5t30.5 -20.5q17 0 32.5 15.5t43.5 59.5q-25 45 -39.5 61t-31.5 16q-21 0 -34 -22t-13 -57zM330 294q26 -45 41.5 -61t31.5 -16q21 0 34 22t13 57q0 33 -12 53t-32 20q-8 0 -15.5 -3.5t-16 -12t-19.5 -23t-25 -36.5z" />
<glyph unicode="&#x222b;" horiz-adv-x="299" d="M8 -54q15 -11 24.5 -14.5t20.5 -3.5q37 0 37 46v584q0 37 6 66.5t20 50.5t38.5 32t60.5 11q16 0 30 -3.5t34 -11.5v-107q-14 11 -24 15t-21 4q-8 0 -14 -2t-10.5 -9t-7 -20t-2.5 -35v-566q0 -76 -29 -117t-98 -41q-19 0 -32 2.5t-33 9.5v109z" />
<glyph unicode="&#x2248;" horiz-adv-x="563" d="M56 218q35 42 64.5 58t66.5 16q16 0 32 -3.5t42 -13.5l51 -20q23 -9 34.5 -11.5t21.5 -2.5q22 0 39.5 11t40.5 41l59 -86q-31 -39 -60.5 -56.5t-64.5 -17.5q-22 0 -41.5 4.5t-52.5 17.5l-26 11q-23 10 -39.5 14.5t-30.5 4.5q-25 0 -41 -12.5t-37 -41.5zM56 406 q35 42 64.5 58t66.5 16q16 0 32 -3.5t42 -13.5l51 -20q23 -9 34.5 -11.5t21.5 -2.5q22 0 39.5 11t40.5 41l59 -86q-31 -39 -60.5 -56.5t-64.5 -17.5q-22 0 -41.5 4.5t-52.5 17.5l-26 11q-23 10 -39.5 14.5t-30.5 4.5q-25 0 -41 -12.5t-37 -41.5z" />
<glyph unicode="&#x2260;" horiz-adv-x="559" d="M85 161v99h131l39 93h-170v99h210l51 122h90l-53 -122h91v-99h-130l-39 -93h169v-99h-209l-56 -133h-89l56 133h-91z" />
<glyph unicode="&#x2264;" horiz-adv-x="559" d="M89 0v101h360v-101h-360zM89 326v107l360 195v-114l-249 -130l249 -128v-123z" />
<glyph unicode="&#x2265;" horiz-adv-x="559" d="M109 0v101h361v-101h-361zM109 133v114l250 130l-250 128v123l361 -193v-107z" />
<glyph unicode="&#x25ca;" horiz-adv-x="559" d="M72 355l155 351h102l158 -352l-158 -354h-103zM186 354l93 -245l94 247l-93 241z" />
<glyph unicode="&#xe000;" horiz-adv-x="510" d="M0 0v510h510v-510h-510z" />
</font>
</defs>
</svg>
